<svg width="705" height="260" viewBox="0 0 705 260" fill="none" xmlns="http://www.w3.org/2000/svg">
<g clip-path="url(#clip0_949_11155)">
<mask id="mask0_949_11155" style="mask-type:alpha" maskUnits="userSpaceOnUse" x="-344" y="-86" width="768" height="768">
<rect width="768" height="768" transform="translate(-344 -86)" fill="url(#paint0_radial_949_11155)"/>
</mask>
<g mask="url(#mask0_949_11155)">
<g clip-path="url(#clip1_949_11155)">
<g clip-path="url(#clip2_949_11155)">
<line x1="40.5" y1="-86" x2="40.5" y2="682" stroke="#E9EAEB"/>
<line x1="88.5" y1="-86" x2="88.5" y2="682" stroke="#E9EAEB"/>
<line x1="136.5" y1="-86" x2="136.5" y2="682" stroke="#E9EAEB"/>
<line x1="184.5" y1="-86" x2="184.5" y2="682" stroke="#E9EAEB"/>
<line x1="232.5" y1="-86" x2="232.5" y2="682" stroke="#E9EAEB"/>
<line x1="280.5" y1="-86" x2="280.5" y2="682" stroke="#E9EAEB"/>
<line x1="328.5" y1="-86" x2="328.5" y2="682" stroke="#E9EAEB"/>
<line x1="376.5" y1="-86" x2="376.5" y2="682" stroke="#E9EAEB"/>
</g>
<rect x="-343.5" y="-85.5" width="767" height="767" stroke="#E9EAEB"/>
<g clip-path="url(#clip3_949_11155)">
<line x1="-344" y1="9.5" x2="424" y2="9.5" stroke="#E9EAEB"/>
<line x1="-344" y1="57.5" x2="424" y2="57.5" stroke="#E9EAEB"/>
<line x1="-344" y1="105.5" x2="424" y2="105.5" stroke="#E9EAEB"/>
<line x1="-344" y1="153.5" x2="424" y2="153.5" stroke="#E9EAEB"/>
<line x1="-344" y1="201.5" x2="424" y2="201.5" stroke="#E9EAEB"/>
<line x1="-344" y1="249.5" x2="424" y2="249.5" stroke="#E9EAEB"/>
</g>
<rect x="-343.5" y="-85.5" width="767" height="767" stroke="#E9EAEB"/>
</g>
</g>
<rect y="149" width="705" height="111" fill="url(#paint1_linear_949_11155)"/>
<path d="M141.675 315.75C146.342 315.75 150.017 317.092 152.7 319.775C155.5 322.342 156.9 325.783 156.9 330.1V356H-16.7V341.65C-16.7 338.733 -16.1167 335.7 -14.95 332.55C-13.6667 329.283 -11.6833 326.367 -9 323.8L67.825 246.8C74.2417 240.267 79.9583 234.025 84.975 228.075C90.1083 222.125 94.3667 216.233 97.75 210.4C101.133 204.567 103.7 198.675 105.45 192.725C107.317 186.658 108.25 180.3 108.25 173.65C108.25 167.583 107.375 162.275 105.625 157.725C103.875 153.058 101.367 149.15 98.1 146C94.95 142.85 91.1 140.517 86.55 139C82.1167 137.367 77.1 136.55 71.5 136.55C66.3667 136.55 61.5833 137.308 57.15 138.825C52.8333 140.225 48.9833 142.267 45.6 144.95C42.2167 147.517 39.3583 150.55 37.025 154.05C34.6917 157.55 32.9417 161.4 31.775 165.6C29.7917 170.967 27.225 174.525 24.075 176.275C20.925 178.025 16.375 178.433 10.425 177.5L-12.325 173.475C-10.575 161.342 -7.19167 150.725 -2.175 141.625C2.84167 132.408 9.08333 124.767 16.55 118.7C24.1333 112.517 32.7667 107.908 42.45 104.875C52.25 101.725 62.75 100.15 73.95 100.15C85.6167 100.15 96.2917 101.9 105.975 105.4C115.658 108.783 123.942 113.625 130.825 119.925C137.708 126.225 143.075 133.808 146.925 142.675C150.775 151.542 152.7 161.4 152.7 172.25C152.7 181.583 151.3 190.217 148.5 198.15C145.817 206.083 142.142 213.667 137.475 220.9C132.925 228.133 127.558 235.133 121.375 241.9C115.192 248.667 108.717 255.55 101.95 262.55L44.9 320.825C50.3833 319.192 55.8083 317.967 61.175 317.15C66.6583 316.217 71.85 315.75 76.75 315.75H141.675ZM297.627 260.625V177.85C297.627 170.033 298.152 161.4 299.202 151.95L220.627 260.625H297.627ZM367.102 260.625V285.65C367.102 287.983 366.344 290.025 364.827 291.775C363.311 293.408 361.152 294.225 358.352 294.225H335.252V356H297.627V294.225H190.877C187.961 294.225 185.394 293.35 183.177 291.6C180.961 289.733 179.561 287.458 178.977 284.775L174.427 262.9L294.302 102.775H335.252V260.625H367.102ZM427.505 356.525C425.521 361.892 422.313 365.917 417.88 368.6C413.563 371.283 409.13 372.625 404.58 372.625H386.205L488.405 111.175C490.271 106.275 493.13 102.542 496.98 99.975C500.83 97.2917 505.321 95.95 510.455 95.95H529.005L427.505 356.525ZM730.192 102.95V121.675C730.192 127.275 729.608 131.825 728.442 135.325C727.275 138.708 726.108 141.567 724.942 143.9L629.042 341.3C627.058 345.383 624.258 348.883 620.642 351.8C617.025 354.6 612.183 356 606.117 356H574.792L672.617 162.625C674.833 158.658 676.992 155.042 679.092 151.775C681.308 148.392 683.758 145.183 686.442 142.15H565.342C562.658 142.15 560.325 141.158 558.342 139.175C556.358 137.192 555.367 134.858 555.367 132.175V102.95H730.192Z" fill="#1E3A8A" fill-opacity="0.09"/>
<g filter="url(#filter0_d_949_11155)">
<rect x="196" y="27" width="309" height="675" rx="30" fill="white" shape-rendering="crispEdges"/>
<rect x="193" y="24" width="315" height="681" rx="33" stroke="#1E3A8A" stroke-opacity="0.75" stroke-width="6" shape-rendering="crispEdges"/>
</g>
<path d="M225.106 99L217 103.687L224.974 108.393L226.577 107.341L220.299 103.655L224.887 101.037L231.061 104.59L232.949 103.696L225.106 99Z" fill="#1E3A8A" fill-opacity="0.75"/>
<path d="M223.095 103.697L227.994 106.443L229.724 105.349L224.863 102.637L223.095 103.697Z" fill="#1E3A8A" fill-opacity="0.75"/>
<path d="M229.605 109.307L229.656 105.324C229.084 105.665 228.511 106.006 227.939 106.348C227.944 106.927 227.95 107.507 227.955 108.086C227.955 108.166 227.956 108.248 227.957 108.328L225.047 110.032L221.725 108.307L221.709 108.316C221.711 108.199 221.713 108.081 221.715 107.963C221.727 107.328 221.739 106.694 221.75 106.059C221.116 105.696 220.482 105.332 219.847 104.969L219.865 109.33L219.914 109.354L224.977 111.994V111.997H224.979L224.99 112.001L226.793 110.94L226.79 110.938L229.462 109.378L229.605 109.307Z" fill="#1E3A8A"/>
<path d="M242.119 111V100.818H248.502V102.141H243.655V105.243H248.169V106.56H243.655V109.678H248.562V111H242.119ZM253.294 111.149C252.677 111.149 252.127 110.992 251.643 110.677C251.162 110.359 250.785 109.906 250.509 109.32C250.238 108.73 250.102 108.022 250.102 107.197C250.102 106.371 250.239 105.665 250.514 105.079C250.793 104.492 251.174 104.043 251.658 103.732C252.142 103.42 252.69 103.264 253.303 103.264C253.777 103.264 254.159 103.344 254.447 103.503C254.739 103.659 254.964 103.841 255.123 104.05C255.285 104.259 255.411 104.442 255.501 104.602H255.59V100.818H257.077V111H255.625V109.812H255.501C255.411 109.974 255.282 110.16 255.113 110.369C254.947 110.577 254.719 110.76 254.427 110.915C254.135 111.071 253.758 111.149 253.294 111.149ZM253.622 109.881C254.049 109.881 254.41 109.769 254.705 109.543C255.004 109.315 255.229 108.998 255.382 108.594C255.537 108.189 255.615 107.719 255.615 107.182C255.615 106.652 255.539 106.187 255.387 105.79C255.234 105.392 255.01 105.082 254.715 104.86C254.42 104.638 254.056 104.527 253.622 104.527C253.174 104.527 252.801 104.643 252.503 104.875C252.205 105.107 251.979 105.424 251.827 105.825C251.678 106.226 251.603 106.678 251.603 107.182C251.603 107.692 251.679 108.151 251.832 108.559C251.984 108.967 252.21 109.29 252.508 109.528C252.81 109.764 253.181 109.881 253.622 109.881ZM264.036 107.833V103.364H265.527V111H264.066V109.678H263.986C263.81 110.085 263.529 110.425 263.141 110.697C262.757 110.965 262.278 111.099 261.704 111.099C261.214 111.099 260.779 110.992 260.402 110.776C260.027 110.558 259.732 110.234 259.517 109.807C259.305 109.379 259.199 108.851 259.199 108.221V103.364H260.685V108.042C260.685 108.562 260.829 108.977 261.118 109.285C261.406 109.593 261.78 109.747 262.241 109.747C262.52 109.747 262.796 109.678 263.071 109.538C263.35 109.399 263.58 109.189 263.762 108.907C263.948 108.625 264.039 108.267 264.036 107.833ZM273.197 103.493C273.144 103.022 272.925 102.658 272.541 102.399C272.157 102.137 271.673 102.006 271.089 102.006C270.672 102.006 270.31 102.073 270.006 102.205C269.701 102.335 269.464 102.513 269.295 102.742C269.129 102.968 269.046 103.224 269.046 103.513C269.046 103.755 269.102 103.964 269.215 104.139C269.331 104.315 269.482 104.462 269.667 104.582C269.856 104.698 270.059 104.795 270.274 104.875C270.489 104.951 270.697 105.014 270.895 105.064L271.89 105.322C272.215 105.402 272.548 105.51 272.889 105.646C273.23 105.781 273.547 105.96 273.839 106.183C274.13 106.405 274.366 106.68 274.545 107.008C274.727 107.336 274.818 107.729 274.818 108.186C274.818 108.763 274.669 109.275 274.371 109.722C274.076 110.17 273.646 110.523 273.083 110.781C272.523 111.04 271.845 111.169 271.05 111.169C270.287 111.169 269.628 111.048 269.071 110.806C268.514 110.564 268.078 110.221 267.763 109.777C267.448 109.33 267.274 108.799 267.241 108.186H268.782C268.812 108.554 268.932 108.861 269.14 109.106C269.353 109.348 269.623 109.528 269.951 109.648C270.282 109.764 270.645 109.822 271.04 109.822C271.474 109.822 271.86 109.754 272.198 109.618C272.539 109.479 272.808 109.286 273.003 109.041C273.199 108.793 273.297 108.503 273.297 108.171C273.297 107.87 273.211 107.623 273.038 107.43C272.869 107.238 272.639 107.079 272.347 106.953C272.059 106.827 271.732 106.716 271.368 106.62L270.165 106.292C269.349 106.07 268.703 105.743 268.226 105.312C267.752 104.882 267.515 104.312 267.515 103.602C267.515 103.016 267.674 102.504 267.992 102.066C268.31 101.629 268.741 101.289 269.285 101.047C269.828 100.802 270.441 100.679 271.124 100.679C271.814 100.679 272.422 100.8 272.949 101.042C273.479 101.284 273.897 101.617 274.202 102.041C274.506 102.462 274.666 102.946 274.679 103.493H273.197ZM276.534 111V103.364H278.021V111H276.534ZM277.285 102.185C277.027 102.185 276.805 102.099 276.619 101.927C276.437 101.751 276.346 101.542 276.346 101.3C276.346 101.055 276.437 100.846 276.619 100.674C276.805 100.498 277.027 100.411 277.285 100.411C277.544 100.411 277.764 100.498 277.946 100.674C278.132 100.846 278.225 101.055 278.225 101.3C278.225 101.542 278.132 101.751 277.946 101.927C277.764 102.099 277.544 102.185 277.285 102.185ZM283.222 114.023C282.616 114.023 282.094 113.943 281.656 113.784C281.222 113.625 280.868 113.415 280.593 113.153C280.317 112.891 280.112 112.604 279.976 112.293L281.254 111.766C281.343 111.911 281.463 112.066 281.612 112.228C281.764 112.394 281.97 112.535 282.228 112.651C282.49 112.767 282.826 112.825 283.237 112.825C283.801 112.825 284.267 112.687 284.634 112.412C285.002 112.14 285.186 111.706 285.186 111.109V109.608H285.092C285.002 109.77 284.873 109.951 284.704 110.15C284.538 110.349 284.31 110.521 284.018 110.667C283.726 110.813 283.347 110.886 282.879 110.886C282.276 110.886 281.733 110.745 281.249 110.463C280.768 110.178 280.387 109.759 280.105 109.205C279.827 108.648 279.688 107.964 279.688 107.152C279.688 106.34 279.825 105.644 280.1 105.064C280.379 104.484 280.76 104.04 281.244 103.732C281.728 103.42 282.276 103.264 282.889 103.264C283.363 103.264 283.746 103.344 284.038 103.503C284.329 103.659 284.557 103.841 284.719 104.05C284.885 104.259 285.012 104.442 285.102 104.602H285.211V103.364H286.668V111.169C286.668 111.825 286.515 112.364 286.21 112.785C285.905 113.206 285.493 113.517 284.972 113.719C284.455 113.922 283.872 114.023 283.222 114.023ZM283.208 109.653C283.635 109.653 283.996 109.553 284.291 109.354C284.59 109.152 284.815 108.864 284.968 108.489C285.123 108.112 285.201 107.659 285.201 107.132C285.201 106.618 285.125 106.166 284.972 105.775C284.82 105.384 284.596 105.079 284.301 104.86C284.006 104.638 283.642 104.527 283.208 104.527C282.76 104.527 282.387 104.643 282.089 104.875C281.791 105.104 281.565 105.415 281.413 105.81C281.264 106.204 281.189 106.645 281.189 107.132C281.189 107.633 281.265 108.072 281.418 108.45C281.57 108.827 281.796 109.122 282.094 109.335C282.396 109.547 282.767 109.653 283.208 109.653ZM290.148 106.466V111H288.661V100.818H290.128V104.607H290.222C290.401 104.196 290.675 103.869 291.043 103.627C291.411 103.385 291.891 103.264 292.485 103.264C293.008 103.264 293.466 103.372 293.857 103.587C294.251 103.803 294.556 104.124 294.771 104.552C294.99 104.976 295.1 105.506 295.1 106.143V111H293.613V106.322C293.613 105.762 293.469 105.327 293.181 105.019C292.892 104.708 292.491 104.552 291.977 104.552C291.626 104.552 291.311 104.626 291.033 104.776C290.758 104.925 290.541 105.143 290.382 105.432C290.226 105.717 290.148 106.062 290.148 106.466ZM300.648 103.364V104.557H296.477V103.364H300.648ZM297.595 101.534H299.082V108.758C299.082 109.046 299.125 109.263 299.211 109.409C299.297 109.552 299.408 109.649 299.544 109.702C299.683 109.752 299.834 109.777 299.997 109.777C300.116 109.777 300.22 109.769 300.31 109.752C300.399 109.736 300.469 109.722 300.519 109.712L300.787 110.94C300.701 110.973 300.578 111.007 300.419 111.04C300.26 111.076 300.061 111.096 299.823 111.099C299.432 111.106 299.067 111.036 298.729 110.891C298.391 110.745 298.117 110.519 297.909 110.214C297.7 109.91 297.595 109.527 297.595 109.066V101.534ZM314.573 104.129H313.022C312.963 103.798 312.852 103.506 312.689 103.254C312.527 103.002 312.328 102.789 312.093 102.613C311.857 102.437 311.594 102.305 311.302 102.215C311.014 102.126 310.707 102.081 310.382 102.081C309.796 102.081 309.27 102.228 308.806 102.523C308.346 102.818 307.981 103.251 307.713 103.821C307.447 104.391 307.315 105.087 307.315 105.909C307.315 106.738 307.447 107.437 307.713 108.007C307.981 108.577 308.347 109.008 308.811 109.3C309.275 109.591 309.797 109.737 310.377 109.737C310.699 109.737 311.004 109.694 311.292 109.608C311.584 109.518 311.847 109.388 312.083 109.215C312.318 109.043 312.517 108.832 312.679 108.584C312.845 108.332 312.959 108.044 313.022 107.719L314.573 107.724C314.49 108.224 314.33 108.685 314.091 109.106C313.856 109.523 313.552 109.885 313.181 110.19C312.813 110.491 312.392 110.725 311.919 110.891C311.445 111.056 310.927 111.139 310.367 111.139C309.486 111.139 308.7 110.93 308.011 110.513C307.321 110.092 306.778 109.49 306.38 108.708C305.986 107.926 305.789 106.993 305.789 105.909C305.789 104.822 305.987 103.889 306.385 103.11C306.783 102.328 307.326 101.728 308.016 101.31C308.705 100.889 309.489 100.679 310.367 100.679C310.908 100.679 311.411 100.757 311.879 100.913C312.349 101.065 312.772 101.29 313.146 101.589C313.521 101.884 313.831 102.245 314.076 102.673C314.321 103.097 314.487 103.582 314.573 104.129ZM317.779 106.466V111H316.292V100.818H317.759V104.607H317.853C318.032 104.196 318.306 103.869 318.674 103.627C319.042 103.385 319.522 103.264 320.115 103.264C320.639 103.264 321.096 103.372 321.488 103.587C321.882 103.803 322.187 104.124 322.402 104.552C322.621 104.976 322.73 105.506 322.73 106.143V111H321.244V106.322C321.244 105.762 321.1 105.327 320.811 105.019C320.523 104.708 320.122 104.552 319.608 104.552C319.257 104.552 318.942 104.626 318.664 104.776C318.389 104.925 318.172 105.143 318.012 105.432C317.857 105.717 317.779 106.062 317.779 106.466ZM326.936 111.169C326.453 111.169 326.015 111.08 325.624 110.901C325.233 110.718 324.923 110.455 324.694 110.11C324.469 109.765 324.356 109.343 324.356 108.842C324.356 108.411 324.439 108.057 324.605 107.778C324.77 107.5 324.994 107.28 325.276 107.117C325.558 106.955 325.873 106.832 326.221 106.749C326.569 106.666 326.923 106.603 327.284 106.56C327.742 106.507 328.113 106.464 328.398 106.431C328.683 106.395 328.89 106.337 329.02 106.257C329.149 106.178 329.213 106.048 329.213 105.869V105.835C329.213 105.4 329.091 105.064 328.846 104.825C328.604 104.587 328.242 104.467 327.762 104.467C327.261 104.467 326.867 104.578 326.578 104.8C326.293 105.019 326.096 105.263 325.987 105.531L324.59 105.213C324.756 104.749 324.998 104.375 325.316 104.089C325.637 103.801 326.007 103.592 326.424 103.463C326.842 103.33 327.281 103.264 327.742 103.264C328.047 103.264 328.37 103.301 328.711 103.374C329.056 103.443 329.377 103.572 329.676 103.761C329.977 103.95 330.224 104.22 330.417 104.572C330.609 104.92 330.705 105.372 330.705 105.929V111H329.253V109.956H329.194C329.097 110.148 328.953 110.337 328.761 110.523C328.569 110.708 328.322 110.862 328.02 110.985C327.719 111.108 327.357 111.169 326.936 111.169ZM327.26 109.976C327.671 109.976 328.022 109.895 328.314 109.732C328.609 109.57 328.832 109.358 328.985 109.096C329.141 108.831 329.218 108.547 329.218 108.246V107.261C329.165 107.314 329.063 107.364 328.91 107.411C328.761 107.454 328.59 107.492 328.398 107.525C328.206 107.555 328.019 107.583 327.836 107.609C327.654 107.633 327.502 107.652 327.379 107.669C327.091 107.705 326.827 107.767 326.588 107.853C326.353 107.939 326.164 108.063 326.022 108.226C325.882 108.385 325.813 108.597 325.813 108.862C325.813 109.23 325.949 109.509 326.221 109.697C326.492 109.883 326.839 109.976 327.26 109.976ZM336.249 103.364V104.557H332.078V103.364H336.249ZM333.197 101.534H334.683V108.758C334.683 109.046 334.727 109.263 334.813 109.409C334.899 109.552 335.01 109.649 335.146 109.702C335.285 109.752 335.436 109.777 335.598 109.777C335.718 109.777 335.822 109.769 335.911 109.752C336.001 109.736 336.07 109.722 336.12 109.712L336.389 110.94C336.302 110.973 336.18 111.007 336.021 111.04C335.862 111.076 335.663 111.096 335.424 111.099C335.033 111.106 334.669 111.036 334.33 110.891C333.992 110.745 333.719 110.519 333.51 110.214C333.301 109.91 333.197 109.527 333.197 109.066V101.534Z" fill="#414651"/>
<path d="M236.128 156.448V160H222.576V136.864H226.88V156.448H236.128ZM244.997 143.328C246.213 143.328 247.317 143.525 248.309 143.92C249.312 144.315 250.165 144.875 250.869 145.6C251.584 146.325 252.133 147.211 252.517 148.256C252.901 149.301 253.093 150.469 253.093 151.76C253.093 153.061 252.901 154.235 252.517 155.28C252.133 156.325 251.584 157.216 250.869 157.952C250.165 158.688 249.312 159.253 248.309 159.648C247.317 160.043 246.213 160.24 244.997 160.24C243.771 160.24 242.656 160.043 241.653 159.648C240.651 159.253 239.792 158.688 239.077 157.952C238.373 157.216 237.824 156.325 237.429 155.28C237.045 154.235 236.853 153.061 236.853 151.76C236.853 150.469 237.045 149.301 237.429 148.256C237.824 147.211 238.373 146.325 239.077 145.6C239.792 144.875 240.651 144.315 241.653 143.92C242.656 143.525 243.771 143.328 244.997 143.328ZM244.997 157.2C246.363 157.2 247.371 156.741 248.021 155.824C248.683 154.907 249.013 153.563 249.013 151.792C249.013 150.021 248.683 148.672 248.021 147.744C247.371 146.816 246.363 146.352 244.997 146.352C243.611 146.352 242.581 146.821 241.909 147.76C241.248 148.688 240.917 150.032 240.917 151.792C240.917 153.552 241.248 154.896 241.909 155.824C242.581 156.741 243.611 157.2 244.997 157.2ZM259.836 146.432C260.348 145.451 260.956 144.683 261.66 144.128C262.364 143.563 263.196 143.28 264.156 143.28C264.914 143.28 265.522 143.445 265.98 143.776L265.724 146.736C265.671 146.928 265.591 147.067 265.484 147.152C265.388 147.227 265.255 147.264 265.084 147.264C264.924 147.264 264.684 147.237 264.364 147.184C264.055 147.131 263.751 147.104 263.452 147.104C263.015 147.104 262.626 147.168 262.284 147.296C261.943 147.424 261.634 147.611 261.356 147.856C261.09 148.091 260.85 148.379 260.636 148.72C260.434 149.061 260.242 149.451 260.06 149.888V160H256.108V143.584H258.428C258.834 143.584 259.116 143.659 259.276 143.808C259.436 143.947 259.543 144.203 259.596 144.576L259.836 146.432ZM278.153 149.904C278.153 149.392 278.078 148.912 277.929 148.464C277.79 148.005 277.577 147.605 277.289 147.264C277.001 146.923 276.633 146.656 276.185 146.464C275.748 146.261 275.236 146.16 274.649 146.16C273.508 146.16 272.606 146.485 271.945 147.136C271.294 147.787 270.878 148.709 270.697 149.904H278.153ZM270.617 152.288C270.681 153.131 270.83 153.861 271.065 154.48C271.3 155.088 271.609 155.595 271.993 156C272.377 156.395 272.83 156.693 273.353 156.896C273.886 157.088 274.473 157.184 275.113 157.184C275.753 157.184 276.302 157.109 276.761 156.96C277.23 156.811 277.636 156.645 277.977 156.464C278.329 156.283 278.633 156.117 278.889 155.968C279.156 155.819 279.412 155.744 279.657 155.744C279.988 155.744 280.233 155.867 280.393 156.112L281.529 157.552C281.092 158.064 280.601 158.496 280.057 158.848C279.513 159.189 278.942 159.467 278.345 159.68C277.758 159.883 277.156 160.027 276.537 160.112C275.929 160.197 275.337 160.24 274.761 160.24C273.62 160.24 272.558 160.053 271.577 159.68C270.596 159.296 269.742 158.736 269.017 158C268.292 157.253 267.721 156.336 267.305 155.248C266.889 154.149 266.681 152.88 266.681 151.44C266.681 150.32 266.862 149.269 267.225 148.288C267.588 147.296 268.105 146.437 268.777 145.712C269.46 144.976 270.286 144.395 271.257 143.968C272.238 143.541 273.342 143.328 274.569 143.328C275.604 143.328 276.558 143.493 277.433 143.824C278.308 144.155 279.06 144.64 279.689 145.28C280.318 145.909 280.809 146.688 281.161 147.616C281.524 148.533 281.705 149.584 281.705 150.768C281.705 151.365 281.641 151.771 281.513 151.984C281.385 152.187 281.14 152.288 280.777 152.288H270.617ZM284.671 160V143.584H287.087C287.599 143.584 287.935 143.824 288.095 144.304L288.351 145.52C288.639 145.2 288.937 144.907 289.247 144.64C289.567 144.373 289.903 144.144 290.255 143.952C290.617 143.76 291.001 143.611 291.407 143.504C291.823 143.387 292.276 143.328 292.767 143.328C293.801 143.328 294.649 143.611 295.311 144.176C295.983 144.731 296.484 145.472 296.815 146.4C297.071 145.856 297.391 145.392 297.775 145.008C298.159 144.613 298.58 144.293 299.039 144.048C299.497 143.803 299.983 143.621 300.495 143.504C301.017 143.387 301.54 143.328 302.063 143.328C302.969 143.328 303.775 143.467 304.479 143.744C305.183 144.021 305.775 144.427 306.255 144.96C306.735 145.493 307.097 146.144 307.343 146.912C307.599 147.68 307.727 148.56 307.727 149.552V160H303.775V149.552C303.775 148.507 303.545 147.723 303.087 147.2C302.628 146.667 301.956 146.4 301.071 146.4C300.665 146.4 300.287 146.469 299.935 146.608C299.593 146.747 299.289 146.949 299.023 147.216C298.767 147.472 298.564 147.797 298.415 148.192C298.265 148.587 298.191 149.04 298.191 149.552V160H294.223V149.552C294.223 148.453 293.999 147.653 293.551 147.152C293.113 146.651 292.468 146.4 291.615 146.4C291.039 146.4 290.5 146.544 289.999 146.832C289.508 147.109 289.049 147.493 288.623 147.984V160H284.671ZM323.361 143.584V160H319.393V143.584H323.361ZM323.905 138.8C323.905 139.141 323.835 139.461 323.697 139.76C323.558 140.059 323.371 140.32 323.137 140.544C322.913 140.768 322.646 140.949 322.337 141.088C322.027 141.216 321.697 141.28 321.345 141.28C321.003 141.28 320.678 141.216 320.369 141.088C320.07 140.949 319.809 140.768 319.585 140.544C319.361 140.32 319.179 140.059 319.041 139.76C318.913 139.461 318.849 139.141 318.849 138.8C318.849 138.448 318.913 138.117 319.041 137.808C319.179 137.499 319.361 137.232 319.585 137.008C319.809 136.784 320.07 136.608 320.369 136.48C320.678 136.341 321.003 136.272 321.345 136.272C321.697 136.272 322.027 136.341 322.337 136.48C322.646 136.608 322.913 136.784 323.137 137.008C323.371 137.232 323.558 137.499 323.697 137.808C323.835 138.117 323.905 138.448 323.905 138.8ZM331.342 155.744C331.79 156.288 332.275 156.672 332.798 156.896C333.331 157.12 333.907 157.232 334.526 157.232C335.123 157.232 335.662 157.12 336.142 156.896C336.622 156.672 337.027 156.331 337.358 155.872C337.699 155.413 337.96 154.837 338.142 154.144C338.323 153.44 338.414 152.613 338.414 151.664C338.414 150.704 338.334 149.893 338.174 149.232C338.024 148.56 337.806 148.016 337.518 147.6C337.23 147.184 336.878 146.88 336.462 146.688C336.056 146.496 335.592 146.4 335.07 146.4C334.248 146.4 333.55 146.576 332.974 146.928C332.398 147.269 331.854 147.755 331.342 148.384V155.744ZM331.134 145.824C331.806 145.067 332.568 144.453 333.422 143.984C334.275 143.515 335.278 143.28 336.43 143.28C337.326 143.28 338.142 143.467 338.878 143.84C339.624 144.213 340.264 144.757 340.798 145.472C341.342 146.176 341.758 147.051 342.046 148.096C342.344 149.131 342.494 150.32 342.494 151.664C342.494 152.891 342.328 154.027 341.998 155.072C341.667 156.117 341.192 157.024 340.574 157.792C339.966 158.56 339.224 159.163 338.35 159.6C337.486 160.027 336.515 160.24 335.438 160.24C334.52 160.24 333.736 160.101 333.086 159.824C332.435 159.536 331.854 159.141 331.342 158.64V165.36H327.39V143.584H329.806C330.318 143.584 330.654 143.824 330.814 144.304L331.134 145.824ZM355.593 146.784C355.486 146.955 355.374 147.077 355.257 147.152C355.14 147.216 354.99 147.248 354.809 147.248C354.617 147.248 354.409 147.195 354.185 147.088C353.972 146.981 353.721 146.864 353.433 146.736C353.145 146.597 352.814 146.475 352.441 146.368C352.078 146.261 351.646 146.208 351.145 146.208C350.366 146.208 349.753 146.373 349.305 146.704C348.868 147.035 348.649 147.467 348.649 148C348.649 148.352 348.761 148.651 348.985 148.896C349.22 149.131 349.524 149.339 349.897 149.52C350.281 149.701 350.713 149.867 351.193 150.016C351.673 150.155 352.158 150.309 352.649 150.48C353.15 150.651 353.641 150.848 354.121 151.072C354.601 151.285 355.028 151.563 355.401 151.904C355.785 152.235 356.089 152.635 356.313 153.104C356.548 153.573 356.665 154.139 356.665 154.8C356.665 155.589 356.521 156.32 356.233 156.992C355.956 157.653 355.54 158.229 354.985 158.72C354.43 159.2 353.742 159.579 352.921 159.856C352.11 160.123 351.172 160.256 350.105 160.256C349.54 160.256 348.985 160.203 348.441 160.096C347.908 160 347.39 159.861 346.889 159.68C346.398 159.499 345.94 159.285 345.513 159.04C345.097 158.795 344.729 158.528 344.409 158.24L345.321 156.736C345.438 156.555 345.577 156.416 345.737 156.32C345.897 156.224 346.1 156.176 346.345 156.176C346.59 156.176 346.82 156.245 347.033 156.384C347.257 156.523 347.513 156.672 347.801 156.832C348.089 156.992 348.425 157.141 348.809 157.28C349.204 157.419 349.7 157.488 350.297 157.488C350.766 157.488 351.166 157.435 351.497 157.328C351.838 157.211 352.116 157.061 352.329 156.88C352.553 156.699 352.713 156.491 352.809 156.256C352.916 156.011 352.969 155.76 352.969 155.504C352.969 155.12 352.852 154.805 352.617 154.56C352.393 154.315 352.089 154.101 351.705 153.92C351.332 153.739 350.9 153.579 350.409 153.44C349.929 153.291 349.433 153.131 348.921 152.96C348.42 152.789 347.924 152.592 347.433 152.368C346.953 152.133 346.521 151.84 346.137 151.488C345.764 151.136 345.46 150.704 345.225 150.192C345.001 149.68 344.889 149.061 344.889 148.336C344.889 147.664 345.022 147.024 345.289 146.416C345.556 145.808 345.945 145.28 346.457 144.832C346.98 144.373 347.625 144.011 348.393 143.744C349.172 143.467 350.068 143.328 351.081 143.328C352.212 143.328 353.241 143.515 354.169 143.888C355.097 144.261 355.87 144.752 356.489 145.36L355.593 146.784ZM373.784 143.584V160H371.368C370.845 160 370.514 159.76 370.376 159.28L370.104 157.968C369.432 158.651 368.69 159.205 367.88 159.632C367.069 160.048 366.114 160.256 365.016 160.256C364.12 160.256 363.325 160.107 362.632 159.808C361.949 159.499 361.373 159.067 360.904 158.512C360.434 157.957 360.077 157.301 359.832 156.544C359.597 155.776 359.48 154.933 359.48 154.016V143.584H363.432V154.016C363.432 155.019 363.661 155.797 364.12 156.352C364.589 156.896 365.288 157.168 366.216 157.168C366.898 157.168 367.538 157.019 368.136 156.72C368.733 156.411 369.298 155.989 369.832 155.456V143.584H373.784ZM377.702 160V143.584H380.118C380.63 143.584 380.966 143.824 381.126 144.304L381.382 145.52C381.67 145.2 381.969 144.907 382.278 144.64C382.598 144.373 382.934 144.144 383.286 143.952C383.649 143.76 384.033 143.611 384.438 143.504C384.854 143.387 385.307 143.328 385.798 143.328C386.833 143.328 387.681 143.611 388.342 144.176C389.014 144.731 389.515 145.472 389.846 146.4C390.102 145.856 390.422 145.392 390.806 145.008C391.19 144.613 391.611 144.293 392.07 144.048C392.529 143.803 393.014 143.621 393.526 143.504C394.049 143.387 394.571 143.328 395.094 143.328C396.001 143.328 396.806 143.467 397.51 143.744C398.214 144.021 398.806 144.427 399.286 144.96C399.766 145.493 400.129 146.144 400.374 146.912C400.63 147.68 400.758 148.56 400.758 149.552V160H396.806V149.552C396.806 148.507 396.577 147.723 396.118 147.2C395.659 146.667 394.987 146.4 394.102 146.4C393.697 146.4 393.318 146.469 392.966 146.608C392.625 146.747 392.321 146.949 392.054 147.216C391.798 147.472 391.595 147.797 391.446 148.192C391.297 148.587 391.222 149.04 391.222 149.552V160H387.254V149.552C387.254 148.453 387.03 147.653 386.582 147.152C386.145 146.651 385.499 146.4 384.646 146.4C384.07 146.4 383.531 146.544 383.03 146.832C382.539 147.109 382.081 147.493 381.654 147.984V160H377.702ZM422.6 147.776C422.152 147.232 421.661 146.848 421.128 146.624C420.605 146.4 420.04 146.288 419.432 146.288C418.834 146.288 418.296 146.4 417.816 146.624C417.336 146.848 416.925 147.189 416.584 147.648C416.242 148.096 415.981 148.672 415.8 149.376C415.618 150.069 415.528 150.891 415.528 151.84C415.528 152.8 415.602 153.616 415.752 154.288C415.912 154.949 416.136 155.493 416.424 155.92C416.712 156.336 417.064 156.64 417.48 156.832C417.896 157.013 418.36 157.104 418.872 157.104C419.693 157.104 420.392 156.933 420.968 156.592C421.544 156.251 422.088 155.765 422.6 155.136V147.776ZM426.552 136.224V160H424.136C423.613 160 423.282 159.76 423.144 159.28L422.808 157.696C422.146 158.453 421.384 159.067 420.52 159.536C419.666 160.005 418.669 160.24 417.528 160.24C416.632 160.24 415.81 160.053 415.064 159.68C414.317 159.307 413.672 158.768 413.128 158.064C412.594 157.349 412.178 156.469 411.88 155.424C411.592 154.379 411.448 153.184 411.448 151.84C411.448 150.624 411.613 149.493 411.944 148.448C412.274 147.403 412.749 146.496 413.368 145.728C413.986 144.96 414.728 144.363 415.592 143.936C416.456 143.499 417.426 143.28 418.504 143.28C419.421 143.28 420.205 143.424 420.856 143.712C421.506 144 422.088 144.389 422.6 144.88V136.224H426.552ZM437.716 143.328C438.932 143.328 440.036 143.525 441.028 143.92C442.031 144.315 442.884 144.875 443.588 145.6C444.303 146.325 444.852 147.211 445.236 148.256C445.62 149.301 445.812 150.469 445.812 151.76C445.812 153.061 445.62 154.235 445.236 155.28C444.852 156.325 444.303 157.216 443.588 157.952C442.884 158.688 442.031 159.253 441.028 159.648C440.036 160.043 438.932 160.24 437.716 160.24C436.489 160.24 435.375 160.043 434.372 159.648C433.369 159.253 432.511 158.688 431.796 157.952C431.092 157.216 430.543 156.325 430.148 155.28C429.764 154.235 429.572 153.061 429.572 151.76C429.572 150.469 429.764 149.301 430.148 148.256C430.543 147.211 431.092 146.325 431.796 145.6C432.511 144.875 433.369 144.315 434.372 143.92C435.375 143.525 436.489 143.328 437.716 143.328ZM437.716 157.2C439.081 157.2 440.089 156.741 440.74 155.824C441.401 154.907 441.732 153.563 441.732 151.792C441.732 150.021 441.401 148.672 440.74 147.744C440.089 146.816 439.081 146.352 437.716 146.352C436.329 146.352 435.3 146.821 434.628 147.76C433.967 148.688 433.636 150.032 433.636 151.792C433.636 153.552 433.967 154.896 434.628 155.824C435.3 156.741 436.329 157.2 437.716 157.2ZM452.827 136.224V160H448.875V136.224H452.827ZM464.029 143.328C465.245 143.328 466.349 143.525 467.341 143.92C468.343 144.315 469.197 144.875 469.901 145.6C470.615 146.325 471.164 147.211 471.549 148.256C471.933 149.301 472.125 150.469 472.125 151.76C472.125 153.061 471.933 154.235 471.549 155.28C471.164 156.325 470.615 157.216 469.901 157.952C469.197 158.688 468.343 159.253 467.341 159.648C466.349 160.043 465.245 160.24 464.029 160.24C462.802 160.24 461.687 160.043 460.685 159.648C459.682 159.253 458.823 158.688 458.109 157.952C457.405 157.216 456.855 156.325 456.461 155.28C456.077 154.235 455.885 153.061 455.885 151.76C455.885 150.469 456.077 149.301 456.461 148.256C456.855 147.211 457.405 146.325 458.109 145.6C458.823 144.875 459.682 144.315 460.685 143.92C461.687 143.525 462.802 143.328 464.029 143.328ZM464.029 157.2C465.394 157.2 466.402 156.741 467.053 155.824C467.714 154.907 468.045 153.563 468.045 151.792C468.045 150.021 467.714 148.672 467.053 147.744C466.402 146.816 465.394 146.352 464.029 146.352C462.642 146.352 461.613 146.821 460.941 147.76C460.279 148.688 459.949 150.032 459.949 151.792C459.949 153.552 460.279 154.896 460.941 155.824C461.613 156.741 462.642 157.2 464.029 157.2ZM478.868 146.432C479.38 145.451 479.988 144.683 480.692 144.128C481.396 143.563 482.228 143.28 483.188 143.28C483.945 143.28 484.553 143.445 485.012 143.776L484.756 146.736C484.702 146.928 484.622 147.067 484.516 147.152C484.42 147.227 484.286 147.264 484.116 147.264C483.956 147.264 483.716 147.237 483.396 147.184C483.086 147.131 482.782 147.104 482.484 147.104C482.046 147.104 481.657 147.168 481.316 147.296C480.974 147.424 480.665 147.611 480.388 147.856C480.121 148.091 479.881 148.379 479.668 148.72C479.465 149.061 479.273 149.451 479.092 149.888V160H475.14V143.584H477.46C477.865 143.584 478.148 143.659 478.308 143.808C478.468 143.947 478.574 144.203 478.628 144.576L478.868 146.432ZM231.968 184.784C231.861 184.955 231.749 185.077 231.632 185.152C231.515 185.216 231.365 185.248 231.184 185.248C230.992 185.248 230.784 185.195 230.56 185.088C230.347 184.981 230.096 184.864 229.808 184.736C229.52 184.597 229.189 184.475 228.816 184.368C228.453 184.261 228.021 184.208 227.52 184.208C226.741 184.208 226.128 184.373 225.68 184.704C225.243 185.035 225.024 185.467 225.024 186C225.024 186.352 225.136 186.651 225.36 186.896C225.595 187.131 225.899 187.339 226.272 187.52C226.656 187.701 227.088 187.867 227.568 188.016C228.048 188.155 228.533 188.309 229.024 188.48C229.525 188.651 230.016 188.848 230.496 189.072C230.976 189.285 231.403 189.563 231.776 189.904C232.16 190.235 232.464 190.635 232.688 191.104C232.923 191.573 233.04 192.139 233.04 192.8C233.04 193.589 232.896 194.32 232.608 194.992C232.331 195.653 231.915 196.229 231.36 196.72C230.805 197.2 230.117 197.579 229.296 197.856C228.485 198.123 227.547 198.256 226.48 198.256C225.915 198.256 225.36 198.203 224.816 198.096C224.283 198 223.765 197.861 223.264 197.68C222.773 197.499 222.315 197.285 221.888 197.04C221.472 196.795 221.104 196.528 220.784 196.24L221.696 194.736C221.813 194.555 221.952 194.416 222.112 194.32C222.272 194.224 222.475 194.176 222.72 194.176C222.965 194.176 223.195 194.245 223.408 194.384C223.632 194.523 223.888 194.672 224.176 194.832C224.464 194.992 224.8 195.141 225.184 195.28C225.579 195.419 226.075 195.488 226.672 195.488C227.141 195.488 227.541 195.435 227.872 195.328C228.213 195.211 228.491 195.061 228.704 194.88C228.928 194.699 229.088 194.491 229.184 194.256C229.291 194.011 229.344 193.76 229.344 193.504C229.344 193.12 229.227 192.805 228.992 192.56C228.768 192.315 228.464 192.101 228.08 191.92C227.707 191.739 227.275 191.579 226.784 191.44C226.304 191.291 225.808 191.131 225.296 190.96C224.795 190.789 224.299 190.592 223.808 190.368C223.328 190.133 222.896 189.84 222.512 189.488C222.139 189.136 221.835 188.704 221.6 188.192C221.376 187.68 221.264 187.061 221.264 186.336C221.264 185.664 221.397 185.024 221.664 184.416C221.931 183.808 222.32 183.28 222.832 182.832C223.355 182.373 224 182.011 224.768 181.744C225.547 181.467 226.443 181.328 227.456 181.328C228.587 181.328 229.616 181.515 230.544 181.888C231.472 182.261 232.245 182.752 232.864 183.36L231.968 184.784ZM240.111 181.584V198H236.143V181.584H240.111ZM240.655 176.8C240.655 177.141 240.585 177.461 240.447 177.76C240.308 178.059 240.121 178.32 239.887 178.544C239.663 178.768 239.396 178.949 239.087 179.088C238.777 179.216 238.447 179.28 238.095 179.28C237.753 179.28 237.428 179.216 237.119 179.088C236.82 178.949 236.559 178.768 236.335 178.544C236.111 178.32 235.929 178.059 235.791 177.76C235.663 177.461 235.599 177.141 235.599 176.8C235.599 176.448 235.663 176.117 235.791 175.808C235.929 175.499 236.111 175.232 236.335 175.008C236.559 174.784 236.82 174.608 237.119 174.48C237.428 174.341 237.753 174.272 238.095 174.272C238.447 174.272 238.777 174.341 239.087 174.48C239.396 174.608 239.663 174.784 239.887 175.008C240.121 175.232 240.308 175.499 240.447 175.808C240.585 176.117 240.655 176.448 240.655 176.8ZM249.612 198.256C248.182 198.256 247.084 197.856 246.316 197.056C245.558 196.245 245.18 195.131 245.18 193.712V184.544H243.5C243.286 184.544 243.105 184.475 242.956 184.336C242.806 184.197 242.732 183.989 242.732 183.712V182.144L245.372 181.712L246.204 177.232C246.257 177.019 246.358 176.853 246.508 176.736C246.657 176.619 246.849 176.56 247.084 176.56H249.132V181.728H253.516V184.544H249.132V193.44C249.132 193.952 249.254 194.352 249.5 194.64C249.756 194.928 250.102 195.072 250.54 195.072C250.785 195.072 250.988 195.045 251.148 194.992C251.318 194.928 251.462 194.864 251.58 194.8C251.708 194.736 251.82 194.677 251.916 194.624C252.012 194.56 252.108 194.528 252.204 194.528C252.321 194.528 252.417 194.56 252.492 194.624C252.566 194.677 252.646 194.763 252.732 194.88L253.916 196.8C253.34 197.28 252.678 197.643 251.932 197.888C251.185 198.133 250.412 198.256 249.612 198.256ZM272.499 190.992C271.358 191.045 270.398 191.147 269.619 191.296C268.84 191.435 268.216 191.616 267.747 191.84C267.278 192.064 266.942 192.325 266.739 192.624C266.536 192.923 266.435 193.248 266.435 193.6C266.435 194.293 266.638 194.789 267.043 195.088C267.459 195.387 267.998 195.536 268.659 195.536C269.47 195.536 270.168 195.392 270.755 195.104C271.352 194.805 271.934 194.357 272.499 193.76V190.992ZM263.443 183.872C265.331 182.144 267.603 181.28 270.259 181.28C271.219 181.28 272.078 181.44 272.835 181.76C273.592 182.069 274.232 182.507 274.755 183.072C275.278 183.627 275.672 184.293 275.939 185.072C276.216 185.851 276.355 186.704 276.355 187.632V198H274.563C274.19 198 273.902 197.947 273.699 197.84C273.496 197.723 273.336 197.493 273.219 197.152L272.867 195.968C272.451 196.341 272.046 196.672 271.651 196.96C271.256 197.237 270.846 197.472 270.419 197.664C269.992 197.856 269.534 198 269.043 198.096C268.563 198.203 268.03 198.256 267.443 198.256C266.75 198.256 266.11 198.165 265.523 197.984C264.936 197.792 264.43 197.509 264.003 197.136C263.576 196.763 263.246 196.299 263.011 195.744C262.776 195.189 262.659 194.544 262.659 193.808C262.659 193.392 262.728 192.981 262.867 192.576C263.006 192.16 263.23 191.765 263.539 191.392C263.859 191.019 264.27 190.667 264.771 190.336C265.272 190.005 265.886 189.717 266.611 189.472C267.347 189.227 268.2 189.029 269.171 188.88C270.142 188.72 271.251 188.624 272.499 188.592V187.632C272.499 186.533 272.264 185.723 271.795 185.2C271.326 184.667 270.648 184.4 269.763 184.4C269.123 184.4 268.59 184.475 268.163 184.624C267.747 184.773 267.379 184.944 267.059 185.136C266.739 185.317 266.446 185.483 266.179 185.632C265.923 185.781 265.635 185.856 265.315 185.856C265.038 185.856 264.803 185.787 264.611 185.648C264.419 185.499 264.264 185.328 264.147 185.136L263.443 183.872ZM280.077 198V181.584H282.493C283.005 181.584 283.341 181.824 283.501 182.304L283.757 183.52C284.045 183.2 284.344 182.907 284.653 182.64C284.973 182.373 285.309 182.144 285.661 181.952C286.024 181.76 286.408 181.611 286.813 181.504C287.229 181.387 287.682 181.328 288.173 181.328C289.208 181.328 290.056 181.611 290.717 182.176C291.389 182.731 291.89 183.472 292.221 184.4C292.477 183.856 292.797 183.392 293.181 183.008C293.565 182.613 293.986 182.293 294.445 182.048C294.904 181.803 295.389 181.621 295.901 181.504C296.424 181.387 296.946 181.328 297.469 181.328C298.376 181.328 299.181 181.467 299.885 181.744C300.589 182.021 301.181 182.427 301.661 182.96C302.141 183.493 302.504 184.144 302.749 184.912C303.005 185.68 303.133 186.56 303.133 187.552V198H299.181V187.552C299.181 186.507 298.952 185.723 298.493 185.2C298.034 184.667 297.362 184.4 296.477 184.4C296.072 184.4 295.693 184.469 295.341 184.608C295 184.747 294.696 184.949 294.429 185.216C294.173 185.472 293.97 185.797 293.821 186.192C293.672 186.587 293.597 187.04 293.597 187.552V198H289.629V187.552C289.629 186.453 289.405 185.653 288.957 185.152C288.52 184.651 287.874 184.4 287.021 184.4C286.445 184.4 285.906 184.544 285.405 184.832C284.914 185.109 284.456 185.493 284.029 185.984V198H280.077ZM317.466 187.904C317.466 187.392 317.391 186.912 317.242 186.464C317.103 186.005 316.89 185.605 316.602 185.264C316.314 184.923 315.946 184.656 315.498 184.464C315.06 184.261 314.548 184.16 313.962 184.16C312.82 184.16 311.919 184.485 311.258 185.136C310.607 185.787 310.191 186.709 310.01 187.904H317.466ZM309.93 190.288C309.994 191.131 310.143 191.861 310.378 192.48C310.612 193.088 310.922 193.595 311.306 194C311.69 194.395 312.143 194.693 312.666 194.896C313.199 195.088 313.786 195.184 314.426 195.184C315.066 195.184 315.615 195.109 316.074 194.96C316.543 194.811 316.948 194.645 317.29 194.464C317.642 194.283 317.946 194.117 318.202 193.968C318.468 193.819 318.724 193.744 318.97 193.744C319.3 193.744 319.546 193.867 319.706 194.112L320.842 195.552C320.404 196.064 319.914 196.496 319.37 196.848C318.826 197.189 318.255 197.467 317.658 197.68C317.071 197.883 316.468 198.027 315.85 198.112C315.242 198.197 314.65 198.24 314.074 198.24C312.932 198.24 311.871 198.053 310.89 197.68C309.908 197.296 309.055 196.736 308.33 196C307.604 195.253 307.034 194.336 306.618 193.248C306.202 192.149 305.993 190.88 305.993 189.44C305.993 188.32 306.175 187.269 306.538 186.288C306.9 185.296 307.418 184.437 308.09 183.712C308.772 182.976 309.599 182.395 310.57 181.968C311.551 181.541 312.655 181.328 313.882 181.328C314.916 181.328 315.871 181.493 316.746 181.824C317.62 182.155 318.372 182.64 319.002 183.28C319.631 183.909 320.122 184.688 320.474 185.616C320.836 186.533 321.017 187.584 321.017 188.768C321.017 189.365 320.954 189.771 320.826 189.984C320.698 190.187 320.452 190.288 320.09 190.288H309.93ZM329.299 198.256C327.87 198.256 326.771 197.856 326.003 197.056C325.246 196.245 324.867 195.131 324.867 193.712V184.544H323.187C322.974 184.544 322.792 184.475 322.643 184.336C322.494 184.197 322.419 183.989 322.419 183.712V182.144L325.059 181.712L325.891 177.232C325.944 177.019 326.046 176.853 326.195 176.736C326.344 176.619 326.536 176.56 326.771 176.56H328.819V181.728H333.203V184.544H328.819V193.44C328.819 193.952 328.942 194.352 329.187 194.64C329.443 194.928 329.79 195.072 330.227 195.072C330.472 195.072 330.675 195.045 330.835 194.992C331.006 194.928 331.15 194.864 331.267 194.8C331.395 194.736 331.507 194.677 331.603 194.624C331.699 194.56 331.795 194.528 331.891 194.528C332.008 194.528 332.104 194.56 332.179 194.624C332.254 194.677 332.334 194.763 332.419 194.88L333.603 196.8C333.027 197.28 332.366 197.643 331.619 197.888C330.872 198.133 330.099 198.256 329.299 198.256ZM335.669 201.92C335.477 201.76 335.381 201.563 335.381 201.328C335.381 201.243 335.408 201.147 335.461 201.04C335.525 200.933 335.6 200.837 335.685 200.752C335.803 200.624 335.947 200.464 336.117 200.272C336.288 200.091 336.459 199.877 336.629 199.632C336.8 199.397 336.955 199.136 337.093 198.848C337.243 198.571 337.355 198.272 337.429 197.952C337.088 197.952 336.779 197.893 336.501 197.776C336.224 197.648 335.984 197.477 335.781 197.264C335.589 197.051 335.435 196.8 335.317 196.512C335.211 196.224 335.157 195.909 335.157 195.568C335.157 195.269 335.211 194.992 335.317 194.736C335.435 194.469 335.595 194.24 335.797 194.048C336 193.845 336.245 193.691 336.533 193.584C336.821 193.467 337.136 193.408 337.477 193.408C337.883 193.408 338.235 193.483 338.533 193.632C338.843 193.771 339.093 193.968 339.285 194.224C339.488 194.469 339.637 194.757 339.733 195.088C339.84 195.408 339.893 195.749 339.893 196.112C339.893 196.624 339.813 197.163 339.653 197.728C339.504 198.293 339.28 198.859 338.981 199.424C338.683 199.989 338.309 200.539 337.861 201.072C337.424 201.605 336.923 202.096 336.357 202.544L335.669 201.92ZM362.775 185.056C362.657 185.205 362.54 185.323 362.423 185.408C362.316 185.493 362.156 185.536 361.943 185.536C361.74 185.536 361.543 185.477 361.351 185.36C361.159 185.232 360.929 185.093 360.663 184.944C360.396 184.784 360.076 184.645 359.703 184.528C359.34 184.4 358.887 184.336 358.343 184.336C357.649 184.336 357.041 184.464 356.519 184.72C355.996 184.965 355.559 185.323 355.207 185.792C354.865 186.261 354.609 186.832 354.439 187.504C354.268 188.165 354.183 188.917 354.183 189.76C354.183 190.635 354.273 191.413 354.455 192.096C354.647 192.779 354.919 193.355 355.271 193.824C355.623 194.283 356.049 194.635 356.551 194.88C357.052 195.115 357.617 195.232 358.247 195.232C358.876 195.232 359.383 195.157 359.767 195.008C360.161 194.848 360.492 194.677 360.759 194.496C361.025 194.304 361.255 194.133 361.447 193.984C361.649 193.824 361.873 193.744 362.119 193.744C362.439 193.744 362.679 193.867 362.839 194.112L363.975 195.552C363.537 196.064 363.063 196.496 362.551 196.848C362.039 197.189 361.505 197.467 360.951 197.68C360.407 197.883 359.841 198.027 359.255 198.112C358.679 198.197 358.103 198.24 357.527 198.24C356.513 198.24 355.559 198.053 354.663 197.68C353.767 197.296 352.983 196.741 352.311 196.016C351.639 195.291 351.105 194.405 350.711 193.36C350.327 192.304 350.135 191.104 350.135 189.76C350.135 188.555 350.305 187.44 350.647 186.416C350.999 185.381 351.511 184.491 352.183 183.744C352.855 182.987 353.687 182.395 354.679 181.968C355.671 181.541 356.812 181.328 358.102 181.328C359.329 181.328 360.401 181.525 361.319 181.92C362.247 182.315 363.079 182.88 363.815 183.616L362.775 185.056ZM373.435 181.328C374.651 181.328 375.755 181.525 376.747 181.92C377.749 182.315 378.603 182.875 379.307 183.6C380.021 184.325 380.571 185.211 380.955 186.256C381.339 187.301 381.531 188.469 381.531 189.76C381.531 191.061 381.339 192.235 380.955 193.28C380.571 194.325 380.021 195.216 379.307 195.952C378.603 196.688 377.749 197.253 376.747 197.648C375.755 198.043 374.651 198.24 373.435 198.24C372.208 198.24 371.093 198.043 370.091 197.648C369.088 197.253 368.229 196.688 367.515 195.952C366.811 195.216 366.261 194.325 365.867 193.28C365.483 192.235 365.291 191.061 365.291 189.76C365.291 188.469 365.483 187.301 365.867 186.256C366.261 185.211 366.811 184.325 367.515 183.6C368.229 182.875 369.088 182.315 370.091 181.92C371.093 181.525 372.208 181.328 373.435 181.328ZM373.435 195.2C374.8 195.2 375.808 194.741 376.459 193.824C377.12 192.907 377.451 191.563 377.451 189.792C377.451 188.021 377.12 186.672 376.459 185.744C375.808 184.816 374.8 184.352 373.435 184.352C372.048 184.352 371.019 184.821 370.347 185.76C369.685 186.688 369.355 188.032 369.355 189.792C369.355 191.552 369.685 192.896 370.347 193.824C371.019 194.741 372.048 195.2 373.435 195.2ZM388.242 183.6C388.572 183.269 388.919 182.965 389.282 182.688C389.655 182.4 390.044 182.16 390.45 181.968C390.866 181.765 391.308 181.611 391.778 181.504C392.247 181.387 392.759 181.328 393.314 181.328C394.21 181.328 395.004 181.483 395.698 181.792C396.391 182.091 396.967 182.517 397.426 183.072C397.895 183.616 398.247 184.272 398.482 185.04C398.727 185.797 398.85 186.635 398.85 187.552V198H394.898V187.552C394.898 186.549 394.668 185.776 394.21 185.232C393.751 184.677 393.052 184.4 392.114 184.4C391.431 184.4 390.791 184.555 390.194 184.864C389.596 185.173 389.031 185.595 388.498 186.128V198H384.546V181.584H386.962C387.474 181.584 387.81 181.824 387.97 182.304L388.242 183.6ZM412.624 184.784C412.518 184.955 412.406 185.077 412.288 185.152C412.171 185.216 412.022 185.248 411.84 185.248C411.648 185.248 411.44 185.195 411.216 185.088C411.003 184.981 410.752 184.864 410.464 184.736C410.176 184.597 409.846 184.475 409.472 184.368C409.11 184.261 408.678 184.208 408.176 184.208C407.398 184.208 406.784 184.373 406.336 184.704C405.899 185.035 405.68 185.467 405.68 186C405.68 186.352 405.792 186.651 406.016 186.896C406.251 187.131 406.555 187.339 406.928 187.52C407.312 187.701 407.744 187.867 408.224 188.016C408.704 188.155 409.19 188.309 409.68 188.48C410.182 188.651 410.672 188.848 411.152 189.072C411.632 189.285 412.059 189.563 412.432 189.904C412.816 190.235 413.12 190.635 413.344 191.104C413.579 191.573 413.696 192.139 413.696 192.8C413.696 193.589 413.552 194.32 413.264 194.992C412.987 195.653 412.571 196.229 412.016 196.72C411.462 197.2 410.774 197.579 409.952 197.856C409.142 198.123 408.203 198.256 407.136 198.256C406.571 198.256 406.016 198.203 405.472 198.096C404.939 198 404.422 197.861 403.92 197.68C403.43 197.499 402.971 197.285 402.544 197.04C402.128 196.795 401.76 196.528 401.44 196.24L402.352 194.736C402.47 194.555 402.608 194.416 402.768 194.32C402.928 194.224 403.131 194.176 403.376 194.176C403.622 194.176 403.851 194.245 404.064 194.384C404.288 194.523 404.544 194.672 404.832 194.832C405.12 194.992 405.456 195.141 405.84 195.28C406.235 195.419 406.731 195.488 407.328 195.488C407.798 195.488 408.198 195.435 408.528 195.328C408.87 195.211 409.147 195.061 409.36 194.88C409.584 194.699 409.744 194.491 409.84 194.256C409.947 194.011 410 193.76 410 193.504C410 193.12 409.883 192.805 409.648 192.56C409.424 192.315 409.12 192.101 408.736 191.92C408.363 191.739 407.931 191.579 407.44 191.44C406.96 191.291 406.464 191.131 405.952 190.96C405.451 190.789 404.955 190.592 404.464 190.368C403.984 190.133 403.552 189.84 403.168 189.488C402.795 189.136 402.491 188.704 402.256 188.192C402.032 187.68 401.92 187.061 401.92 186.336C401.92 185.664 402.054 185.024 402.32 184.416C402.587 183.808 402.976 183.28 403.488 182.832C404.011 182.373 404.656 182.011 405.424 181.744C406.203 181.467 407.099 181.328 408.112 181.328C409.243 181.328 410.272 181.515 411.2 181.888C412.128 182.261 412.902 182.752 413.52 183.36L412.624 184.784ZM427.247 187.904C427.247 187.392 427.172 186.912 427.023 186.464C426.884 186.005 426.671 185.605 426.383 185.264C426.095 184.923 425.727 184.656 425.279 184.464C424.841 184.261 424.329 184.16 423.743 184.16C422.601 184.16 421.7 184.485 421.039 185.136C420.388 185.787 419.972 186.709 419.791 187.904H427.247ZM419.711 190.288C419.775 191.131 419.924 191.861 420.159 192.48C420.393 193.088 420.703 193.595 421.087 194C421.471 194.395 421.924 194.693 422.447 194.896C422.98 195.088 423.567 195.184 424.207 195.184C424.847 195.184 425.396 195.109 425.855 194.96C426.324 194.811 426.729 194.645 427.071 194.464C427.423 194.283 427.727 194.117 427.983 193.968C428.249 193.819 428.505 193.744 428.751 193.744C429.081 193.744 429.327 193.867 429.487 194.112L430.623 195.552C430.185 196.064 429.695 196.496 429.151 196.848C428.607 197.189 428.036 197.467 427.439 197.68C426.852 197.883 426.249 198.027 425.631 198.112C425.023 198.197 424.431 198.24 423.855 198.24C422.713 198.24 421.652 198.053 420.671 197.68C419.689 197.296 418.836 196.736 418.111 196C417.385 195.253 416.815 194.336 416.399 193.248C415.983 192.149 415.775 190.88 415.775 189.44C415.775 188.32 415.956 187.269 416.319 186.288C416.681 185.296 417.199 184.437 417.871 183.712C418.553 182.976 419.38 182.395 420.351 181.968C421.332 181.541 422.436 181.328 423.663 181.328C424.697 181.328 425.652 181.493 426.527 181.824C427.401 182.155 428.153 182.64 428.783 183.28C429.412 183.909 429.903 184.688 430.255 185.616C430.617 186.533 430.799 187.584 430.799 188.768C430.799 189.365 430.735 189.771 430.607 189.984C430.479 190.187 430.233 190.288 429.871 190.288H419.711Z" fill="#181D27"/>
</g>
<defs>
<filter id="filter0_d_949_11155" x="120.7" y="-44.3" width="459.6" height="825.6" filterUnits="userSpaceOnUse" color-interpolation-filters="sRGB">
<feFlood flood-opacity="0" result="BackgroundImageFix"/>
<feColorMatrix in="SourceAlpha" type="matrix" values="0 0 0 0 0 0 0 0 0 0 0 0 0 0 0 0 0 0 127 0" result="hardAlpha"/>
<feMorphology radius="5" operator="dilate" in="SourceAlpha" result="effect1_dropShadow_949_11155"/>
<feOffset dy="4"/>
<feGaussianBlur stdDeviation="32.15"/>
<feComposite in2="hardAlpha" operator="out"/>
<feColorMatrix type="matrix" values="0 0 0 0 0.117647 0 0 0 0 0.227451 0 0 0 0 0.541176 0 0 0 0.13 0"/>
<feBlend mode="normal" in2="BackgroundImageFix" result="effect1_dropShadow_949_11155"/>
<feBlend mode="normal" in="SourceGraphic" in2="effect1_dropShadow_949_11155" result="shape"/>
</filter>
<radialGradient id="paint0_radial_949_11155" cx="0" cy="0" r="1" gradientUnits="userSpaceOnUse" gradientTransform="translate(384 384) rotate(90) scale(384 384)">
<stop/>
<stop offset="1" stop-opacity="0"/>
</radialGradient>
<linearGradient id="paint1_linear_949_11155" x1="353" y1="166.5" x2="352.5" y2="260" gradientUnits="userSpaceOnUse">
<stop stop-color="white" stop-opacity="0"/>
<stop offset="0.768749" stop-color="white"/>
</linearGradient>
<clipPath id="clip0_949_11155">
<rect width="705" height="260" fill="white"/>
</clipPath>
<clipPath id="clip1_949_11155">
<rect width="768" height="768" fill="white" transform="translate(-344 -86)"/>
</clipPath>
<clipPath id="clip2_949_11155">
<rect x="-344" y="-86" width="768" height="768" fill="white"/>
</clipPath>
<clipPath id="clip3_949_11155">
<rect x="-344" y="-86" width="768" height="768" fill="white"/>
</clipPath>
</defs>
</svg>
