<svg width="705" height="260" viewBox="0 0 705 260" fill="none" xmlns="http://www.w3.org/2000/svg">
<g clip-path="url(#clip0_949_11155)">
<mask id="mask0_949_11155" style="mask-type:alpha" maskUnits="userSpaceOnUse" x="-344" y="-86" width="768" height="768">
<rect width="768" height="768" transform="translate(-344 -86)" fill="url(#paint0_radial_949_11155)"/>
</mask>
<g mask="url(#mask0_949_11155)">
<g clip-path="url(#clip1_949_11155)">
<g clip-path="url(#clip2_949_11155)">
<line x1="40.5" y1="-86" x2="40.5" y2="682" stroke="#E9EAEB"/>
<line x1="88.5" y1="-86" x2="88.5" y2="682" stroke="#E9EAEB"/>
<line x1="136.5" y1="-86" x2="136.5" y2="682" stroke="#E9EAEB"/>
<line x1="184.5" y1="-86" x2="184.5" y2="682" stroke="#E9EAEB"/>
<line x1="232.5" y1="-86" x2="232.5" y2="682" stroke="#E9EAEB"/>
<line x1="280.5" y1="-86" x2="280.5" y2="682" stroke="#E9EAEB"/>
<line x1="328.5" y1="-86" x2="328.5" y2="682" stroke="#E9EAEB"/>
<line x1="376.5" y1="-86" x2="376.5" y2="682" stroke="#E9EAEB"/>
</g>
<rect x="-343.5" y="-85.5" width="767" height="767" stroke="#E9EAEB"/>
<g clip-path="url(#clip3_949_11155)">
<line x1="-344" y1="9.5" x2="424" y2="9.5" stroke="#E9EAEB"/>
<line x1="-344" y1="57.5" x2="424" y2="57.5" stroke="#E9EAEB"/>
<line x1="-344" y1="105.5" x2="424" y2="105.5" stroke="#E9EAEB"/>
<line x1="-344" y1="153.5" x2="424" y2="153.5" stroke="#E9EAEB"/>
<line x1="-344" y1="201.5" x2="424" y2="201.5" stroke="#E9EAEB"/>
<line x1="-344" y1="249.5" x2="424" y2="249.5" stroke="#E9EAEB"/>
</g>
<rect x="-343.5" y="-85.5" width="767" height="767" stroke="#E9EAEB"/>
</g>
</g>
<rect y="149" width="705" height="111" fill="url(#paint1_linear_949_11155)"/>
<path d="M492.169 210.9C492.254 211 492.453 211 492.623 211C493.63 211 494.367 210.346 494.551 209.522C494.671 209.011 494.585 208.474 494.311 208.027C494.038 207.579 493.599 207.259 493.091 207.134L486.568 205.471C486.468 205.386 486.284 205.386 486.1 205.386C485.654 205.346 485.21 205.474 484.854 205.745C484.497 206.015 484.254 206.409 484.171 206.85C483.987 207.305 484.086 207.859 484.356 208.328C484.639 208.783 485.093 209.152 485.646 209.252L492.169 210.9ZM503.286 206.295C503.655 207.034 504.279 207.489 505.13 207.489C505.343 207.489 505.555 207.432 505.825 207.361L506.037 207.319L512.192 204.547C512.646 204.362 513.014 203.907 513.199 203.438C513.356 202.924 513.326 202.37 513.113 201.875C512.954 201.519 512.695 201.216 512.368 201.004C512.041 200.792 511.66 200.68 511.27 200.681C510.986 200.681 510.731 200.766 510.448 200.866L504.293 203.623C503.286 204.092 502.818 205.286 503.286 206.295ZM472.6 206.025C472.699 206.111 472.884 206.111 473.068 206.111C473.975 206.111 474.812 205.471 474.996 204.547C475.181 204.092 475.082 203.538 474.812 203.083C474.529 202.614 474.075 202.245 473.522 202.159L466.999 200.496C466.914 200.411 466.715 200.411 466.545 200.411C465.623 200.411 464.801 201.051 464.616 201.974C464.497 202.485 464.583 203.022 464.857 203.47C465.13 203.917 465.569 204.238 466.077 204.362L472.6 206.025ZM453.031 201.136C453.13 201.235 453.315 201.235 453.499 201.235C454.421 201.235 455.243 200.596 455.427 199.672C455.489 199.417 455.499 199.153 455.458 198.894C455.417 198.635 455.325 198.387 455.188 198.164C455.051 197.941 454.871 197.747 454.659 197.593C454.447 197.44 454.207 197.33 453.953 197.27L447.43 195.621C447.345 195.522 447.146 195.522 446.976 195.522C446.525 195.524 446.089 195.68 445.738 195.964C445.388 196.248 445.144 196.644 445.047 197.085C444.986 197.34 444.976 197.604 445.017 197.863C445.058 198.122 445.15 198.37 445.287 198.593C445.424 198.816 445.604 199.01 445.816 199.164C446.027 199.317 446.268 199.427 446.522 199.487L453.045 201.136H453.031ZM521.565 197.924C521.934 198.663 522.572 199.118 523.408 199.118C523.55 199.118 523.692 199.089 523.834 199.061L524.132 199.018L530.286 196.175C531.293 195.706 531.761 194.512 531.293 193.503C531.184 193.261 531.029 193.043 530.836 192.862C530.643 192.68 530.416 192.538 530.169 192.445C529.921 192.351 529.657 192.307 529.393 192.316C529.128 192.324 528.868 192.385 528.627 192.494L522.487 195.251C522.014 195.472 521.648 195.871 521.466 196.36C521.281 196.914 521.381 197.455 521.565 197.924ZM433.476 196.261C433.561 196.36 433.76 196.36 433.93 196.36C434.369 196.362 434.797 196.218 435.146 195.951C435.495 195.683 435.745 195.307 435.858 194.882C436.142 193.873 435.49 192.764 434.398 192.494L427.875 190.831C427.776 190.746 427.591 190.746 427.407 190.746C426.961 190.706 426.517 190.834 426.161 191.105C425.804 191.376 425.561 191.769 425.478 192.21C425.294 192.665 425.393 193.219 425.663 193.688C425.946 194.143 426.4 194.512 426.939 194.612L433.462 196.261H433.476ZM413.907 191.385C413.992 191.471 414.191 191.471 414.361 191.471C415.283 191.471 416.02 190.831 416.289 190.007C416.372 189.762 416.399 189.502 416.367 189.246C416.335 188.99 416.245 188.745 416.105 188.529C415.971 188.292 415.787 188.087 415.567 187.928C415.347 187.769 415.095 187.658 414.829 187.605L408.306 185.956C408.207 185.856 408.022 185.856 407.838 185.856C406.93 185.771 406.193 186.411 405.909 187.335C405.79 187.847 405.878 188.386 406.155 188.834C406.431 189.281 406.873 189.601 407.384 189.722L413.907 191.385ZM539.929 189.452C540.297 190.191 540.935 190.646 541.772 190.646C542.042 190.646 542.311 190.561 542.595 190.462L548.749 187.704C549.756 187.235 550.224 186.041 549.756 185.032C549.597 184.676 549.338 184.373 549.011 184.161C548.683 183.949 548.302 183.837 547.912 183.838C547.643 183.838 547.373 183.923 547.104 184.023L540.935 186.78C540.451 187.003 540.074 187.41 539.888 187.911C539.702 188.412 539.722 188.966 539.943 189.452H539.929ZM394.253 186.51C394.338 186.595 394.537 186.595 394.707 186.595C395.714 186.595 396.451 185.956 396.635 185.117C396.755 184.607 396.669 184.069 396.395 183.622C396.122 183.175 395.683 182.854 395.175 182.729L388.652 181.066C388.552 180.981 388.368 180.981 388.184 180.981C387.738 180.942 387.294 181.07 386.938 181.34C386.581 181.611 386.338 182.005 386.255 182.445C386.071 182.914 386.17 183.469 386.44 183.923C386.723 184.392 387.177 184.748 387.716 184.847L394.239 186.51H394.253ZM558.207 181.066C558.576 181.806 559.214 182.26 560.051 182.26C560.334 182.26 560.604 182.175 560.788 182.076L566.942 179.318C567.427 179.095 567.804 178.689 567.99 178.188C568.176 177.687 568.156 177.132 567.935 176.646C567.826 176.406 567.672 176.19 567.479 176.01C567.287 175.83 567.061 175.689 566.815 175.597C566.569 175.505 566.307 175.462 566.044 175.471C565.781 175.48 565.523 175.542 565.283 175.651L559.129 178.394C558.662 178.618 558.301 179.016 558.122 179.503C557.938 180.057 558.023 180.612 558.207 181.066ZM374.684 181.621C374.769 181.72 374.968 181.72 375.138 181.72C376.06 181.72 376.896 181.152 377.081 180.342C377.166 179.773 377.081 179.233 376.797 178.778C376.513 178.309 376.159 177.939 375.606 177.854L369.083 176.191C368.998 176.106 368.799 176.106 368.629 176.106C367.707 176.106 366.97 176.646 366.686 177.57C366.516 178.039 366.601 178.579 366.871 179.048C367.154 179.503 367.608 179.873 368.161 179.972L374.684 181.621ZM576.585 172.695C576.954 173.434 577.592 173.889 578.429 173.889C578.641 173.889 578.854 173.832 579.123 173.761L579.336 173.704L585.49 170.946C585.944 170.762 586.313 170.293 586.497 169.838C586.654 169.323 586.624 168.769 586.412 168.274C586.253 167.918 585.994 167.615 585.667 167.404C585.34 167.192 584.958 167.079 584.569 167.08C584.299 167.08 584.03 167.166 583.746 167.265L577.592 170.023C577.351 170.132 577.133 170.287 576.952 170.481C576.771 170.674 576.629 170.901 576.536 171.149C576.442 171.398 576.399 171.662 576.407 171.927C576.415 172.192 576.476 172.453 576.585 172.695ZM594.679 163.484C594.679 164.593 595.601 165.417 596.693 165.417C596.977 165.417 597.26 165.417 597.53 165.332L603.684 162.561C604.677 162.106 605.145 160.912 604.677 159.888C604.518 159.534 604.262 159.233 603.937 159.021C603.613 158.81 603.234 158.696 602.847 158.694C602.578 158.694 602.294 158.794 602.025 158.879L595.87 161.637C595.133 162.006 594.679 162.66 594.679 163.484ZM613.227 155.838C613.596 156.577 614.248 157.031 615.071 157.031C615.354 157.031 615.624 156.946 615.893 156.847L622.048 154.089C623.069 153.634 623.522 152.441 623.069 151.417C622.601 150.422 621.409 149.953 620.403 150.422L614.248 153.165C614.006 153.273 613.787 153.428 613.604 153.621C613.422 153.813 613.279 154.04 613.184 154.289C613.089 154.537 613.044 154.802 613.051 155.068C613.059 155.333 613.119 155.595 613.227 155.838ZM632.059 148.845C632.243 149.768 633.08 150.408 633.988 150.408C634.087 150.408 634.271 150.408 634.356 150.507L640.978 149.214C641.445 149.119 641.864 148.864 642.164 148.493C642.464 148.122 642.626 147.659 642.623 147.182C642.627 146.915 642.578 146.651 642.478 146.405C642.378 146.158 642.23 145.934 642.042 145.746C641.854 145.558 641.631 145.409 641.385 145.309C641.139 145.209 640.875 145.159 640.61 145.163H640.241L633.619 146.542C633.08 146.627 632.626 146.911 632.343 147.366C632.059 147.736 631.974 148.29 632.059 148.845ZM651.812 144.879C651.997 145.803 652.819 146.442 653.741 146.442H654.11L660.718 145.064C661.285 144.978 661.724 144.694 661.994 144.239C662.278 143.87 662.377 143.315 662.278 142.761C662.183 142.319 661.94 141.922 661.589 141.637C661.238 141.353 660.8 141.197 660.349 141.198H659.98L653.372 142.576C652.819 142.676 652.365 142.946 652.096 143.415C651.812 143.785 651.727 144.325 651.812 144.879ZM671.481 140.828C671.75 141.752 672.573 142.392 673.494 142.392C673.679 142.392 673.778 142.392 673.948 142.491L680.556 141.112C681.478 140.928 682.116 140.103 682.116 139.179C682.116 138.071 681.208 137.147 680.102 137.147H679.734L673.026 138.526C672.473 138.625 672.019 138.895 671.75 139.364C671.466 139.734 671.381 140.274 671.466 140.828H671.481ZM691.305 136.408C691.305 137.516 692.227 138.44 693.333 138.44C693.418 138.44 693.616 138.44 693.786 138.341L700.409 136.962C700.948 136.877 701.401 136.593 701.685 136.138C701.969 135.683 702.054 135.214 701.969 134.66C701.685 133.736 700.862 133.096 699.941 133.096H699.572L692.964 134.375C692.501 134.48 692.086 134.737 691.785 135.105C691.484 135.473 691.315 135.932 691.305 136.408ZM5 116.111L90.9051 52.0366L224.003 95.9562L358.66 177.357L358.561 172.012L228.498 93.4689C228.274 93.3065 228.025 93.1816 227.76 93.0993L91.7276 48.2701C91.1636 48.0903 90.5752 47.9992 89.9834 48C89.0616 48 88.1399 48.1848 87.3175 48.7391L5 110.042V116.111Z" fill="#0081F1"/>
<g clip-path="url(#clip4_949_11155)">
<path opacity="0.3" d="M457.091 181.423C457.091 124.024 410.169 77.4824 352.278 77.4824C294.387 77.4824 247.455 124.024 247.455 181.423C247.455 238.823 294.377 285.354 352.278 285.354C410.169 285.354 457.091 238.823 457.091 181.423Z" stroke="url(#paint2_linear_949_11155)" stroke-width="1.5" stroke-miterlimit="10"/>
<path opacity="0.3" d="M492.292 181.413C492.292 104.874 429.729 42.832 352.528 42.832C275.347 42.832 212.774 104.874 212.774 181.413C212.774 257.952 275.347 319.994 352.538 319.994C429.719 319.994 492.302 257.952 492.302 181.413H492.292Z" stroke="url(#paint3_linear_949_11155)" stroke-width="1.5" stroke-miterlimit="10"/>
<path opacity="0.3" d="M542.583 181.404C542.583 77.5333 457.662 -6.66602 352.909 -6.66602C248.157 -6.66602 163.235 77.5333 163.235 181.404C163.235 285.274 248.157 369.474 352.909 369.474C457.662 369.474 542.583 285.274 542.583 181.404Z" stroke="url(#paint4_linear_949_11155)" stroke-width="1.5" stroke-miterlimit="10"/>
</g>
<g clip-path="url(#clip5_949_11155)">
<path d="M406.5 43.5H299.5C284.312 43.5 272 55.8122 272 71V350C272 365.188 284.312 377.5 299.5 377.5H406.5C421.688 377.5 434 365.188 434 350V71C434 55.8122 421.688 43.5 406.5 43.5Z" fill="#010101" stroke="#353230"/>
<path d="M405.5 49.5H300.5C287.797 49.5 277.5 59.7975 277.5 72.5V347.5C277.5 360.203 287.797 370.5 300.5 370.5H405.5C418.203 370.5 428.5 360.203 428.5 347.5V72.5C428.5 59.7975 418.203 49.5 405.5 49.5Z" fill="#16181E"/>
<path d="M369.7 54.5H336.6C332.817 54.5 329.75 57.5668 329.75 61.35C329.75 65.1332 332.817 68.2 336.6 68.2H369.7C373.483 68.2 376.55 65.1332 376.55 61.35C376.55 57.5668 373.483 54.5 369.7 54.5Z" fill="#010101"/>
<path d="M291.5 146.141C291.5 139.513 296.873 134.141 303.5 134.141H403.5C410.127 134.141 415.5 139.513 415.5 146.141V178.141C415.5 184.768 410.127 190.141 403.5 190.141H303.5C296.873 190.141 291.5 184.768 291.5 178.141V146.141Z" fill="#22D3EE" fill-opacity="0.1"/>
<g filter="url(#filter0_ddi_949_11155)">
<path d="M299.5 148.141C299.5 144.827 302.186 142.141 305.5 142.141H401.5C404.814 142.141 407.5 144.827 407.5 148.141V176.141C407.5 179.454 404.814 182.141 401.5 182.141H305.5C302.186 182.141 299.5 179.454 299.5 176.141V148.141Z" fill="#0891B2"/>
<path d="M312.059 164.641V159.55H312.827V161.762H315.365V159.55H316.136V164.641H315.365V162.421H312.827V164.641H312.059ZM318.841 164.718C318.464 164.718 318.14 164.637 317.869 164.477C317.598 164.314 317.39 164.086 317.242 163.793C317.096 163.498 317.023 163.152 317.023 162.756C317.023 162.365 317.096 162.021 317.242 161.722C317.39 161.424 317.595 161.191 317.859 161.024C318.124 160.856 318.434 160.773 318.788 160.773C319.004 160.773 319.213 160.808 319.415 160.88C319.617 160.951 319.798 161.063 319.959 161.215C320.12 161.368 320.247 161.566 320.339 161.809C320.432 162.051 320.479 162.345 320.479 162.692V162.955H317.444V162.398H319.75C319.75 162.203 319.711 162.03 319.631 161.879C319.551 161.726 319.44 161.606 319.295 161.518C319.153 161.431 318.986 161.387 318.793 161.387C318.585 161.387 318.402 161.438 318.246 161.541C318.092 161.642 317.973 161.775 317.888 161.939C317.806 162.101 317.764 162.277 317.764 162.468V162.903C317.764 163.158 317.809 163.375 317.898 163.554C317.99 163.733 318.116 163.87 318.279 163.964C318.441 164.057 318.631 164.104 318.848 164.104C318.989 164.104 319.117 164.084 319.233 164.044C319.349 164.003 319.45 163.941 319.534 163.86C319.619 163.779 319.683 163.679 319.728 163.559L320.431 163.686C320.375 163.893 320.274 164.075 320.128 164.23C319.984 164.385 319.803 164.505 319.584 164.591C319.367 164.675 319.119 164.718 318.841 164.718ZM321.664 166.072C321.553 166.072 321.452 166.063 321.361 166.045C321.269 166.029 321.201 166.01 321.157 165.99L321.336 165.381C321.472 165.418 321.593 165.434 321.699 165.429C321.805 165.424 321.898 165.384 321.979 165.309C322.062 165.235 322.135 165.113 322.198 164.944L322.29 164.69L320.893 160.822H321.689L322.656 163.786H322.695L323.662 160.822H324.46L322.887 165.15C322.814 165.349 322.721 165.517 322.608 165.655C322.496 165.794 322.361 165.898 322.206 165.968C322.05 166.038 321.869 166.072 321.664 166.072ZM326.096 159.55L326.031 163.176H325.343L325.278 159.55H326.096ZM325.688 164.688C325.551 164.688 325.433 164.64 325.335 164.544C325.238 164.446 325.189 164.328 325.191 164.191C325.189 164.055 325.238 163.939 325.335 163.843C325.433 163.745 325.551 163.696 325.688 163.696C325.823 163.696 325.939 163.745 326.036 163.843C326.134 163.939 326.184 164.055 326.185 164.191C326.184 164.282 326.16 164.366 326.113 164.442C326.069 164.516 326.009 164.576 325.934 164.621C325.86 164.665 325.778 164.688 325.688 164.688ZM329.129 164.641V159.55H329.897V161.762H332.435V159.55H333.205V164.641H332.435V162.421H329.897V164.641H329.129ZM335.873 164.718C335.515 164.718 335.202 164.636 334.935 164.472C334.669 164.308 334.461 164.078 334.314 163.783C334.167 163.488 334.093 163.143 334.093 162.749C334.093 162.353 334.167 162.007 334.314 161.71C334.461 161.413 334.669 161.183 334.935 161.019C335.202 160.855 335.515 160.773 335.873 160.773C336.231 160.773 336.543 160.855 336.81 161.019C337.077 161.183 337.284 161.413 337.431 161.71C337.579 162.007 337.652 162.353 337.652 162.749C337.652 163.143 337.579 163.488 337.431 163.783C337.284 164.078 337.077 164.308 336.81 164.472C336.543 164.636 336.231 164.718 335.873 164.718ZM335.875 164.094C336.107 164.094 336.299 164.032 336.452 163.91C336.604 163.787 336.717 163.624 336.79 163.42C336.864 163.216 336.902 162.992 336.902 162.746C336.902 162.503 336.864 162.279 336.79 162.075C336.717 161.87 336.604 161.705 336.452 161.581C336.299 161.456 336.107 161.394 335.875 161.394C335.641 161.394 335.448 161.456 335.293 161.581C335.141 161.705 335.027 161.87 334.953 162.075C334.88 162.279 334.843 162.503 334.843 162.746C334.843 162.992 334.88 163.216 334.953 163.42C335.027 163.624 335.141 163.787 335.293 163.91C335.448 164.032 335.641 164.094 335.875 164.094ZM339.194 164.641L338.07 160.822H338.838L339.586 163.626H339.624L340.374 160.822H341.142L341.888 163.614H341.926L342.669 160.822H343.437L342.316 164.641H341.558L340.782 161.884H340.725L339.949 164.641H339.194ZM347.603 164.718C347.234 164.718 346.915 164.634 346.649 164.467C346.383 164.298 346.18 164.065 346.037 163.768C345.895 163.471 345.823 163.132 345.823 162.749C345.823 162.361 345.896 162.019 346.042 161.722C346.188 161.424 346.393 161.191 346.658 161.024C346.924 160.856 347.236 160.773 347.596 160.773C347.886 160.773 348.144 160.827 348.371 160.934C348.598 161.04 348.781 161.19 348.921 161.382C349.061 161.574 349.145 161.799 349.172 162.055H348.448C348.408 161.876 348.317 161.722 348.175 161.593C348.034 161.464 347.845 161.399 347.608 161.399C347.401 161.399 347.219 161.454 347.064 161.563C346.91 161.671 346.789 161.825 346.703 162.026C346.617 162.224 346.574 162.46 346.574 162.732C346.574 163.01 346.616 163.25 346.701 163.452C346.785 163.655 346.905 163.811 347.059 163.922C347.214 164.033 347.398 164.089 347.608 164.089C347.749 164.089 347.877 164.063 347.991 164.012C348.107 163.959 348.204 163.883 348.282 163.786C348.361 163.688 348.417 163.57 348.448 163.433H349.172C349.145 163.679 349.065 163.9 348.93 164.094C348.796 164.288 348.616 164.44 348.391 164.551C348.167 164.662 347.905 164.718 347.603 164.718ZM351.078 164.725C350.836 164.725 350.617 164.68 350.421 164.591C350.226 164.5 350.071 164.368 349.956 164.196C349.844 164.023 349.787 163.812 349.787 163.562C349.787 163.346 349.829 163.169 349.912 163.03C349.995 162.891 350.106 162.78 350.247 162.699C350.388 162.618 350.546 162.557 350.72 162.515C350.894 162.474 351.071 162.442 351.252 162.421C351.48 162.394 351.666 162.373 351.808 162.356C351.951 162.338 352.055 162.309 352.119 162.269C352.184 162.229 352.216 162.165 352.216 162.075V162.058C352.216 161.841 352.155 161.673 352.032 161.553C351.911 161.434 351.731 161.374 351.49 161.374C351.24 161.374 351.043 161.43 350.899 161.541C350.756 161.65 350.657 161.772 350.603 161.906L349.904 161.747C349.987 161.515 350.108 161.328 350.267 161.185C350.428 161.041 350.613 160.937 350.822 160.872C351.03 160.806 351.25 160.773 351.48 160.773C351.633 160.773 351.794 160.791 351.965 160.827C352.137 160.862 352.298 160.927 352.447 161.021C352.598 161.116 352.722 161.251 352.818 161.426C352.914 161.6 352.962 161.827 352.962 162.105V164.641H352.236V164.119H352.206C352.158 164.215 352.086 164.309 351.99 164.402C351.894 164.495 351.77 164.572 351.619 164.633C351.469 164.694 351.288 164.725 351.078 164.725ZM351.239 164.129C351.445 164.129 351.62 164.088 351.766 164.007C351.914 163.926 352.026 163.819 352.102 163.689C352.18 163.556 352.219 163.414 352.219 163.263V162.771C352.192 162.798 352.141 162.823 352.064 162.846C351.99 162.867 351.905 162.886 351.808 162.903C351.712 162.918 351.619 162.932 351.528 162.945C351.436 162.957 351.36 162.967 351.299 162.975C351.155 162.993 351.023 163.024 350.904 163.067C350.786 163.11 350.691 163.172 350.62 163.254C350.551 163.333 350.516 163.439 350.516 163.572C350.516 163.756 350.584 163.895 350.72 163.989C350.856 164.082 351.029 164.129 351.239 164.129ZM354.695 162.374V164.641H353.952V160.822H354.665V161.444H354.712C354.8 161.242 354.938 161.079 355.125 160.957C355.314 160.834 355.552 160.773 355.839 160.773C356.099 160.773 356.327 160.827 356.522 160.937C356.718 161.045 356.869 161.205 356.977 161.419C357.085 161.633 357.139 161.897 357.139 162.212V164.641H356.395V162.301C356.395 162.025 356.323 161.808 356.179 161.653C356.035 161.495 355.837 161.417 355.585 161.417C355.413 161.417 355.259 161.454 355.125 161.528C354.993 161.603 354.887 161.712 354.809 161.857C354.733 161.999 354.695 162.171 354.695 162.374ZM360.816 159.55V164.641H360.048V159.55H360.816ZM364.47 162.374V164.641H363.727V159.55H364.46V161.444H364.508C364.597 161.238 364.734 161.075 364.918 160.954C365.102 160.833 365.342 160.773 365.639 160.773C365.901 160.773 366.129 160.827 366.325 160.934C366.522 161.042 366.675 161.203 366.782 161.417C366.892 161.629 366.946 161.894 366.946 162.212V164.641H366.203V162.301C366.203 162.021 366.131 161.804 365.987 161.65C365.843 161.494 365.642 161.417 365.385 161.417C365.21 161.417 365.052 161.454 364.913 161.528C364.775 161.603 364.667 161.712 364.587 161.857C364.509 161.999 364.47 162.171 364.47 162.374ZM369.584 164.718C369.208 164.718 368.884 164.637 368.612 164.477C368.342 164.314 368.133 164.086 367.985 163.793C367.84 163.498 367.767 163.152 367.767 162.756C367.767 162.365 367.84 162.021 367.985 161.722C368.133 161.424 368.338 161.191 368.602 161.024C368.867 160.856 369.177 160.773 369.532 160.773C369.747 160.773 369.956 160.808 370.158 160.88C370.36 160.951 370.542 161.063 370.702 161.215C370.863 161.368 370.99 161.566 371.083 161.809C371.175 162.051 371.222 162.345 371.222 162.692V162.955H368.187V162.398H370.494C370.494 162.203 370.454 162.03 370.374 161.879C370.295 161.726 370.183 161.606 370.039 161.518C369.896 161.431 369.729 161.387 369.536 161.387C369.328 161.387 369.145 161.438 368.99 161.541C368.835 161.642 368.716 161.775 368.632 161.939C368.549 162.101 368.507 162.277 368.507 162.468V162.903C368.507 163.158 368.552 163.375 368.642 163.554C368.733 163.733 368.86 163.87 369.022 163.964C369.184 164.057 369.374 164.104 369.591 164.104C369.732 164.104 369.86 164.084 369.976 164.044C370.092 164.003 370.193 163.941 370.277 163.86C370.362 163.779 370.426 163.679 370.471 163.559L371.175 163.686C371.118 163.893 371.017 164.075 370.871 164.23C370.727 164.385 370.546 164.505 370.327 164.591C370.11 164.675 369.862 164.718 369.584 164.718ZM372.79 159.55V164.641H372.047V159.55H372.79ZM373.79 166.072V160.822H374.516V161.441H374.578C374.621 161.362 374.683 161.27 374.764 161.165C374.845 161.061 374.958 160.97 375.102 160.892C375.246 160.812 375.437 160.773 375.674 160.773C375.982 160.773 376.257 160.851 376.499 161.006C376.741 161.162 376.931 161.387 377.068 161.68C377.208 161.973 377.277 162.326 377.277 162.739C377.277 163.152 377.208 163.505 377.071 163.8C376.933 164.094 376.744 164.32 376.504 164.479C376.264 164.636 375.99 164.715 375.681 164.715C375.449 164.715 375.26 164.676 375.112 164.598C374.966 164.52 374.852 164.429 374.769 164.325C374.686 164.221 374.622 164.128 374.578 164.047H374.533V166.072H373.79ZM374.518 162.732C374.518 163 374.557 163.235 374.635 163.438C374.713 163.64 374.825 163.798 374.973 163.912C375.12 164.025 375.301 164.081 375.515 164.081C375.737 164.081 375.922 164.022 376.072 163.905C376.221 163.786 376.333 163.624 376.41 163.42C376.488 163.216 376.527 162.987 376.527 162.732C376.527 162.48 376.488 162.253 376.412 162.053C376.338 161.852 376.225 161.694 376.074 161.578C375.925 161.462 375.739 161.404 375.515 161.404C375.299 161.404 375.117 161.46 374.968 161.571C374.82 161.682 374.709 161.837 374.632 162.036C374.556 162.234 374.518 162.466 374.518 162.732ZM380.432 166.072C380.321 166.072 380.22 166.063 380.129 166.045C380.038 166.029 379.97 166.01 379.925 165.99L380.104 165.381C380.24 165.418 380.361 165.434 380.467 165.429C380.573 165.424 380.667 165.384 380.748 165.309C380.831 165.235 380.904 165.113 380.967 164.944L381.059 164.69L379.662 160.822H380.457L381.424 163.786H381.464L382.431 160.822H383.229L381.655 165.15C381.582 165.349 381.49 165.517 381.377 165.655C381.264 165.794 381.13 165.898 380.974 165.968C380.818 166.038 380.638 166.072 380.432 166.072ZM385.406 164.718C385.048 164.718 384.735 164.636 384.469 164.472C384.202 164.308 383.995 164.078 383.847 163.783C383.7 163.488 383.626 163.143 383.626 162.749C383.626 162.353 383.7 162.007 383.847 161.71C383.995 161.413 384.202 161.183 384.469 161.019C384.735 160.855 385.048 160.773 385.406 160.773C385.764 160.773 386.076 160.855 386.343 161.019C386.61 161.183 386.817 161.413 386.964 161.71C387.112 162.007 387.186 162.353 387.186 162.749C387.186 163.143 387.112 163.488 386.964 163.783C386.817 164.078 386.61 164.308 386.343 164.472C386.076 164.636 385.764 164.718 385.406 164.718ZM385.408 164.094C385.64 164.094 385.833 164.032 385.985 163.91C386.137 163.787 386.25 163.624 386.323 163.42C386.398 163.216 386.435 162.992 386.435 162.746C386.435 162.503 386.398 162.279 386.323 162.075C386.25 161.87 386.137 161.705 385.985 161.581C385.833 161.456 385.64 161.394 385.408 161.394C385.175 161.394 384.981 161.456 384.827 161.581C384.674 161.705 384.561 161.87 384.486 162.075C384.413 162.279 384.377 162.503 384.377 162.746C384.377 162.992 384.413 163.216 384.486 163.42C384.561 163.624 384.674 163.787 384.827 163.91C384.981 164.032 385.175 164.094 385.408 164.094ZM390.434 163.057V160.822H391.18V164.641H390.449V163.979H390.409C390.321 164.183 390.18 164.353 389.987 164.489C389.794 164.623 389.555 164.69 389.268 164.69C389.023 164.69 388.806 164.636 388.617 164.529C388.43 164.419 388.282 164.258 388.174 164.044C388.068 163.83 388.015 163.566 388.015 163.251V160.822H388.759V163.162C388.759 163.422 388.831 163.629 388.975 163.783C389.119 163.937 389.306 164.014 389.537 164.014C389.676 164.014 389.814 163.979 389.952 163.91C390.091 163.84 390.206 163.735 390.297 163.594C390.39 163.453 390.436 163.274 390.434 163.057ZM392.991 163.176V163.129C392.995 162.821 393.025 162.576 393.083 162.393C393.143 162.211 393.227 162.064 393.337 161.951C393.446 161.838 393.578 161.736 393.732 161.643C393.831 161.58 393.921 161.509 394 161.431C394.08 161.354 394.143 161.264 394.189 161.163C394.236 161.062 394.259 160.95 394.259 160.827C394.259 160.68 394.224 160.552 394.155 160.445C394.085 160.337 393.992 160.254 393.876 160.196C393.762 160.136 393.634 160.107 393.493 160.107C393.366 160.107 393.244 160.133 393.128 160.186C393.012 160.239 392.916 160.322 392.84 160.435C392.763 160.546 392.719 160.689 392.708 160.865H391.952C391.964 160.566 392.039 160.315 392.178 160.109C392.318 159.902 392.502 159.745 392.73 159.639C392.961 159.533 393.215 159.48 393.493 159.48C393.798 159.48 394.065 159.537 394.294 159.652C394.522 159.764 394.7 159.923 394.826 160.126C394.953 160.329 395.017 160.565 395.017 160.835C395.017 161.02 394.988 161.188 394.93 161.337C394.872 161.484 394.789 161.616 394.682 161.732C394.575 161.848 394.448 161.951 394.299 162.04C394.158 162.128 394.044 162.219 393.956 162.314C393.87 162.408 393.807 162.52 393.767 162.65C393.727 162.779 393.705 162.939 393.702 163.129V163.176H392.991ZM393.367 164.688C393.231 164.688 393.114 164.64 393.016 164.544C392.918 164.446 392.869 164.328 392.869 164.191C392.869 164.055 392.918 163.939 393.016 163.843C393.114 163.745 393.231 163.696 393.367 163.696C393.501 163.696 393.617 163.745 393.715 163.843C393.814 163.939 393.864 164.055 393.864 164.191C393.864 164.282 393.841 164.366 393.794 164.442C393.749 164.516 393.69 164.576 393.615 164.621C393.541 164.665 393.458 164.688 393.367 164.688Z" fill="#E4E4E7"/>
</g>
</g>
</g>
<defs>
<filter id="filter0_ddi_949_11155" x="296.5" y="140.141" width="114" height="46" filterUnits="userSpaceOnUse" color-interpolation-filters="sRGB">
<feFlood flood-opacity="0" result="BackgroundImageFix"/>
<feColorMatrix in="SourceAlpha" type="matrix" values="0 0 0 0 0 0 0 0 0 0 0 0 0 0 0 0 0 0 127 0" result="hardAlpha"/>
<feOffset dy="1"/>
<feGaussianBlur stdDeviation="1.5"/>
<feComposite in2="hardAlpha" operator="out"/>
<feColorMatrix type="matrix" values="0 0 0 0 0.0235294 0 0 0 0 0.713726 0 0 0 0 0.831373 0 0 0 0.35 0"/>
<feBlend mode="normal" in2="BackgroundImageFix" result="effect1_dropShadow_949_11155"/>
<feColorMatrix in="SourceAlpha" type="matrix" values="0 0 0 0 0 0 0 0 0 0 0 0 0 0 0 0 0 0 127 0" result="hardAlpha"/>
<feMorphology radius="1" operator="dilate" in="SourceAlpha" result="effect2_dropShadow_949_11155"/>
<feOffset/>
<feComposite in2="hardAlpha" operator="out"/>
<feColorMatrix type="matrix" values="0 0 0 0 0.0235294 0 0 0 0 0.713726 0 0 0 0 0.831373 0 0 0 1 0"/>
<feBlend mode="normal" in2="effect1_dropShadow_949_11155" result="effect2_dropShadow_949_11155"/>
<feBlend mode="normal" in="SourceGraphic" in2="effect2_dropShadow_949_11155" result="shape"/>
<feColorMatrix in="SourceAlpha" type="matrix" values="0 0 0 0 0 0 0 0 0 0 0 0 0 0 0 0 0 0 127 0" result="hardAlpha"/>
<feOffset dy="1"/>
<feGaussianBlur stdDeviation="0.5"/>
<feComposite in2="hardAlpha" operator="arithmetic" k2="-1" k3="1"/>
<feColorMatrix type="matrix" values="0 0 0 0 1 0 0 0 0 1 0 0 0 0 1 0 0 0 0.3 0"/>
<feBlend mode="normal" in2="shape" result="effect3_innerShadow_949_11155"/>
</filter>
<radialGradient id="paint0_radial_949_11155" cx="0" cy="0" r="1" gradientUnits="userSpaceOnUse" gradientTransform="translate(384 384) rotate(90) scale(384 384)">
<stop/>
<stop offset="1" stop-opacity="0"/>
</radialGradient>
<linearGradient id="paint1_linear_949_11155" x1="353" y1="166.5" x2="352.5" y2="260" gradientUnits="userSpaceOnUse">
<stop stop-color="white" stop-opacity="0"/>
<stop offset="0.768749" stop-color="white"/>
</linearGradient>
<linearGradient id="paint2_linear_949_11155" x1="247.034" y1="181.453" x2="457.472" y2="181.453" gradientUnits="userSpaceOnUse">
<stop stop-color="#A3A7B1" stop-opacity="0"/>
<stop offset="0.49" stop-color="#A3A7B1"/>
<stop offset="1" stop-color="#A3A7B1" stop-opacity="0"/>
</linearGradient>
<linearGradient id="paint3_linear_949_11155" x1="212.213" y1="181.463" x2="492.804" y2="181.463" gradientUnits="userSpaceOnUse">
<stop stop-color="#A3A7B1" stop-opacity="0"/>
<stop offset="0.49" stop-color="#A3A7B1"/>
<stop offset="1" stop-color="#A3A7B1" stop-opacity="0"/>
</linearGradient>
<linearGradient id="paint4_linear_949_11155" x1="162.473" y1="181.464" x2="543.265" y2="181.464" gradientUnits="userSpaceOnUse">
<stop stop-color="#A3A7B1" stop-opacity="0"/>
<stop offset="0.49" stop-color="#A3A7B1"/>
<stop offset="1" stop-color="#A3A7B1" stop-opacity="0"/>
</linearGradient>
<clipPath id="clip0_949_11155">
<rect width="705" height="260" fill="white"/>
</clipPath>
<clipPath id="clip1_949_11155">
<rect width="768" height="768" fill="white" transform="translate(-344 -86)"/>
</clipPath>
<clipPath id="clip2_949_11155">
<rect x="-344" y="-86" width="768" height="768" fill="white"/>
</clipPath>
<clipPath id="clip3_949_11155">
<rect x="-344" y="-86" width="768" height="768" fill="white"/>
</clipPath>
<clipPath id="clip4_949_11155">
<rect width="701" height="361" fill="white" transform="translate(1 11)"/>
</clipPath>
<clipPath id="clip5_949_11155">
<rect width="163" height="335" fill="white" transform="translate(271.5 43)"/>
</clipPath>
</defs>
</svg>
