<svg width="705" height="260" viewBox="0 0 705 260" fill="none" xmlns="http://www.w3.org/2000/svg">
<g clip-path="url(#clip0_1021_6152)">
<rect y="149" width="705" height="111" fill="url(#paint0_linear_1021_6152)"/>
<mask id="mask0_1021_6152" style="mask-type:alpha" maskUnits="userSpaceOnUse" x="0" y="-28" width="705" height="326">
<rect width="705" height="326" transform="translate(0 -28)" fill="url(#paint1_linear_1021_6152)"/>
</mask>
<g mask="url(#mask0_1021_6152)">
<path opacity="0.1" d="M60.1514 -28H61.9448V296.21H60.1514V-28ZM117.542 -28H119.335V296.21H117.542V-28ZM174.932 -28H176.726V296.21H174.932V-28ZM232.323 -28H234.116V296.21H232.323V-28ZM289.713 -28H291.507V296.21H289.713V-28ZM347.104 -28H348.897V296.21H347.104V-28ZM404.494 -28H406.287V296.21H404.494V-28ZM461.884 -28H463.678V296.21H461.884V-28ZM519.275 -28H521.068V296.21H519.275V-28ZM576.665 -28H578.459V296.21H576.665V-28ZM634.056 -28H635.849V296.21H634.056V-28Z" fill="#D4D4D8"/>
<g filter="url(#filter0_f_1021_6152)">
<path d="M693.239 101.999C677.17 97.0996 658.59 93.5631 634.629 92.1999C595.658 89.9673 563.967 80.4445 530.681 70.4377L530.573 70.4081L523.866 68.3929C488.086 57.6847 449.94 47.0061 399.06 45.0798C347.821 43.1239 315.377 56.6277 288.296 72.0084C281.924 75.6789 275.682 79.417 269.572 83.2204L268.801 83.6847C262.712 87.4849 256.457 91.2036 250.042 94.8374C237.488 101.831 224.682 107.6 209.904 110.643C194.517 113.824 180.671 118.961 166.592 124.72C163.006 126.192 159.419 127.693 155.76 129.224C145.035 133.709 133.88 138.372 121.451 142.718C92.2539 152.942 56.098 161.369 2.76074 161.112V163.087C56.8692 163.354 93.6887 154.79 123.388 144.397C135.942 139.992 147.259 135.26 158.02 130.765C161.643 129.244 165.194 127.752 168.727 126.32C182.769 120.571 196.274 115.572 211.16 112.5C226.673 109.309 239.927 103.293 252.588 96.2303C258.937 92.6938 265.178 88.8807 271.473 85.0084L272.227 84.554C278.289 80.8199 284.44 77.0464 290.879 73.3914C317.655 58.1786 349.13 45.1588 398.809 47.0456C448.864 48.9521 486.419 59.443 522.144 70.1315L529.067 72.2059C562.246 82.1832 594.528 91.8936 634.271 94.1657C658.518 95.5486 677.116 99.2037 693.239 104.271V101.999Z" fill="#232831"/>
</g>
<path d="M693.239 102.572C677.152 97.6331 658.572 94.0571 634.54 92.6939C595.389 90.4515 563.537 80.8793 530.268 70.8824C528.009 70.1909 525.731 69.5093 523.435 68.8277C487.674 58.1194 449.671 47.4903 399.006 45.564C348.143 43.6278 315.933 57.0131 288.942 72.3542C282.485 76.029 276.298 79.8322 270.218 83.5564L269.483 84.0207C263.381 87.8239 257.114 91.5458 250.687 95.1833C238.097 102.197 225.167 108.025 210.209 111.107C194.965 114.259 181.191 119.366 167.131 125.125C163.544 126.577 159.957 128.088 156.334 129.6C145.573 134.094 134.4 138.787 121.936 143.133C92.6126 153.407 56.2952 161.863 2.76074 161.606V162.594C56.6719 162.86 93.33 154.325 122.922 143.973C135.44 139.587 146.703 134.875 157.464 130.37C161.087 128.859 164.656 127.367 168.189 125.925C182.249 120.166 195.826 115.138 210.855 112.036C226.171 108.875 239.317 102.928 251.961 95.8847C258.292 92.3581 264.515 88.5549 270.81 84.6825L271.545 84.2281C277.643 80.4941 283.794 76.7106 290.233 73.0457C317.081 57.7836 348.807 44.6453 398.88 46.5518C449.133 48.4682 486.849 58.9986 522.575 69.697L529.479 71.7714C562.676 81.7486 594.815 91.4196 634.36 93.6719C658.536 95.0549 677.116 98.6802 693.239 103.708V102.572Z" fill="#232831"/>
<g filter="url(#filter1_f_1021_6152)">
<path d="M693.239 -12.8366C690.872 -12.7971 688.451 -12.7477 685.994 -12.7181C671.395 -12.5403 654.662 -12.7181 633.733 -14.5259C612.032 -16.383 593.452 -12.1847 576.647 -5.01293C559.896 2.12917 544.76 12.2941 529.928 22.4886L527.273 24.3161L527.22 24.3457C513.231 33.9574 499.439 43.4407 484.553 50.5334C468.753 58.0707 451.913 62.7827 432.633 62.1208C412.134 61.4096 395.419 65.519 380.695 71.8906C366.67 77.946 354.331 86.0957 342.189 94.1368L340.503 95.253C327.734 103.689 315.09 111.888 300.617 117.578C286.216 123.229 270.075 126.37 250.275 124.75C200.955 120.7 178.627 117.559 163.149 114.141C156.13 112.539 149.286 110.715 142.65 108.678L142.471 108.619C134.091 106.1 125.516 103.783 116.77 101.674C78.6237 92.5365 43.7052 86.1748 2.76074 86.9453V88.921C42.9699 88.1603 77.3504 94.3936 115.336 103.492C123.991 105.577 132.477 107.871 140.767 110.367L141.018 110.436C147.815 112.441 153.967 114.249 161.822 115.978C177.694 119.485 200.381 122.656 249.755 126.716C270.666 128.425 287.722 125.076 302.697 119.188C317.619 113.321 330.55 104.924 343.265 96.5273L344.861 95.4704C357.093 87.37 369.199 79.3685 382.901 73.4415C397.159 67.2872 413.031 63.4248 432.4 64.0965C453.025 64.8176 470.744 59.7401 486.921 52.0349C502.057 44.8237 516.046 35.1922 529.964 25.6299L530.053 25.5707L532.725 23.7234C547.611 13.5091 562.497 3.5319 578.853 -3.44226C595.156 -10.4065 612.767 -14.3184 633.195 -12.5699C650.679 -11.068 668.377 -10.4563 686.065 -10.7424C688.523 -10.7721 690.908 -10.8116 693.239 -10.861V-12.8366Z" fill="#EE2E4F"/>
</g>
<path d="M693.239 -12.3436C690.89 -12.3041 688.469 -12.2547 686.012 -12.2251C671.377 -12.0473 654.59 -12.2251 633.589 -14.0329C612.211 -15.8702 593.864 -11.7411 577.203 -4.61872C560.542 2.48386 545.477 12.5994 530.627 22.7939L527.937 24.6313L527.901 24.6609C513.948 34.2627 500.103 43.7855 485.145 50.9079C469.237 58.4846 452.2 63.2954 432.597 62.6138C412.349 61.9124 395.849 65.9626 381.251 72.2749C367.298 78.3007 355.03 86.4208 342.871 94.4717L341.185 95.5682C328.451 103.994 315.718 112.243 301.137 117.972C286.592 123.692 270.218 126.893 250.149 125.243C200.829 121.193 178.393 118.032 162.808 114.604C155.096 112.895 149.07 111.127 142.237 109.112L142.058 109.062C133.696 106.546 125.139 104.233 116.412 102.127C78.3009 93.0097 43.5079 86.6678 2.76074 87.4383V88.4261C43.1493 87.6655 77.6553 93.9284 115.694 103.046C126.634 105.654 134.292 107.906 141.197 109.931L141.412 110.001C148.228 111.996 154.343 113.794 162.145 115.523C177.927 119 200.525 122.171 249.88 126.221C270.505 127.92 287.346 124.611 302.177 118.782C316.991 112.954 329.85 104.617 342.566 96.2004L344.18 95.1336C356.411 87.053 368.571 79.012 382.345 73.0553C396.728 66.8418 412.797 62.92 432.472 63.6017C452.738 64.303 470.242 59.3243 486.329 51.6488C501.394 44.4671 515.347 34.8851 529.282 25.303L532.026 23.4261C546.912 13.2019 561.833 3.17535 578.297 -3.83833C594.725 -10.852 612.588 -14.833 633.32 -13.0549C650.757 -11.5583 668.408 -10.9499 686.048 -11.2373C688.505 -11.2669 690.89 -11.3064 693.239 -11.3558V-12.3436Z" fill="#EE2E4F"/>
<g filter="url(#filter2_f_1021_6152)">
<path d="M693.239 39.5883C673.637 41.8307 652.241 47.5503 621.842 61.1628C602.491 69.8163 583.677 71.2387 564.667 68.4432C545.495 65.6278 526.072 58.5055 505.77 49.9508C499.206 47.1848 492.552 44.2608 485.809 41.3071C471.766 35.143 457.293 28.8011 442.353 23.2395C420.186 14.991 396.71 8.38237 371.458 6.54498C320.704 2.85045 288.798 20.6711 263.959 38.6202C259.242 42.0381 254.794 45.4363 250.508 48.716C243.442 54.1195 236.86 59.1673 230.26 63.3163C219.679 69.9743 209.761 73.8565 198.946 73.1947C186.464 72.4242 174.502 75.4766 163.095 80.396C151.689 85.3155 140.587 92.2008 129.791 99.3626C126.646 101.455 123.52 103.556 120.411 105.665C113.243 110.626 105.803 115.465 98.1006 120.176C87.6986 126.36 77.727 131.112 68.0603 133.018C50.1616 136.535 38.3787 132.564 21.6637 126.933L17.7361 125.61C13.1628 124.078 8.23077 122.488 2.76074 120.957V123.179C7.49545 124.543 11.8177 125.945 15.8709 127.309L19.9958 128.692C36.4417 134.253 49.6954 138.728 69.2619 134.885C79.8253 132.811 90.317 127.733 100.737 121.52C108.162 117.094 115.694 111.997 123.263 106.87C126.365 104.776 129.45 102.682 132.571 100.627C143.331 93.4751 154.236 86.7281 165.319 81.9568C176.403 77.1757 187.432 74.4789 198.552 75.1605C211.321 75.9508 222.333 71.3079 232.986 64.6202C239.658 60.412 246.437 55.216 253.611 49.7433C257.861 46.4834 262.255 43.1248 266.828 39.8254C291.578 21.9257 322.336 4.96443 370.974 8.51079C395.437 10.2889 418.375 16.7099 440.345 24.8793C455.177 30.3915 469.435 36.6544 483.424 42.7889C490.203 45.7623 496.91 48.716 503.582 51.5214C523.884 60.086 543.809 67.4257 563.734 70.3596C583.821 73.3132 603.836 71.7722 624.102 62.7038C653.766 49.4272 674.498 43.836 693.239 41.6134V39.5883Z" fill="#0081F1"/>
</g>
<path d="M693.239 40.0916C673.852 42.334 652.618 48.0239 622.398 61.5475C602.849 70.3097 583.713 71.7618 564.434 68.9267C545.064 66.0817 525.516 58.9001 505.214 50.3355C498.499 47.4823 491.833 44.5944 485.217 41.6721C471.192 35.5179 456.773 29.1957 441.851 23.6539C419.738 15.4252 396.387 8.85601 371.333 7.0285C321.116 3.37348 289.498 20.9768 264.676 38.916C260.128 42.2345 255.662 45.5869 251.279 48.9723C244.195 54.3955 237.559 59.4829 230.941 63.6417C220.342 70.3097 210.155 74.3796 198.839 73.6782C186.715 72.9373 174.986 75.9008 163.651 80.7906C152.317 85.6706 141.269 92.5163 130.472 99.6782C127.338 101.767 124.224 103.864 121.128 105.971C113.935 110.941 106.471 115.79 98.7462 120.512C88.3442 126.706 78.2471 131.536 68.3652 133.482C50.054 137.088 37.8944 132.988 21.2512 127.367C19.9599 126.933 18.6328 126.478 17.2698 126.034C12.5313 124.432 7.69196 122.923 2.76074 121.51V122.626C7.6748 124.028 12.1584 125.481 16.3372 126.873L20.4083 128.256C36.926 133.828 49.8209 138.184 68.957 134.411C79.3052 132.386 89.6534 127.397 100.073 121.174C107.48 116.768 114.977 111.69 122.563 106.573C125.648 104.478 128.751 102.39 131.871 100.31C142.65 93.1584 153.59 86.3818 164.763 81.5612C175.936 76.7504 187.181 73.9548 198.659 74.666C210.927 75.4168 221.669 70.9715 232.305 64.2937C238.94 60.1052 245.702 54.9487 252.822 49.486C257.09 46.2261 261.502 42.8575 266.111 39.5186C290.879 21.609 321.923 4.43047 371.1 8.00646C395.742 9.80434 418.823 16.2747 440.865 24.4738C455.715 29.9958 470.026 36.2785 484.015 42.413C490.795 45.3864 497.484 48.3203 504.12 51.1258C524.44 59.6904 544.239 66.9806 563.967 69.8849C583.785 72.799 603.513 71.2777 623.528 62.318C653.371 48.9525 674.283 43.3218 693.239 41.109V40.0916Z" fill="#0081F1"/>
</g>
<mask id="mask1_1021_6152" style="mask-type:alpha" maskUnits="userSpaceOnUse" x="299" y="-66" width="384" height="326">
<rect width="384" height="326" transform="translate(299 -66)" fill="url(#paint2_linear_1021_6152)"/>
</mask>
<g mask="url(#mask1_1021_6152)">
<g filter="url(#filter3_i_1021_6152)">
<path d="M339 -52C339 -55.3137 341.686 -58 345 -58H661C664.314 -58 667 -55.3137 667 -52V82C667 85.3137 664.314 88 661 88H345C341.686 88 339 85.3137 339 82V-52Z" fill="white"/>
<path d="M345 -57.5H661C664.038 -57.5 666.5 -55.0376 666.5 -52V82C666.5 85.0376 664.038 87.5 661 87.5H345C341.962 87.5 339.5 85.0376 339.5 82V-52C339.5 -55.0376 341.962 -57.5 345 -57.5Z" stroke="#A0ABBA"/>
</g>
<rect width="1" height="210" transform="translate(318.5 -98)" fill="#002147"/>
<g filter="url(#filter4_i_1021_6152)">
<path d="M339 110C339 106.686 341.686 104 345 104H661C664.314 104 667 106.686 667 110V188C667 191.314 664.314 194 661 194H345C341.686 194 339 191.314 339 188V110Z" fill="white"/>
<path d="M345 104.5H661C664.038 104.5 666.5 106.962 666.5 110V188C666.5 191.038 664.038 193.5 661 193.5H345C341.962 193.5 339.5 191.038 339.5 188V110L339.507 109.717C339.654 106.811 342.057 104.5 345 104.5Z" stroke="#002147" stroke-opacity="0.37"/>
<g filter="url(#filter5_dd_1021_6152)">
<path d="M351 126C351 120.477 355.477 116 361 116C366.523 116 371 120.477 371 126C371 131.523 366.523 136 361 136C355.477 136 351 131.523 351 126Z" fill="#002147"/>
<path d="M361.235 121L355 124.605L361.133 128.224L362.367 127.416L357.538 124.58L361.067 122.567L365.815 125.299L367.267 124.612L361.235 121Z" fill="white" fill-opacity="0.57"/>
<path d="M359.688 124.612L363.456 126.724L364.786 125.883L361.048 123.797L359.688 124.612Z" fill="white" fill-opacity="0.57"/>
<path d="M364.695 128.927L364.735 125.863C364.295 126.125 363.854 126.388 363.414 126.65C363.418 127.096 363.422 127.542 363.426 127.987C363.426 128.049 363.427 128.112 363.428 128.173L361.19 129.484L358.634 128.157L358.622 128.165C358.623 128.074 358.625 127.983 358.627 127.893C358.636 127.405 358.645 126.917 358.653 126.429C358.165 126.149 357.678 125.869 357.189 125.59L357.203 128.944L357.241 128.963L361.136 130.994V130.995H361.137L361.145 130.998L362.533 130.182L362.53 130.181L364.586 128.981L364.695 128.927Z" fill="white"/>
</g>
</g>
<rect width="1" height="114" transform="translate(318.5 104)" fill="#002147"/>
<g filter="url(#filter6_dd_1021_6152)">
<path d="M315 116C315 113.791 316.791 112 319 112C321.209 112 323 113.791 323 116C323 118.209 321.209 120 319 120C316.791 120 315 118.209 315 116Z" fill="#002147"/>
</g>
<g filter="url(#filter7_i_1021_6152)">
<path d="M339 216C339 212.686 341.686 210 345 210H661C664.314 210 667 212.686 667 216V294C667 297.314 664.314 300 661 300H345C341.686 300 339 297.314 339 294V216Z" fill="white" fill-opacity="0.2"/>
<path d="M345 210.5H661C664.038 210.5 666.5 212.962 666.5 216V294C666.5 297.038 664.038 299.5 661 299.5H345C341.962 299.5 339.5 297.038 339.5 294V216L339.507 215.717C339.654 212.811 342.057 210.5 345 210.5Z" stroke="#A0ABB9"/>
<path d="M379 263.917H392.1V250.817H379V263.917ZM396.938 263V253.473H398.092V261.977H402.52V263H396.938ZM406.261 263.167C405.808 263.167 405.397 263.082 405.028 262.912C404.659 262.738 404.366 262.488 404.149 262.163C403.932 261.834 403.823 261.437 403.823 260.972C403.823 260.562 403.904 260.231 404.065 259.976C404.226 259.719 404.442 259.517 404.712 259.371C404.981 259.226 405.279 259.117 405.605 259.046C405.933 258.971 406.264 258.912 406.596 258.869C407.03 258.813 407.382 258.771 407.652 258.743C407.925 258.712 408.123 258.661 408.247 258.59C408.374 258.519 408.438 258.395 408.438 258.218V258.181C408.438 257.722 408.312 257.365 408.061 257.111C407.813 256.856 407.436 256.729 406.931 256.729C406.406 256.729 405.995 256.844 405.698 257.073C405.4 257.303 405.191 257.548 405.07 257.808L404.028 257.436C404.214 257.002 404.462 256.664 404.772 256.422C405.085 256.177 405.426 256.007 405.795 255.91C406.168 255.811 406.534 255.762 406.893 255.762C407.123 255.762 407.386 255.789 407.684 255.845C407.985 255.898 408.275 256.008 408.554 256.176C408.836 256.343 409.07 256.596 409.257 256.934C409.443 257.272 409.536 257.725 409.536 258.292V263H408.438V262.032H408.382C408.308 262.187 408.183 262.353 408.01 262.53C407.836 262.707 407.605 262.857 407.317 262.981C407.028 263.105 406.676 263.167 406.261 263.167ZM406.428 262.181C406.862 262.181 407.228 262.096 407.526 261.925C407.827 261.755 408.053 261.535 408.205 261.265C408.36 260.995 408.438 260.711 408.438 260.413V259.409C408.391 259.464 408.289 259.516 408.131 259.562C407.976 259.606 407.796 259.644 407.591 259.678C407.39 259.709 407.193 259.737 407 259.762C406.811 259.784 406.658 259.803 406.54 259.818C406.254 259.855 405.988 259.916 405.74 259.999C405.495 260.08 405.296 260.203 405.144 260.367C404.995 260.528 404.921 260.748 404.921 261.028C404.921 261.409 405.062 261.697 405.344 261.893C405.63 262.085 405.991 262.181 406.428 262.181ZM411.539 263V255.855H412.6V256.934H412.675C412.805 256.58 413.041 256.293 413.382 256.073C413.723 255.853 414.107 255.743 414.535 255.743C414.616 255.743 414.717 255.744 414.838 255.748C414.959 255.751 415.05 255.755 415.112 255.762V256.878C415.075 256.869 414.99 256.855 414.856 256.836C414.726 256.814 414.588 256.804 414.442 256.804C414.095 256.804 413.785 256.876 413.512 257.022C413.242 257.165 413.028 257.363 412.87 257.618C412.715 257.869 412.637 258.156 412.637 258.478V263H411.539ZM419.08 265.828C418.55 265.828 418.094 265.76 417.713 265.624C417.331 265.49 417.013 265.314 416.759 265.093C416.508 264.876 416.308 264.644 416.159 264.396L417.033 263.782C417.133 263.912 417.258 264.061 417.41 264.228C417.562 264.399 417.77 264.546 418.034 264.67C418.3 264.797 418.649 264.861 419.08 264.861C419.657 264.861 420.133 264.721 420.509 264.442C420.884 264.163 421.071 263.726 421.071 263.13V261.679H420.978C420.898 261.809 420.783 261.97 420.634 262.163C420.488 262.352 420.277 262.521 420.001 262.67C419.729 262.815 419.359 262.888 418.894 262.888C418.317 262.888 417.8 262.752 417.341 262.479C416.885 262.206 416.523 261.809 416.257 261.288C415.993 260.767 415.861 260.134 415.861 259.39C415.861 258.658 415.99 258.021 416.247 257.478C416.505 256.932 416.863 256.51 417.322 256.213C417.781 255.912 418.311 255.762 418.913 255.762C419.378 255.762 419.747 255.839 420.02 255.994C420.296 256.146 420.507 256.32 420.653 256.515C420.802 256.707 420.916 256.866 420.997 256.99H421.109V255.855H422.169V263.205C422.169 263.819 422.03 264.318 421.751 264.703C421.475 265.09 421.102 265.374 420.634 265.554C420.169 265.737 419.651 265.828 419.08 265.828ZM419.043 261.902C419.484 261.902 419.856 261.801 420.16 261.6C420.464 261.398 420.695 261.108 420.853 260.73C421.011 260.351 421.09 259.899 421.09 259.371C421.09 258.857 421.012 258.402 420.857 258.008C420.702 257.615 420.473 257.306 420.169 257.083C419.865 256.859 419.49 256.748 419.043 256.748C418.578 256.748 418.19 256.866 417.88 257.101C417.573 257.337 417.342 257.653 417.187 258.05C417.035 258.447 416.959 258.888 416.959 259.371C416.959 259.868 417.037 260.306 417.192 260.688C417.35 261.066 417.582 261.364 417.889 261.581C418.2 261.795 418.584 261.902 419.043 261.902ZM427.175 263.149C426.486 263.149 425.892 262.997 425.393 262.693C424.897 262.386 424.514 261.958 424.244 261.409C423.977 260.857 423.844 260.215 423.844 259.483C423.844 258.751 423.977 258.106 424.244 257.548C424.514 256.987 424.889 256.549 425.37 256.236C425.854 255.92 426.418 255.762 427.063 255.762C427.435 255.762 427.803 255.824 428.166 255.948C428.529 256.072 428.859 256.273 429.157 256.552C429.454 256.828 429.692 257.194 429.868 257.65C430.045 258.106 430.133 258.667 430.133 259.334V259.799H424.626V258.85H429.017C429.017 258.447 428.936 258.087 428.775 257.771C428.617 257.455 428.391 257.205 428.096 257.022C427.804 256.839 427.46 256.748 427.063 256.748C426.626 256.748 426.248 256.856 425.928 257.073C425.612 257.287 425.368 257.566 425.198 257.911C425.027 258.255 424.942 258.624 424.942 259.018V259.651C424.942 260.19 425.035 260.648 425.221 261.023C425.41 261.395 425.672 261.679 426.007 261.874C426.342 262.067 426.731 262.163 427.175 262.163C427.463 262.163 427.724 262.122 427.956 262.042C428.192 261.958 428.395 261.834 428.566 261.67C428.736 261.502 428.868 261.294 428.961 261.046L430.022 261.344C429.91 261.704 429.723 262.02 429.459 262.293C429.195 262.563 428.87 262.774 428.482 262.926C428.094 263.074 427.659 263.149 427.175 263.149ZM438.484 263.149C437.795 263.149 437.201 262.997 436.702 262.693C436.206 262.386 435.823 261.958 435.553 261.409C435.286 260.857 435.153 260.215 435.153 259.483C435.153 258.751 435.286 258.106 435.553 257.548C435.823 256.987 436.198 256.549 436.679 256.236C437.163 255.92 437.727 255.762 438.372 255.762C438.744 255.762 439.112 255.824 439.475 255.948C439.838 256.072 440.168 256.273 440.466 256.552C440.763 256.828 441.001 257.194 441.177 257.65C441.354 258.106 441.442 258.667 441.442 259.334V259.799H435.935V258.85H440.326C440.326 258.447 440.245 258.087 440.084 257.771C439.926 257.455 439.7 257.205 439.405 257.022C439.113 256.839 438.769 256.748 438.372 256.748C437.935 256.748 437.557 256.856 437.237 257.073C436.921 257.287 436.677 257.566 436.507 257.911C436.336 258.255 436.251 258.624 436.251 259.018V259.651C436.251 260.19 436.344 260.648 436.53 261.023C436.719 261.395 436.981 261.679 437.316 261.874C437.651 262.067 438.04 262.163 438.484 262.163C438.772 262.163 439.033 262.122 439.265 262.042C439.501 261.958 439.704 261.834 439.875 261.67C440.045 261.502 440.177 261.294 440.27 261.046L441.331 261.344C441.219 261.704 441.032 262.02 440.768 262.293C440.504 262.563 440.179 262.774 439.791 262.926C439.403 263.074 438.968 263.149 438.484 263.149ZM443.739 255.855L445.451 258.776L447.163 255.855H448.429L446.121 259.427L448.429 263H447.163L445.451 260.227L443.739 263H442.474L444.744 259.427L442.474 255.855H443.739ZM449.995 265.68V255.855H451.056V256.99H451.186C451.267 256.866 451.378 256.707 451.521 256.515C451.667 256.32 451.875 256.146 452.144 255.994C452.417 255.839 452.786 255.762 453.252 255.762C453.853 255.762 454.384 255.912 454.843 256.213C455.302 256.514 455.66 256.94 455.917 257.492C456.175 258.044 456.303 258.695 456.303 259.446C456.303 260.203 456.175 260.859 455.917 261.414C455.66 261.966 455.303 262.394 454.847 262.698C454.391 262.998 453.866 263.149 453.27 263.149C452.811 263.149 452.444 263.073 452.168 262.921C451.892 262.766 451.679 262.591 451.53 262.395C451.381 262.197 451.267 262.032 451.186 261.902H451.093V265.68H449.995ZM451.074 259.427C451.074 259.967 451.154 260.443 451.312 260.855C451.47 261.265 451.701 261.586 452.005 261.818C452.309 262.048 452.681 262.163 453.121 262.163C453.58 262.163 453.963 262.042 454.27 261.8C454.58 261.555 454.813 261.226 454.968 260.814C455.126 260.398 455.205 259.936 455.205 259.427C455.205 258.925 455.128 258.472 454.973 258.069C454.821 257.663 454.59 257.342 454.28 257.106C453.973 256.867 453.586 256.748 453.121 256.748C452.675 256.748 452.299 256.861 451.996 257.087C451.692 257.311 451.462 257.624 451.307 258.027C451.152 258.427 451.074 258.894 451.074 259.427ZM460.974 263.149C460.285 263.149 459.691 262.997 459.192 262.693C458.696 262.386 458.313 261.958 458.043 261.409C457.776 260.857 457.643 260.215 457.643 259.483C457.643 258.751 457.776 258.106 458.043 257.548C458.313 256.987 458.688 256.549 459.169 256.236C459.653 255.92 460.217 255.762 460.862 255.762C461.234 255.762 461.602 255.824 461.965 255.948C462.328 256.072 462.658 256.273 462.956 256.552C463.253 256.828 463.491 257.194 463.667 257.65C463.844 258.106 463.933 258.667 463.933 259.334V259.799H458.425V258.85H462.816C462.816 258.447 462.735 258.087 462.574 257.771C462.416 257.455 462.19 257.205 461.895 257.022C461.603 256.839 461.259 256.748 460.862 256.748C460.425 256.748 460.047 256.856 459.727 257.073C459.411 257.287 459.167 257.566 458.997 257.911C458.826 258.255 458.741 258.624 458.741 259.018V259.651C458.741 260.19 458.834 260.648 459.02 261.023C459.209 261.395 459.471 261.679 459.806 261.874C460.141 262.067 460.53 262.163 460.974 262.163C461.262 262.163 461.523 262.122 461.755 262.042C461.991 261.958 462.194 261.834 462.365 261.67C462.535 261.502 462.667 261.294 462.76 261.046L463.821 261.344C463.709 261.704 463.522 262.02 463.258 262.293C462.994 262.563 462.669 262.774 462.281 262.926C461.893 263.074 461.458 263.149 460.974 263.149ZM466.7 258.702V263H465.603V255.855H466.663V256.971H466.756C466.924 256.608 467.178 256.317 467.519 256.096C467.86 255.873 468.301 255.762 468.84 255.762C469.324 255.762 469.748 255.861 470.11 256.059C470.473 256.255 470.755 256.552 470.957 256.952C471.159 257.349 471.259 257.852 471.259 258.46V263H470.162V258.534C470.162 257.973 470.016 257.535 469.724 257.222C469.433 256.906 469.033 256.748 468.524 256.748C468.174 256.748 467.86 256.824 467.584 256.976C467.311 257.128 467.096 257.349 466.938 257.641C466.78 257.932 466.7 258.286 466.7 258.702ZM478.327 257.455L477.341 257.734C477.279 257.57 477.187 257.41 477.066 257.255C476.948 257.097 476.787 256.966 476.582 256.864C476.378 256.762 476.116 256.711 475.796 256.711C475.359 256.711 474.995 256.811 474.703 257.013C474.415 257.211 474.27 257.464 474.27 257.771C474.27 258.044 474.37 258.26 474.568 258.418C474.767 258.576 475.077 258.708 475.499 258.813L476.559 259.074C477.198 259.229 477.674 259.466 477.987 259.785C478.301 260.102 478.457 260.51 478.457 261.009C478.457 261.418 478.339 261.784 478.104 262.107C477.871 262.429 477.545 262.684 477.127 262.87C476.708 263.056 476.221 263.149 475.666 263.149C474.937 263.149 474.334 262.991 473.856 262.674C473.379 262.358 473.076 261.896 472.949 261.288L473.991 261.028C474.091 261.412 474.278 261.701 474.554 261.893C474.833 262.085 475.198 262.181 475.647 262.181C476.159 262.181 476.565 262.073 476.866 261.856C477.17 261.635 477.322 261.372 477.322 261.065C477.322 260.817 477.235 260.609 477.062 260.441C476.888 260.271 476.621 260.144 476.261 260.06L475.071 259.781C474.416 259.626 473.935 259.385 473.628 259.06C473.324 258.731 473.173 258.32 473.173 257.827C473.173 257.424 473.286 257.067 473.512 256.757C473.742 256.447 474.053 256.203 474.447 256.027C474.844 255.85 475.294 255.762 475.796 255.762C476.503 255.762 477.058 255.917 477.462 256.227C477.868 256.537 478.156 256.946 478.327 257.455ZM483.106 263.149C482.417 263.149 481.823 262.997 481.324 262.693C480.828 262.386 480.445 261.958 480.175 261.409C479.908 260.857 479.775 260.215 479.775 259.483C479.775 258.751 479.908 258.106 480.175 257.548C480.445 256.987 480.82 256.549 481.301 256.236C481.785 255.92 482.349 255.762 482.994 255.762C483.366 255.762 483.734 255.824 484.097 255.948C484.459 256.072 484.79 256.273 485.087 256.552C485.385 256.828 485.622 257.194 485.799 257.65C485.976 258.106 486.064 258.667 486.064 259.334V259.799H480.556V258.85H484.948C484.948 258.447 484.867 258.087 484.706 257.771C484.548 257.455 484.321 257.205 484.027 257.022C483.735 256.839 483.391 256.748 482.994 256.748C482.557 256.748 482.178 256.856 481.859 257.073C481.543 257.287 481.299 257.566 481.129 257.911C480.958 258.255 480.873 258.624 480.873 259.018V259.651C480.873 260.19 480.966 260.648 481.152 261.023C481.341 261.395 481.603 261.679 481.938 261.874C482.273 262.067 482.662 262.163 483.106 262.163C483.394 262.163 483.655 262.122 483.887 262.042C484.123 261.958 484.326 261.834 484.497 261.67C484.667 261.502 484.799 261.294 484.892 261.046L485.953 261.344C485.841 261.704 485.653 262.02 485.39 262.293C485.126 262.563 484.801 262.774 484.413 262.926C484.025 263.074 483.589 263.149 483.106 263.149ZM493.521 263.167C493.069 263.167 492.658 263.082 492.289 262.912C491.92 262.738 491.627 262.488 491.409 262.163C491.192 261.834 491.084 261.437 491.084 260.972C491.084 260.562 491.164 260.231 491.326 259.976C491.487 259.719 491.703 259.517 491.972 259.371C492.242 259.226 492.54 259.117 492.866 259.046C493.194 258.971 493.525 258.912 493.856 258.869C494.291 258.813 494.643 258.771 494.912 258.743C495.185 258.712 495.384 258.661 495.508 258.59C495.635 258.519 495.699 258.395 495.699 258.218V258.181C495.699 257.722 495.573 257.365 495.322 257.111C495.074 256.856 494.697 256.729 494.191 256.729C493.667 256.729 493.256 256.844 492.959 257.073C492.661 257.303 492.452 257.548 492.331 257.808L491.289 257.436C491.475 257.002 491.723 256.664 492.033 256.422C492.346 256.177 492.687 256.007 493.056 255.91C493.428 255.811 493.794 255.762 494.154 255.762C494.384 255.762 494.647 255.789 494.945 255.845C495.246 255.898 495.536 256.008 495.815 256.176C496.097 256.343 496.331 256.596 496.517 256.934C496.703 257.272 496.796 257.725 496.796 258.292V263H495.699V262.032H495.643C495.568 262.187 495.444 262.353 495.271 262.53C495.097 262.707 494.866 262.857 494.578 262.981C494.289 263.105 493.937 263.167 493.521 263.167ZM493.689 262.181C494.123 262.181 494.489 262.096 494.787 261.925C495.088 261.755 495.314 261.535 495.466 261.265C495.621 260.995 495.699 260.711 495.699 260.413V259.409C495.652 259.464 495.55 259.516 495.392 259.562C495.237 259.606 495.057 259.644 494.852 259.678C494.65 259.709 494.453 259.737 494.261 259.762C494.072 259.784 493.918 259.803 493.801 259.818C493.515 259.855 493.249 259.916 493 259.999C492.755 260.08 492.557 260.203 492.405 260.367C492.256 260.528 492.182 260.748 492.182 261.028C492.182 261.409 492.323 261.697 492.605 261.893C492.89 262.085 493.252 262.181 493.689 262.181ZM499.898 253.473V263H498.8V253.473H499.898ZM504.905 263.149C504.216 263.149 503.623 262.997 503.123 262.693C502.627 262.386 502.244 261.958 501.974 261.409C501.707 260.857 501.574 260.215 501.574 259.483C501.574 258.751 501.707 258.106 501.974 257.548C502.244 256.987 502.619 256.549 503.1 256.236C503.584 255.92 504.148 255.762 504.793 255.762C505.165 255.762 505.533 255.824 505.896 255.948C506.259 256.072 506.589 256.273 506.887 256.552C507.184 256.828 507.422 257.194 507.598 257.65C507.775 258.106 507.864 258.667 507.864 259.334V259.799H502.356V258.85H506.747C506.747 258.447 506.666 258.087 506.505 257.771C506.347 257.455 506.121 257.205 505.826 257.022C505.534 256.839 505.19 256.748 504.793 256.748C504.356 256.748 503.978 256.856 503.658 257.073C503.342 257.287 503.098 257.566 502.928 257.911C502.757 258.255 502.672 258.624 502.672 259.018V259.651C502.672 260.19 502.765 260.648 502.951 261.023C503.14 261.395 503.402 261.679 503.737 261.874C504.072 262.067 504.461 262.163 504.905 262.163C505.193 262.163 505.454 262.122 505.686 262.042C505.922 261.958 506.125 261.834 506.296 261.67C506.466 261.502 506.598 261.294 506.691 261.046L507.752 261.344C507.64 261.704 507.453 262.02 507.189 262.293C506.925 262.563 506.6 262.774 506.212 262.926C505.824 263.074 505.389 263.149 504.905 263.149ZM509.534 263V255.855H510.594V256.934H510.669C510.799 256.58 511.035 256.293 511.376 256.073C511.717 255.853 512.102 255.743 512.53 255.743C512.61 255.743 512.711 255.744 512.832 255.748C512.953 255.751 513.044 255.755 513.106 255.762V256.878C513.069 256.869 512.984 256.855 512.851 256.836C512.72 256.814 512.582 256.804 512.436 256.804C512.089 256.804 511.779 256.876 511.506 257.022C511.236 257.165 511.022 257.363 510.864 257.618C510.709 257.869 510.632 258.156 510.632 258.478V263H509.534ZM517.963 255.855V256.785H514.26V255.855H517.963ZM515.339 254.143H516.437V260.953C516.437 261.263 516.482 261.496 516.572 261.651C516.665 261.803 516.783 261.905 516.926 261.958C517.071 262.008 517.225 262.032 517.386 262.032C517.507 262.032 517.606 262.026 517.684 262.014C517.761 261.998 517.823 261.986 517.87 261.977L518.093 262.963C518.019 262.991 517.915 263.019 517.782 263.047C517.648 263.078 517.479 263.093 517.275 263.093C516.964 263.093 516.66 263.026 516.363 262.893C516.068 262.76 515.823 262.557 515.628 262.284C515.435 262.011 515.339 261.666 515.339 261.251V254.143Z" fill="#71717A"/>
<g filter="url(#filter8_dd_1021_6152)">
<path d="M351 232C351 226.477 355.477 222 361 222C366.523 222 371 226.477 371 232C371 237.523 366.523 242 361 242C355.477 242 351 237.523 351 232Z" fill="#002147"/>
<path d="M361.235 227L355 230.605L361.133 234.224L362.367 233.416L357.538 230.58L361.067 228.567L365.815 231.299L367.267 230.612L361.235 227Z" fill="white" fill-opacity="0.57"/>
<path d="M359.688 230.612L363.456 232.724L364.786 231.883L361.048 229.797L359.688 230.612Z" fill="white" fill-opacity="0.57"/>
<path d="M364.695 234.927L364.735 231.863C364.295 232.125 363.854 232.388 363.414 232.65C363.418 233.096 363.422 233.542 363.426 233.987C363.426 234.049 363.427 234.112 363.428 234.173L361.19 235.484L358.634 234.157L358.622 234.165C358.623 234.074 358.625 233.983 358.627 233.893C358.636 233.405 358.645 232.917 358.653 232.429C358.165 232.149 357.678 231.869 357.189 231.59L357.203 234.944L357.241 234.963L361.136 236.994V236.995H361.137L361.145 236.998L362.533 236.182L362.53 236.181L364.586 234.981L364.695 234.927Z" fill="white"/>
</g>
</g>
<rect width="1" height="114" transform="translate(318.5 210)" fill="#002147"/>
<g filter="url(#filter9_dd_1021_6152)">
<path d="M315 222C315 219.791 316.791 218 319 218C321.209 218 323 219.791 323 222C323 224.209 321.209 226 319 226C316.791 226 315 224.209 315 222Z" fill="#002147"/>
</g>
</g>
</g>
<defs>
<filter id="filter0_f_1021_6152" x="-3.23926" y="38.8906" width="702.479" height="130.203" filterUnits="userSpaceOnUse" color-interpolation-filters="sRGB">
<feFlood flood-opacity="0" result="BackgroundImageFix"/>
<feBlend mode="normal" in="SourceGraphic" in2="BackgroundImageFix" result="shape"/>
<feGaussianBlur stdDeviation="3" result="effect1_foregroundBlur_1021_6152"/>
</filter>
<filter id="filter1_f_1021_6152" x="-3.23926" y="-20.9648" width="702.479" height="154.127" filterUnits="userSpaceOnUse" color-interpolation-filters="sRGB">
<feFlood flood-opacity="0" result="BackgroundImageFix"/>
<feBlend mode="normal" in="SourceGraphic" in2="BackgroundImageFix" result="shape"/>
<feGaussianBlur stdDeviation="3" result="effect1_foregroundBlur_1021_6152"/>
</filter>
<filter id="filter2_f_1021_6152" x="-3.23926" y="0.0546875" width="702.479" height="142.268" filterUnits="userSpaceOnUse" color-interpolation-filters="sRGB">
<feFlood flood-opacity="0" result="BackgroundImageFix"/>
<feBlend mode="normal" in="SourceGraphic" in2="BackgroundImageFix" result="shape"/>
<feGaussianBlur stdDeviation="3" result="effect1_foregroundBlur_1021_6152"/>
</filter>
<filter id="filter3_i_1021_6152" x="339" y="-58" width="328" height="146" filterUnits="userSpaceOnUse" color-interpolation-filters="sRGB">
<feFlood flood-opacity="0" result="BackgroundImageFix"/>
<feBlend mode="normal" in="SourceGraphic" in2="BackgroundImageFix" result="shape"/>
<feColorMatrix in="SourceAlpha" type="matrix" values="0 0 0 0 0 0 0 0 0 0 0 0 0 0 0 0 0 0 127 0" result="hardAlpha"/>
<feMorphology radius="1" operator="erode" in="SourceAlpha" result="effect1_innerShadow_1021_6152"/>
<feOffset/>
<feComposite in2="hardAlpha" operator="arithmetic" k2="-1" k3="1"/>
<feColorMatrix type="matrix" values="0 0 0 0 0.631373 0 0 0 0 0.631373 0 0 0 0 0.666667 0 0 0 0.1 0"/>
<feBlend mode="normal" in2="shape" result="effect1_innerShadow_1021_6152"/>
</filter>
<filter id="filter4_i_1021_6152" x="339" y="104" width="328" height="90" filterUnits="userSpaceOnUse" color-interpolation-filters="sRGB">
<feFlood flood-opacity="0" result="BackgroundImageFix"/>
<feBlend mode="normal" in="SourceGraphic" in2="BackgroundImageFix" result="shape"/>
<feColorMatrix in="SourceAlpha" type="matrix" values="0 0 0 0 0 0 0 0 0 0 0 0 0 0 0 0 0 0 127 0" result="hardAlpha"/>
<feMorphology radius="1" operator="erode" in="SourceAlpha" result="effect1_innerShadow_1021_6152"/>
<feOffset/>
<feComposite in2="hardAlpha" operator="arithmetic" k2="-1" k3="1"/>
<feColorMatrix type="matrix" values="0 0 0 0 0.631373 0 0 0 0 0.631373 0 0 0 0 0.666667 0 0 0 0.1 0"/>
<feBlend mode="normal" in2="shape" result="effect1_innerShadow_1021_6152"/>
</filter>
<filter id="filter5_dd_1021_6152" x="350" y="115" width="22" height="22" filterUnits="userSpaceOnUse" color-interpolation-filters="sRGB">
<feFlood flood-opacity="0" result="BackgroundImageFix"/>
<feColorMatrix in="SourceAlpha" type="matrix" values="0 0 0 0 0 0 0 0 0 0 0 0 0 0 0 0 0 0 127 0" result="hardAlpha"/>
<feOffset/>
<feComposite in2="hardAlpha" operator="out"/>
<feColorMatrix type="matrix" values="0 0 0 0 1 0 0 0 0 1 0 0 0 0 1 0 0 0 1 0"/>
<feBlend mode="normal" in2="BackgroundImageFix" result="effect1_dropShadow_1021_6152"/>
<feColorMatrix in="SourceAlpha" type="matrix" values="0 0 0 0 0 0 0 0 0 0 0 0 0 0 0 0 0 0 127 0" result="hardAlpha"/>
<feMorphology radius="1" operator="dilate" in="SourceAlpha" result="effect2_dropShadow_1021_6152"/>
<feOffset/>
<feComposite in2="hardAlpha" operator="out"/>
<feColorMatrix type="matrix" values="0 0 0 0 0.631373 0 0 0 0 0.631373 0 0 0 0 0.666667 0 0 0 0.1 0"/>
<feBlend mode="normal" in2="effect1_dropShadow_1021_6152" result="effect2_dropShadow_1021_6152"/>
<feBlend mode="normal" in="SourceGraphic" in2="effect2_dropShadow_1021_6152" result="shape"/>
</filter>
<filter id="filter6_dd_1021_6152" x="314" y="111" width="10" height="10" filterUnits="userSpaceOnUse" color-interpolation-filters="sRGB">
<feFlood flood-opacity="0" result="BackgroundImageFix"/>
<feColorMatrix in="SourceAlpha" type="matrix" values="0 0 0 0 0 0 0 0 0 0 0 0 0 0 0 0 0 0 127 0" result="hardAlpha"/>
<feOffset/>
<feComposite in2="hardAlpha" operator="out"/>
<feColorMatrix type="matrix" values="0 0 0 0 1 0 0 0 0 1 0 0 0 0 1 0 0 0 1 0"/>
<feBlend mode="normal" in2="BackgroundImageFix" result="effect1_dropShadow_1021_6152"/>
<feColorMatrix in="SourceAlpha" type="matrix" values="0 0 0 0 0 0 0 0 0 0 0 0 0 0 0 0 0 0 127 0" result="hardAlpha"/>
<feMorphology radius="1" operator="dilate" in="SourceAlpha" result="effect2_dropShadow_1021_6152"/>
<feOffset/>
<feComposite in2="hardAlpha" operator="out"/>
<feColorMatrix type="matrix" values="0 0 0 0 0.152941 0 0 0 0 0.152941 0 0 0 0 0.164706 0 0 0 1 0"/>
<feBlend mode="normal" in2="effect1_dropShadow_1021_6152" result="effect2_dropShadow_1021_6152"/>
<feBlend mode="normal" in="SourceGraphic" in2="effect2_dropShadow_1021_6152" result="shape"/>
</filter>
<filter id="filter7_i_1021_6152" x="339" y="210" width="328" height="90" filterUnits="userSpaceOnUse" color-interpolation-filters="sRGB">
<feFlood flood-opacity="0" result="BackgroundImageFix"/>
<feBlend mode="normal" in="SourceGraphic" in2="BackgroundImageFix" result="shape"/>
<feColorMatrix in="SourceAlpha" type="matrix" values="0 0 0 0 0 0 0 0 0 0 0 0 0 0 0 0 0 0 127 0" result="hardAlpha"/>
<feMorphology radius="1" operator="erode" in="SourceAlpha" result="effect1_innerShadow_1021_6152"/>
<feOffset/>
<feComposite in2="hardAlpha" operator="arithmetic" k2="-1" k3="1"/>
<feColorMatrix type="matrix" values="0 0 0 0 0.631373 0 0 0 0 0.631373 0 0 0 0 0.666667 0 0 0 0.1 0"/>
<feBlend mode="normal" in2="shape" result="effect1_innerShadow_1021_6152"/>
</filter>
<filter id="filter8_dd_1021_6152" x="350" y="221" width="22" height="22" filterUnits="userSpaceOnUse" color-interpolation-filters="sRGB">
<feFlood flood-opacity="0" result="BackgroundImageFix"/>
<feColorMatrix in="SourceAlpha" type="matrix" values="0 0 0 0 0 0 0 0 0 0 0 0 0 0 0 0 0 0 127 0" result="hardAlpha"/>
<feOffset/>
<feComposite in2="hardAlpha" operator="out"/>
<feColorMatrix type="matrix" values="0 0 0 0 1 0 0 0 0 1 0 0 0 0 1 0 0 0 1 0"/>
<feBlend mode="normal" in2="BackgroundImageFix" result="effect1_dropShadow_1021_6152"/>
<feColorMatrix in="SourceAlpha" type="matrix" values="0 0 0 0 0 0 0 0 0 0 0 0 0 0 0 0 0 0 127 0" result="hardAlpha"/>
<feMorphology radius="1" operator="dilate" in="SourceAlpha" result="effect2_dropShadow_1021_6152"/>
<feOffset/>
<feComposite in2="hardAlpha" operator="out"/>
<feColorMatrix type="matrix" values="0 0 0 0 0.631373 0 0 0 0 0.631373 0 0 0 0 0.666667 0 0 0 0.1 0"/>
<feBlend mode="normal" in2="effect1_dropShadow_1021_6152" result="effect2_dropShadow_1021_6152"/>
<feBlend mode="normal" in="SourceGraphic" in2="effect2_dropShadow_1021_6152" result="shape"/>
</filter>
<filter id="filter9_dd_1021_6152" x="314" y="217" width="10" height="10" filterUnits="userSpaceOnUse" color-interpolation-filters="sRGB">
<feFlood flood-opacity="0" result="BackgroundImageFix"/>
<feColorMatrix in="SourceAlpha" type="matrix" values="0 0 0 0 0 0 0 0 0 0 0 0 0 0 0 0 0 0 127 0" result="hardAlpha"/>
<feOffset/>
<feComposite in2="hardAlpha" operator="out"/>
<feColorMatrix type="matrix" values="0 0 0 0 1 0 0 0 0 1 0 0 0 0 1 0 0 0 1 0"/>
<feBlend mode="normal" in2="BackgroundImageFix" result="effect1_dropShadow_1021_6152"/>
<feColorMatrix in="SourceAlpha" type="matrix" values="0 0 0 0 0 0 0 0 0 0 0 0 0 0 0 0 0 0 127 0" result="hardAlpha"/>
<feMorphology radius="1" operator="dilate" in="SourceAlpha" result="effect2_dropShadow_1021_6152"/>
<feOffset/>
<feComposite in2="hardAlpha" operator="out"/>
<feColorMatrix type="matrix" values="0 0 0 0 0.152941 0 0 0 0 0.152941 0 0 0 0 0.164706 0 0 0 1 0"/>
<feBlend mode="normal" in2="effect1_dropShadow_1021_6152" result="effect2_dropShadow_1021_6152"/>
<feBlend mode="normal" in="SourceGraphic" in2="effect2_dropShadow_1021_6152" result="shape"/>
</filter>
<linearGradient id="paint0_linear_1021_6152" x1="353" y1="166.5" x2="352.5" y2="260" gradientUnits="userSpaceOnUse">
<stop stop-color="white" stop-opacity="0"/>
<stop offset="0.768749" stop-color="white"/>
</linearGradient>
<linearGradient id="paint1_linear_1021_6152" x1="705" y1="163" x2="0" y2="163" gradientUnits="userSpaceOnUse">
<stop stop-opacity="0"/>
<stop offset="1"/>
</linearGradient>
<linearGradient id="paint2_linear_1021_6152" x1="192" y1="0" x2="192" y2="326" gradientUnits="userSpaceOnUse">
<stop stop-opacity="0"/>
<stop offset="0.5"/>
<stop offset="1" stop-opacity="0"/>
</linearGradient>
<clipPath id="clip0_1021_6152">
<rect width="705" height="260" fill="white"/>
</clipPath>
</defs>
</svg>
