<svg width="742" height="691" viewBox="0 0 742 691" fill="none" xmlns="http://www.w3.org/2000/svg">
<path d="M163.342 560.176L160.528 555.775M163.342 560.176L165.194 559.386M163.342 560.176L178.819 569.945M163.342 560.176L131.676 570.144M131.676 570.144L180.58 599.552L209.024 590.859M131.676 570.144L103.594 575.182M131.676 570.144L98.5367 515.869M209.024 590.859L220.272 598.386M209.024 590.859L185.385 575.032L152.526 549.574M103.594 575.182L153.529 604.145M103.594 575.182L79.537 575.3M98.5367 515.869L112.199 511.38M98.5367 515.869L71.8217 521.071L103.591 575.185M98.5367 515.869L95.7092 493.301M220.272 598.386L207.842 600.479L153.529 604.145M220.272 598.386L221.129 598.961M152.526 549.574L123.182 523.093M152.526 549.574L143.48 522.18L181.396 551.503L199.184 505.175M123.182 523.093L97.8856 496.115L77.0734 469.164M123.182 523.093L109.657 491.73M77.0734 469.164L68.1019 454.347M77.0734 469.164L56.6621 429.903M48.9723 521.58L30.3109 517.477M48.9723 521.58L71.8217 521.074L67.1609 456.604M48.9723 521.58L47.1692 457.456M48.9723 521.58L79.537 575.3M30.3109 517.477L59.8535 570.601L79.537 575.3M30.3109 517.477L16.083 508.943M30.3109 517.477L30.8184 454.285M67.1633 456.602L69.2073 456.17M47.1715 457.456L67.1633 456.604L68.1019 454.347M47.1715 457.456L30.8184 454.285M47.1715 457.456L57.5336 436.025M68.1019 454.347L61.0795 442.752L49.2991 420.424M49.2991 420.424L30.8184 454.285M49.2991 420.424L42.4019 407.363M153.529 604.145L130.274 604.048L111.156 599.358L59.8558 570.604L44.7983 561.289L34.515 547.627L6.42792 496.226M153.529 604.145L180.583 599.552L218.582 597.256M221.129 598.961L259.069 620.882L298.452 640.35M221.129 598.961L222.675 579.103L266.499 604.406L288.827 561.035L288.936 560.825M6.42792 496.226L1.4079 479.639M6.42792 496.226L16.083 508.943M6.42792 496.226L9.8255 436.469M79.537 575.3L130.274 604.046M1.4079 479.639L1 459.542L5.00482 404.965M1.4079 479.639L5.38727 422.28M16.083 508.943L18.3242 447.22M16.083 508.943L44.796 561.289M9.8255 436.469L5.38727 422.28M9.8255 436.469L36.6727 395.775M5.00482 404.965L8.60181 384.862M5.00482 404.965L5.38727 422.28M5.00482 404.965L27.8287 375.217M5.38727 422.28L32.0236 384.966M8.60181 384.862L16.0483 362.349M8.60181 384.862L24.6281 365.352M27.8287 375.217L32.0236 384.966M27.8287 375.217L25.9283 370.8M16.0483 362.349L21.198 350.979M16.0483 362.349L22.2317 355.308M21.198 350.979L19.4459 343.635L18.9198 318.687L27.5413 262.411M21.198 350.979L24.6281 365.352M24.6281 365.352L25.9283 370.8M27.5413 262.411L33.0573 239.381M27.5413 262.411L67.789 217.786M27.5413 262.411L28.1625 288.218M33.0573 239.381L44.4692 219.468L83.4537 177.176M33.0573 239.381L72.7858 195.99M30.8184 454.285L18.3218 447.22M18.3218 447.22L9.82318 436.469M18.3218 447.22L42.4019 407.363M42.4019 407.363L38.3715 399.725M36.6727 395.775L38.3715 399.725M36.6727 395.775L32.0236 384.966M38.3715 399.725L56.6621 429.903M38.3715 399.725L48.2121 346.469M25.9283 370.8L35.0481 316.395M213.391 119.068L208.644 127.902M201.956 129.032L213.393 119.068L243.369 95.1M201.956 129.032L195.981 130.039M201.956 129.032L208.644 127.904L208.67 127.9M243.369 95.1L233.039 108.423M243.369 95.1L273.454 73.1626M195.981 130.039L146.02 140.818L120.489 149.433M195.981 130.039L246.943 151.849M195.981 130.039L173.806 137.561M208.67 127.9L221.76 125.687M208.67 127.9L233.037 108.423M221.76 125.687L250.676 124.518M221.76 125.687L267.618 148.213M250.676 124.518L261.254 125.178M250.676 124.518L290.906 147.164M233.039 108.423L237.714 125.042M233.039 108.423L257.513 90.5859M273.454 73.1626L303.201 53.6002L332.161 36.7244M273.454 73.1626L257.511 90.5859M332.161 36.7244L359.889 22.8218M332.161 36.7244L305.152 61.0597M359.889 22.8218L385.939 12.1558L348.582 41.3147L327.577 49.86L359.889 22.8218ZM305.152 61.0597L281.675 74.7105M305.152 61.0597L327.577 49.8554L315.38 99.688M305.152 61.0597L298.273 108.115M385.939 12.1581L409.878 4.93421M409.878 4.93421L431.29 1.32804L485.18 1L506.597 1.16171L524.331 5.66653M409.878 4.93421L367.816 35.5924M524.331 5.66653L573.638 36.8145L588.274 46.3093M524.331 5.66653L464.982 5.43321M524.331 5.66653L538 14.5376L588.274 46.3093M588.274 46.3093L598.339 60.3066L623.794 113.41L628.948 131.296L629.261 152.304L629.27 153.094M629.27 153.094L621.824 207.91L617.761 230.328M629.27 153.094L624.654 178.49M629.27 153.094L603.695 101.173M367.816 35.5924L348.584 41.3124L331.371 93.3304M367.816 35.5924L384.945 32.8272M367.816 35.5924L345.972 89.149M617.761 230.328L609.401 255.465M617.761 230.328L624.654 178.49M624.654 178.49L598.655 127.498L588.404 157.23M624.654 178.49L615.075 207.088L609.401 255.465M609.401 255.465L603.746 267.799M603.746 267.799L598.569 279.091M603.746 267.799L625.588 285.959M598.569 279.091L597.92 280.505L596.831 282.884M598.569 279.091L625.588 285.959M625.588 285.959L651.22 310.442M596.831 282.884L580.218 312.108M596.831 282.884L600.627 238.395M580.218 312.108L559.844 342.583M580.218 312.108L581.5 271.851M559.844 342.583L538.969 369.917M559.844 342.583L558.008 306.829L581.5 271.851M538.969 369.917L536.058 373.731L535.838 373.99M538.969 369.917L591.437 342.646L649.012 338.256M581.5 271.851L552.768 224.813M581.5 271.851L600.404 238.778L600.627 238.395M552.768 224.813L501.549 184.069M552.768 224.813L573.04 189.858L600.627 238.395M552.768 224.813L527.914 261.42M535.838 373.99L541.076 383.587L500.367 428.709M535.838 373.99L509.304 404.944M509.304 404.944L495.463 419.473M509.304 404.944L499.672 378.604M495.463 419.473L494.353 420.642M495.463 419.473L500.367 428.709M499.672 378.604L530.558 342.648M499.672 378.604L466.321 336.727M499.672 378.604L465.946 413.963M494.353 420.642L484.491 430.991M494.353 420.642L491.474 432.396M500.367 428.709L502.439 434.542M500.367 428.709L499.18 433.944M257.511 90.5859L281.672 74.7151M257.511 90.5859L261.254 125.178M261.254 125.178L282.231 126.495M282.231 126.495L315.901 131.545L321.908 132.91M282.231 126.495L316.399 148.687M303.201 53.5955L281.675 74.7105M281.675 74.7105L280.326 118.444M280.326 118.444L269.236 125.677M280.326 118.444L298.273 108.111M280.326 118.444L283.274 126.648M298.273 108.115L315.382 99.6903M298.273 108.115L303.787 128.394L304.167 129.785M315.382 99.6903L331.371 93.3304M315.382 99.6903L321.908 132.91M331.371 93.3304L345.972 89.149M331.371 93.3304L337.005 136.339M321.908 132.91L349.697 139.222M349.697 139.222L345.972 89.149M349.697 139.222L372.296 159.182M384.945 32.8272L399.655 33.109M384.945 32.8272L358.93 87.25M384.945 32.8272L431.288 1.32804L449.776 1.47127M345.972 89.149L358.93 87.25M399.655 33.109L449.776 1.47127M399.655 33.109L370.013 87.682L358.93 87.25M399.655 33.109L411.665 36.4818M449.776 1.47127L506.594 1.16171M449.776 1.47127L464.982 5.43321M358.93 87.25L360.872 149.093L369.046 150.271M372.296 159.182L343.678 152.72M372.296 159.182L377.742 160.801M372.296 159.182L373.872 168.39M464.982 5.43321L476.577 13.2231M464.982 5.43321L411.66 36.4818M476.577 13.2231L538 14.5399L547.271 27.7286M476.577 13.2231L484.294 24.7808M476.577 13.2231L420.727 42.9318M411.66 36.4818L379.007 90.4704M411.66 36.4818L420.722 42.9364M379.007 90.4704L370.01 87.6843L369.044 150.274L375.937 152.607M379.007 90.4704L375.937 152.607M379.007 90.4704L385.742 95.5897L420.722 42.9364M375.937 152.607L380.185 156.005M375.937 152.607L378.924 158.472L377.742 160.801M420.722 42.9364L426.63 52.415M377.742 160.801L377.612 161.048L376.152 163.913L375.987 164.236L374.423 167.309L373.468 169.178M378.924 158.475L381.304 153.808L381.306 153.804L381.86 152.718L387.773 137.628L391.124 124.169L428.414 79.9129M551.88 45.1034L547.271 27.7309L598.342 60.3043L603.556 78.6701M547.273 27.7263L484.294 24.7808M484.294 24.7808L487.91 39.9864M484.294 24.7808L427.267 52.1055L426.634 52.4104M390.074 102.982L385.747 95.5851L381.311 153.799M390.074 102.982L391.891 112.558M390.074 102.982L426.632 52.4104L429.23 64.7929M390.074 102.982L386.442 141.033M391.891 112.558L391.128 124.164M391.891 112.558L390.294 127.521M391.891 112.558L429.23 64.7929M429.23 64.7929L487.91 39.984M429.23 64.7929L428.419 79.9106M487.91 39.984L551.883 45.0988M487.91 39.984L487.282 58.6363L428.419 79.9106M428.419 79.9106L424.161 97.5303M603.554 78.6655L551.883 45.0988M603.554 78.6655L628.95 131.293M603.554 78.6655L603.698 101.169M551.883 45.0988L551.88 45.4291L551.639 66.4378M551.639 66.4378L603.698 101.169M551.639 66.4378L546.436 91.4407L598.657 127.495L603.698 101.169M551.637 66.4401L487.279 58.6386L482.331 80.4628M482.331 80.4628L546.434 91.443L536.269 119.712M482.331 80.4628L473.084 105.112M482.331 80.4628L424.159 97.5303M362.733 186.721L373.471 169.173L405.475 139.086M362.733 186.721L353.335 200.051M362.733 186.721L386.366 166.528L386.54 166.378L391.314 162.298M405.475 139.086L391.314 162.298M405.475 139.086L416.481 117.365M405.475 139.086L459.635 132.169M391.314 162.298L374.228 186.585L420.993 191.517M391.314 162.298L442.174 161.15M353.335 200.051L352.962 200.578L352.774 200.845L349.824 205.029L338.285 219.59M353.335 200.051L337.571 197.81M338.285 219.59L335.601 222.982L335.309 223.349L334.975 223.769M338.285 219.59L338.261 218.807L337.571 197.81M337.571 197.81L316.399 148.687M334.975 223.769L325.832 234.188L325.721 234.313L318.453 242.595M334.975 223.769L354.517 211.486M318.453 242.595L300.556 261.148M318.453 242.595L332.548 236.533M300.556 261.148L281.624 279.084M300.556 261.148L308.728 261.236M281.624 279.084L270.881 288.385M281.624 279.084L283.515 285.12M270.881 288.385L270.854 288.408L267.322 291.464M270.881 288.385L271.03 287.419M354.517 211.486L374.226 186.583L349.824 205.032M354.517 211.486L396.461 222.693M354.517 211.486L332.548 236.533M271.03 287.419L247.821 231.287L252.85 221.009M271.03 287.419L274.807 279.375M536.269 119.712L473.084 105.112M536.269 119.712L521.237 150.773L573.038 189.861L588.404 157.23M536.269 119.712L588.404 157.23M473.084 105.112L459.635 132.169M473.084 105.112L416.481 117.37M459.635 132.169L521.237 150.775L501.549 184.069M459.635 132.169L442.174 161.15M416.481 117.37L424.069 97.7682L424.159 97.5372L387.777 137.63M416.481 117.37L381.863 152.713M588.404 157.23L615.072 207.085L600.627 238.395M501.549 184.069L477.52 218.973M501.549 184.069L442.174 161.15M442.174 161.15L420.993 191.517M420.993 191.517L477.52 218.973M420.993 191.517L407.523 208.635L407.507 208.654L407.076 209.204L396.461 222.693M527.914 261.42L477.52 218.978M527.914 261.42L498.916 298.974M527.914 261.42L558.006 306.827L530.558 342.648M477.52 218.973L449.576 254.811M449.576 254.811L498.916 298.974M449.576 254.811L418.24 290.875M449.576 254.811L396.461 222.693M498.916 298.974L530.558 342.648M498.916 298.974L466.321 336.725M396.461 222.693L369.037 254.069M530.558 342.648L536.058 373.729M418.24 290.875L466.321 336.727M418.24 290.875L384.127 326.428M418.24 290.875L369.037 254.069M466.321 336.727L430.769 373.902M384.127 326.428L339.251 285.021L368.446 254.686L369.037 254.069M384.127 326.428L430.767 373.9M384.127 326.428L347.919 360.748M369.037 254.069L332.548 236.533M332.548 236.533L308.728 261.236M308.728 261.236L283.515 285.12M308.728 261.236L339.253 285.023L338.25 285.97L307.685 314.933M283.515 285.12L269.655 297.117L269.236 297.48L267.655 298.85M465.946 413.963L475.77 428.991M465.946 413.963L455.936 423.455M475.77 428.991L455.936 423.455M475.77 428.991L478.971 429.882M455.936 423.455L455.208 423.252M430.767 373.9L465.946 413.958M430.767 373.9L401.361 401.784M347.919 360.748L340.734 366.942M347.919 360.748L370.961 385.807M307.685 314.933L292.866 327.741M307.685 314.933L283.515 285.123M347.919 360.751L307.683 314.935M67.5341 377.908L48.2145 346.469M67.5341 377.908L68.2386 377.012L107.281 327.408M67.5341 377.908L92.7567 410.128M67.5341 377.908L56.6621 429.903M48.2121 346.469L88.4899 297.533L107.281 327.408M48.2121 346.469L35.0481 316.395M107.281 327.408L165.008 292.603M107.281 327.408L131.697 358.052L161.353 388.881L212.746 345.998M92.7567 410.128L123.481 442.51M92.7567 410.128L125.409 366.461L125.447 366.41L131.697 358.05L186.622 319.225M92.7567 410.128L80.5474 460.765L97.8832 496.115M123.481 442.51L159.177 474.408M123.481 442.51L109.657 491.732M56.6621 429.903L80.5498 460.767L109.657 491.732M109.657 491.732L143.48 522.183L159.177 474.408M75.5854 268.977L88.4922 297.533L148.261 266.641L165.008 292.605M75.5854 268.977L136.604 241.805M75.5854 268.977L68.6813 242.246M75.5854 268.977L35.0481 316.395M165.008 292.605L224.494 283.182M165.008 292.605L186.622 319.225M224.494 283.182L210.8 262.384M224.494 283.182L268.599 301.056L269.315 301.342M224.494 283.182L242.029 304.466M186.622 319.225L212.746 345.998M186.622 319.225L242.027 304.463M212.746 345.998L233.065 363.768L235.255 365.685L235.651 366.029L242.931 372.398M212.746 345.998L263.113 325.839M210.8 262.384L210.313 261.374L201.147 242.452M210.8 262.384L148.259 266.641L136.604 241.805M210.8 262.384L258.529 285.453L258.846 285.605M201.147 242.452L195.654 223.732M201.147 242.452L251.388 270.476M201.147 242.452L136.604 241.805M136.604 241.805L130.177 218.534M258.846 285.605L251.388 270.476M258.846 285.605L267.621 298.799L267.658 298.852L268.2 299.672L268.712 300.437L268.879 300.691L269.315 301.342M269.315 301.342L270.156 302.361L270.522 302.8L274.189 307.222L274.393 307.469L282.634 317.412L286.233 321.041L287.107 321.928L290.859 325.715L291.075 325.929L298.586 333.514L304.577 338.7L316.891 349.355L337.221 364.636M251.388 270.476L247.049 256.222M247.049 256.222L245.865 243.089M247.049 256.222L265.08 294.98M337.221 364.636L340.5 366.789L340.734 366.944L359.208 379.072M337.221 364.636L314.397 367.242L287.383 346.899M359.208 379.072L343.65 386.474M359.208 379.072L370.963 385.809L371.088 385.883L382.442 392.388L406.487 404.334M343.65 386.474L314.397 367.244L276.622 397.91M343.65 386.474L361.934 396.953L362.288 397.161L374.592 404.214L375.065 403.502L382.442 392.384M343.65 386.474L313.178 422.018L276.622 397.91M276.622 397.91L242.931 372.398M242.931 372.398L195.737 419.279M242.931 372.398L287.383 346.903M195.737 419.279L161.356 388.879L123.481 442.505M195.737 419.279L234.208 448.638M195.737 419.279L159.177 474.408M406.487 404.334L406.622 420.124L374.592 404.216L351.884 444.247L313.178 422.021L276.027 476.358M406.487 404.334L429.323 414.018L430.896 414.684M430.896 414.684L455.208 423.252M430.896 414.684L439.124 433.89M455.208 423.252L471.471 445.261M478.971 429.882L481.518 430.393L501.746 434.463M478.971 429.882L503.044 454.028M501.746 434.463L512.159 442.919L512.425 443.136L533.245 460.041M501.746 434.463L507.155 435.085M503.044 454.028L532.839 459.963L533.24 460.041M503.044 454.028L471.471 445.261M507.155 435.085L523.124 436.924L528.769 437.014L529.782 437.028L542.714 437.233M507.155 435.085L545.148 394.597L546.932 404.932L607.886 385.151M542.714 437.233L560.191 435.413M542.714 437.233L587.356 463.523M651.22 310.442L673.377 335.193L691.667 359.833M651.22 310.442L616.435 298.247M691.667 359.833L705.754 383.979M691.667 359.833L649.012 338.256M673.374 335.193L634.318 318.32M634.318 318.32L616.435 298.247M634.318 318.32L649.012 338.256M634.318 318.32L580.389 327.401M705.754 383.979L715.344 407.238M705.754 383.979L660.247 357.745M649.012 338.256L660.245 357.747M705.756 383.979L735.245 455.377M735.245 455.377L740.9 480.69M735.245 455.377L715.344 407.238M715.344 407.238L720.197 429.222M715.344 407.238L667.794 376.464M740.9 480.69L741 504.168L728.45 559.261L722.54 581.764M740.9 480.69L720.197 429.222M720.197 429.222L720.146 449.539M720.197 429.222L671.479 394.095M710.672 601.495L722.538 581.764L735.415 525.38M710.672 601.495L668.776 640.934L651.58 656.965M710.672 601.495L692.916 618.043M710.672 601.495L724.107 543.912M735.415 525.38L735.062 525.957L724.107 543.912M735.415 525.38L715.096 467.817L705.031 483.702M651.58 656.965L628.974 669.594M651.58 656.965L692.916 618.043M692.916 618.043L669.448 631.033M724.107 543.912L705.031 483.702M724.107 543.912L707.151 559.376M628.974 669.594L601.255 678.516L568.838 683.49M628.974 669.594L669.448 631.033M568.838 683.49L521.758 689.231L489.771 690M568.838 683.49L532.246 684.342L531.585 684.428L489.771 690M568.838 683.49L606.711 645.118M489.771 690L454.784 687.112L417.433 680.577M606.711 645.118L568.407 645.779M606.711 645.118L624.695 584.13M568.407 645.779L588.04 584.405M568.407 645.779L532.246 684.34L492.116 680.981M568.407 645.779L526.326 642.032M417.433 680.577L378.423 670.479M417.433 680.577L449.182 673.415M378.423 670.479L338.502 656.99L298.452 640.35M378.423 670.479L404.253 661.735M298.452 640.35L311.984 626.902L358.214 646.135M35.0481 316.395L28.1625 288.218M83.4537 177.176L99.4846 161.591M83.4537 177.176L141.953 161.797M83.4537 177.176L72.7858 195.99M72.7858 195.99L67.789 217.786M72.7858 195.99L132.974 178.22M67.789 217.786L68.6836 242.244M67.789 217.786L128.993 197.225M99.4846 161.591L120.489 149.433M99.4846 161.591L155.666 148.185M120.489 149.433L173.806 137.561M141.953 161.797L132.974 178.22M141.953 161.797L155.668 148.185M141.953 161.797L204.12 177.836M132.974 178.22L128.993 197.225M132.974 178.22L197.221 191.168M173.806 137.561L155.666 148.185M173.806 137.561L229.248 158.047M246.943 151.849L229.248 158.047M246.943 151.849L284.887 200.709M246.943 151.849L267.618 148.213M229.248 158.047L214.879 166.745M229.248 158.047L271.574 205.611M290.906 147.164L267.618 148.213M290.906 147.164L316.399 148.687M290.906 147.164L318.179 196.798M316.399 148.687L343.678 152.72M28.1625 288.218L68.6836 242.244M28.1625 288.218L19.4459 343.632M130.177 218.534L68.6836 242.244M130.177 218.534L128.993 197.225M130.177 218.534L195.656 223.735M245.865 243.089L194.361 206.547M245.865 243.089L247.824 231.287M245.865 243.089L267.324 291.464M128.993 197.225L194.361 206.547M195.656 223.735L194.361 206.547M195.656 223.735L247.049 256.227M194.361 206.547L197.221 191.168M197.221 191.168L204.12 177.836M197.221 191.168L247.824 231.291M204.12 177.836L214.879 166.745M204.12 177.836L252.853 221.009M214.879 166.745L260.823 212.41M252.85 221.009L260.823 212.408M252.85 221.009L274.807 279.375M274.807 279.375L280.847 272.599M274.807 279.375L273.586 286.042M260.823 212.41L271.574 205.611M260.823 212.41L280.847 272.599M280.847 272.599L279.195 281.188M280.847 272.599L289.031 267.203M155.666 148.185L214.876 166.743M271.574 205.611L289.031 267.203M271.574 205.611L284.887 200.709M289.031 267.203L297.724 263.83M289.031 267.203L287.781 273.248M284.887 200.709L300.514 197.759M284.887 200.709L299.045 262.582M267.618 148.213L300.514 197.759M300.514 197.759L318.179 196.798M300.514 197.759L309.634 251.738M318.179 196.798L337.571 197.812M318.179 196.798L322.455 238.037M343.678 152.72L356.696 195.285M343.678 152.72L315.901 131.547M616.435 298.247L582.774 307.61M616.435 298.244L597.918 280.502M580.389 327.401L574.479 320.688M580.389 327.401L591.435 342.643L599.802 357.512M580.389 327.401L562.836 338.102M660.245 357.747L667.794 376.464M660.245 357.747L599.802 357.512M599.802 357.512L605.325 371.761M599.802 357.512L541.998 383.173L541.071 383.584L545.145 394.594L605.325 371.761M667.794 376.464L671.479 394.095M667.794 376.464L605.325 371.761M671.479 394.095L671.177 410.329M671.479 394.095L607.883 385.148M605.325 371.761L607.883 385.148M607.883 385.148L607.397 397.445M516.65 436.175L546.928 404.93L546.369 414.406L607.399 397.441M735.41 525.38L740.995 504.166L720.144 449.537L715.094 467.815L666.839 424.872M720.146 449.537L671.18 410.327M671.18 410.327L666.836 424.869M671.18 410.327L607.399 397.441M607.399 397.441L603.844 408.416M543.458 422.862L546.369 414.409L524.009 436.938M543.458 422.862L538.22 430.136M543.458 422.862L529.585 436.63M705.031 483.702L690.029 496.866M705.031 483.702L658.465 437.441M690.029 496.866L646.135 447.788M690.029 496.866L707.151 559.376M690.029 496.866L670.253 507.019L684.712 571.417M707.151 559.376L684.717 571.417M658.465 437.441L666.841 424.869L603.848 408.419M658.465 437.441L646.135 447.788M658.465 437.441L598.207 418.179L597.243 417.872M603.848 408.419L597.243 417.872M603.848 408.419L543.461 422.859M646.135 447.788L630.01 455.698M646.135 447.788L587.669 425.62M597.243 417.872L587.669 425.62M597.243 417.872L538.22 430.134L530.723 436.092L528.767 437.011M587.669 425.62L575.256 431.509M587.669 425.62L530.725 436.09M669.448 631.033L684.717 571.417M669.448 631.033L640.576 640.144M684.717 571.417L657.093 579.745L640.576 640.142M692.916 618.041L707.151 559.374M630.01 455.698L610.312 460.989L560.191 435.408L575.256 431.509M630.01 455.698L575.256 431.509M575.256 431.509L541.342 437.21M645.973 513.919L670.25 507.021L630.005 455.701M645.973 513.919L657.093 579.75L624.693 584.132M645.973 513.919L617.559 517.38L624.695 584.13M645.973 513.919L610.711 461.582L610.31 460.991L587.354 463.525M624.695 584.13L588.04 584.405M587.354 463.525L617.559 517.377L585.472 517.273M587.354 463.525L561.515 463.216M601.255 678.518L640.573 640.144L606.711 645.12M588.04 584.405L547.767 580.494M588.04 584.405L585.472 517.276M585.472 517.276L550.267 513.556M585.472 517.276L561.515 463.216M561.515 463.216L533.24 460.041M561.515 463.216L523.119 436.919M533.24 460.041L550.267 513.554M492.116 680.981L454.782 687.11M492.116 680.981L449.178 673.413M492.116 680.981L526.326 642.032M526.326 642.032L481.24 633.881M547.764 580.494L526.326 642.034M547.764 580.494L504.608 572.408M547.764 580.494L550.267 513.554M504.608 572.408L459.382 560.254M504.608 572.408L512.585 506.238M550.267 513.554L512.583 506.24M449.178 673.413L404.251 661.735M449.178 673.413L481.24 633.881M481.24 633.881L434.009 621.432M459.382 560.254L412.981 544.238M459.382 560.254L473.128 495.431L493.467 501.001L494.054 501.162L495.518 501.564L495.639 501.597L512.585 506.238M459.382 560.254L434.009 621.434M512.585 506.238L503.041 454.026M471.471 445.261L473.128 495.433L432.662 481.313M471.471 445.261L439.124 433.89M404.251 661.735L358.211 646.135M404.251 661.735L434.009 621.432M434.009 621.432L385.562 604.889M481.242 633.886L504.608 572.41M412.981 544.238L366.325 524.645L336.873 584.552L385.562 604.889M412.981 544.238L432.662 481.311M432.662 481.313L391.977 464.142L366.325 524.648L320.36 501.869L288.933 560.825M432.662 481.313L439.122 433.893M439.124 433.89L406.619 420.122L406.367 420.884L391.977 464.14L351.88 444.242M358.211 646.135L338.5 656.988M358.211 646.135L385.562 604.889M385.562 604.889L412.979 544.235M288.933 560.825L336.871 584.555L311.982 626.905L266.494 604.408L259.066 620.884M288.933 560.825L242.725 534.182M242.725 534.182L199.184 505.175M242.725 534.182L222.673 579.1L181.394 551.503L185.382 575.03M351.884 444.245L320.365 501.867L276.027 476.358M276.027 476.358L242.727 534.182M276.027 476.358L234.208 448.638M234.208 448.638L234.599 448.167L276.62 397.91M234.208 448.638L199.184 505.178M199.184 505.175L159.177 474.404M287.383 346.899L269.278 331.187L269.257 331.169L263.113 325.837M287.383 346.899L316.888 349.35M263.113 325.837L242.027 304.463M263.113 325.837L298.586 333.509M242.027 304.463L282.632 317.41" stroke="url(#paint0_linear_750_16519)" stroke-width="0.708285" stroke-miterlimit="10" stroke-linecap="round" stroke-linejoin="round"/>
<defs>
<linearGradient id="paint0_linear_750_16519" x1="118.533" y1="135.091" x2="615.874" y2="768.515" gradientUnits="userSpaceOnUse">
<stop stop-color="#E9EBF1"/>
<stop offset="1" stop-color="#E9EBF1" stop-opacity="0"/>
</linearGradient>
</defs>
</svg>
