<svg width="469" height="260" viewBox="0 0 469 260" fill="none" xmlns="http://www.w3.org/2000/svg">
<g clip-path="url(#clip0_1021_6406)">
<mask id="mask0_1021_6406" style="mask-type:alpha" maskUnits="userSpaceOnUse" x="-344" y="-86" width="768" height="768">
<rect width="768" height="768" transform="translate(-344 -86)" fill="url(#paint0_radial_1021_6406)"/>
</mask>
<g mask="url(#mask0_1021_6406)">
<g clip-path="url(#clip1_1021_6406)">
<g clip-path="url(#clip2_1021_6406)">
<line x1="40.5" y1="-86" x2="40.5" y2="682" stroke="#E9EAEB"/>
<line x1="88.5" y1="-86" x2="88.5" y2="682" stroke="#E9EAEB"/>
<line x1="136.5" y1="-86" x2="136.5" y2="682" stroke="#E9EAEB"/>
<line x1="184.5" y1="-86" x2="184.5" y2="682" stroke="#E9EAEB"/>
<line x1="232.5" y1="-86" x2="232.5" y2="682" stroke="#E9EAEB"/>
<line x1="280.5" y1="-86" x2="280.5" y2="682" stroke="#E9EAEB"/>
<line x1="328.5" y1="-86" x2="328.5" y2="682" stroke="#E9EAEB"/>
<line x1="376.5" y1="-86" x2="376.5" y2="682" stroke="#E9EAEB"/>
</g>
<rect x="-343.5" y="-85.5" width="767" height="767" stroke="#E9EAEB"/>
<g clip-path="url(#clip3_1021_6406)">
<line x1="-344" y1="9.5" x2="424" y2="9.5" stroke="#E9EAEB"/>
<line x1="-344" y1="57.5" x2="424" y2="57.5" stroke="#E9EAEB"/>
<line x1="-344" y1="105.5" x2="424" y2="105.5" stroke="#E9EAEB"/>
<line x1="-344" y1="153.5" x2="424" y2="153.5" stroke="#E9EAEB"/>
<line x1="-344" y1="201.5" x2="424" y2="201.5" stroke="#E9EAEB"/>
<line x1="-344" y1="249.5" x2="424" y2="249.5" stroke="#E9EAEB"/>
</g>
<rect x="-343.5" y="-85.5" width="767" height="767" stroke="#E9EAEB"/>
</g>
</g>
<rect y="149" width="469" height="111" fill="url(#paint1_linear_1021_6406)"/>
<path d="M-29.2933 219.956C-43.959 211.369 5.15739 170.131 17.8862 182.193C33.7971 197.27 34.7656 253.707 68.6629 232.129C102.56 210.55 107.126 197.132 120.408 200.867C133.69 204.602 150.708 232.129 168.556 232.129C186.404 232.129 260.84 184.129 273.983 189.801C287.127 195.472 314.384 225.627 334.168 219.956C353.953 214.284 368.204 175.691 390.756 189.801C408.798 201.088 481.103 222.722 515 232.129V324.392L-29.2933 332V219.956Z" fill="#527297"/>
<path d="M-26 193.658C-6.24269 185.09 2.32342 201.121 18.2122 201.121C34.1009 201.121 38.9366 193.658 51.095 193.658C57.2467 193.658 83.4391 214.904 115.064 219.917C161.073 193.658 182.221 213.51 192.159 210.519C223.384 201.121 226.147 132.435 226.147 86H230.845C230.845 136.167 241.76 216.185 289.012 210.519C320.251 206.773 312.776 201.121 330.599 201.121C348.422 201.121 359.06 210.519 380.752 210.519C402.443 210.519 415.845 193.658 442.234 193.658L442.868 193.658C469.099 193.657 498.543 193.656 508 210.519V298H-26V193.658Z" fill="url(#paint2_linear_1021_6406)"/>
<path d="M228.792 31L267.09 97.3338L247.665 77.4337L228.792 97.3338L209.367 77.4337L190.494 97.3338L228.792 31Z" fill="#99A6B6"/>
<path d="M228.792 31L267.09 97.3338L247.665 77.4337L228.792 97.3338L228.792 31Z" fill="#527297"/>
</g>
<defs>
<radialGradient id="paint0_radial_1021_6406" cx="0" cy="0" r="1" gradientUnits="userSpaceOnUse" gradientTransform="translate(384 384) rotate(90) scale(384 384)">
<stop/>
<stop offset="1" stop-opacity="0"/>
</radialGradient>
<linearGradient id="paint1_linear_1021_6406" x1="234.833" y1="166.5" x2="234.081" y2="259.997" gradientUnits="userSpaceOnUse">
<stop stop-color="white" stop-opacity="0"/>
<stop offset="0.768749" stop-color="white"/>
</linearGradient>
<linearGradient id="paint2_linear_1021_6406" x1="241" y1="113.64" x2="241" y2="209.552" gradientUnits="userSpaceOnUse">
<stop stop-color="#F6F6F9"/>
<stop offset="1" stop-color="#002147" stop-opacity="0.37"/>
</linearGradient>
<clipPath id="clip0_1021_6406">
<rect width="469" height="260" fill="white"/>
</clipPath>
<clipPath id="clip1_1021_6406">
<rect width="768" height="768" fill="white" transform="translate(-344 -86)"/>
</clipPath>
<clipPath id="clip2_1021_6406">
<rect x="-344" y="-86" width="768" height="768" fill="white"/>
</clipPath>
<clipPath id="clip3_1021_6406">
<rect x="-344" y="-86" width="768" height="768" fill="white"/>
</clipPath>
</defs>
</svg>
