<svg width="23" height="24" viewBox="0 0 23 24" fill="none" xmlns="http://www.w3.org/2000/svg">
<path d="M11.4582 19.7906C10.3937 19.7905 9.35386 19.4707 8.47339 18.8725C7.59292 18.2743 6.91247 17.4254 6.52025 16.4359C6.12804 15.4463 6.04215 14.3618 6.27372 13.3228C6.5053 12.2839 7.04366 11.3384 7.819 10.6091C8.76952 9.71457 11.104 8.10393 10.7499 4.5625C14.9996 7.39564 17.1245 10.2288 12.8747 14.4785C13.583 14.4785 14.6455 14.4785 16.4162 12.729C16.6074 13.2765 16.7703 13.8651 16.7703 14.4785C16.7703 15.8874 16.2106 17.2385 15.2144 18.2347C14.2182 19.231 12.867 19.7906 11.4582 19.7906Z" fill="#8B5CF6"/>
<path d="M11.4582 19.7906C10.3937 19.7905 9.35386 19.4707 8.47339 18.8725C7.59292 18.2743 6.91247 17.4254 6.52025 16.4359C6.12804 15.4463 6.04215 14.3618 6.27372 13.3228C6.5053 12.2839 7.04366 11.3384 7.819 10.6091C8.76952 9.71457 11.104 8.10393 10.7499 4.5625C14.9996 7.39564 17.1245 10.2288 12.8747 14.4785C13.583 14.4785 14.6455 14.4785 16.4162 12.729C16.6074 13.2765 16.7703 13.8651 16.7703 14.4785C16.7703 15.8874 16.2106 17.2385 15.2144 18.2347C14.2182 19.231 12.867 19.7906 11.4582 19.7906Z" fill="url(#paint0_linear_531_2957)" fill-opacity="0.24"/>
<defs>
<linearGradient id="paint0_linear_531_2957" x1="11.4582" y1="4.5625" x2="11.4582" y2="19.7906" gradientUnits="userSpaceOnUse">
<stop stop-color="white"/>
<stop offset="1" stop-color="white" stop-opacity="0"/>
</linearGradient>
</defs>
</svg>
