<svg width="162" height="50" viewBox="0 0 162 50" fill="none" xmlns="http://www.w3.org/2000/svg">
<path d="M16.3045 0.000152461C10.9883 0.000152461 8.15272 0.355996 6.91178 0.355996C4.84418 0.355996 3.01299 0.29646 1.18104 0.29646C0.17719 0.29646 0 0.355996 0 0.770612C0 1.48108 0.236025 1.54115 2.89509 1.54115C4.54841 1.54115 5.49471 2.07438 5.49471 6.75446V34.0068C5.49471 34.8953 5.37583 35.014 2.71767 35.014C1.41782 35.014 1.06306 35.1317 1.06306 35.7249C1.06306 36.3172 1.47666 36.3763 2.06813 36.3763C3.95808 36.3763 5.25793 36.1396 7.73882 36.1396C10.3381 36.1396 12.8196 36.7314 15.301 36.7314C23.5129 36.7314 29.0073 33.5923 29.0073 26.9567C29.0073 21.8026 25.5208 19.7879 22.7443 18.3652C21.5628 17.773 20.4401 17.4769 20.4401 17.3588C20.4401 17.1816 21.7399 16.5294 22.8631 15.759C24.7539 14.4559 27.2941 12.3814 27.2941 8.1754C27.2941 3.96893 23.9856 0.000152461 16.3045 0.000152461ZM117.527 0.0679212C117.219 0.0679212 115.266 0.94396 111.259 1.20162C110.385 1.25307 109.973 1.20108 109.973 1.81954C109.973 2.38692 110.488 2.49029 111.413 2.49029C113.725 2.49029 114.033 2.48999 114.033 5.73595V34.1289C114.033 35.0565 113.159 35.0051 111.053 35.0051C109.819 35.0051 109.768 35.3151 109.768 35.6759C109.768 36.088 109.87 36.191 111.053 36.191C111.772 36.191 114.496 36.0883 116.242 36.0883C117.168 36.0883 118.299 36.191 119.069 36.191C120.919 36.191 121.278 36.1909 121.278 35.6759C121.278 35.2627 121.381 34.9537 118.812 34.9537C117.887 34.9537 117.527 34.387 117.527 30.1104C117.527 28.6153 117.784 24.5452 117.784 4.91152C117.784 3.36595 118.041 1.50997 118.041 0.891514C118.041 0.324589 117.784 0.0679212 117.527 0.0679212ZM74.8671 0.1193C74.4044 0.1193 71.3723 1.25231 67.6732 1.25231C67.1079 1.25231 67.0051 1.45867 67.0051 1.97368C67.0051 2.33532 67.2106 2.49037 69.3167 2.49037C70.704 2.49037 71.1154 2.95415 71.1154 6.61229C71.1154 17.4856 70.961 32.7383 70.961 34.2324C70.961 35.0053 70.4988 35.0052 68.7518 35.0052C67.5185 35.0052 67.262 35.2629 67.262 35.6759C67.262 36.1394 67.5703 36.191 68.7518 36.191C69.4711 36.191 71.3726 36.0884 73.1205 36.0884C74.7648 36.0884 77.1275 36.191 77.8981 36.191C79.0284 36.191 79.2856 36.191 79.2856 35.6759C79.2856 35.2628 79.0802 35.0051 77.8981 35.0051C74.7126 35.0051 74.8159 35.0055 74.8159 32.5843V29.3379C74.8159 28.8738 75.535 28.5126 76.357 27.9971C77.2302 27.4302 77.9492 26.9154 78.1549 26.9154C78.4632 26.9154 80.6226 30.1624 82.7804 32.6357C84.9383 35.1089 85.401 36.3972 86.3265 36.3972C87.0458 36.3972 88.5871 36.3459 89.2037 36.3459C89.666 36.3459 90.3338 36.3972 90.9505 36.3972C92.0807 36.3972 92.4404 36.2941 92.4404 35.9335C92.4404 35.5213 92.0297 35.2627 90.7968 35.2627C89.0499 35.2627 87.4055 32.7382 85.6576 30.6256C82.0612 26.2967 81.1369 25.3181 81.1369 24.8541C81.1369 24.4934 84.3224 22.2267 86.8921 19.701C88.4846 18.1555 90.2312 15.9401 90.2312 15.4756C90.2312 15.3208 90.026 15.2694 89.615 15.2694C88.9989 15.2694 86.0176 15.4235 85.3496 15.4235C84.7329 15.4235 83.7572 15.2694 83.2436 15.2694C82.5756 15.2694 82.3186 15.3723 82.3186 15.7853C82.3186 16.2493 82.5754 16.3518 83.346 16.3518C85.6065 16.3518 85.7608 16.4552 85.7608 17.2794C85.7608 18.3614 85.2982 19.2376 83.2948 21.1438C81.6505 22.6903 76.3054 27.4306 75.0208 27.4306C74.8668 27.4306 74.8159 27.2758 74.8159 27.0695C74.8159 18.6704 75.1232 12.8993 75.1232 5.06665C75.1232 3.41763 75.2264 1.25224 75.2264 0.582781C75.2264 0.273667 75.1237 0.1193 74.8671 0.1193ZM14.5315 1.42208C19.9076 1.42208 22.3891 7.10985 22.3891 10.0724C22.3891 14.7525 20.4396 15.8782 18.7263 17.1817C18.7263 17.1817 16.2446 16.8259 12.6415 16.8259C11.2229 16.8259 10.4554 16.9439 10.4554 15.9958V3.14054C10.4554 1.95561 10.6329 1.42208 14.5315 1.42208ZM40.4392 14.7538C35.7633 14.7538 30.8813 19.0827 30.8813 26.3484C30.8813 34.9539 37.1506 37.0159 41.3637 37.0159C45.526 37.0159 49.8938 33.7684 49.8938 33.5111C49.8938 33.4077 49.7395 33.0987 49.4825 33.0987C49.1747 33.0987 47.3249 34.3359 43.9337 34.3359C40.0279 34.3359 34.5292 32.4291 34.5292 25.3178C34.5292 24.1328 34.6839 23.8751 35.5067 23.8237C41.3636 23.463 46.5022 22.33 47.8383 22.0198C49.2264 21.7106 49.9458 21.5048 49.9458 21.2984C49.9458 20.8863 49.123 19.6494 48.2488 18.6193C46.3993 16.4548 43.1116 14.7538 40.4392 14.7538ZM100.355 14.7538C95.6795 14.7538 90.7969 19.0827 90.7969 26.3484C90.7969 34.9539 97.0658 37.0159 101.279 37.0159C105.441 37.0159 109.809 33.7684 109.809 33.5111C109.809 33.4077 109.655 33.0987 109.398 33.0987C109.09 33.0987 107.24 34.3359 103.849 34.3359C99.9433 34.3359 94.4455 32.4291 94.4455 25.3178C94.4455 24.1328 94.5998 23.8751 95.4216 23.8237C101.279 23.463 106.417 22.33 107.754 22.0198C109.141 21.7106 109.861 21.5048 109.861 21.2984C109.861 20.8863 109.039 19.6494 108.165 18.6193C106.315 16.4548 103.027 14.7538 100.355 14.7538ZM129.993 14.7538C125.317 14.7538 120.435 19.0827 120.435 26.3484C120.435 34.9539 126.704 37.0159 130.917 37.0159C135.08 37.0159 139.448 33.7684 139.448 33.5111C139.448 33.4077 139.293 33.0987 139.036 33.0987C138.728 33.0987 136.879 34.3359 133.487 34.3359C129.582 34.3359 124.084 32.4291 124.084 25.3178C124.084 24.1328 124.238 23.8751 125.06 23.8237C130.918 23.463 136.056 22.33 137.392 22.0198C138.78 21.7106 139.499 21.5048 139.499 21.2984C139.499 20.8863 138.677 19.6494 137.803 18.6193C135.954 16.4548 132.664 14.7538 129.993 14.7538ZM58.3207 15.1141C57.4978 15.1141 56.5214 15.3717 55.6995 15.3717C54.6719 15.3717 53.6953 15.2682 51.9484 15.2682C51.0743 15.2682 51.126 15.4235 51.126 16.0424C51.126 16.6094 51.1257 16.5575 52.0517 16.5575C54.9288 16.5575 54.8257 16.6606 54.8257 20.1644V34.2841C54.8257 35.0055 54.6719 35.0569 52.5653 35.0569C51.3315 35.0569 51.2803 35.1595 51.2803 35.6755C51.2803 36.191 51.3827 36.1907 52.5653 36.1907C53.2846 36.1907 55.0319 35.9331 56.7788 35.9331C58.4236 35.9331 61.866 36.1907 62.5852 36.1907C63.9212 36.1907 63.9727 36.2425 63.9727 35.6755C63.9727 35.2109 63.9212 35.0569 62.5852 35.0569C58.7831 35.0569 58.6294 35.0564 58.6294 32.5317V21.9157C58.6294 19.7517 59.7592 18.515 62.7389 18.515C65.3087 18.515 65.9257 20.6278 66.645 20.6278C66.9533 20.6278 67.7749 18.3607 67.7749 17.8451C67.7749 16.5058 65.4116 15.3713 64.4856 15.3713C62.0708 15.3713 59.6568 18.0513 58.8862 18.0513C58.6805 18.0513 58.6294 17.6908 58.6294 17.2273C58.6294 17.0724 58.7318 15.9388 58.7318 15.681C58.7318 15.2679 58.5264 15.1141 58.3207 15.1141ZM160.921 15.1654C160.202 15.1654 158.815 15.3717 158.044 15.3717C156.656 15.3717 155.731 15.2689 154.344 15.2689C153.419 15.2689 153.265 15.2686 153.265 15.9389C153.265 16.4544 153.471 16.4548 155.064 16.4548C156.81 16.4548 156.81 16.7636 156.81 18.3092C156.81 19.0305 154.96 24.3905 153.727 28.1C152.906 30.5228 152.597 31.2438 152.238 31.2438C152.032 31.2438 151.415 30.3679 151.003 29.2859C147.921 21.3494 146.585 19.5456 146.585 18.0515C146.585 16.8666 146.893 16.5574 148.126 16.5574C149.205 16.5574 149.411 16.5058 149.411 16.0422C149.411 15.4743 149.205 15.2687 148.126 15.2687C146.482 15.2687 144.683 15.4228 143.244 15.4228C142.011 15.4228 141.652 15.3201 140.213 15.3201C139.288 15.3201 139.135 15.5781 139.135 16.0422C139.135 16.5058 139.186 16.5574 140.213 16.5574C141.138 16.5574 141.498 16.8154 142.783 19.9066C145.609 26.6057 149.719 36.1388 149.719 36.7058C149.719 38.2514 145.301 44.3316 143.451 46.6501C141.704 48.8665 139.288 49.1756 139.288 49.4848C139.288 49.7426 139.802 50 140.676 50C141.806 50 142.166 49.5879 143.707 49.3821C144.838 49.2273 145.454 49.1756 146.02 48.0422C147.664 44.6409 149.976 40.4666 153.214 32.5827C157.273 22.6899 159.534 16.5057 160.665 16.5057C161.281 16.5057 162 16.2479 162 15.7843C162 15.2169 161.743 15.1654 160.921 15.1654ZM39.9251 15.8362C42.2892 15.8362 45.3204 19.6487 45.3204 20.937C45.3204 21.2462 45.2696 21.3493 44.7043 21.4522C40.8503 22.0706 38.0755 22.7416 35.4036 22.7416C34.7864 22.7416 34.7867 22.6896 34.7867 22.4318C34.7867 21.7096 36.0203 15.8362 39.9251 15.8362ZM99.8398 15.8362C102.204 15.8362 105.236 19.6487 105.236 20.937C105.236 21.2462 105.184 21.3493 104.619 21.4522C100.765 22.0706 97.9905 22.7416 95.319 22.7416C94.7024 22.7416 94.7022 22.6896 94.7022 22.4318C94.7022 21.7096 95.9351 15.8362 99.8398 15.8362ZM129.478 15.8362C131.842 15.8362 134.874 19.6487 134.874 20.937C134.874 21.2462 134.822 21.3493 134.257 21.4522C130.403 22.0706 127.629 22.7416 124.956 22.7416C124.34 22.7416 124.339 22.6896 124.339 22.4318C124.339 21.7096 125.572 15.8362 129.478 15.8362ZM12.5865 17.9503C19.0254 17.9503 23.3967 22.0976 23.3967 27.43C23.3967 32.5841 20.0889 35.6657 15.5993 35.6657C13.7085 35.6657 11.8187 35.2507 11.1684 34.5394C10.6372 33.9467 10.4595 30.6295 10.4595 30.0959V19.4904C10.4595 18.1873 10.9322 17.9503 12.5865 17.9503ZM41.8815 42.1355C40.6677 42.1355 39.6553 42.8699 39.6553 44.0867C39.6553 46.3994 42.6937 45.9871 42.6937 47.2744C42.6937 47.787 42.3024 48.2296 41.5104 48.2296C40.9788 48.2296 40.3072 47.9788 39.7451 47.5967L39.2441 48.4819C39.8056 48.8735 40.5674 49.2464 41.5105 49.2464C42.8241 49.2464 43.9171 48.4005 43.9171 47.2342C43.9171 44.8906 40.8787 45.5954 40.8787 44.0361C40.8787 43.5235 41.2198 43.1518 41.8816 43.1518C42.4731 43.1518 42.934 43.353 43.4457 43.614L43.877 42.749C43.296 42.3874 42.6032 42.1355 41.8815 42.1355ZM66.1046 42.1355C64.0389 42.1355 63.1167 43.6142 63.1167 45.6857C63.1167 47.6568 64.0289 49.2465 66.1046 49.2465C68.1802 49.2465 69.0932 47.6568 69.0932 45.6857C69.0932 43.6142 68.1703 42.1355 66.1046 42.1355ZM82.2073 42.1355C80.1416 42.1355 79.1281 43.6241 79.1281 45.6962C79.1281 47.8078 80.0517 49.2464 82.1672 49.2464C83.0898 49.2464 83.9523 48.8635 84.654 48.2199L84.0423 47.436C83.4808 47.949 82.8393 48.2296 82.2273 48.2296C80.9536 48.2296 80.3514 47.3152 80.3514 45.6858C80.3514 44.0668 80.9939 43.1517 82.2073 43.1517C82.8591 43.1517 83.3404 43.3833 83.8716 43.8254L84.4936 43.0207C83.7715 42.4271 83.0595 42.1355 82.2073 42.1355ZM108.315 42.1355C106.249 42.1355 105.328 43.6142 105.328 45.6857C105.328 47.6568 106.24 49.2465 108.315 49.2465C110.391 49.2465 111.304 47.6568 111.304 45.6857C111.304 43.6142 110.381 42.1355 108.315 42.1355ZM12.3566 42.236L11.203 42.3574V49.1355H12.3965V44.5095H12.4166L15.3147 49.1355H16.3777V42.2465H15.1841V46.7726H15.1544L12.3566 42.236ZM27.6659 42.236V49.1355H31.8377L31.9283 48.1193H28.8595V46.1688H31.4369V45.1527H28.8595V43.2522H31.7575V42.2361L27.6659 42.236ZM70.6283 42.236V49.1355H71.8213V46.1688H74.349V45.1527H71.8213V43.2522H74.6392V42.2361L70.6283 42.236ZM89.0771 42.236L87.6837 42.3469L85.2667 49.1355H86.3802L86.9511 47.4753H89.7193L90.2909 49.1355H91.5149L89.0771 42.236ZM100.547 42.236V49.1355H101.74V46.1688H104.267V45.1527H101.74V43.2522H104.558V42.2361L100.547 42.236ZM119.337 42.236L118.183 42.3574V49.1355H119.376V44.5095H119.397L122.294 49.1355H123.357V42.2465H122.164V46.7726H122.134L119.337 42.236ZM130.836 42.236L129.442 42.3469L127.025 49.1355H128.138L128.71 47.4753H131.477L132.049 49.1355H133.273L130.836 42.236ZM4.46145 42.2464V46.7413C4.46145 48.2903 5.31357 49.2464 6.99881 49.2464C8.67296 49.2464 9.52569 48.2905 9.52569 46.7316V42.2464H8.33196V46.812C8.33196 47.6673 7.97173 48.2295 6.99874 48.2295C6.01587 48.2295 5.65442 47.6669 5.65442 46.8017V42.2464H4.46145ZM18.0776 42.2464V49.1355H19.2705V42.2464H18.0776ZM20.4434 42.2464L22.8098 49.1355H24.123L26.5 42.2464H25.3263L24.0132 46.0982C24.0132 46.0982 23.8829 46.4899 23.5419 47.6667H23.4817C23.1505 46.4899 23.0206 46.0878 23.0206 46.0878L21.7067 42.2464H20.4434ZM33.5074 42.2464V49.1355H34.7004V46.3795H35.272C35.7034 46.3795 35.9541 46.7826 36.1546 47.1947L37.107 49.1354H38.4209L37.107 46.6513C37.0272 46.4902 36.9065 46.3089 36.6861 46.1779V46.1585C37.5883 45.8164 37.9799 45.1127 37.9799 44.2885C37.9799 43.0917 37.2275 42.2465 35.7129 42.2465L33.5074 42.2464ZM45.3381 42.2464V49.1355H46.5311V42.2464H45.3381ZM47.9044 42.2464V43.2723H49.7201V49.1355H50.913V43.2618H52.6479L52.7385 42.2464H47.9044ZM53.5194 42.2464L55.6855 46.1883V49.1355H56.8784V46.1882L59.0454 42.2464H57.7307L56.7583 44.208C56.7583 44.208 56.6379 44.4587 56.2973 45.2234H56.2677C55.9061 44.4587 55.7755 44.208 55.7755 44.208L54.8631 42.2464H53.5194ZM92.4816 42.2464V49.1355H96.5429L96.6335 48.1193H93.6752V42.2464H92.4816ZM97.7952 42.2464V49.1355H98.9882V42.2464H97.7952ZM112.333 42.2464V49.1355H113.527V46.3795H114.098C114.529 46.3795 114.78 46.7826 114.981 47.1947L115.933 49.1354H117.247L115.933 46.6513C115.854 46.4902 115.733 46.3089 115.512 46.1779V46.1585C116.415 45.8164 116.806 45.1127 116.806 44.2885C116.806 43.0917 116.054 42.2465 114.539 42.2465L112.333 42.2464ZM124.856 42.2464V49.1355H126.049V42.2464H124.856ZM66.1028 43.1516C67.2864 43.1516 67.8578 44.1874 67.8578 45.6857C67.8578 47.1841 67.2769 48.2295 66.1028 48.2295C64.9199 48.2295 64.3384 47.1837 64.3384 45.6752C64.3384 44.1768 64.9199 43.1516 66.1028 43.1516ZM108.313 43.1516C109.496 43.1516 110.068 44.1874 110.068 45.6857C110.068 47.1841 109.486 48.2295 108.313 48.2295C107.129 48.2295 106.548 47.1837 106.548 45.6752C106.548 44.1768 107.129 43.1516 108.313 43.1516ZM34.7003 43.2723H35.6831C36.4955 43.2723 36.7565 43.6544 36.7565 44.2981C36.7565 44.9518 36.4254 45.3738 35.7032 45.3738H34.7003V43.2723ZM113.526 43.2723H114.509C115.322 43.2723 115.583 43.6544 115.583 44.2981C115.583 44.9518 115.251 45.3738 114.529 45.3738H113.526V43.2723ZM88.3105 43.4532H88.3305C88.8018 44.881 88.8821 45.1021 88.8821 45.1021L89.4136 46.6208H87.2372L87.7686 45.1021C87.7686 45.1021 87.8491 44.8811 88.3105 43.4532ZM130.069 43.4532H130.089C130.56 44.881 130.641 45.1021 130.641 45.1021L131.172 46.6208H128.996L129.528 45.1021C129.528 45.1021 129.608 44.8811 130.069 43.4532Z" fill="#00326F"/>
</svg>
