<svg width="181" height="50" viewBox="0 0 181 50" fill="none" xmlns="http://www.w3.org/2000/svg">
<path d="M73.7032 33.4059C73.7032 33.0295 73.4535 32.7786 72.9539 32.6532V32.4023C73.2037 32.4023 74.1403 32.465 74.3901 32.465C74.5774 32.465 75.5141 32.4023 75.7639 32.4023V32.6532C75.3267 32.7787 75.077 33.0296 75.077 33.4059V38.1104C75.077 39.6159 75.8887 40.4313 77.5747 40.4313C79.0733 40.4313 80.1973 39.7413 80.1973 38.1732V33.3432C80.1973 32.9668 79.9476 32.7159 79.448 32.5905V32.4023C79.6353 32.4023 80.3847 32.465 80.6344 32.465C80.8842 32.465 81.6335 32.4023 81.8209 32.4023V32.6532C81.2589 32.7786 81.0716 33.0296 81.0716 33.4059V37.985C81.0716 40.0549 79.8851 41.2468 77.3249 41.2468C74.952 41.2468 73.703 40.1805 73.703 38.236L73.7032 33.4059ZM83.9439 40.8701C84.5059 40.7447 84.6932 40.4938 84.6932 40.1174V33.5941C84.6932 33.0296 84.381 32.7787 83.8815 32.6532V32.4023H85.6923L91.3124 39.0511V33.4057C91.3124 33.0293 91.0626 32.7784 90.563 32.653V32.4021C90.7504 32.4021 91.4997 32.4648 91.7495 32.4648C91.9993 32.4648 92.7486 32.4021 92.9359 32.4021V32.653C92.3739 32.7784 92.1241 33.0293 92.1241 33.4057V41.2463H91.8119C91.6246 41.1835 91.1874 40.9954 90.563 40.3054L85.505 34.409V40.1799C85.505 40.5563 85.6923 40.8072 86.2543 40.9326V41.1835C86.067 41.1835 85.3176 41.1208 85.0679 41.1208C84.8181 41.1208 84.0688 41.1835 83.8814 41.1835L83.9439 40.8701ZM128.404 39.1138H128.653C128.778 39.6156 129.028 40.0547 129.465 40.3056C129.84 40.6192 130.527 40.7447 131.026 40.7447C132.15 40.7447 132.899 40.1801 132.899 39.302C132.899 38.3611 131.963 37.922 130.901 37.3575C130.09 36.9184 128.466 36.2912 128.466 34.723C128.466 33.2803 129.59 32.3394 131.338 32.3394C132.525 32.3394 133.024 32.6531 133.836 32.5903V34.3467H133.586C133.274 33.2803 132.337 32.9667 131.276 32.9667C130.09 32.9667 129.715 33.6567 129.715 34.284C129.715 35.2248 130.651 35.7266 131.713 36.2284C132.899 36.7303 134.211 37.4202 134.211 38.9256C134.211 40.3683 133.087 41.372 131.089 41.372C129.902 41.372 129.153 40.9956 128.528 40.9329L128.404 39.1138ZM152.569 37.4829L150.259 33.782C149.884 33.1547 149.572 32.7784 149.135 32.653V32.4021C149.447 32.4021 150.321 32.4648 150.509 32.4648C150.758 32.4648 151.633 32.4021 152.007 32.4021V32.653C151.695 32.7157 151.57 32.8411 151.57 33.092C151.57 33.2802 151.695 33.5311 151.82 33.782C151.945 33.9702 153.506 36.6047 153.506 36.6047L155.129 33.782C155.317 33.4684 155.379 33.2175 155.379 33.0294C155.379 32.8412 155.254 32.7157 155.004 32.7157V32.4021C155.254 32.4021 155.879 32.4648 156.066 32.4648C156.253 32.4648 156.94 32.4021 157.19 32.4021V32.653C156.566 32.9039 156.191 33.4684 155.816 34.0957L153.756 37.6084M153.88 37.1693V40.1174C153.88 40.4311 154.13 40.8074 154.63 40.8701V41.121C154.38 41.121 153.443 41.0583 153.194 41.0583C152.944 41.0583 152.07 41.121 151.757 41.121V40.8701C152.257 40.7447 152.507 40.431 152.507 40.1174V37.2948M109.984 32.402H115.354C115.541 32.402 115.791 32.402 115.979 32.2766H116.228L116.166 34.0329H115.916C115.729 33.4684 115.479 33.0293 114.48 33.0293H112.169V36.1657H113.98C114.23 36.1657 114.542 36.1657 114.667 36.103C115.042 36.0402 115.229 35.7893 115.354 35.413H115.604V37.6084H115.354C115.229 37.232 115.104 36.9811 114.667 36.9184C114.542 36.8556 114.23 36.8556 113.98 36.8556H112.169V40.4311H114.73C115.854 40.4311 116.166 39.992 116.416 39.302H116.665L116.416 41.1211C115.604 41.0584 115.104 41.0584 114.168 41.0584H111.483C111.233 41.0584 110.296 41.1211 109.984 41.1211V40.8702C110.484 40.7447 110.733 40.5565 110.733 40.0548V33.406C110.733 32.9669 110.483 32.716 109.984 32.6533L109.984 32.402ZM96.2462 33.4684C96.2462 33.0293 95.9964 32.7784 95.4969 32.653V32.402C95.8091 32.402 96.6833 32.4648 96.9955 32.4648C97.2453 32.4648 98.1819 32.402 98.4941 32.402V32.653C97.9946 32.7784 97.6824 32.9666 97.6824 33.4684V40.0544C97.6824 40.4935 97.9322 40.7444 98.4941 40.8699V41.1208C98.1819 41.1208 97.3077 41.058 96.9955 41.058C96.7457 41.058 95.8091 41.1208 95.4969 41.1208V40.8699C96.0589 40.7444 96.3086 40.5562 96.3086 40.0544L96.2462 33.4684ZM137.022 33.4684C137.022 33.0293 136.773 32.7784 136.273 32.653V32.402C136.585 32.402 137.522 32.4648 137.772 32.4648C138.022 32.4648 138.958 32.402 139.27 32.402V32.653C138.771 32.7784 138.521 32.9666 138.521 33.4684V40.0544C138.521 40.4935 138.771 40.7444 139.27 40.8699V41.1208C138.958 41.1208 138.084 41.058 137.772 41.058C137.522 41.058 136.585 41.1208 136.273 41.1208V40.8699C136.835 40.7444 137.022 40.5562 137.022 40.0544V33.4684ZM144.516 32.4648C141.581 32.4648 141.081 32.402 140.519 32.3393V34.0956H140.769C141.019 33.2802 141.456 33.092 142.018 33.092H143.891V39.9917C143.891 40.4308 143.641 40.6817 143.079 40.8072V41.0581C143.392 41.0581 144.328 40.9953 144.578 40.9953C144.828 40.9953 145.764 41.0581 146.077 41.0581V40.8072C145.577 40.6817 145.265 40.4308 145.265 39.9917V33.092H147.076C147.638 33.092 148.075 33.2802 148.325 34.0956H148.574V32.3393C147.887 32.402 147.451 32.4648 144.516 32.4648ZM120.974 40.0545C120.974 40.4936 121.224 40.7444 121.786 40.8699V41.1208C121.474 41.1208 120.537 41.0581 120.288 41.0581C120.038 41.0581 119.164 41.1208 118.851 41.1208V40.8699C119.351 40.7444 119.601 40.5563 119.601 40.0545V33.4057C119.601 32.9666 119.351 32.7157 118.851 32.653V32.4021C119.164 32.4021 120.038 32.4648 120.288 32.4648C120.725 32.4648 121.911 32.4021 122.411 32.4021C124.471 32.4021 125.595 33.2802 125.595 34.7229C125.595 35.852 124.721 36.6674 123.41 36.981C123.41 36.981 123.722 37.1692 124.034 37.4829C124.409 37.922 125.408 39.3019 125.783 39.8037C126.157 40.3055 126.719 40.87 127.281 40.87V41.0582C127.032 41.121 126.594 41.1837 126.282 41.1837C125.595 41.1837 125.033 40.9328 124.471 40.3055C123.972 39.741 123.222 38.5492 122.723 37.922C122.411 37.5456 122.036 37.232 121.412 37.1065C121.287 37.1065 121.162 37.0438 121.037 37.0438L120.974 40.0545ZM120.974 36.5417C121.224 36.6045 121.661 36.6045 122.036 36.6045C123.659 36.6045 124.159 35.6636 124.159 34.8481C124.159 33.6563 123.41 32.9664 121.974 32.9664C121.661 32.9664 121.287 33.0291 120.974 33.0918V36.5417ZM100.493 33.4681C100.306 33.029 99.9935 32.7154 99.494 32.6527V32.4018C99.8062 32.4018 100.868 32.4645 101.118 32.4645C101.305 32.4645 102.241 32.4018 102.554 32.4018V32.6527C102.304 32.7154 101.929 32.8409 101.929 33.1545C101.929 33.3427 102.054 33.6563 102.304 34.1581L104.552 39.239L106.675 34.1581C106.862 33.719 106.987 33.4054 106.987 33.2172C106.987 32.9663 106.737 32.7781 106.363 32.7154V32.4018C106.613 32.4018 107.299 32.4645 107.549 32.4645C107.736 32.4645 108.548 32.4018 108.86 32.4018V32.6527C108.361 32.7781 107.986 33.0918 107.736 33.7817L104.614 41.1205H103.927L100.493 33.4681ZM108.486 10.3223C108.111 9.50692 107.549 8.94237 106.675 8.75419V8.3151C107.237 8.3151 109.173 8.37783 109.61 8.37783C109.984 8.37783 111.858 8.3151 112.482 8.3151V8.75419C111.983 8.87964 111.358 9.13056 111.358 9.69507C111.358 10.0714 111.608 10.6359 112.045 11.5768L116.291 21.2365L120.288 11.5768C120.6 10.8241 120.85 10.1969 120.85 9.75777C120.85 9.25595 120.35 8.87962 119.726 8.75416V8.31507C120.288 8.31507 121.537 8.3778 121.974 8.3778C122.348 8.3778 123.847 8.31507 124.471 8.31507V8.75416C123.472 9.00507 122.848 9.63231 122.286 10.8868L116.416 24.812H115.105L108.486 10.3223ZM51.6608 24.2475C52.4101 24.0593 52.9721 23.7457 52.9721 22.8675V10.1342C52.9721 9.31877 52.4725 8.9424 51.6608 8.75422V8.2524C52.0354 8.2524 53.7838 8.31513 54.221 8.31513C54.7205 8.31513 56.5314 8.2524 56.906 8.2524V8.6915C56.1567 8.87967 55.5947 9.19331 55.5947 10.0715V15.466H65.0861V10.1342C65.0861 9.25604 64.5865 8.87968 63.7747 8.75422V8.2524C64.1494 8.2524 65.9602 8.31513 66.4598 8.31513C66.8969 8.31513 68.6453 8.2524 69.0824 8.2524V8.6915C68.3331 8.87967 67.7711 9.19331 67.7711 10.0715V22.8048C67.7711 23.6202 68.2707 23.9966 69.0824 24.1848V24.6239C68.7078 24.6239 66.8969 24.5611 66.4598 24.5611C65.9602 24.5611 64.2119 24.6239 63.7747 24.6239V24.2475C64.524 24.0593 65.0861 23.7457 65.0861 22.8675V16.8457H55.5947V22.8675C55.5947 23.7457 56.0943 24.0593 56.906 24.2475V24.6866C56.5314 24.6866 54.6581 24.6239 54.221 24.6239C53.7838 24.6239 52.0979 24.6866 51.6608 24.6866V24.2475ZM161.063 24.2475C162.062 24.0593 162.562 23.683 162.562 22.8048V10.1342C162.562 9.25604 162 8.87968 161.063 8.75422V8.2524C161.625 8.2524 163.374 8.31513 163.873 8.31513C164.685 8.31513 166.87 8.12695 168.619 8.12695C174.426 8.12695 177.985 11.3888 177.985 16.3439C177.985 21.1739 174.301 24.7491 168.307 24.7491C166.558 24.7491 164.56 24.6236 163.748 24.6236C163.249 24.6236 161.625 24.6863 161.063 24.6863V24.2475ZM165.185 23.4321C165.809 23.5575 166.871 23.6203 167.745 23.6203C172.615 23.6203 175.175 20.6721 175.175 16.5324C175.175 12.2669 172.49 9.25631 167.932 9.25631C166.995 9.25631 165.809 9.31904 165.185 9.44449V23.4321ZM95.1858 22.7421C95.1858 23.5575 95.7478 24.0593 96.6845 24.2475V24.6866C96.1225 24.6866 94.3741 24.6239 93.8121 24.6239C93.375 24.6239 91.6266 24.6866 91.0646 24.6866V24.2475C92.0012 24.0593 92.5008 23.6203 92.5008 22.7421V10.1969C92.5008 9.44425 92.0636 8.94243 91.0646 8.75425V8.25243C91.6266 8.25243 93.3125 8.31516 93.8121 8.31516C94.6238 8.31516 96.8719 8.18971 97.8086 8.18971C101.743 8.18971 103.928 9.82059 103.928 12.5806C103.928 14.776 102.305 16.2188 99.8068 16.8461C99.8068 16.8461 100.369 17.1597 100.931 17.8497C101.618 18.6651 103.553 21.4251 104.303 22.366C105.052 23.3069 106.051 24.3733 107.113 24.3733V24.7496C106.613 24.8751 105.801 24.9378 105.177 24.9378C103.866 24.9378 102.804 24.436 101.743 23.1815C100.868 22.1151 99.3073 19.7942 98.433 18.6651C97.871 17.9124 97.1841 17.3479 95.9352 17.1597C95.6855 17.0969 95.4357 17.097 95.1859 17.0342L95.1858 22.7421ZM95.1858 16.0933C95.6854 16.156 96.4972 16.2188 97.2465 16.2188C100.306 16.2188 101.243 14.4624 101.243 12.8942C101.243 10.6988 99.7443 9.31877 97.1216 9.31877C96.5596 9.31877 95.7478 9.38149 95.1858 9.50694V16.0933ZM146.765 22.7421C146.765 23.5575 147.327 24.0593 148.263 24.2475V24.6866C147.701 24.6866 145.953 24.6239 145.453 24.6239C145.016 24.6239 143.268 24.6866 142.706 24.6866V24.2475C143.643 24.0593 144.142 23.6203 144.142 22.7421V10.1969C144.142 9.44425 143.705 8.94243 142.706 8.75425V8.25243C143.268 8.25243 144.954 8.31516 145.453 8.31516C146.265 8.31516 148.513 8.18971 149.388 8.18971C153.322 8.18971 155.507 9.82059 155.507 12.5806C155.507 14.776 153.884 16.2188 151.386 16.8461C151.386 16.8461 151.948 17.1597 152.51 17.8497C153.197 18.6651 155.132 21.4251 155.882 22.366C156.631 23.3069 157.63 24.3733 158.692 24.3733V24.7496C158.192 24.8751 157.38 24.9378 156.756 24.9378C155.445 24.9378 154.383 24.436 153.322 23.1815C152.447 22.1151 150.886 19.7942 150.012 18.6651C149.45 17.9124 148.763 17.3479 147.514 17.1597C147.264 17.0969 147.015 17.097 146.765 17.0342L146.765 22.7421ZM146.765 16.0933C147.264 16.156 148.076 16.2188 148.825 16.2188C151.885 16.2188 152.822 14.4624 152.822 12.8942C152.822 10.6988 151.323 9.31877 148.701 9.31877C148.139 9.31877 147.327 9.38149 146.765 9.50694V16.0933ZM71.4567 24.2476C72.5183 23.9967 73.0803 23.3067 73.4549 22.4285L78.7003 9.75789C78.9501 9.25607 79.1999 8.18974 79.1999 8.18974H80.6985C80.6985 8.18974 80.9483 9.25607 81.1981 9.82062L86.7557 22.4912C87.1303 23.3694 87.5674 23.9966 88.6914 24.2476V24.6866C88.067 24.6866 86.2561 24.6239 85.819 24.6239C85.3819 24.6239 83.6335 24.6866 83.009 24.6866V24.2476C83.8208 24.0594 84.0706 23.6203 84.0706 23.244C84.0706 22.9303 83.9457 22.4913 83.7583 22.1149L82.5719 19.4177H76.4523L75.3908 22.1776C75.2659 22.4913 75.141 22.9303 75.141 23.244C75.141 23.683 75.3908 24.0594 76.265 24.3103V24.7494C75.703 24.7494 74.2668 24.6866 73.9546 24.6866L71.5817 24.7494L71.4567 24.2476ZM81.8848 18.1003L79.2621 12.0157L76.8268 18.1003H81.8848ZM123.409 24.2476C124.471 23.9967 125.033 23.3067 125.407 22.4285L130.653 9.75789C130.902 9.25607 131.152 8.18974 131.152 8.18974H132.651C132.651 8.18974 132.901 9.25607 133.15 9.82062L138.708 22.4912C139.083 23.3694 139.52 23.9966 140.644 24.2476V24.6866C140.019 24.6866 138.209 24.6239 137.771 24.6239C137.334 24.6239 135.586 24.6866 134.961 24.6866V24.2476C135.773 24.0594 136.023 23.6203 136.023 23.244C136.023 22.9303 135.898 22.4913 135.711 22.1149L134.524 19.4177H128.405L127.343 22.1776C127.218 22.4913 127.093 22.9303 127.093 23.244C127.093 23.683 127.343 24.0594 128.217 24.3103V24.7494C127.655 24.7494 126.219 24.6866 125.907 24.6866L123.534 24.7494V24.2476H123.409ZM133.775 18.1003L131.152 12.0157L128.717 18.1003H133.775Z" fill="#1E1E1E"/>
<path d="M3.26641 3.17188H39.7952V17.0343C39.7952 23.3695 37.4224 36.8555 21.6865 46.8919C21.6865 46.8919 4.57685 39.7413 3.2655 17.0343L3.26641 3.17188Z" fill="#A51C30"/>
<path d="M15.2779 25.0422C15.1862 25.0385 15.1066 25.0844 15.0425 25.1402C14.9176 25.249 14.8428 25.3993 14.8388 25.4073C14.6995 25.6033 14.4062 25.6526 14.14 25.645C13.8738 25.6373 13.6448 25.5764 13.6448 25.5764L13.6302 25.5726L13.6156 25.5776C13.2328 25.7058 13.0624 25.8693 12.9924 26.0101C12.9573 26.0805 12.9484 26.1441 12.9484 26.1902C12.9484 26.2263 12.953 26.2422 12.9558 26.2527V27.6897C12.9418 27.7689 12.9053 27.8174 12.8545 27.8514C12.8031 27.8859 12.7344 27.9042 12.6655 27.9115C12.5276 27.926 12.3935 27.8968 12.3935 27.8968H12.3923C11.9122 27.8003 11.5829 27.9133 11.3776 28.0536C11.1756 28.1916 11.0949 28.352 11.0922 28.3574C10.8868 28.6367 11.0227 29.0288 11.0227 29.0288V29.0312C11.036 29.0668 11.0514 29.1006 11.069 29.1317C11.0692 29.1323 11.0715 29.139 11.0715 29.139C11.2588 29.6408 11.9459 29.6401 11.9459 29.6401C12.1957 29.8282 12.6325 29.7025 12.6325 29.7025C12.7609 29.7025 12.8355 29.7561 12.8813 29.8238C12.9041 29.9163 12.8935 30.0088 12.8935 30.0088L12.8923 30.0198L12.8947 30.0296C12.8989 30.0463 12.9076 30.1334 12.9118 30.2526C12.9161 30.3718 12.9177 30.5288 12.9191 30.7108C12.922 31.0748 12.9206 31.5376 12.9167 31.9922C12.9089 32.9015 12.8935 33.7797 12.8935 33.7797C12.8935 34.0865 12.8337 34.2661 12.8337 34.2661L12.8313 34.2734V34.2819C12.8313 34.2972 12.8263 34.3051 12.8093 34.3187C12.7924 34.3323 12.7626 34.3472 12.7228 34.3579C12.6432 34.3792 12.529 34.3873 12.4142 34.3873C12.1846 34.3873 11.952 34.3567 11.952 34.3567L11.9459 34.3555L11.9398 34.3567C11.2895 34.422 11.0882 35.0083 11.086 35.0146V35.0158C11.0345 35.1375 11.039 35.2609 11.0738 35.3723C11.0913 35.4282 11.1167 35.4815 11.1458 35.5316C11.2619 35.8163 11.5715 36.0387 11.5715 36.0387C11.5715 36.1642 12.7581 36.2262 12.7581 36.2262C12.83 36.2442 12.879 36.295 12.9154 36.356C12.9191 36.3672 12.9234 36.3779 12.9264 36.3891C12.9556 36.499 12.9557 36.6023 12.9557 36.6023C12.9468 36.6358 12.9434 36.6732 12.9411 36.7272C12.9384 36.7881 12.9371 36.8633 12.9386 36.9477C12.9415 37.1166 12.9513 37.3232 12.963 37.5236C12.9865 37.9242 13.0179 38.3003 13.0179 38.3003L13.0191 38.3027V38.3051C13.0258 38.3452 13.0451 38.3797 13.0691 38.4105C13.0691 38.4107 13.0704 38.4215 13.0704 38.4215C13.1328 38.7979 14.3192 38.6727 14.3192 38.6727C14.3192 38.6727 18.4777 38.5763 19.6014 38.5943C19.7619 38.5967 19.8602 38.6024 19.8758 38.6102C20.0007 38.6102 20.3137 38.5477 20.3137 38.5477L20.7503 38.8614C20.9259 38.9986 21.1078 39.0377 21.2747 39.0268C21.3081 39.0249 21.3415 39.0204 21.3735 39.0145C21.6936 38.9563 21.9369 38.7352 21.9369 38.7352L22.5614 38.6102C22.6863 38.6102 27.7446 38.5478 27.7446 38.5478C28.1817 38.6732 28.3691 38.4841 28.3691 38.4841L29.1801 38.4216C29.2113 38.4216 29.2405 38.4192 29.2679 38.4143C29.4663 38.3777 29.5683 38.2184 29.6216 38.0626C29.6374 38.0317 29.6541 38.0009 29.6655 37.9695C29.7317 37.7867 29.7301 37.6069 29.7301 37.6069V36.546C29.7406 36.462 29.7599 36.3965 29.7813 36.3377C29.8951 36.1361 30.0545 36.1012 30.0545 36.1012L30.8034 35.9751L31.179 35.7876C31.3231 35.7514 31.399 35.6502 31.4424 35.5279C31.4535 35.5105 31.4654 35.4939 31.4741 35.4752C31.5259 35.3647 31.5412 35.236 31.5412 35.1138C31.5412 34.8694 31.4766 34.6446 31.4766 34.6446L31.4754 34.6396L31.4742 34.6346C31.3374 34.3599 31.0221 34.2479 30.7497 34.1997C30.4773 34.1514 30.2375 34.1678 30.2375 34.1678H30.2363C29.9357 34.198 29.8222 34.1115 29.7704 34.0269C29.7185 33.9423 29.7301 33.8505 29.7301 33.8505V33.8467L29.7936 29.9595C29.8182 29.8138 29.8604 29.6977 29.9021 29.6029C29.9509 29.5091 29.9923 29.4523 29.9923 29.4523C30.1797 29.515 30.8034 29.3261 30.8034 29.3261C31.1622 29.29 31.3117 29.069 31.3766 28.8863C31.3823 28.8756 31.3911 28.865 31.3961 28.8544C31.4784 28.6808 31.4778 28.5209 31.4778 28.5163C31.5112 28.2703 31.3409 28.067 31.1717 27.9294C31.0018 27.7913 30.8241 27.7114 30.8241 27.7114L30.8144 27.7063H29.9375C29.9132 27.7013 29.8934 27.6884 29.8728 27.661C29.8518 27.633 29.8317 27.5915 29.8167 27.5409C29.7868 27.4398 29.773 27.3033 29.7692 27.1685C29.7615 26.8989 29.7923 26.6356 29.7923 26.6356L29.7935 26.6318V26.1275C29.7935 25.8834 29.6201 25.7121 29.4569 25.6055C29.2938 25.499 29.1325 25.4512 29.1325 25.4512L29.1252 25.4488H28.0117C27.9865 25.4069 27.9585 25.3657 27.9166 25.3385C27.8612 25.3025 27.7972 25.2757 27.7361 25.2552C27.6138 25.2142 27.5007 25.1989 27.5007 25.1989C27.2971 25.1346 26.9946 25.1352 26.9946 25.1352H26.9787L26.9653 25.1438C26.5765 25.4141 25.8944 25.5275 25.3127 25.5664C24.731 25.6054 24.2505 25.575 24.2505 25.575L22.2918 25.4476L22.2747 25.4636C22.2804 25.4579 22.268 25.468 22.2479 25.4746C22.2277 25.4814 22.1987 25.4895 22.1661 25.4967C22.101 25.5109 22.0181 25.5242 21.9369 25.5359C21.7743 25.5592 21.6185 25.5751 21.6185 25.5751L21.5868 25.5775L21.5759 25.6094C21.522 25.7715 21.3588 25.8274 21.3588 25.8274L21.1868 25.8862C21.0727 25.7888 20.8947 25.7149 20.7258 25.6633C20.5476 25.6087 20.3996 25.5789 20.3929 25.5775C20.3916 25.5769 20.3903 25.5757 20.3892 25.5751C20.3832 25.5727 20.3773 25.5713 20.3721 25.57C20.3617 25.5676 20.3519 25.5663 20.3392 25.565C20.3136 25.5626 20.2808 25.5619 20.2404 25.5613C20.1595 25.5607 20.0491 25.5631 19.9184 25.5675C19.6571 25.5764 19.3154 25.5933 18.9757 25.6129C18.2968 25.6521 17.6268 25.6998 17.6256 25.6999C16.8514 25.731 16.3285 25.6062 15.9999 25.4757C15.6712 25.3451 15.5413 25.2135 15.5413 25.2135C15.4588 25.1004 15.3678 25.0458 15.2779 25.0422ZM15.2742 25.1451C15.3289 25.1475 15.3921 25.1781 15.4645 25.2799L15.4657 25.2823L15.4681 25.2861C15.4681 25.2861 15.6195 25.4355 15.9621 25.5715C16.3047 25.7076 16.8424 25.8347 17.6293 25.8031H17.633C17.633 25.8031 18.3032 25.7553 18.9818 25.7161C19.3212 25.6965 19.6624 25.6796 19.9222 25.6707C20.052 25.6663 20.1625 25.6639 20.2405 25.6645C20.2795 25.6648 20.3101 25.6663 20.3307 25.6682C20.3394 25.6688 20.345 25.67 20.349 25.6706L20.3515 25.6731L20.3661 25.6768C20.3661 25.6768 20.521 25.7073 20.6979 25.7614C20.8747 25.8154 21.0752 25.8978 21.1528 25.9758L21.1747 25.9978L21.3918 25.9256C21.3918 25.9256 21.525 25.8471 21.615 25.7112C21.5455 25.8809 21.3747 25.939 21.3747 25.939L21.1881 26.0652C21.0008 25.877 20.3759 25.7516 20.3759 25.7516C20.3134 25.6889 17.6281 25.8766 17.6281 25.8766C16.067 25.9393 15.5048 25.3755 15.5048 25.3755C15.1926 24.9364 14.8803 25.5629 14.8803 25.5629C14.5681 26.002 13.6315 25.7516 13.6315 25.7516C13.2859 25.8673 13.1312 26.0091 13.0595 26.1289C13.0644 26.1071 13.0718 26.0833 13.0851 26.0567C13.1393 25.9478 13.2851 25.8012 13.6425 25.6793C13.6625 25.6844 13.8712 25.7402 14.1388 25.7479C14.419 25.756 14.7501 25.7105 14.923 25.4674L14.9255 25.465L14.9279 25.4612C14.9279 25.4612 15.0037 25.3096 15.1096 25.2174C15.1626 25.1713 15.2196 25.1429 15.2742 25.1451ZM27.0093 25.2395C27.0315 25.2397 27.3143 25.2432 27.4789 25.2982L27.4837 25.2994L27.4874 25.3007C27.4874 25.3007 27.5938 25.3159 27.7057 25.3533C27.7617 25.3721 27.8189 25.3957 27.8631 25.4244C27.8701 25.4288 27.8739 25.4343 27.8801 25.4391C27.7302 25.3463 27.4948 25.3117 27.4948 25.3117C27.3074 25.2489 26.9947 25.2492 26.9947 25.2492C26.183 25.8137 24.247 25.689 24.247 25.689L22.3115 25.5628C22.2497 25.6248 21.6462 25.6864 21.6321 25.6878C21.6348 25.6834 21.6382 25.6801 21.6407 25.6755C21.6498 25.6749 21.7926 25.6605 21.9529 25.6375C22.0355 25.6257 22.12 25.6123 22.1895 25.5971C22.2242 25.5896 22.255 25.5813 22.281 25.5726C22.2955 25.5676 22.3066 25.5593 22.3188 25.553L24.2445 25.6768C24.2445 25.6768 24.7324 25.7089 25.3215 25.6695C25.9036 25.6304 26.5851 25.5258 27.0093 25.2395ZM27.9875 25.5518H29.1095C29.1131 25.5531 29.2023 25.5874 29.3058 25.6413C29.2012 25.5888 29.118 25.5629 29.118 25.5629H27.9936C27.9924 25.5591 27.9891 25.5557 27.9875 25.5518ZM29.3266 25.6523C29.3534 25.6669 29.3754 25.6745 29.4034 25.6927C29.4111 25.6977 29.4178 25.7046 29.4254 25.7098C29.3917 25.6881 29.3586 25.6691 29.3266 25.6523ZM29.7717 27.6872C29.7787 27.6991 29.7844 27.712 29.7925 27.7227C29.8244 27.7651 29.8675 27.7978 29.9205 27.8085L29.9254 27.8097H30.7913C30.7986 27.8128 30.954 27.8851 31.1084 28.0106C31.2165 28.0986 31.3117 28.2087 31.3547 28.3304C31.2429 28.1499 31.0368 28.0116 30.9108 27.9395C30.8474 27.9033 30.8035 27.8844 30.8035 27.8844H29.9302C29.8538 27.869 29.804 27.7926 29.7717 27.6872ZM12.9767 27.8783C12.8197 28.1768 12.3828 28.0719 12.3828 28.0719C11.4461 27.8837 11.1339 28.5117 11.1339 28.5117C11.1254 28.5231 11.1205 28.5354 11.1132 28.5472C11.1274 28.5011 11.1466 28.4563 11.1766 28.4161L11.1815 28.4086C11.1815 28.4086 11.2527 28.2642 11.4376 28.1379C11.6223 28.0117 11.9175 27.9059 12.3731 27.997C12.3731 27.997 12.5192 28.0297 12.6779 28.0129C12.7573 28.0045 12.8419 27.9848 12.9133 27.937C12.9369 27.9212 12.9573 27.9007 12.9767 27.8783ZM29.6915 34.0883C29.767 34.2038 29.9313 34.3021 30.2464 34.2709C30.2464 34.2709 30.4759 34.2557 30.7343 34.3015C30.9921 34.3472 31.2683 34.4539 31.3819 34.6801C31.3822 34.6813 31.389 34.7127 31.3916 34.723C31.0988 34.2884 30.2428 34.3444 30.2428 34.3444C29.8345 34.3854 29.722 34.2134 29.6915 34.0883ZM12.889 34.3836C12.8881 34.3867 12.8828 34.4069 12.8828 34.4069C12.8828 34.4382 12.8682 34.4647 12.8426 34.4853C12.817 34.5058 12.7804 34.5213 12.7365 34.5331C12.4731 34.6036 11.9462 34.5331 11.9462 34.5331C11.4942 34.5785 11.2726 34.8845 11.1839 35.0513C11.1839 35.0513 11.3576 34.5204 11.9511 34.4595C11.9616 34.4608 12.1825 34.4902 12.4157 34.4902C12.5351 34.4902 12.6539 34.4828 12.7499 34.4571C12.7979 34.4443 12.8412 34.427 12.8755 34.3995C12.8809 34.3951 12.8842 34.3887 12.889 34.3836ZM17.2393 7.63086L17.221 7.6468C16.2465 8.44213 14.8306 8.07559 14.8306 8.07559L14.8245 8.07437H14.8184C13.4431 8.07437 12.9999 8.13685 12.9999 8.13685L12.9804 8.14061L12.9682 8.15527C12.8261 8.32661 12.6519 8.3242 12.4987 8.28024C12.3491 8.23727 12.2358 8.15318 12.2304 8.14915C12.2022 8.10787 12.1573 8.08438 12.1084 8.06707C12.0531 8.04743 11.9897 8.03595 11.9291 8.02786C11.8079 8.01162 11.6962 8.01074 11.6962 8.01074H11.6937L11.6925 8.01195C10.3221 8.10581 9.46762 8.02701 8.95817 7.92619C8.70344 7.87582 8.53517 7.81942 8.43131 7.77673C8.32743 7.73401 8.29105 7.7069 8.29105 7.7069L8.29717 7.71317C8.2773 7.69323 8.25823 7.68596 8.23497 7.67886C8.21172 7.67177 8.18496 7.66637 8.1557 7.66174C8.09717 7.65246 8.02785 7.64731 7.96056 7.64334C7.82599 7.63519 7.69957 7.63474 7.69957 7.63474H7.66786L7.65322 7.66289C7.59892 7.77199 7.43055 8.00092 7.41784 8.01816C7.41027 8.02059 7.39348 8.02568 7.36296 8.02919C7.32775 8.03295 7.28181 8.03634 7.23002 8.0378C7.12644 8.04092 6.99822 8.03901 6.87391 8.03537C6.62526 8.02759 6.39217 8.0121 6.39217 8.0121L6.38973 8.01089H6.38849C6.12805 8.01089 5.97129 8.09552 5.88359 8.18363C5.79589 8.27173 5.77627 8.36617 5.77627 8.36617L5.77503 8.36993L5.71283 9.56932V9.57308C5.74372 9.94541 5.70633 10.0961 5.68112 10.1366C5.66852 10.1569 5.66823 10.1526 5.66771 10.1526L5.62503 10.1244L5.59576 10.1673C5.57947 10.1918 5.51724 10.225 5.42868 10.2445C5.34011 10.2639 5.23005 10.2737 5.12254 10.2775C4.90755 10.2853 4.70667 10.2702 4.70667 10.2702L4.70179 10.269L4.69692 10.2702C4.52728 10.2873 4.40032 10.3707 4.31154 10.4822C4.22275 10.5937 4.16949 10.7316 4.13714 10.8656C4.07245 11.1337 4.08958 11.3912 4.08958 11.3912V11.3974C4.12347 11.5676 4.2201 11.6871 4.34081 11.7637C4.46153 11.8403 4.60579 11.8773 4.74327 11.8935C5.01068 11.9251 5.24563 11.8801 5.25915 11.8776H5.26038C5.59279 11.9083 5.71352 12.0115 5.75798 12.0944C5.80252 12.1775 5.7775 12.25 5.7775 12.25L5.77505 12.2574V12.266C5.77505 12.3957 5.79115 13.4271 5.80676 14.4308C5.82232 15.4307 5.83713 16.3923 5.83726 16.3995C5.8224 16.5338 5.78656 16.6182 5.74457 16.6703C5.70257 16.7224 5.65463 16.7449 5.60553 16.7548C5.50733 16.7746 5.40918 16.7352 5.40918 16.7352L5.39942 16.7302H5.38966C4.69115 16.7302 4.36996 16.9751 4.2359 17.2276C4.10248 17.4789 4.1525 17.7275 4.15297 17.7299C4.18723 18.1853 4.47298 18.3953 4.74203 18.4772C5.01203 18.5594 5.27013 18.5262 5.27013 18.5262L5.26401 18.5274C5.59814 18.5274 5.7351 18.616 5.79332 18.694C5.85155 18.772 5.83845 18.8435 5.83845 18.8435L5.836 18.8594L5.84332 18.8754C5.84121 18.871 5.85063 18.9073 5.85307 18.955C5.85552 19.0026 5.85695 19.066 5.85552 19.1388C5.85265 19.2843 5.84281 19.4685 5.83113 19.6484C5.80777 20.0082 5.77625 20.3528 5.77625 20.3528V20.3591L5.77748 20.3665C5.84276 20.7271 6.05038 20.8751 6.23728 20.9178C6.41047 20.9573 6.55319 20.9165 6.57512 20.9104H6.57756L11.562 21.0366C12.2736 21.5573 12.7331 21.5723 13.0084 21.4299C13.2719 21.2935 13.3411 21.0501 13.3499 21.0219L13.4365 21.0354C13.4922 21.0447 13.6013 21.0495 13.7609 21.0538C13.9206 21.0582 14.1276 21.0609 14.3659 21.0624C14.8424 21.0655 15.4434 21.0636 16.0367 21.0599C16.63 21.0562 17.2162 21.0502 17.6612 21.0453C18.1041 21.0402 18.4074 21.0367 18.4369 21.0367H18.4406C18.6453 21.0824 18.8052 21.072 18.9284 21.0244C19.0539 20.9759 19.1389 20.89 19.1943 20.8002C19.3043 20.6217 19.304 20.4253 19.304 20.4229V20.4205L19.3662 18.9258C19.3916 18.8276 19.4978 18.7556 19.6077 18.7114C19.7141 18.6687 19.8101 18.6549 19.8175 18.6539C20.5107 18.7459 20.8505 18.5003 20.9993 18.2263C21.1482 17.9521 21.1154 17.659 21.1151 17.6566V17.6554C21.0821 17.1989 20.8128 16.9737 20.559 16.875C20.3049 16.7762 20.0614 16.7941 20.0614 16.7941L20.0651 16.7929C19.7341 16.7929 19.5821 16.6773 19.5053 16.5651C19.4288 16.4534 19.4284 16.3456 19.4284 16.3445V16.3433C19.4457 16.2343 19.4563 15.964 19.465 15.5972C19.4738 15.2263 19.4794 14.7677 19.4833 14.3207C19.4911 13.4265 19.4919 12.5798 19.4919 12.5798C19.4919 12.5028 19.5353 12.3788 19.5809 12.2796C19.6208 12.1928 19.6508 12.1424 19.6602 12.1265C20.0448 12.1658 20.3386 12.1427 20.5444 12.0689C20.7593 11.9918 20.8916 11.8659 20.9676 11.7345C21.1178 11.4745 21.0508 11.2005 21.0493 11.1942C21.0778 10.9586 21.0426 10.7803 20.9603 10.6564C20.8761 10.5295 20.751 10.4588 20.6261 10.4211C20.384 10.3482 20.1424 10.3925 20.1273 10.3954C19.7 10.3954 19.5534 10.2764 19.5017 10.1724C19.4499 10.068 19.4883 9.96249 19.4883 9.96249L19.4895 9.95749L19.4907 9.95246C19.5852 9.35124 19.5541 8.93658 19.4981 8.671C19.442 8.40542 19.3566 8.28385 19.3566 8.28385L19.3517 8.27652L19.3432 8.27024C19.2794 8.22753 19.1874 8.21128 19.0761 8.19919C18.9647 8.18707 18.8359 8.18325 18.7139 8.18325C18.4697 8.18325 18.2504 8.19919 18.2504 8.19919L18.2346 8.2004L18.2236 8.20898C18.1789 8.24266 18.1305 8.23889 18.0638 8.20522C17.9971 8.17173 17.9221 8.10706 17.854 8.03493C17.718 7.89068 17.6101 7.7213 17.6101 7.7213L17.5979 7.7029L17.2393 7.63086ZM34.9112 7.63086L34.8929 7.6468C33.9185 8.44213 32.5025 8.07559 32.5025 8.07559L32.4964 8.07437H32.4891C31.1761 8.07437 30.7341 8.13685 30.7341 8.13685L30.7146 8.14061L30.7024 8.15527C30.5602 8.32661 30.386 8.3242 30.2328 8.28024C30.0855 8.23796 29.9744 8.15672 29.9657 8.15037C29.9377 8.10816 29.892 8.08458 29.8426 8.06707C29.7873 8.04743 29.7239 8.03595 29.6633 8.02786C29.5421 8.01162 29.4303 8.01074 29.4303 8.01074H29.4279L29.4267 8.01195C28.0563 8.10581 27.2018 8.02701 26.6924 7.92619C26.4376 7.87582 26.2694 7.81942 26.1655 7.77673C26.0616 7.73401 26.0253 7.7069 26.0253 7.7069L26.0314 7.71317C26.0115 7.69323 25.9912 7.68596 25.968 7.67886C25.9447 7.67177 25.9192 7.66637 25.8899 7.66174C25.8314 7.65246 25.7608 7.64731 25.6936 7.64334C25.559 7.63537 25.4338 7.63474 25.4338 7.63474H25.4021L25.3874 7.66289C25.333 7.77226 25.1628 8.00319 25.1508 8.0194C25.1427 8.02183 25.1258 8.0258 25.096 8.02919C25.0607 8.03295 25.016 8.03634 24.9642 8.0378C24.8607 8.04092 24.7324 8.03901 24.6081 8.03537C24.3595 8.02759 24.1251 8.0121 24.1251 8.0121L24.1239 8.01089H24.1227C23.8322 8.01089 23.6615 8.09338 23.5653 8.18118C23.4692 8.26898 23.447 8.36617 23.447 8.36617V9.63547C23.4778 9.97614 23.4389 10.1112 23.4165 10.1427C23.4053 10.1584 23.4063 10.1526 23.4043 10.1524C23.4023 10.1523 23.4006 10.1524 23.4006 10.1524L23.3592 10.1243L23.3299 10.1672C23.3136 10.1917 23.2514 10.2249 23.1628 10.2444C23.0743 10.2638 22.963 10.2736 22.8555 10.2774C22.6405 10.2852 22.4396 10.2701 22.4396 10.2701L22.4359 10.2689L22.4311 10.2701C22.247 10.2869 22.1084 10.3684 22.0103 10.4796C21.9122 10.5908 21.8529 10.7299 21.8164 10.8643C21.7434 11.133 21.7603 11.3911 21.7603 11.3911V11.3935L21.7615 11.3973C21.7954 11.5675 21.892 11.687 22.0127 11.7636C22.1335 11.8401 22.2765 11.8772 22.414 11.8934C22.6814 11.925 22.9176 11.88 22.9311 11.8775H22.9323C23.2648 11.9082 23.3843 12.0114 23.4287 12.0943C23.4733 12.1774 23.4494 12.2499 23.4494 12.2499L23.4482 12.2511V12.2536C23.4364 12.301 23.433 12.3821 23.4287 12.5133C23.4244 12.6444 23.4216 12.8178 23.4202 13.018C23.4172 13.4184 23.4187 13.9286 23.4226 14.4306C23.4304 15.4307 23.4469 16.3922 23.447 16.3993C23.4321 16.5336 23.3951 16.618 23.3531 16.6701C23.3111 16.7222 23.2631 16.7448 23.214 16.7546C23.1158 16.7744 23.0189 16.735 23.0189 16.735L23.0091 16.73H22.9982C22.2997 16.73 21.9785 16.9749 21.8444 17.2274C21.711 17.4787 21.761 17.7273 21.7615 17.7297C21.7957 18.1851 22.0815 18.3951 22.3505 18.477C22.6205 18.5592 22.8798 18.526 22.8798 18.526L22.8737 18.5272C23.1757 18.5272 23.3126 18.6151 23.3799 18.6963C23.4472 18.7774 23.4469 18.8519 23.4469 18.8519V18.8641L23.4518 18.8751C23.4497 18.8707 23.4591 18.9071 23.4616 18.9548C23.464 19.0024 23.4643 19.0657 23.4628 19.1385C23.4599 19.2841 23.4501 19.4683 23.4384 19.6482C23.4151 20.008 23.3848 20.3526 23.3848 20.3526L23.3835 20.3589L23.3848 20.3662C23.45 20.7269 23.6589 20.8749 23.8458 20.9175C24.0188 20.9571 24.1615 20.9178 24.1836 20.9113H24.186L29.1705 21.0375C29.8821 21.5582 30.3404 21.5732 30.6157 21.4307C30.8812 21.2934 30.9665 21.0329 30.9743 21.0081L30.9755 21.0069C30.9979 20.9636 31.0456 20.9431 31.0694 20.9431C31.0814 20.9431 31.0804 20.9456 31.0779 20.9419C31.0755 20.9382 31.0803 20.9407 31.0694 20.9628L31.0389 21.0252L31.1072 21.0363C31.1629 21.0456 31.2719 21.0503 31.4316 21.0547C31.5913 21.0591 31.7982 21.0617 32.0365 21.0633C32.5131 21.0664 33.1141 21.0645 33.7074 21.0608C34.3007 21.0571 34.8857 21.0511 35.3307 21.0462C35.7756 21.0411 36.0843 21.0376 36.1112 21.0376C36.3307 21.0832 36.4982 21.0718 36.6246 21.0241C36.7533 20.9757 36.8377 20.8894 36.8893 20.7987C36.9925 20.6172 36.9735 20.4152 36.9735 20.4152L36.9747 20.4225L37.0369 18.9255C37.0623 18.8272 37.1672 18.7552 37.2771 18.7111C37.3845 18.6679 37.4824 18.6555 37.4881 18.6547C38.1813 18.7468 38.5211 18.4999 38.6699 18.2259C38.8188 17.9517 38.7848 17.6599 38.7846 17.6575V17.6551C38.7516 17.1986 38.4835 16.9734 38.2296 16.8747C37.9755 16.7758 37.7308 16.7938 37.7308 16.7938L37.7357 16.7926C37.3724 16.7926 37.2235 16.6757 37.1552 16.5659C37.0869 16.4562 37.1003 16.3491 37.1003 16.3491V16.3429C37.1003 15.9723 37.1625 12.5805 37.1625 12.5805V12.5793C37.1625 12.5023 37.2059 12.3783 37.2515 12.2791C37.2914 12.1923 37.3227 12.1419 37.332 12.126C37.7166 12.1653 38.0104 12.1422 38.2162 12.0684C38.4311 11.9913 38.5634 11.8654 38.6394 11.734C38.7897 11.474 38.7226 11.2 38.7211 11.1937C38.7496 10.9581 38.7132 10.7798 38.6309 10.6559C38.5467 10.529 38.4216 10.4583 38.2967 10.4206C38.0536 10.3474 37.8111 10.3924 37.7979 10.3949C37.3706 10.3949 37.2252 10.2759 37.1734 10.1719C37.1217 10.068 37.16 9.96245 37.16 9.96245L37.1624 9.95239C37.2569 9.35118 37.2258 8.93651 37.1698 8.67094C37.1137 8.40536 37.0283 8.28379 37.0283 8.28379L37.0222 8.27645L37.0148 8.27018C36.9511 8.22746 36.8591 8.21122 36.7478 8.19913C36.6364 8.187 36.5076 8.18319 36.3855 8.18319C36.1414 8.18319 35.9209 8.19913 35.9209 8.19913L35.9062 8.20034L35.8941 8.20894C35.8494 8.24263 35.8022 8.23885 35.7355 8.20519C35.6688 8.17169 35.5925 8.10702 35.5245 8.0349C35.3885 7.89065 35.2818 7.72126 35.2818 7.72126L35.2696 7.70287L34.9112 7.63086Z" fill="black"/>
<path d="M21.625 47.079L21.5001 47.0163C21.3753 46.9536 4.32807 39.552 3.01672 17.0333V2.91992H39.983V16.9705C39.983 22.4905 38.2345 36.5408 21.7493 46.9536L21.625 47.079ZM3.45384 3.3578V16.9693C4.70271 38.296 20.1888 45.9487 21.625 46.576C37.798 36.2263 39.5464 22.4266 39.5464 16.9693V3.3578H3.45384Z" fill="black"/>
<path d="M8.51152 8.19146C8.51152 8.19146 8.13685 8.1917 8.19929 8.44261L8.07489 17.9765C8.07489 17.9765 8.07465 18.4161 8.76152 18.4788C8.76152 18.4788 9.63523 18.5416 9.82257 18.4788H11.8215C11.8215 18.4788 12.1959 18.8542 12.1959 18.4151C12.1959 18.4151 12.4452 10.7009 12.3203 9.06999C12.3203 9.06999 12.3201 8.37902 11.7581 8.37902C11.7581 8.37902 9.51109 8.5672 9.32375 8.37902L8.51152 8.19146ZM17.1793 8.20613C17.097 8.19879 16.9644 8.22231 16.7537 8.31639C16.7537 8.31639 16.8171 8.56802 14.0071 8.44257C13.9447 8.44257 12.8829 8.44197 12.8205 8.88118C12.8205 8.88118 12.7583 13.3975 12.7583 13.523L12.6948 17.2866L12.6326 18.6036C12.6326 18.6036 12.82 18.8543 12.9449 18.6661C12.9449 18.6661 13.8815 18.4157 14.506 18.5411C14.506 18.5411 16.38 18.7286 16.8171 18.415C16.8171 18.415 17.1291 18.5404 17.1915 18.1013C17.1915 18.1013 17.3162 9.7589 17.2537 9.63345C17.2537 9.63345 17.3784 8.4419 17.3159 8.31645C17.3159 8.31645 17.3165 8.21838 17.1793 8.20613ZM6.88463 8.44013C6.76206 8.44388 6.58363 8.52098 6.32606 8.75619L6.26386 10.0107C6.26386 10.0107 6.26386 10.7007 5.63941 10.638C5.63941 10.638 4.95179 10.638 4.57715 10.9516C4.57715 10.9516 4.39031 11.5779 5.07719 11.5152C5.07719 11.5152 6.13921 11.5158 6.20166 11.955L6.13824 16.4707C6.13824 16.4707 6.38899 17.2242 5.57723 17.2242C5.57723 17.2242 4.57714 17.1605 4.57714 17.7877C4.57714 17.7877 4.7652 18.2905 5.6394 18.1651C5.6394 18.1651 6.26409 18.2903 6.20165 18.8548V19.9831C6.20165 19.9831 6.13823 20.4227 6.76266 20.4854H11.3836C11.3836 20.4854 11.6336 20.4852 11.6336 20.2343C11.6336 20.2343 11.6338 19.9831 11.2592 19.9831L7.45033 19.8582C7.45033 19.8582 6.82492 20.0469 6.76247 19.106C6.76247 19.106 6.82293 11.0514 6.82467 10.6969C6.82471 10.697 6.82591 10.7007 6.82591 10.7007C6.82591 10.7007 6.82485 10.671 6.82467 10.6676C6.82469 10.6644 6.82591 10.5759 6.82591 10.5745C6.82473 10.5721 6.82461 10.5721 6.82347 10.5695C6.81684 10.2612 6.81566 9.16997 7.13814 8.63009C7.13814 8.63009 7.08891 8.434 6.88463 8.44013ZM18.7088 8.4634C18.4408 8.48667 18.4404 8.81867 18.4404 8.81867C18.5653 8.94412 18.627 9.38346 18.627 9.38346C18.6895 10.3871 18.627 11.5159 18.627 12.5822C18.5646 16.1577 18.4404 19.4195 18.4404 19.4195C18.4404 20.1095 18.066 19.9206 18.066 19.9206H13.9437C13.5066 19.9206 13.5071 20.1717 13.5071 20.1717C13.5696 20.5481 13.9437 20.4229 13.9437 20.4229C14.3184 20.4856 18.4404 20.4229 18.4404 20.4229C19.0648 20.4856 19.0026 19.6694 19.0026 19.6694C19.0651 18.2267 19.1892 18.1013 19.1892 18.1013C19.3141 18.0385 20.0015 18.0388 20.0015 18.0388C21.1255 18.1015 20.6259 17.3491 20.6259 17.3491C20.5011 17.1609 19.7515 17.1604 19.7515 17.1604C19.0646 17.2231 19.1271 16.4707 19.1271 16.4707L19.1893 12.1425C19.0644 11.7661 19.3771 11.579 19.3771 11.579H20.0637C21.0003 11.6417 20.7503 11.0142 20.7503 11.0142C20.7503 10.7005 19.9393 10.5743 19.9393 10.5743C19.19 10.6998 19.2514 10.2607 19.2514 10.2607V9.19489C19.3763 8.50489 18.9392 8.50516 18.9392 8.50516C18.8455 8.46991 18.7706 8.45801 18.7088 8.4634ZM17.827 8.60307C17.7473 8.61379 17.6597 8.67755 17.566 8.81869V18.2275C17.566 18.2275 17.8158 19.0424 18.1904 18.9797C18.1904 18.9797 18.2526 18.7922 18.2526 18.4786L18.3783 9.50832C18.3783 9.50832 18.1722 8.55649 17.827 8.60307ZM7.76278 8.6925C7.20077 8.6925 7.13833 9.75956 7.13833 9.75956L7.07491 18.6662C7.13735 19.1053 7.26273 19.0423 7.26273 19.0423C7.82473 18.666 7.76277 18.039 7.76277 18.039C7.76277 18.039 7.82497 9.57141 7.82497 9.44596C7.82497 9.3205 7.76278 8.6925 7.76278 8.6925ZM8.02255 18.7249C7.99589 18.7261 7.96596 18.7306 7.93474 18.7396C7.80986 18.7754 7.65587 18.8833 7.52616 19.1439L7.52372 19.1489L7.52248 19.1539C7.52248 19.1539 7.48542 19.2708 7.51395 19.3855C7.52821 19.4428 7.56473 19.5036 7.63103 19.5349C7.6951 19.5652 7.77998 19.5663 7.8908 19.5362H10.9397L11.7581 19.726L11.7691 19.7236C11.7691 19.7236 11.8276 19.7101 11.8996 19.6832C11.9716 19.6563 12.0594 19.617 12.124 19.5521C12.1563 19.5196 12.1833 19.4797 12.1947 19.432C12.2062 19.3843 12.2 19.3297 12.1752 19.2764C12.1257 19.1699 12.0081 19.0615 11.7849 18.9334L11.7728 18.9261H8.82987C8.82531 18.9249 8.69233 18.8958 8.53961 18.8575C8.38432 18.8184 8.20672 18.7668 8.16032 18.7435L8.15788 18.7423H8.15664C8.15664 18.7423 8.10254 18.7206 8.02255 18.7249ZM17.3 18.8903C17.1244 18.8815 16.8792 18.9173 16.8792 18.9173C16.3797 19.2309 13.4448 18.9798 13.4448 18.9798C13.2574 18.9798 13.0069 19.2934 13.0069 19.2934C12.9445 19.8579 13.8816 19.607 13.8192 19.607H17.3158C17.8778 19.7325 17.8781 19.4821 17.8781 19.4821C17.8781 19.2939 17.4415 18.9173 17.4415 18.9173C17.4102 18.9016 17.3585 18.8933 17.3 18.8903ZM12.6803 19.5935C12.6643 19.5947 12.6483 19.5992 12.6327 19.607C12.6327 19.607 12.0705 19.6076 12.0705 20.3605C12.0705 20.3605 12.1329 20.924 12.6949 20.924C12.6949 20.924 13.195 20.7988 13.195 20.2343C13.195 20.2343 12.9204 19.5729 12.6803 19.5935ZM26.1201 8.19141C26.1201 8.19141 25.7455 8.19165 25.8079 8.44255L25.6835 17.9765C25.6835 17.9765 25.6833 18.4161 26.3701 18.4788C26.3701 18.4788 27.2451 18.5415 27.4324 18.4788H29.4301C29.4301 18.4788 29.8045 18.8544 29.8045 18.3526C29.8045 18.3526 30.055 10.6372 29.9301 9.00625C29.9301 9.00625 29.9299 8.31652 29.3679 8.31652C29.3679 8.31652 27.1197 8.5047 26.9324 8.31652L26.1201 8.19141ZM34.7635 8.26859C34.6897 8.27171 34.5818 8.30046 34.4257 8.37885C34.4257 8.37885 34.4879 8.63049 31.6779 8.50504C31.6155 8.50504 30.4912 8.44182 30.4912 8.94364C30.4912 8.94364 30.429 13.46 30.429 13.5855L30.3668 17.3491L30.2424 18.6661C30.2424 18.6661 30.4298 18.9168 30.5547 18.7286C30.5547 18.7286 31.4913 18.4782 32.1158 18.6036C32.1158 18.6036 33.9886 18.7923 34.4257 18.4786C34.4257 18.4786 34.7377 18.6041 34.8001 18.165C34.8001 18.165 34.9247 9.82259 34.8623 9.69713C34.8623 9.69713 34.9882 8.50438 34.9257 8.37892C34.9257 8.37892 34.9258 8.26118 34.7635 8.26859ZM24.4311 8.44011C24.3085 8.44387 24.1301 8.52096 23.8725 8.75617V9.94699C23.8725 9.94699 23.8725 10.637 23.2481 10.5743C23.2481 10.5743 22.5617 10.5743 22.187 10.8879C22.187 10.8879 21.999 11.5154 22.6858 11.4527C22.6858 11.4527 23.7479 11.4533 23.8103 11.8925L23.7481 16.4083C23.7481 16.4083 23.9979 17.1605 23.1237 17.1605C23.1237 17.1605 22.1248 17.098 22.1248 17.7253C22.1248 17.7253 22.3117 18.2268 23.1859 18.1014C23.1859 18.1014 23.8103 18.2278 23.8103 18.7924V19.9207C23.8103 19.9207 23.7484 20.3603 24.3104 20.423H28.9301C28.9301 20.423 29.1801 20.4227 29.1801 20.1718C29.1801 20.1718 29.1803 19.9207 28.8057 19.9207L25.059 19.8582C25.059 19.8582 24.4348 20.0469 24.3723 19.106C24.3723 19.106 24.4348 10.6996 24.3723 10.5742V10.7004C24.3723 10.7004 24.3099 9.25719 24.6846 8.62995C24.6846 8.62995 24.6354 8.43398 24.4311 8.44011ZM36.3174 8.46338C36.0494 8.48665 36.0491 8.81865 36.0491 8.81865C36.1115 8.94411 36.2369 9.38344 36.2369 9.38344C36.2993 10.387 36.2369 11.5159 36.2369 12.5822C36.1744 16.1577 36.0491 19.4195 36.0491 19.4195C36.0491 20.1095 35.6746 19.9206 35.6746 19.9206H31.5536C31.1165 19.9206 31.1157 20.1717 31.1157 20.1717C31.1782 20.5481 31.6158 20.4231 31.6158 20.3604C31.9904 20.4231 36.1112 20.3604 36.1112 20.3604C36.7357 20.4231 36.6735 19.6069 36.6735 19.6069C36.7359 18.1642 36.8613 18.0388 36.8613 18.0388C36.9862 17.976 37.6723 17.9763 37.6723 17.9763C38.7338 18.039 38.2346 17.2866 38.2346 17.2866C38.1097 17.0984 37.3601 17.0979 37.3601 17.0979C36.6732 17.1606 36.7357 16.4082 36.7357 16.4082L36.7991 12.08C36.6742 11.7036 36.9857 11.5152 36.9857 11.5152H37.6723C38.6089 11.5779 38.3602 10.9517 38.3602 10.9517C38.3602 10.638 37.5479 10.5118 37.5479 10.5118C36.7986 10.6373 36.8613 10.1982 36.8613 10.1982V9.19488C36.9862 8.50488 36.549 8.50515 36.549 8.50515C36.4554 8.4699 36.3792 8.45799 36.3174 8.46338ZM35.4356 8.62633C35.3559 8.6329 35.2683 8.6893 35.1746 8.81867V18.2275C35.1746 18.2275 35.4244 19.0424 35.7991 18.9797C35.7991 18.9797 35.8625 18.7922 35.8625 18.4786L35.9869 9.5083C35.9869 9.5083 35.7809 8.59787 35.4356 8.62633ZM25.3714 8.69248C24.8094 8.69248 24.747 9.75954 24.747 9.75954L24.6848 18.6662C24.7472 19.1053 24.8714 19.0423 24.8714 19.0423C25.4334 18.666 25.3714 18.039 25.3714 18.039C25.3714 18.039 25.4336 9.57139 25.4336 9.44594C25.4336 9.32048 25.3714 8.69248 25.3714 8.69248ZM25.7288 18.7152C25.6198 18.7121 25.4187 18.761 25.247 19.106C25.247 19.106 25.1221 19.5451 25.5593 19.4197H28.6182L29.4304 19.6071C29.4304 19.6071 30.3046 19.4192 29.4304 18.9174H26.4961C26.4961 18.9174 25.9331 18.7914 25.8082 18.7287C25.8082 18.7287 25.7783 18.7168 25.7288 18.7152ZM34.9429 18.8267C34.7843 18.8298 34.6136 18.8549 34.6136 18.8549C34.114 19.1685 31.1791 18.9173 31.1791 18.9173C30.9918 18.9173 30.7413 19.231 30.7413 19.231C30.6164 19.7955 31.5535 19.5446 31.5535 19.5446H35.0501C35.6121 19.6701 35.6124 19.4197 35.6124 19.4197C35.6124 19.2315 35.1745 18.8549 35.1745 18.8549C35.1277 18.8314 35.038 18.8249 34.9429 18.8267ZM30.3524 19.5312C30.3359 19.5324 30.3205 19.5368 30.3048 19.5446C30.3048 19.5446 29.7424 19.544 29.8048 20.2968C29.8048 20.2968 29.8672 20.8616 30.4292 20.8616C30.4292 20.8616 30.9293 20.7992 30.9293 20.1719C30.9293 20.1719 30.5994 19.5105 30.3524 19.5312ZM21.0632 31.7136C21.0632 31.7136 21.0632 32.4035 21.0007 33.0935C20.9383 33.4699 21.1256 35.2262 21.0007 36.1044C21.0007 36.1044 21.0007 36.418 20.3763 36.1671C20.3763 36.1671 16.5671 36.2298 16.5047 36.1044C16.5047 36.1044 15.4432 36.1671 15.3807 35.6026C15.3807 35.6026 15.5056 31.5253 15.4432 31.3998C15.4432 31.3998 15.3807 29.2045 15.4432 28.9535C15.4432 28.9535 15.5056 26.8836 15.4432 26.6327C15.4432 26.6327 15.4432 26.1309 15.3807 25.9427C15.3807 25.9427 15.3807 25.6291 15.8803 25.8173C15.8803 25.8173 16.0676 26.1309 17.0043 26.0054C17.0043 26.0054 17.6911 26.1309 18.378 26.0054C18.378 26.0054 19.8767 25.88 20.2513 26.0054C20.2513 26.0054 20.8758 25.88 21.0006 26.57V28.389L21.1879 29.0163L21.3753 28.8908L21.4377 28.4518V26.5073C21.4377 26.5073 21.5626 26.1309 22.0622 26.0682C22.0622 26.0682 22.8115 26.0055 22.9364 26.0682C23.0613 26.1309 24.6848 26.1936 25.1219 26.1309C25.559 26.0682 25.6214 26.4445 26.9952 25.7545C26.9952 25.7545 27.3699 25.7545 27.3699 26.0054C27.3699 26.0054 27.245 28.5145 27.3699 29.0163C27.3699 29.0163 27.3699 33.6581 27.245 33.9717L27.3074 35.4772C27.3074 35.4772 27.3699 36.1044 26.3083 36.1671C26.3083 36.1671 26.9328 36.2299 22.8739 36.1044C22.8739 36.1044 22.2494 36.0417 21.5001 36.4181C21.5001 36.4181 21.3752 36.3553 21.3752 35.979C21.3752 35.979 21.5001 34.599 21.3752 33.219L21.3128 31.7136L21.0632 31.7136ZM27.6196 35.7908C27.6196 35.7908 27.9943 36.4808 28.1192 36.5435C28.1192 36.5435 28.4314 36.9199 28.3689 36.2299L28.4314 27.6366C28.4314 27.6366 28.3689 27.3229 28.4314 26.8839L28.0567 26.2566C28.0567 26.2566 27.682 25.943 27.682 26.4448V35.5399L27.6196 35.7908ZM15.1934 36.1672C15.1934 36.1672 15.6305 36.6063 16.3173 36.6063L20.3138 36.669C20.3138 36.669 20.7509 36.7318 20.7509 36.9199C20.7509 36.9199 20.6885 37.2963 20.1265 37.1708L15.2558 37.1081L14.6938 37.1708C14.6938 37.1708 14.3191 37.1081 14.8811 36.4181L15.1934 36.1672ZM14.3192 26.3193C14.3192 26.3193 13.9445 26.9466 14.0069 27.1348V37.0454C14.0069 37.0454 13.9445 37.7354 14.5065 37.5472C14.5065 37.5472 19.6894 37.4217 20.0641 37.5472C20.0641 37.5472 20.5637 37.6099 20.3763 37.8608C20.3763 37.8608 20.3763 38.049 20.0641 37.9863C20.0641 37.9863 17.6288 38.2372 15.3807 38.1117C15.3807 38.1117 13.8821 38.1744 13.8196 38.049C13.8196 38.049 13.5698 37.9863 13.5698 37.1708C13.5698 37.1708 13.5698 36.3554 13.5074 36.23C13.5074 36.23 13.5698 35.7909 12.8205 35.7281C12.8205 35.7281 11.759 35.9163 11.759 35.2891C11.759 35.2891 11.8839 34.85 12.9454 34.9127C12.9454 34.9127 13.6947 35.0381 13.5074 34.4109L13.5699 30.02C13.5699 30.02 13.6948 29.2673 13.1328 29.2045H12.5083C12.5083 29.2045 11.6341 29.2045 11.6966 28.7027C11.6966 28.7027 12.0088 28.2009 12.883 28.2636C12.883 28.2636 13.5074 28.3891 13.5698 27.6364C13.5698 27.6364 13.5698 26.1309 13.8821 26.0682C13.8196 26.0682 14.5689 26.1312 14.3192 26.3193ZM14.8187 26.2564C14.8187 26.2564 15.0061 26.2564 15.0061 26.6327L14.9436 35.6024C14.9436 35.6024 15.0061 36.167 14.5065 36.6061C14.5065 36.6061 14.2567 36.9197 14.2567 36.4179L14.3816 27.26C14.3816 27.26 14.3816 26.57 14.8187 26.2564ZM21.8123 36.7943C21.8123 36.7943 22.3118 36.4179 22.5616 36.4806C22.5616 36.4806 25.2467 36.6688 26.0585 36.5434C26.8703 36.4179 26.3707 36.4806 26.3707 36.4806C26.3707 36.4806 27.0576 36.4806 27.3074 36.2297C27.3074 36.2297 27.4947 36.167 27.6196 36.3552L28.0567 36.857C28.0567 36.857 28.0567 37.1706 27.5572 37.1079C27.5572 37.1079 22.7489 37.1079 22.5616 37.1706C22.624 37.1706 21.7498 37.2961 21.8123 36.7943ZM22.1245 37.6097C22.1245 37.6097 22.4991 37.4215 22.7489 37.4842C22.9987 37.547 26.4332 37.4215 26.4332 37.4215C26.4332 37.4215 27.9318 37.547 28.1816 37.2961L28.5563 37.1706C28.5563 37.1706 28.6812 36.9824 28.6812 36.7315V35.6652L28.7436 35.3515V27.1346C28.7436 27.1346 28.8685 26.5073 28.4938 26.131C28.4938 26.131 28.4938 25.8801 28.6187 25.9428C28.7436 26.0055 28.6812 25.9428 28.6812 25.9428C28.6812 25.9428 29.1807 25.8173 29.3056 26.0055C29.3056 26.0055 29.5554 26.6955 29.3056 27.1346C29.3056 27.1346 29.2432 28.0127 29.6803 28.0127C29.6803 28.0127 29.8676 28.2009 30.1799 28.0755C30.1799 28.0755 30.9292 28.1382 30.9292 28.3891C30.9292 28.3891 30.9292 28.9536 30.4296 28.8282L29.7427 28.8909C29.7427 28.8909 29.2431 29.0164 29.3056 29.5182C29.368 30.0827 29.3056 34.16 29.3056 34.16C29.3056 34.16 29.3056 34.6618 30.0549 34.5991C30.0549 34.5991 30.9915 34.5364 30.9915 34.85C30.9915 34.85 31.2413 35.4145 30.5544 35.4773C30.5544 35.4773 29.3056 35.4145 29.4304 35.7909C29.4304 35.7909 29.368 36.6063 29.3056 36.7945C29.3056 36.7945 29.4304 37.4845 29.3056 37.6099C29.3056 37.6099 29.2431 37.9863 28.4314 37.9236C28.4314 37.9236 23.3733 37.9236 22.5615 37.9863C22.4991 38.1118 21.9996 38.0488 22.1245 37.6097ZM21.2502 37.0454C21.2502 37.0454 21.7498 37.1081 21.7498 37.6099C21.7498 38.1118 21.7498 38.3626 21.5 38.4254C21.1878 38.4881 20.8756 38.3626 20.8131 37.9863C20.6883 37.6099 20.8131 37.1708 21.2502 37.0454Z" fill="white"/>
<path d="M11.946 11.6396L11.6962 12.2041C11.6962 12.2041 11.0718 15.0895 10.6971 15.6541C10.6971 15.6541 10.6347 16.2814 10.1351 15.7796C10.1351 15.7796 8.94871 12.1414 8.88627 12.0159L8.5116 11.765C8.5116 11.765 8.26183 11.4514 8.69893 11.3887H9.82291C9.82291 11.3887 10.1976 11.7023 9.69802 12.0159C9.69802 12.0159 9.76047 12.5178 10.3849 14.3368C10.3849 14.3368 10.5722 15.0268 10.7596 14.525L11.384 12.3923L11.1967 11.765C11.1967 11.765 11.0093 11.4514 11.2591 11.4514C11.2591 11.4514 11.8836 11.3887 11.946 11.6396ZM13.632 12.1414V15.2777L13.5695 15.5287C13.5695 15.5287 13.2573 15.905 13.5071 15.9677C13.5071 15.9677 13.2573 16.1559 15.3804 16.1559C15.3804 16.1559 16.1921 16.2814 16.0048 15.215C16.0048 15.215 15.9424 14.8387 15.6302 15.4032C15.6302 15.4032 15.5677 15.905 14.4437 15.7169C14.4437 15.7169 14.194 15.5287 14.194 15.2778V13.9605C14.194 13.9605 14.194 13.6469 14.6935 13.6469C14.6935 13.6469 15.2555 14.0233 15.318 13.8351C15.318 13.8351 15.5053 13.3332 15.318 13.0824C15.318 13.0824 15.0682 13.0824 15.0057 13.1451C15.0057 13.1451 14.8184 13.5215 14.3189 13.2705C14.3189 13.2705 14.0691 12.7687 14.2564 12.3924C14.2564 12.3924 14.194 11.6397 14.6935 11.7024C14.6935 11.7024 15.318 11.8278 15.318 12.016C15.318 12.016 15.4429 12.3924 15.6302 11.9533L15.5053 11.5142C15.5053 11.5142 15.4429 11.326 15.2556 11.3888C15.2556 11.3888 14.2565 11.5142 14.1316 11.3888L13.3198 11.4515C13.3198 11.4515 13.1949 11.7651 13.5696 11.8906C13.5696 11.9533 13.632 12.0159 13.632 12.1414ZM31.5535 11.6397C31.491 11.3888 32.053 11.3888 32.053 11.3888L32.3652 11.4515C32.5526 11.4515 32.8024 11.5142 32.8024 11.5142C32.9897 11.8278 32.6775 12.016 32.6775 12.016L32.5526 12.3924V15.5288C32.615 15.6542 32.8648 15.9678 32.8648 15.9678C32.8648 16.2188 32.5526 16.156 32.5526 16.156H31.6784C31.4286 16.156 31.491 15.8424 31.491 15.8424C31.8033 15.7169 31.8657 15.1524 31.8657 15.1524V12.2043L31.5535 11.6397ZM27.557 14.3996L27.4945 15.3405L27.7443 15.7796C27.9316 16.0305 27.6194 16.2187 27.6194 16.2187L26.6828 16.0932C26.4954 16.0305 26.6828 15.7168 26.6828 15.7168C26.9325 15.5914 26.9325 15.215 26.9325 15.215V12.2042C26.9325 12.0787 26.6828 11.7651 26.6828 11.7651C26.4954 11.7651 26.5579 11.4515 26.5579 11.4515C26.6203 11.326 27.1199 11.3887 27.1199 11.3887H28.3688C29.5552 11.7651 29.3678 12.6432 29.3678 12.6432C29.4303 13.5214 28.5561 13.835 28.5561 13.835L28.4937 14.3368L29.3678 15.7168C29.4927 15.8423 29.4927 15.9677 29.4927 15.9677C29.3679 16.2814 28.8683 15.9677 28.8683 15.9677L27.8068 14.2741C27.6819 14.1487 27.557 14.3996 27.557 14.3996ZM27.557 12.016V13.5841C28.119 14.0232 28.4312 13.396 28.4312 13.396C29.1805 12.706 28.4312 12.016 28.3063 11.8278C28.1814 11.6396 27.6194 11.8278 27.6194 11.8278L27.557 12.016ZM18.4403 29.5793C18.4403 29.5793 18.5028 31.7747 18.4403 32.0883V32.5902C18.4403 32.5902 18.5652 32.9038 18.7525 33.0293C18.7525 33.0293 18.8774 33.4683 18.5652 33.4056C18.5652 33.4056 17.8159 33.3429 17.6286 33.4056C17.6286 33.4056 17.1914 33.4056 17.6286 32.9038C17.6286 32.9038 17.7534 32.7156 17.7534 32.1511C17.7534 32.1511 17.7534 29.6421 17.8159 29.5166C17.8159 29.5166 17.8783 29.203 17.691 29.0775H17.3163L16.8792 29.5166C16.8792 29.5166 16.7543 29.9557 16.567 29.5166V29.2657L16.8168 28.5757H17.0041C17.0041 28.5757 17.2539 28.7639 17.5037 28.8266H18.8774L19.377 28.5757C19.377 28.5757 19.5643 28.5757 19.5019 28.8894C19.5019 28.8894 19.5643 29.5793 19.1896 29.6421C19.1896 29.6421 18.9399 29.5793 18.815 29.203C18.815 29.1402 18.4403 28.8893 18.4403 29.5793ZM24.9343 28.7639C24.9343 28.7639 23.8103 28.6384 23.8103 29.893C23.8103 29.893 23.6854 30.7084 24.9343 31.2729C24.9343 31.2729 25.8709 31.712 25.8085 32.2765C25.8085 32.2765 25.6836 33.2801 24.6845 32.7784C24.6845 32.7784 24.1849 32.5275 24.2474 32.2765C24.2474 32.2765 24.1225 31.9629 23.9352 32.0256C23.9352 32.0256 23.7478 32.0884 23.8103 33.092C23.8103 33.092 23.8103 33.4683 24.2474 33.092L24.4972 33.1547C24.4972 33.1547 25.3089 33.782 25.9958 33.0292C25.9958 33.0292 26.7451 32.3392 26.1831 31.5238C26.1831 31.5238 25.8085 30.8965 25.1216 30.6457C25.1216 30.6457 24.4972 30.332 24.3099 29.8302C24.3099 29.8302 24.4972 28.9521 25.3089 29.3912C25.3089 29.3912 25.6212 29.7675 25.8085 29.8302C25.8085 29.8302 26.0583 29.8302 25.9958 29.2657L25.9334 28.8266C25.9334 28.8266 25.8709 28.513 25.4338 28.8266C25.4338 28.7639 25.0592 28.9521 24.9343 28.7639ZM21.3749 28.1366C21.5622 28.2621 21.6247 28.5757 21.6247 28.5757C22.2491 30.1439 22.7487 32.4648 22.7487 32.4648C22.8735 32.7784 23.1858 32.9666 23.1858 32.9666C23.6853 33.1548 23.1858 33.2802 23.1858 33.2802C22.9984 33.343 22.3116 33.2802 22.3116 33.2802C21.9369 33.2175 22.1242 33.0921 22.1242 33.0921C22.2491 32.9666 22.1242 32.3394 22.1242 32.3394C22.1242 32.0885 21.812 31.7121 21.812 31.7121C21.6871 31.6494 21.4998 31.9003 21.4998 31.9003C21.4998 31.9003 21.1876 32.0257 21.1251 31.9003C21.0627 31.7748 20.8753 31.6494 20.8753 31.6494C20.5007 31.6494 20.3758 32.5275 20.3758 32.5275C20.5631 33.2802 20.3758 33.1548 20.3758 33.1548C20.1885 33.4057 19.6265 33.2175 19.6265 33.2175C19.3767 33.1548 19.564 32.9666 19.564 32.9666C19.8763 32.9039 20.0011 32.5275 20.0011 32.5275C20.126 32.3394 21.1251 28.4503 21.1251 28.4503C21.0627 28.3875 21.1251 28.0112 21.3749 28.1366ZM20.8753 30.1438C20.8753 30.2693 20.6256 31.1474 20.6256 31.1474L20.8129 31.4611H21.4373C21.5622 31.4611 21.6247 31.3356 21.6247 31.1474C21.6247 31.022 21.3124 30.0811 21.3124 30.0811L21.1876 29.8929L20.8753 30.1438Z" fill="black"/>
</svg>
