<svg width="162" height="50" viewBox="0 0 162 50" fill="none" xmlns="http://www.w3.org/2000/svg">
<g clip-path="url(#clip0_864_8415)">
<path d="M162.018 -0.0292969H0.0176392V49.9707H162.018V-0.0292969Z" fill="#002147"/>
<path d="M63.4856 31.2692C63.4856 27.0383 61.4447 24.1023 58.0276 24.1023C54.3003 24.1023 52.5696 27.6191 52.5696 31.2692C52.5696 35.5002 54.6104 38.4361 58.0276 38.4361C61.7548 38.3917 63.4856 34.8749 63.4856 31.2692ZM66.0168 31.1803C66.0168 35.8112 62.4667 39.1947 57.9833 39.1947C53.4555 39.1947 49.9497 35.8112 49.9497 31.3581C49.9497 26.7272 53.4998 23.3438 57.9833 23.3438C62.5553 23.3438 66.0168 26.7272 66.0168 31.1803Z" fill="white"/>
<path d="M112.44 31.2692C112.44 27.0383 110.399 24.1023 106.982 24.1023C103.255 24.1023 101.524 27.6191 101.524 31.2692C101.524 35.5002 103.565 38.4361 106.982 38.4361C110.709 38.3917 112.44 34.8749 112.44 31.2692ZM115.015 31.1803C115.015 35.8112 111.465 39.1947 106.982 39.1947C102.454 39.1947 98.9484 35.8112 98.9484 31.3581C98.9484 26.7272 102.498 23.3438 106.982 23.3438C111.51 23.3438 115.015 26.7272 115.015 31.1803Z" fill="white"/>
<path d="M124.735 33.8065C123.846 32.5146 123.492 32.0703 122.385 32.0703H121.185V37.2788C121.185 37.7232 121.363 37.9009 121.806 37.9898L123.536 38.3897V38.9229H116.702V38.3453L118.255 37.9454C118.698 37.812 118.876 37.6343 118.876 37.2344V25.2144C118.876 24.7701 118.698 24.6368 118.255 24.5035L116.702 24.1035V23.5703H123.359C124.78 23.5703 125.754 23.7036 126.555 24.0147C128.197 24.6368 129.13 26.2396 129.13 27.7092C129.13 29.5787 127.71 31.1816 125.403 31.7148V31.8037C125.89 32.0259 126.112 32.3369 127.798 34.4762L129.883 37.2376C130.193 37.6819 130.548 37.9041 131.038 37.993L132.548 38.3485V38.8817H128.909C128.466 38.8817 128.289 38.7484 127.887 38.2596L124.735 33.8065ZM121.185 31.3593H123.093C125.979 31.3593 126.599 29.5343 126.599 27.7981C126.599 26.4618 126.023 25.2589 124.647 24.6368C123.938 24.3257 123.226 24.3257 122.296 24.3257H121.141V31.3593H121.185Z" fill="white"/>
<path d="M94.775 28.8201H95.3951V33.9398H94.775L94.3763 32.4258C94.2434 31.8925 93.8891 31.6704 93.3986 31.6704H89.7156V37.2788C89.7156 37.7232 89.8928 37.9009 90.3358 37.9898L92.0666 38.3897V38.9229H85.2322V38.3453L86.7857 37.9454C87.273 37.812 87.4059 37.6343 87.4059 37.2344V25.2144C87.4059 24.7701 87.2287 24.6368 86.7857 24.5035L85.2322 24.1035V23.5703H96.7715V27.3982H96.1514L95.4426 25.0843C95.2654 24.5066 94.9996 24.2845 94.5092 24.2845H89.7156V30.8737H93.3986C93.8859 30.8737 94.196 30.6515 94.3763 30.1183L94.775 28.8201Z" fill="white"/>
<path d="M138.271 24.3252V37.5037C138.271 38.0369 138.404 38.1702 138.936 38.1702H140.799C142.574 38.1702 143.907 37.9036 144.837 37.2339C146.39 36.0754 147.143 33.9837 147.143 31.3556C147.143 28.772 146.435 26.1916 144.302 24.9886C143.413 24.4554 142.261 24.3221 140.486 24.3221L138.271 24.3252ZM133.791 38.9288V38.3511L135.345 37.9512C135.832 37.8179 135.965 37.6402 135.965 37.2402V25.2203C135.965 24.7759 135.788 24.6426 135.345 24.5093L133.791 24.1094V23.5762H140.98C142.932 23.5762 144.353 23.8428 145.463 24.3316C148.349 25.6678 149.681 28.5181 149.681 31.3207C149.681 34.0377 148.659 36.6181 146.087 37.9544C144.887 38.5765 143.245 38.8907 141.072 38.8907H133.794V38.9288H133.791Z" fill="white"/>
<path d="M72.0064 38.3485V38.8817H66.637V38.3485L68.0133 37.993C68.5449 37.8597 68.8581 37.6819 69.2125 37.3264L73.8732 31.4482L69.2125 25.2144C68.9024 24.7701 68.5481 24.5923 68.0576 24.459L66.7699 24.1035V23.5703H73.4713V24.1035L72.0507 24.4146C71.5634 24.5035 71.652 24.7257 71.9178 25.0367L75.335 29.9786H75.4236L78.9293 25.0367C79.1951 24.6812 79.2837 24.5479 78.7965 24.459L77.4201 24.1035V23.5703H82.7895V24.1035L81.4131 24.459C80.9259 24.5923 80.5683 24.7701 80.214 25.1256L75.8191 30.6896L80.7455 37.1899C81.0556 37.6343 81.41 37.812 81.9004 37.9454L83.1882 38.3008V38.8341H76.4867V38.3453L77.9516 38.0342C78.4389 37.9453 78.3946 37.7676 78.1288 37.4566L74.4047 32.1592H74.3161L70.5446 37.4121C70.2788 37.7676 70.1902 37.8565 70.6775 37.9898L72.0064 38.3485Z" fill="white"/>
<path d="M55.9425 16.3558C55.4995 16.8002 54.8762 17.0668 53.9902 17.0668C53.2372 17.0668 52.5253 16.8446 52.038 16.3558C51.3736 15.6893 51.4178 14.8418 51.4178 13.9531V9.67773H52.307V14.2642C52.307 14.8418 52.307 15.4227 52.7499 15.867C53.06 16.1781 53.5473 16.3558 54.082 16.3558C54.6136 16.3558 55.0597 16.1781 55.3255 15.9115C55.8127 15.4227 55.7684 14.8863 55.7684 13.5532V9.72534H56.6132V13.331C56.5626 14.6641 56.6512 15.6861 55.9425 16.3558Z" fill="white"/>
<path d="M63.6184 16.9335L60.1127 11.0108L60.157 16.9335H59.3596V9.67773H60.2456L63.7513 15.6861L63.707 9.67773H64.5076V16.9335H63.6184Z" fill="white"/>
<path d="M68.4152 9.67773H67.5261V16.9335H68.4152V9.67773Z" fill="white"/>
<path d="M73.8289 16.9335H72.8069L70.3199 9.67773H71.2533L73.3385 16.0892L75.5153 9.67773H76.357L73.8289 16.9335Z" fill="white"/>
<path d="M78.3535 16.9335V9.67773H82.2611V10.3887H79.1983V12.7946H82.0839V13.5056H79.1983V16.2225H82.3497V16.9335H78.3535Z" fill="white"/>
<path d="M88.6525 16.9335L87.8077 15.064C87.2762 13.9055 87.0547 13.7722 85.9884 13.7722H85.5011V16.9335H84.6563V9.67773H86.2099C87.1876 9.67773 87.8963 9.67773 88.4722 10.2554C88.8265 10.6109 89.048 11.1029 89.048 11.725C89.048 12.2138 88.9151 12.6613 88.6051 12.9723C88.3393 13.239 87.8963 13.5056 87.4502 13.55C87.716 13.55 87.8931 13.6833 88.0703 13.8611C88.2475 14.0388 88.4247 14.3499 88.6019 14.8418L89.5796 17.0224H88.6462V16.9335H88.6525ZM87.852 10.7886C87.4533 10.3887 86.9186 10.3887 86.2985 10.3887H85.5011V13.1057H85.7669C86.4757 13.1057 87.2762 13.1501 87.7634 12.6613C87.9849 12.4391 88.1178 12.0836 88.1178 11.725C88.2064 11.2806 88.0292 10.9664 87.852 10.7886Z" fill="white"/>
<path d="M98.9041 9.67773H98.015V16.9335H98.9041V9.67773Z" fill="white"/>
<path d="M103.831 10.3887V16.9335H102.989V10.3887H100.812V9.67773H106.004V10.3887H103.831Z" fill="white"/>
<path d="M110.178 14.0832V16.9335H109.289V14.0832L107.026 9.67773H108.004L109.779 13.1057L111.51 9.67773H112.44L110.178 14.0832Z" fill="white"/>
<path d="M120.562 17.0653C118.698 17.0653 117.322 15.5069 117.322 13.3264C117.322 11.1014 118.698 9.54297 120.651 9.54297C122.559 9.54297 123.891 11.1014 123.891 13.2819C123.891 15.5069 122.562 17.0653 120.562 17.0653ZM120.562 10.2984C119.141 10.2984 118.211 11.5013 118.211 13.3264C118.211 15.1514 119.233 16.3544 120.606 16.3544C122.116 16.3544 122.957 15.0626 122.957 13.2819C122.96 11.4569 121.983 10.2984 120.562 10.2984Z" fill="white"/>
<path d="M127.131 10.3887V12.7946H129.928V13.5056H127.131V16.9335H126.245V9.67773H130.105V10.3887H127.131Z" fill="white"/>
<path d="M91.3135 11.4569C91.3135 10.3428 92.2026 9.54297 93.5315 9.54297C94.8604 9.54297 95.4838 10.2095 95.5724 10.2984L95.1294 10.8316C94.9522 10.6983 94.3764 10.2984 93.5758 10.2984C92.6424 10.2984 92.1552 10.7872 92.1552 11.4569C92.1552 11.7679 92.2881 11.9901 92.5096 12.2123C92.7753 12.4345 93.1297 12.6122 93.5315 12.79C94.0188 13.0121 94.6864 13.2788 95.1294 13.7263C95.4395 14.0373 95.661 14.4817 95.661 15.0181C95.661 16.2211 94.8162 17.1542 93.3101 17.1542C92.0223 17.1542 91.2249 16.4432 91.1364 16.3988L91.535 15.8211C91.7565 15.9544 92.557 16.4432 93.2658 16.4432C94.3763 16.4432 94.775 15.8656 94.775 15.107C94.775 14.7515 94.6421 14.4849 94.3763 14.3071C94.022 13.9961 93.5315 13.7739 93.0443 13.5517C92.557 13.3295 92.0666 13.1074 91.7565 12.7519C91.535 12.39 91.3135 12.0346 91.3135 11.4569Z" fill="white"/>
<path d="M24.7827 19.5164C24.7827 18.8943 24.5612 18.3579 24.1183 18.0913C23.8082 17.9136 23.4095 17.8691 22.9191 17.8691H19.369V25.0805H23.2292C24.1183 25.0805 24.6498 25.3026 24.6941 26.1057H24.7827V19.5164Z" fill="white"/>
<path d="M25.2732 19.5164C25.2732 18.8943 25.4947 18.3579 25.9376 18.0913C26.2477 17.9136 26.6464 17.8691 27.1368 17.8691H30.7312V25.0805H26.8267C25.9376 25.0805 25.4061 25.3026 25.3618 26.1057H25.2732V19.5164Z" fill="white"/>
<path d="M31.4843 18.4019V26.0607H25.982L25.9377 26.2385C25.8491 26.4607 25.6719 26.6828 25.0486 26.6828C24.4252 26.6828 24.2955 26.4607 24.1595 26.2385L24.1152 26.0607H18.6128V18.4019H18.1256V18.6241L17.6383 18.4907C17.594 18.313 17.4168 18.1797 17.1953 18.1797C16.9296 18.1797 16.7524 18.4019 16.7524 18.6241C16.7524 18.8907 16.9739 19.0684 17.1953 19.0684C17.2839 19.0684 17.4168 19.024 17.4611 18.9795L18.0813 19.1573V19.7794L17.594 19.6905C17.5054 19.5128 17.3725 19.4239 17.1953 19.4239C16.9296 19.4239 16.7524 19.6461 16.7524 19.8683C16.7524 20.1349 16.9739 20.3126 17.1953 20.3126C17.3282 20.3126 17.4611 20.2682 17.5054 20.1793L18.0813 20.2682V20.8903H17.594C17.5054 20.757 17.3725 20.6681 17.1953 20.6681C16.9296 20.6681 16.7524 20.8903 16.7524 21.1125C16.7524 21.3791 16.9739 21.5568 17.1953 21.5568C17.3282 21.5568 17.4611 21.468 17.5497 21.3791H18.0813V22.0456H17.594C17.5054 21.9123 17.3725 21.8679 17.2396 21.8679C16.9739 21.8679 16.7967 22.0901 16.7967 22.3122C16.7967 22.5789 17.0182 22.7566 17.2396 22.7566C17.4168 22.7566 17.5497 22.6677 17.6383 22.5344H18.1256V23.1565L17.594 23.2454C17.5054 23.1565 17.3725 23.1121 17.2839 23.1121C17.0182 23.1121 16.841 23.3343 16.841 23.5564C16.841 23.8231 17.0625 24.0008 17.2839 24.0008C17.4611 24.0008 17.6383 23.8675 17.6826 23.7342L18.1256 23.6453V24.2674L17.5497 24.4452C17.4611 24.4007 17.3725 24.3563 17.2839 24.3563C17.0182 24.3563 16.841 24.5785 16.841 24.8006C16.841 25.0673 17.0625 25.245 17.2839 25.245C17.5054 25.245 17.6826 25.1117 17.7269 24.934L18.1699 24.8006V25.3783L17.5054 25.6449C17.4168 25.6005 17.3282 25.5561 17.2396 25.5561C16.9739 25.5561 16.7967 25.7782 16.7967 26.0004C16.7967 26.267 17.0182 26.4448 17.2396 26.4448C17.4611 26.4448 17.6383 26.267 17.6826 26.0893L18.1256 25.8671V26.4003H23.8082C24.0297 26.8003 24.4284 27.0225 25.0517 27.0225C25.6719 27.0225 26.0737 26.8003 26.2952 26.4003H32.0221V18.2527H31.4906V18.4019H31.4843Z" fill="white"/>
<path d="M21.3213 15.8633C20.1664 15.8633 19.2361 16.041 19.2361 16.2632C19.2361 16.4854 20.1695 16.6631 21.3213 16.6631C22.4761 16.6631 23.4064 16.4854 23.4064 16.2632C23.3621 16.0442 22.4318 15.8633 21.3213 15.8633Z" fill="white"/>
<path d="M24.1626 13.3272L22.9634 14.1746V14.2635L23.2292 14.3968C23.2735 14.4413 23.2735 14.4857 23.2735 14.4857L22.5204 15.1078H22.4318L21.9003 14.3079C21.856 14.2635 21.856 14.2191 21.9446 14.1746L22.299 14.1302V14.0413L21.3656 12.7051H21.2327L20.2993 14.0413V14.1302L20.6536 14.1746C20.6979 14.1746 20.7422 14.2191 20.6979 14.3079L20.1664 15.1078H20.0778L19.369 14.4857C19.3247 14.4413 19.3247 14.3968 19.4133 14.3968L19.6791 14.2635V14.1746L18.4356 13.3272L18.347 13.3716L19.1001 15.641C19.4545 15.4633 20.3436 15.3744 21.3181 15.33C22.3401 15.33 23.1817 15.4633 23.5361 15.641L24.2892 13.3716L24.1626 13.3272Z" fill="white"/>
<path d="M25.0486 30.959C23.8937 30.959 22.9634 31.1367 22.9634 31.3589C22.9634 31.5811 23.8968 31.7588 25.0486 31.7588C26.2034 31.7588 27.1337 31.5811 27.1337 31.3589C27.1368 31.1812 26.2034 30.959 25.0486 30.959Z" fill="white"/>
<path d="M27.8898 28.4639L26.6907 29.3114V29.4002L26.9564 29.5335C27.0007 29.578 27.0007 29.6224 27.0007 29.6224L26.2477 30.2445H26.1591L25.6275 29.4447C25.5832 29.4002 25.5832 29.3558 25.6718 29.3114L26.0262 29.2669V29.178L25.0928 27.8418H24.9599L24.0265 29.178V29.2669L24.3809 29.3114C24.4252 29.3114 24.4695 29.3558 24.4252 29.4447L23.8936 30.2445H23.805L23.0963 29.6224C23.052 29.578 23.052 29.5335 23.1406 29.5335L23.4064 29.4002V29.3114L22.166 28.4639L22.0775 28.5083L22.8305 30.7777C23.1849 30.6 24.074 30.5111 25.0485 30.4667C26.0705 30.4667 26.9121 30.6 27.2665 30.7777L28.0196 28.5083L27.8898 28.4639Z" fill="white"/>
<path d="M28.779 15.8633C27.6241 15.8633 26.6938 16.041 26.6938 16.2632C26.6938 16.4854 27.6272 16.6631 28.779 16.6631C29.9338 16.6631 30.8641 16.4854 30.8641 16.2632C30.8641 16.041 29.9307 15.8633 28.779 15.8633Z" fill="white"/>
<path d="M31.6646 13.3272L30.4654 14.1746V14.2635L30.7312 14.3968C30.7755 14.4413 30.7755 14.4857 30.7755 14.4857L30.0225 15.1078H29.9339L29.4023 14.3079C29.358 14.2635 29.358 14.2191 29.4466 14.1746L29.801 14.1302V14.0413L28.8676 12.7051H28.7347L27.8013 14.0413V14.1302L28.1557 14.1746C28.2 14.1746 28.2443 14.2191 28.2 14.3079L27.6684 15.1078H27.5798L26.8711 14.4413C26.8268 14.3968 26.8268 14.3524 26.9153 14.3524L27.1811 14.2191V14.1302L25.9377 13.2827L25.8491 13.3272L26.6021 15.5966C26.9565 15.4188 27.8456 15.33 28.8201 15.2855C29.8421 15.2855 30.6837 15.4188 31.0381 15.5966L31.7912 13.3272H31.6646Z" fill="white"/>
<path d="M20.2107 19.782C20.2107 19.9153 20.255 19.9598 20.3436 19.9598C20.4765 19.9598 20.6094 19.8265 20.6094 19.5154C20.6094 19.1599 20.4322 19.071 20.2993 19.071H20.2107V19.1599C20.2107 19.1567 20.2107 19.782 20.2107 19.782ZM20.3025 19.0234C20.4796 19.0234 20.6568 19.0679 20.7454 19.1567C20.834 19.2456 20.8783 19.3345 20.8783 19.4678C20.8783 19.8677 20.5682 20.0455 20.2139 20.0455H19.8152V20.001C19.9481 20.001 19.9481 20.001 19.9481 19.8233V19.2901C19.9481 19.1123 19.9481 19.1123 19.8152 19.1123V19.0679H20.3025V19.0234Z" fill="#002147"/>
<path d="M21.3213 19.4713C21.3213 19.7379 21.4099 19.96 21.587 19.96C21.7199 19.96 21.8085 19.8267 21.8085 19.5601C21.8085 19.2491 21.6756 19.0713 21.5427 19.0713C21.4099 19.0682 21.3213 19.2015 21.3213 19.4713ZM22.0775 19.5157C22.0775 19.8712 21.856 20.0489 21.5459 20.0489C21.2358 20.0489 21.0143 19.8267 21.0143 19.5157C21.0143 19.2491 21.1915 18.9825 21.5459 18.9825C21.8528 18.9793 22.0775 19.2015 22.0775 19.5157Z" fill="#002147"/>
<path d="M23.495 19.0234V19.0679C23.3621 19.0679 23.3621 19.0679 23.3621 19.2456V19.7789C23.3621 19.9566 23.3621 19.9566 23.495 19.9566V20.001H23.0077V19.9566C23.1406 19.9566 23.1406 19.9566 23.1406 19.7789V19.2012L22.8305 20.001H22.7419L22.4319 19.2456V19.6011C22.4319 19.7344 22.4319 19.8233 22.4319 19.8677C22.4319 19.9122 22.4762 19.9566 22.5647 19.9566V20.001H22.1661V19.9566C22.2547 19.9566 22.2547 19.9566 22.299 19.8677C22.299 19.8233 22.299 19.7344 22.3433 19.6011V19.2901C22.3433 19.0679 22.3433 19.0679 22.2104 19.0679V19.0234H22.5647L22.8305 19.6455L23.052 19.0234H23.495Z" fill="#002147"/>
<path d="M23.9854 19.7828C23.9854 19.9605 23.9854 19.9605 24.1183 19.9605V20.0049H23.5867V19.9605C23.6753 19.9605 23.7196 19.9605 23.7196 19.7828V19.2495C23.7196 19.0718 23.7196 19.0718 23.5867 19.0718V19.0273H24.1183V19.0718C24.0297 19.0718 23.9854 19.0718 23.9854 19.2495V19.7828Z" fill="#002147"/>
<path d="M21.4541 21.9629H21.3213L20.7454 21.2075V21.5186C20.7454 21.6963 20.7454 21.7852 20.7454 21.8296C20.7454 21.8741 20.7897 21.9185 20.9226 21.9185V21.9629H20.5239V21.8741C20.6125 21.8741 20.6568 21.8296 20.6568 21.7852C20.6568 21.7408 20.6568 21.6519 20.6568 21.4742V21.1631C20.6568 21.0298 20.6568 21.0298 20.6125 20.9854C20.5682 20.9409 20.5682 20.9409 20.4796 20.9409V20.8965H20.834L21.3656 21.563V21.3408C21.3656 21.1631 21.3656 21.0742 21.3656 21.0298C21.3656 20.9854 21.3213 20.9409 21.1884 20.9409V20.8965H21.587V20.9409C21.4984 20.9409 21.4541 20.9854 21.4541 21.0298C21.4541 21.0742 21.4541 21.1631 21.4541 21.3408V21.9629Z" fill="#002147"/>
<path d="M22.0775 21.9627C21.9889 21.6961 21.8117 21.2962 21.7674 21.1152C21.7231 20.9819 21.6788 20.9819 21.5902 20.9819V20.9375H22.1218V20.9819H22.0775C22.0332 20.9819 22.0332 20.9819 22.0332 21.0708C22.0775 21.1597 22.1661 21.4707 22.2547 21.6485C22.299 21.5152 22.3876 21.2041 22.4318 21.1152C22.4761 21.0264 22.4761 20.9819 22.3876 20.9819H22.3433V20.9375H22.7419V20.9819C22.6533 20.9819 22.609 20.9819 22.5647 21.1597C22.5647 21.1597 22.3433 21.6485 22.2547 21.9595H22.0775V21.9627Z" fill="#002147"/>
<path d="M22.7862 21.6075C22.8305 21.6963 22.9191 21.8741 23.052 21.8741C23.1406 21.8741 23.1849 21.8296 23.1849 21.6963C23.1849 21.6075 23.1406 21.563 23.0077 21.5186H22.9634C22.8305 21.4742 22.6976 21.3853 22.6976 21.2075C22.6976 21.0298 22.8305 20.8965 23.0963 20.8965H23.2292L23.3178 20.9409C23.3178 20.9854 23.3178 21.0742 23.3621 21.2075H23.2735C23.2292 21.1187 23.1849 20.9854 23.052 20.9854C22.9634 20.9854 22.9191 21.0298 22.9191 21.1187C22.9191 21.2075 22.9634 21.252 23.0963 21.2964H23.1406C23.2735 21.3853 23.4064 21.4297 23.4064 21.6519C23.4064 21.8296 23.2292 22.0074 23.0077 22.0074C22.9634 22.0074 22.8748 22.0074 22.8305 21.9629L22.7419 21.9185C22.7419 21.8296 22.6976 21.7408 22.6976 21.6519L22.7862 21.6075Z" fill="#002147"/>
<path d="M20.7454 23.6109C20.7454 23.7886 20.7454 23.7886 20.8783 23.7886V23.8331H20.3467V23.7886C20.4353 23.7886 20.4796 23.7886 20.4796 23.6109V23.0777C20.4796 22.8999 20.4796 22.8999 20.3467 22.8999V22.8555H20.8783V22.8999C20.7897 22.8999 20.7454 22.8999 20.7454 23.0777V23.6109Z" fill="#002147"/>
<path d="M21.3655 23.6104C21.3655 23.6993 21.3655 23.7437 21.4098 23.7437H21.5427L21.6756 23.6993C21.7199 23.6548 21.7199 23.6104 21.7642 23.5215H21.8528C21.8528 23.566 21.8085 23.7437 21.8085 23.7881H21.0112V23.7437C21.1441 23.7437 21.1441 23.7437 21.1441 23.566V23.0327C21.1441 22.855 21.1441 22.855 21.0112 22.855V22.8105H21.5427V22.855C21.4098 22.855 21.4098 22.855 21.4098 23.0327V23.6104H21.3655Z" fill="#002147"/>
<path d="M22.2546 23.6104C22.2546 23.6993 22.2546 23.7437 22.2989 23.7437H22.4318L22.5647 23.6993C22.609 23.6548 22.609 23.6104 22.6533 23.5215H22.7419C22.7419 23.566 22.6976 23.7437 22.6976 23.7881H21.9003V23.7437C22.0332 23.7437 22.0332 23.7437 22.0332 23.566V23.0327C22.0332 22.855 22.0332 22.855 21.9003 22.855V22.8105H22.4318V22.855C22.2989 22.855 22.2989 22.855 22.2989 23.0327V23.6104H22.2546Z" fill="#002147"/>
<path d="M23.0077 23.8768C22.9191 23.6101 22.7419 23.2102 22.6976 23.0293C22.6533 22.896 22.609 22.896 22.5204 22.896V22.8516H23.052V22.896H23.0077C22.9634 22.896 22.9634 22.896 22.9634 22.9849C23.0077 23.0737 23.0963 23.3848 23.1849 23.5625C23.2292 23.4292 23.3178 23.1182 23.3621 23.0293C23.4064 22.9404 23.4064 22.896 23.3178 22.896H23.2735V22.8516H23.6722V22.896C23.5836 22.896 23.5393 22.896 23.495 23.0737C23.495 23.0737 23.2735 23.5625 23.1849 23.8736H23.0077V23.8768Z" fill="#002147"/>
<path d="M27.2697 19.0234V19.0679C27.1368 19.0679 27.1368 19.0679 27.1368 19.2456V19.7789C27.1368 19.9566 27.1368 19.9566 27.2697 19.9566V20.001H26.7825V19.9566C26.9153 19.9566 26.9153 19.9566 26.9153 19.7789V19.2012L26.6053 20.001H26.5167L26.2066 19.2456V19.6011C26.2066 19.7344 26.2066 19.8233 26.2066 19.8677C26.2066 19.9122 26.2509 19.9566 26.3395 19.9566V20.001H25.9851V19.9566C26.0737 19.9566 26.0737 19.9566 26.118 19.8677C26.118 19.8233 26.118 19.7344 26.1623 19.6011V19.2901C26.1623 19.0679 26.1623 19.0679 26.0294 19.0679V19.0234H26.3838L26.6496 19.6455L26.871 19.0234H27.2697Z" fill="#002147"/>
<path d="M27.8013 19.7828C27.8013 19.9605 27.8013 19.9605 27.9342 19.9605V20.0049H27.4026V19.9605C27.4912 19.9605 27.5355 19.9605 27.5355 19.7828V19.2495C27.5355 19.0718 27.5355 19.0718 27.4026 19.0718V19.0273H27.9342V19.0718C27.8456 19.0718 27.8013 19.0718 27.8013 19.2495V19.7828Z" fill="#002147"/>
<path d="M28.9562 20.0494H28.8233L28.2474 19.294V19.605C28.2474 19.7828 28.2474 19.8716 28.2474 19.9161C28.2474 19.9605 28.2917 20.0049 28.4246 20.0049V20.0494H28.0259V20.0049C28.1145 20.0049 28.1588 19.9605 28.1588 19.9161C28.1588 19.8716 28.1588 19.7828 28.1588 19.605V19.294C28.1588 19.1607 28.1588 19.1607 28.1145 19.1162C28.0702 19.0718 28.0702 19.0718 27.9816 19.0718V19.0273H28.336L28.8676 19.6939V19.4717C28.8676 19.294 28.8676 19.2051 28.8676 19.1607C28.8676 19.1162 28.8233 19.0718 28.6904 19.0718V19.0273H29.0891V19.0718C29.0005 19.0718 28.9562 19.1162 28.9562 19.1607C28.9562 19.2051 28.9562 19.294 28.9562 19.4717V20.0494Z" fill="#002147"/>
<path d="M29.4434 19.6492H29.6649L29.5763 19.3382L29.4434 19.6492ZM29.6206 19.9603H29.6649C29.7092 19.9603 29.7092 19.9158 29.7092 19.8714L29.6649 19.6936H29.3991L29.3548 19.827C29.3548 19.9158 29.3548 19.9158 29.3991 19.9158H29.4434V19.9603H29.0891V19.9158C29.1776 19.9158 29.1776 19.9158 29.2662 19.7825L29.5763 18.9351L29.6649 18.8906L29.7535 19.2017C29.8421 19.3794 29.8864 19.5572 29.9307 19.7349C29.975 19.8682 30.0193 19.8682 30.1079 19.9127V19.9571H29.6206V19.9603Z" fill="#002147"/>
<path d="M27.2697 21.6958C27.2697 21.8736 27.2697 21.8736 27.4026 21.8736V21.918H26.871V21.8736C27.0039 21.8736 27.0039 21.8736 27.0039 21.6958V20.9849H26.9596C26.871 20.9849 26.8267 20.9849 26.7824 21.0293C26.7824 21.0737 26.7381 21.0737 26.7381 21.1626H26.6495C26.6495 21.0293 26.6495 20.9404 26.6495 20.8516H26.6938L26.7824 20.896H27.4026L27.4912 20.8516H27.5355C27.5355 20.9404 27.5355 21.0737 27.5355 21.1626H27.4469C27.4026 21.0737 27.4026 21.0293 27.4026 20.9849C27.3583 20.9404 27.314 20.9404 27.2254 20.9404H27.1811V21.6958H27.2697Z" fill="#002147"/>
<path d="M28.1114 21.6968C28.1114 21.8746 28.1114 21.8746 28.2443 21.8746V21.919H27.7127V21.8746C27.8013 21.8746 27.8456 21.8746 27.8456 21.6968V21.1636C27.8456 20.9858 27.8456 20.9858 27.7127 20.9858V20.9414H28.2443V20.9858C28.1557 20.9858 28.1114 20.9858 28.1114 21.1636V21.6968Z" fill="#002147"/>
<path d="M28.6461 21.3853C28.6461 21.6519 28.7347 21.8741 28.9119 21.8741C29.0447 21.8741 29.1333 21.7408 29.1333 21.4742C29.1333 21.1631 29.0005 20.9854 28.8676 20.9854C28.7347 20.9854 28.6461 21.1187 28.6461 21.3853ZM29.3991 21.4298C29.3991 21.7852 29.1776 21.963 28.8676 21.963C28.5575 21.963 28.336 21.7408 28.336 21.4298C28.336 21.1631 28.5132 20.8965 28.8676 20.8965C29.1776 20.8933 29.3991 21.1187 29.3991 21.4298Z" fill="#002147"/>
<path d="M27.7126 22.8105V22.855C27.5798 22.855 27.5798 22.855 27.5798 23.0327V23.566C27.5798 23.7437 27.5798 23.7437 27.7126 23.7437V23.7881H27.2254V23.7437C27.3583 23.7437 27.3583 23.7437 27.3583 23.566V22.9883L27.0482 23.7881H26.9596L26.6495 23.0327V23.3882C26.6495 23.5215 26.6495 23.6104 26.6495 23.6548C26.6495 23.6993 26.6938 23.7437 26.7824 23.7437V23.7881H26.428V23.7437C26.5166 23.7437 26.5166 23.6993 26.5609 23.6548C26.5609 23.6104 26.5609 23.5215 26.6052 23.3882V23.0772C26.6052 22.855 26.6052 22.855 26.4723 22.855V22.8105H26.8267L27.0925 23.4327L27.314 22.8105H27.7126Z" fill="#002147"/>
<path d="M27.9785 23.0777C27.9785 22.8999 27.9785 22.8999 27.8456 22.8999V22.8555H28.5986C28.5986 22.8999 28.5986 22.9888 28.5986 23.1221H28.51C28.51 23.0332 28.4657 22.9888 28.4657 22.9888C28.4214 22.9443 28.3771 22.9443 28.2886 22.9443H28.2443C28.2 22.9443 28.2 22.9443 28.2 22.9888V23.2998H28.2886C28.4214 23.2998 28.4214 23.2998 28.4657 23.1665H28.5543V23.522H28.4657C28.4657 23.3887 28.4657 23.3887 28.2886 23.3887H28.2V23.6553C28.2 23.7442 28.2 23.7886 28.2443 23.7886H28.3771C28.4214 23.7886 28.51 23.7886 28.5543 23.7442C28.5986 23.6998 28.5986 23.6553 28.6429 23.5664H28.7315C28.7315 23.6553 28.6872 23.7886 28.6872 23.8331H27.8899V23.7886C28.0228 23.7886 28.0228 23.7886 28.0228 23.6109V23.0777H27.9785Z" fill="#002147"/>
<path d="M29.0448 23.4773H29.2662L29.1776 23.1663L29.0448 23.4773ZM29.2662 23.7884H29.3105C29.3548 23.7884 29.3548 23.744 29.3548 23.6995L29.3105 23.5218H29.0448L29.0005 23.6551C29.0005 23.744 29.0005 23.744 29.0448 23.744H29.0891V23.7884H28.7347V23.744C28.8233 23.744 28.8233 23.744 28.9119 23.6106L29.2219 22.7632L29.3105 22.7188L29.3991 23.0298C29.4877 23.2075 29.532 23.3853 29.5763 23.563C29.6206 23.6963 29.6649 23.6963 29.7535 23.7408V23.7852H29.2662V23.7884Z" fill="#002147"/>
<path d="M23.631 36.6997C23.631 36.9219 23.4538 37.0996 23.2324 37.0996C23.0109 37.0996 22.8337 36.9219 22.8337 36.6997C22.8337 36.4775 23.0109 36.2998 23.2324 36.2998C23.4064 36.2553 23.631 36.4331 23.631 36.6997Z" fill="white"/>
<path d="M27.8012 37.3707C27.8012 37.5928 27.6241 37.7706 27.4026 37.7706C27.1811 37.7706 27.0039 37.5928 27.0039 37.3707C27.0039 37.1485 27.1811 36.9707 27.4026 36.9707C27.6241 36.9676 27.8012 37.1453 27.8012 37.3707Z" fill="white"/>
<path d="M25.4504 7.27102C25.4504 7.4932 25.2732 7.67094 25.0517 7.67094C24.8302 7.67094 24.653 7.4932 24.653 7.27102C24.653 7.04884 24.8302 6.87109 25.0517 6.87109C25.2732 6.87109 25.4504 7.04884 25.4504 7.27102Z" fill="white"/>
<path d="M35.3032 11.1905C35.3032 11.4127 35.0818 11.5904 34.8603 11.5904C34.6388 11.5904 34.4616 11.3682 34.4616 11.1461C34.4616 10.9239 34.6831 10.7461 34.9046 10.7461C35.1704 10.743 35.3475 10.9207 35.3032 11.1905Z" fill="white"/>
<path d="M14.4869 29.0446C14.6641 29.2668 14.7084 29.5334 14.7084 29.7556C14.7084 30.0666 14.6198 30.2888 14.0883 30.6475L12.579 31.7171L12.3132 31.3172L13.8668 30.2031C14.1326 30.0254 14.2654 29.8921 14.2654 29.6699C14.2654 29.5366 14.2211 29.4033 14.1326 29.27C13.9997 29.0478 13.7782 29.0034 13.601 29.0034C13.4681 29.0034 13.2909 29.0922 12.9808 29.3144L11.5602 30.2952L11.3387 29.8953L12.6708 29.0034C13.0251 28.7367 13.3352 28.559 13.6042 28.559C13.9997 28.5082 14.3097 28.7748 14.4869 29.0446Z" fill="white"/>
<path d="M9.69336 26.1058L12.5347 25.125L12.7119 25.5249L11.0697 27.5309L13.1548 26.7279L13.2877 27.1278L10.4907 28.2419L10.3135 27.7975L11.9557 25.7947L9.87055 26.5501L9.69336 26.1058Z" fill="white"/>
<path d="M12.2582 23.3839L9.27228 23.8281L9.34376 24.3116L12.3297 23.8674L12.2582 23.3839Z" fill="white"/>
<path d="M9.20609 20.2271V19.7383L12.1803 20.9412V21.43L9.11749 22.3632V21.8299L11.6013 21.1634L9.20609 20.2271Z" fill="white"/>
<path d="M11.3798 14.3497C11.5569 14.0386 11.6898 13.9053 11.867 13.9053C11.9556 13.9053 12.0442 13.9053 12.1328 13.9497C12.2657 13.9942 12.3543 14.1275 12.3543 14.2164V14.3497C12.3543 14.5274 12.2657 14.7051 12.1328 14.8829L12.0885 15.0162L11.2437 14.5718L11.3798 14.3497ZM11.9113 13.4609C11.4684 13.4609 11.2912 13.7276 11.0222 14.2164L10.6678 14.8385L13.332 16.308L13.5535 15.9081L12.4429 15.286L12.4872 15.1527C12.6644 14.7972 12.753 14.7528 13.1959 14.7972L14.0407 14.8861L14.3065 14.4417L13.3288 14.3528C13.1073 14.3528 12.9744 14.3084 12.8416 14.3528L12.7087 14.4417L12.753 14.264C12.753 14.1751 12.753 14.0862 12.7087 13.9973C12.6644 13.8196 12.5315 13.6863 12.3543 13.553C12.1803 13.5054 12.0442 13.4609 11.9113 13.4609Z" fill="white"/>
<path d="M15.6058 8.88758L15.2181 9.18359L17.0461 11.5933L17.4339 11.2973L15.6058 8.88758Z" fill="white"/>
<path d="M16.8821 7.98418L18.8375 6.95898L19.0147 7.31447L18.2584 7.71439L19.4576 10.0314L19.0147 10.2536L17.8155 7.93975L17.0624 8.33967L16.8821 7.98418Z" fill="white"/>
<path d="M21.7642 6.02393L22.2547 5.89062L21.8528 7.94103L22.1661 9.09637L21.7199 9.22967L21.4098 8.07434L19.9449 6.56034L20.4353 6.42703L21.4984 7.4935L21.7642 6.02393Z" fill="white"/>
<path d="M30.9527 10.1657L32.5063 7.58203L33.9269 8.42949L33.7054 8.78498L32.6834 8.16287L32.2848 8.91829L33.215 9.45152L33.0378 9.81018L32.0633 9.22934L31.3514 10.4323L30.9527 10.1657Z" fill="white"/>
<path d="M38.7205 16.932L39.8311 15.5957L39.964 16.1321L39.1634 17.0653L40.3626 17.3319L40.5398 17.8239L38.8977 17.4208L37.6985 18.8459L37.5213 18.3571L38.4104 17.2874L37.0783 16.9764L36.9454 16.4876L38.7205 16.932Z" fill="white"/>
<path d="M37.8314 19.917L40.8499 19.6504L40.9828 21.3421L40.5841 21.3866L40.4955 20.1836L39.6507 20.2281L39.7425 21.3866H39.3406L39.252 20.2725L37.8757 20.4058L37.8314 19.917Z" fill="white"/>
<path d="M39.4292 24.9017C38.8534 24.9017 38.1415 24.5907 38.1415 23.9654C38.1415 23.7432 38.2301 23.4766 38.4958 23.2544C38.673 23.1211 38.8945 23.0767 39.1603 23.0767C39.4704 23.0767 40.0051 23.1656 40.2709 23.5655C40.3595 23.6988 40.4038 23.8765 40.4038 24.0098C40.4038 24.232 40.3152 24.4986 40.0494 24.6764C39.9197 24.8573 39.695 24.9017 39.4292 24.9017ZM39.1634 22.5879C38.8091 22.5879 38.499 22.6768 38.23 22.8545C37.7871 23.1656 37.6985 23.6544 37.6985 23.9241C37.6985 24.9493 38.6762 25.3493 39.3849 25.3493C39.7393 25.3493 40.0494 25.2604 40.3183 25.0827C40.8056 24.7272 40.8499 24.1463 40.8499 23.9686C40.8499 23.1211 40.0083 22.5879 39.1634 22.5879Z" fill="white"/>
<path d="M36.9454 14.9738C36.6797 14.9738 36.4139 14.8405 36.281 14.5738C36.1924 14.4405 36.1481 14.3072 36.1481 14.1295C36.1481 13.774 36.3696 13.4185 36.7683 13.1932C37.034 13.0154 37.2998 12.9265 37.5213 12.9265C37.8314 12.9265 38.0529 13.0598 38.1858 13.3265C38.2743 13.4598 38.3186 13.6375 38.3186 13.7708C38.3186 14.1263 38.0972 14.4374 37.7428 14.6627C37.477 14.8849 37.2112 14.9738 36.9454 14.9738ZM37.4327 12.5234C37.1226 12.5234 36.8126 12.6123 36.4993 12.8345C35.9235 13.19 35.702 13.7264 35.702 14.1263C35.702 14.3929 35.7906 14.6151 35.9235 14.8373C36.2335 15.3261 36.7208 15.4594 37.034 15.4594C37.3441 15.4594 37.6542 15.3705 37.9674 15.1483C38.3218 14.9262 38.7648 14.4818 38.7648 13.8565C38.7648 13.5899 38.6762 13.3677 38.5433 13.1455C38.2775 12.7456 37.8757 12.5234 37.4327 12.5234Z" fill="white"/>
<path d="M29.0448 9.00674C28.8233 9.00674 28.5132 8.91786 28.336 8.56238C28.2474 8.38463 28.2031 8.20689 28.2031 8.02915C28.2031 7.49591 28.5575 6.73733 29.2251 6.73733C29.5795 6.73733 30.0699 7.00395 30.0699 7.7181C30.0668 8.11802 29.7535 9.00674 29.0448 9.00674ZM29.1777 6.29297C28.5575 6.29297 27.9785 6.73733 27.8013 7.49591C27.757 7.67366 27.7127 7.80697 27.7127 7.98471C27.7127 8.29576 27.757 8.51794 27.8899 8.74012C28.1557 9.27336 28.6872 9.40666 29.0891 9.40666C29.3106 9.40666 29.532 9.36223 29.7092 9.22892C30.1965 8.9623 30.554 8.29259 30.554 7.67048C30.554 7.40387 30.5097 7.13725 30.3768 6.91507C30.1111 6.51515 29.6649 6.29297 29.1777 6.29297Z" fill="white"/>
<path d="M12.4904 17.2871L12.8891 17.376L12.4018 19.0678L9.51617 18.2679L10.0034 16.5762L10.4021 16.665L10.0477 17.868L10.8482 18.0902L11.1583 17.0205L11.5127 17.1094L11.2026 18.2235L12.1329 18.4901L12.4904 17.2871Z" fill="white"/>
<path d="M13.2434 10.9649C13.6421 10.4761 14.0882 10.5206 14.0882 10.5206L14.1768 10.9205C14.1768 10.9205 13.8668 10.9205 13.601 11.2316C13.4681 11.3649 13.4238 11.4982 13.4238 11.587C13.4238 11.6759 13.4681 11.7648 13.5567 11.8537C13.7782 12.0314 14.1325 11.8537 14.354 11.7648C14.5312 11.6759 14.7527 11.587 15.0185 11.587C15.1957 11.587 15.3728 11.6315 15.55 11.8092C15.7715 11.987 15.8601 12.2092 15.8601 12.4313C15.8601 12.6979 15.7715 12.9201 15.55 13.1423C15.1514 13.5867 14.6609 13.6311 14.6609 13.6311L14.5723 13.2312C14.8824 13.1423 15.1039 13.0534 15.2368 12.8757C15.3254 12.7424 15.414 12.6091 15.414 12.4758C15.414 12.3425 15.3697 12.2536 15.2811 12.1647C15.1925 12.0758 15.1039 12.0758 15.0153 12.0758C14.8381 12.0758 14.5723 12.2092 14.3952 12.2536C14.0408 12.3869 13.6421 12.5202 13.2846 12.2092C13.1074 12.0314 13.0188 11.8537 13.0188 11.6315C12.9334 11.4125 13.0219 11.1427 13.2434 10.9649Z" fill="white"/>
<path d="M38.8091 28.3312C38.6762 28.3312 38.4547 28.2423 38.3661 28.0201C38.3218 27.9757 38.3218 27.8868 38.3218 27.8424C38.3218 27.6646 38.4104 27.4869 38.499 27.3091L38.5433 27.1758L39.4324 27.5758L39.3438 27.7979C39.1634 28.1979 39.0748 28.3312 38.8091 28.3312ZM37.034 26.5061L38.1889 27.0394L38.1446 27.1727C37.9674 27.5282 37.9231 27.5726 37.4359 27.5726H36.5911L36.3696 28.0169H37.3473C37.5687 28.0169 37.7016 28.017 37.8345 27.9725L37.9674 27.8836V27.9725C37.9674 28.1058 37.9674 28.1947 38.0117 28.2836C38.1446 28.5946 38.499 28.7724 38.8091 28.7724C39.2963 28.7724 39.4735 28.5057 39.6982 27.9725L39.9639 27.306L37.2112 26.0586L37.034 26.5061Z" fill="white"/>
<path d="M36.5468 31.6686C36.3253 31.6686 36.1038 31.5797 35.838 31.402C35.6165 31.2243 35.3507 30.9132 35.3507 30.5545C35.3507 30.2879 35.4836 30.0213 35.7051 29.7547L35.9266 29.4881L37.6574 30.8688L37.5245 31.0465C37.1669 31.4464 36.9454 31.6686 36.5468 31.6686ZM35.4805 29.3992C35.1704 29.7991 34.9489 30.1546 34.9489 30.6022C34.9489 31.0021 35.1261 31.4496 35.5691 31.7607C35.8791 31.9828 36.1892 32.1161 36.5468 32.1161C36.9454 32.1161 37.2998 31.9828 37.8345 31.3163L38.3218 30.7386L35.9709 28.8691L35.4805 29.3992Z" fill="white"/>
<path d="M35.1703 35.1411C32.3733 36.1218 29.7566 36.0774 27.4912 35.5854C27.5798 34.5602 27.9784 33.4937 28.6017 33.316C33.5282 31.802 37.1226 27.1711 37.1226 21.7404C37.1226 15.0623 31.7089 9.63163 25.0074 9.63163C18.3502 9.63163 12.8922 15.0623 12.8922 21.7404C12.8922 25.435 14.6229 28.9962 17.5528 31.2688C16.8441 31.5798 16.2651 32.0686 15.8664 32.6939C15.6449 32.5606 15.4234 32.3828 15.2462 32.2051L15.1576 32.294C15.2905 32.4717 15.512 32.6495 15.7335 32.9161C15.3791 33.5382 15.1576 34.2079 15.1576 34.9633C15.1576 35.0966 15.1576 35.1855 15.1576 35.3188C10.8071 32.1575 8.23467 27.1267 8.23467 21.696C8.23467 12.4343 15.781 4.86745 25.0105 4.86745C34.2401 4.86745 41.7832 12.4343 41.7832 21.696C41.8275 27.0378 39.3849 31.9353 35.1703 35.1411ZM25.4503 39.1054C23.1437 39.1054 20.2581 38.3055 18.2616 37.147C17.6414 36.7915 16.9295 36.1218 16.9295 35.0109C16.9295 34.6999 16.9738 34.4333 17.1067 34.1635C17.8598 34.7856 18.616 35.3664 19.1032 35.633C19.1918 35.6775 19.2804 35.7219 19.4133 35.7219C19.7234 35.7219 19.9892 35.4553 19.9892 35.1442C19.9892 34.922 19.8563 34.6999 19.6348 34.611C19.2361 34.4332 18.347 34.0778 17.4168 33.5858C17.8598 33.0081 18.5274 32.6495 19.2804 32.6495C19.6348 32.6495 19.9449 32.7383 20.2581 32.8716L20.8783 33.2271C22.9191 34.4745 28.1113 37.6358 34.3698 35.8996C32.0189 38.0802 29.089 39.1054 25.4503 39.1054ZM27.4469 40.5305C26.8267 40.5305 26.292 40.9749 26.292 41.689C26.292 42.3556 26.8235 42.8475 27.4469 42.8475C27.5355 42.8475 27.624 42.8475 27.7126 42.8031C27.5798 43.7839 26.4692 44.8503 25.0042 45.3423C23.5835 44.8535 22.473 43.7839 22.2958 42.8031C22.3844 42.8475 22.473 42.8475 22.5615 42.8475C23.226 42.8475 23.7164 42.3587 23.7164 41.689C23.7164 41.0669 23.2292 40.5749 22.5615 40.5305C22.7387 40.175 22.9602 39.7751 23.0931 39.372C23.8905 39.5053 24.6467 39.5942 25.3997 39.5942C25.9756 39.5942 26.5546 39.5497 27.1305 39.5053C27.2254 39.8164 27.314 40.1718 27.4469 40.5305ZM19.2361 31.4021C20.4353 31.4021 21.5427 32.0242 22.2103 33.0049C21.6345 32.8716 21.0555 32.6495 20.5239 32.4273C20.1252 32.2495 19.7265 32.1607 19.2804 32.1607C18.347 32.1607 17.5054 32.605 16.9738 33.3636C16.7523 33.2303 16.5308 33.097 16.3094 32.9637C16.9264 32.0242 17.9926 31.4021 19.2361 31.4021ZM23.9411 33.8048C23.8082 33.8937 23.6753 34.027 23.5867 34.2047C23.1437 33.9825 22.609 33.7159 22.2546 33.5382C22.7419 33.6271 23.4064 33.7604 23.9411 33.8048ZM27.624 33.5826C27.2697 34.0714 27.0925 34.7856 27.0039 35.4521C25.8933 35.1855 24.9188 34.7856 24.0297 34.3825C24.2069 34.0714 24.6498 33.8492 25.0074 33.8492C25.9376 33.8492 26.7824 33.7604 27.624 33.5826ZM25.0485 33.3604C24.2955 33.3604 23.5835 33.2716 22.8748 33.1383C22.166 31.802 20.7897 30.9133 19.2361 30.9133C18.8817 30.9133 18.4831 30.9577 18.1698 31.0466C15.2399 28.8661 13.4649 25.3937 13.4649 21.696C13.4649 15.2845 18.6571 10.076 25.0485 10.076C31.4399 10.076 36.6321 15.2845 36.6321 21.696C36.6353 28.1519 31.4399 33.3604 25.0485 33.3604ZM19.2361 38.569C17.2839 38.569 15.686 36.9661 15.686 35.0077C15.686 34.3856 15.8632 33.8048 16.129 33.316C16.3062 33.4937 16.5277 33.6715 16.7049 33.8492C16.5277 34.2047 16.4391 34.6046 16.4391 35.0522C16.4391 36.1218 16.9707 37.0105 17.9926 37.6358C18.5685 37.9913 19.2361 38.3024 19.9449 38.5721C19.6791 38.569 19.4576 38.569 19.2361 38.569ZM42.3591 21.7404C42.3591 12.1676 34.5913 4.41992 25.0485 4.41992C15.5057 4.41992 7.73792 12.2121 7.73792 21.7404C7.73792 27.4854 10.5792 32.8272 15.2842 36.0329C15.7272 37.7691 17.325 39.0609 19.233 39.0609C19.7202 39.0609 20.2549 38.9721 20.6979 38.7943C21.3181 39.0165 21.9857 39.1942 22.6501 39.3276C22.473 39.8608 22.2072 40.3528 21.9414 40.7971L22.2958 41.1526C22.3844 41.1082 22.473 41.0637 22.6058 41.0637C22.9602 41.0637 23.2703 41.3748 23.2703 41.7303C23.2703 42.0858 22.9602 42.3968 22.6058 42.3968C22.2958 42.3968 22.03 42.2191 21.8971 41.9969C21.8971 41.9969 21.8085 42.3079 21.8085 42.6634C21.8085 43.9108 23.1406 45.3359 25.0485 45.9136C26.9121 45.3359 28.2885 43.9108 28.2885 42.6634C28.2885 42.2191 28.1999 41.9969 28.1999 41.9969C28.067 42.1746 27.8012 42.3968 27.4912 42.3968C27.1368 42.3968 26.8267 42.0858 26.8267 41.7303C26.8267 41.3748 27.1368 41.0637 27.4912 41.0637C27.624 41.0637 27.7126 41.1082 27.8455 41.1526L28.1999 40.7971C28.0227 40.3083 27.8455 39.9052 27.7569 39.4609C30.864 39.0609 33.4839 37.7247 35.569 35.5441C39.831 32.2019 42.3591 27.2156 42.3591 21.7404Z" fill="white"/>
</g>
<defs>
<clipPath id="clip0_864_8415">
<rect width="162" height="50" fill="white"/>
</clipPath>
</defs>
</svg>
