<svg width="239" height="50" viewBox="0 0 239 50" fill="none" xmlns="http://www.w3.org/2000/svg">
<g clip-path="url(#clip0_448_3518)">
<path d="M130.651 5.20072C132.608 1.86677 136.457 0.102011 140.241 0.0368218C143.7 -0.158745 147.548 0.36277 149.961 3.11002C148.72 4.74441 147.548 6.37879 146.372 8.01317C145.001 6.44398 143.895 4.22289 141.673 3.76656C139.521 3.11467 136.778 4.22289 136.192 6.57901C135.281 10.3041 135.802 14.1596 135.672 17.8847H142.719V22.0661H135.672C135.672 28.4034 135.672 34.7453 135.672 41.0826C135.672 42.9126 135.932 44.6773 136.257 46.4421C137.889 47.1592 139.586 47.555 141.413 47.6202C141.413 48.0765 141.413 48.9286 141.413 49.3849C135.672 48.9938 129.866 48.8634 124.125 49.3849C124.125 48.9938 124.125 48.2721 124.125 47.8809C125.952 47.555 128.234 46.7029 128.299 44.4818C129.015 37.0316 128.56 29.5162 128.69 22.0009C127.253 22.0009 125.882 22.0009 124.45 22.0009C124.45 21.349 124.45 20.7576 124.45 20.1057C125.887 19.4538 127.258 18.7321 128.625 17.9498C128.564 13.7591 128.369 9.05619 130.651 5.20072Z" fill="#8C1515"/>
<path d="M234.647 0.0371094C230.928 0.884567 227.144 1.6063 223.295 1.80187C223.23 2.12781 223.165 2.84955 223.165 3.1755C224.601 3.63182 226.949 3.50144 227.014 5.46177C227.6 9.5128 227.209 13.629 227.274 17.6847C221.794 16.7721 215.662 16.7721 210.963 20.2317C205.873 23.8265 204.111 30.4944 204.571 36.5057C204.832 41.1435 207.179 45.9162 211.358 48.1373C216.318 50.8799 222.709 50.2932 227.409 47.1548C227.474 48.0675 227.474 49.05 227.474 49.9673C231.063 49.0546 234.781 48.5284 238.5 48.3329V46.6985C233.215 45.7859 234.716 43.3645 234.326 39.1831C234.386 26.1779 234.191 13.1075 234.647 0.0371094ZM220.948 21.0792C223.165 21.0792 225.447 21.7963 227.274 23.0395C227.274 30.0986 227.274 37.0924 227.274 44.1468C223.36 45.9768 218.075 45.8464 215.007 42.5124C212.399 39.7 211.939 35.5838 212.134 31.9239C212.395 28.5899 213.115 24.7344 215.983 22.6437C217.554 21.6007 219.251 21.1444 220.948 21.0792Z" fill="#8C1515"/>
<path d="M12.7626 4.34797C17.1972 4.08721 21.6364 4.34797 26.006 4.99986C25.7457 8.13825 25.7457 11.272 26.006 14.4104C25.6155 14.4104 24.7648 14.4104 24.3093 14.4104C23.9839 12.45 23.5934 10.0986 21.5714 9.24646C18.5034 7.93802 14.9148 7.80765 11.7213 8.72495C7.54703 9.9682 6.82652 16.1099 9.95957 18.7873C13.8736 22.1865 18.6382 24.4076 22.6173 27.7415C28.8787 32.7099 28.0327 44.2763 20.6603 47.7406C14.4639 50.6182 7.09148 49.8965 0.695234 48.0665C0.760312 44.9933 0.630156 41.8596 0.5 38.7864C0.955547 38.7864 1.87129 38.7864 2.39191 38.7212C2.7173 40.6816 3.0427 43.033 4.99969 44.0807C8.5232 46.041 13.088 46.2366 16.7416 44.537C21.3064 41.99 20.4604 34.7354 16.221 32.2489C12.5023 29.3713 8.26289 27.2805 4.80445 24.0816C1.02062 20.5521 0.565078 14.3452 2.97762 9.96355C4.86488 6.43868 8.91367 4.67391 12.7626 4.34797Z" fill="#8C1515"/>
<path d="M39.1194 10.9512C39.4448 10.9512 40.1653 11.0164 40.5558 11.0164C40.5558 13.3678 40.5558 15.7239 40.5558 18.0754H51.3216V22.1264H40.5558C40.6209 27.8119 40.4907 33.4321 40.6209 39.1175C40.751 41.2734 40.8161 43.9555 42.8382 45.2592C45.3809 46.7632 48.3838 45.8459 50.9265 44.8681C51.7074 46.7632 49.7504 47.8761 48.3187 48.6584C45.0555 50.2276 41.1415 50.4231 37.8132 49.1147C34.9405 48.067 33.5738 44.9333 33.4437 42.0557C33.1183 35.4529 33.4437 28.7897 33.5088 22.187H29.3345C29.3345 21.7306 29.3345 21.2743 29.3345 20.8785C33.7691 19.0532 36.837 15.1326 39.1194 10.9512Z" fill="#8C1515"/>
<path d="M67.8882 17.0286C63.0585 16.9634 58.1684 19.3801 56.6018 24.2832C56.9923 24.544 57.908 25.0003 58.2985 25.2657C60.1904 21.997 64.4949 20.2974 67.9533 22.1925C70.6262 23.4358 70.8911 26.6999 70.8261 29.3168C66.5867 30.6904 62.2125 31.7334 58.2334 33.7589C53.4688 36.306 52.818 43.4954 56.2764 47.3508C60.3206 51.0759 67.0422 50.4892 71.0864 46.9597C72.3275 49.3764 75.1956 50.2937 77.6778 49.5719C79.8952 49.1808 81.3315 47.3508 82.7679 45.7817C82.5076 45.5209 81.987 44.9342 81.7871 44.6036C80.876 44.8644 79.8952 45.5162 78.9794 44.8643C77.8034 44.0821 77.9986 42.5129 77.8684 41.2696C77.9335 36.0405 78.2589 30.8115 77.9335 25.587C77.8034 22.9096 76.5622 20.0972 74.2148 18.6584C72.2624 17.5501 70.1055 17.0286 67.8882 17.0286ZM70.761 33.3026C70.761 36.8321 70.761 40.3617 70.761 43.8912C68.4786 44.8737 65.8011 45.8515 63.4536 44.6734C60.5158 43.1042 60.646 38.4665 63.0632 36.5714C65.4106 34.937 68.1486 34.2152 70.761 33.3026Z" fill="#8C1515"/>
<path d="M160.597 17.1592C157.073 17.2244 153.42 18.0718 150.617 20.3628C146.508 23.6967 144.681 29.2518 144.876 34.4157C144.876 38.8578 146.247 43.5654 149.706 46.5734C153.815 50.1681 159.816 50.5593 164.971 49.451C170.387 48.273 174.431 43.5049 175.607 38.2106C176.848 32.6555 176.323 26.2531 172.539 21.8062C169.601 18.3372 164.966 17.0288 160.597 17.1592ZM160.662 20.8843C162.554 20.9495 164.446 21.7317 165.687 23.2357C167.904 25.9783 168.495 29.573 168.625 33.0374C168.625 36.7625 168.169 40.7483 165.817 43.8215C163.535 46.7643 158.575 47.1555 155.967 44.4734C153.945 42.5783 153.159 39.7658 152.704 37.1536C152.248 33.6893 152.379 30.0294 153.42 26.6954C154.201 24.4743 155.702 22.1881 158.05 21.4011C158.9 21.0147 159.751 20.8843 160.662 20.8843Z" fill="#8C1515"/>
<path d="M85.2456 19.3139C89.0295 19.2487 92.8133 18.8575 96.2717 17.2883C96.4019 18.201 96.467 19.0531 96.5321 19.9658C100.511 17.3535 105.666 16.3059 110.231 17.9402C113.494 19.0531 115.777 22.252 116.102 25.6512C116.753 32.1189 115.777 38.6564 116.688 45.1241C116.753 47.1496 118.97 47.6059 120.537 47.9365C120.537 48.3277 120.537 49.0494 120.537 49.4405C115.186 49.0494 104.486 49.4405 104.486 49.4405V47.9365C104.486 47.9365 108.334 46.8236 108.595 45.7154C109.506 40.9427 109.246 35.979 109.246 31.0758C109.05 28.133 109.115 24.5383 106.373 22.7782C103.37 21.0786 99.7162 21.8655 96.718 22.9738C96.718 29.2459 96.718 35.5878 96.718 41.9252C96.7831 43.6247 96.6529 45.5199 97.7639 46.9587C98.675 47.6106 99.851 47.7409 100.897 48.0064C100.897 48.3975 100.897 49.1192 100.897 49.5104C95.6117 49.1844 90.3264 48.9237 85.1108 49.5104C85.1108 49.1192 85.1108 48.3975 85.1108 48.0064C86.7424 47.6152 88.8296 47.1589 89.155 45.1939C89.8708 40.5562 89.3502 35.7834 89.4804 31.0758C89.4153 28.3984 89.7407 25.7164 89.2201 23.0389C88.8296 21.209 86.6774 21.3394 85.241 20.9482C85.2456 20.5571 85.2456 19.705 85.2456 19.3139Z" fill="#8C1515"/>
<path d="M179.191 19.1183C182.975 19.0531 186.693 18.5316 190.282 17.3535L190.412 20.0961C194.001 17.1533 199.481 16.4362 203.33 19.3138L199.286 25.4556C197.394 22.578 193.61 21.8609 190.607 23.3649C190.607 23.3649 190.607 36.1093 190.607 42.5118C190.737 43.9506 190.542 45.7806 191.848 46.6932C193.155 47.4755 194.721 47.4103 196.153 47.6059C196.153 48.0622 196.153 48.9143 196.153 49.3706C190.347 48.9795 184.606 48.9143 178.8 49.3706V47.6059C180.692 47.2799 182.584 46.6234 182.91 45.5152C183.69 42.7726 183.3 39.895 183.43 37.0173C183.365 32.51 183.56 27.998 183.3 23.5558C183.3 21.3999 180.822 21.2043 179.191 20.8784C179.191 20.3615 179.191 19.705 179.191 19.1183Z" fill="#8C1515"/>
</g>
<defs>
<clipPath id="clip0_448_3518">
<rect width="238" height="50" fill="white" transform="translate(0.5)"/>
</clipPath>
</defs>
</svg>
