<svg width="155" height="50" viewBox="0 0 155 50" fill="none" xmlns="http://www.w3.org/2000/svg">
<path d="M0.122594 35.3918C-0.0893183 33.7741 0.0378289 31.3886 0.0378289 30.1958L2.50206 2.13061H11.6355L9.17124 30.4507C8.66265 36.5846 11.0391 40.9278 17.1573 40.9278C23.3603 40.9278 26.6721 36.5421 27.1807 31.0911L29.8145 2.13061H38.9903L36.4413 30.7057C35.3787 41.7351 28.1162 49.954 16.3914 49.954C7.17321 49.957 1.26995 44.0357 0.122594 35.3918ZM42.6866 25.8951C43.8764 12.4377 52.9674 1.2383 68.5974 1.2383C72.76 1.2383 76.7106 2.17613 80.6613 4.77414L79.5987 15.8885C76.0295 11.0749 71.6974 10.3526 67.7467 10.3526C58.02 10.3526 52.6677 17.1238 51.9018 25.6827C51.1782 34.0716 55.471 40.8853 64.9434 40.8853C69.0636 40.8853 73.3957 39.6925 77.9851 35.0944L76.9649 46.5062C72.5057 48.9342 68.3855 49.9995 64.223 49.9995C48.6747 50.0845 41.5393 38.5422 42.6866 25.8951ZM88.0116 2.13061H97.145L93.7907 40.2449H106.875C107.81 40.2449 110.953 40.2024 111.803 40.2024L110.953 48.9767H83.8521L88.0116 2.13061ZM137.965 0H137.284L112.266 48.9767H121.993L125.478 41.5651H143.148L145.358 48.9767H155L137.965 0ZM135.628 19.6338C135.925 18.9964 136.137 18.1436 136.309 17.7187H136.479C136.521 18.3135 136.606 18.9964 136.818 19.6763C137.284 21.8069 140.896 33.6436 140.896 33.6436H129.34L135.628 19.6338Z" fill="#526998"/>
</svg>
