<svg width="68" height="50" viewBox="0 0 68 50" fill="none" xmlns="http://www.w3.org/2000/svg">
<path d="M4.72021 0H0.5V19.884H4.72021V0Z" fill="#A80C2F"/>
<path d="M11.6206 0H7.40039V13.5907H11.6206V0Z" fill="#A80C2F"/>
<path d="M18.5024 0H14.2822V19.884H18.5024V0Z" fill="#A80C2F"/>
<path d="M25.4024 0H21.1455V3.97653H25.4024V0Z" fill="#A80C2F"/>
<path d="M25.4023 6.27539H21.1821V19.8661H25.4023V6.27539Z" fill="#918F90"/>
<path d="M39.1651 0H28.0264V3.97653H39.1651V0Z" fill="#A80C2F"/>
<path d="M32.2832 6.29297H28.063V19.8837H32.2832V6.29297Z" fill="#A80C2F"/>
<path d="M28.0444 31.6133V35.5534H29.0167L28.9631 33.0715C28.9447 32.689 28.9447 32.6331 28.9264 32.3235L29.0913 33.0351L29.8071 35.5703H30.6512L31.4036 32.9258C31.4402 32.7619 31.4586 32.7255 31.4952 32.5056L31.5318 32.3599V32.7619L31.4586 35.5716H32.4125V31.6315H30.9626L30.3201 33.9846C30.2834 34.1667 30.2834 34.2032 30.2285 34.4776L30.0819 33.8572L29.476 31.6497H28.0444V31.6133Z" fill="#A80C2F"/>
<path d="M34.4503 32.5801C34.1022 32.5801 33.7711 32.6165 33.4963 32.835C33.2398 33.0354 33.2032 33.2916 33.1849 33.4919H34.0472C34.0656 33.3827 34.1205 33.1459 34.5066 33.1459C34.818 33.1459 34.8363 33.3645 34.8363 33.5101V33.674C34.4699 33.7469 33.919 33.8379 33.6808 33.9472C33.4427 34.0383 33.0566 34.3114 33.0566 34.7862C33.0566 35.1882 33.3498 35.6799 34.0289 35.6799C34.4699 35.6799 34.7081 35.4978 34.9279 35.3339V35.607H35.772C35.6987 35.4978 35.6804 35.4613 35.6804 35.1505V33.4542C35.6791 32.6529 34.8167 32.5801 34.4503 32.5801ZM34.8533 34.1671C34.8533 34.4766 34.835 34.7329 34.5419 34.915C34.4503 34.9696 34.3587 35.0061 34.2488 35.0061C34.0472 35.0061 33.919 34.8422 33.919 34.7147C33.919 34.4962 34.1388 34.4051 34.2854 34.3505L34.8533 34.1671Z" fill="#A80C2F"/>
<path d="M37.5332 32.5625C36.7074 32.5625 36.3031 33.0555 36.3031 33.5472C36.3031 33.7657 36.3947 33.9674 36.5229 34.0948C36.6512 34.2223 36.8344 34.2952 37.0189 34.3498C37.1471 34.3862 37.2754 34.4226 37.4232 34.4408C37.5881 34.4773 37.7897 34.4773 37.9192 34.5501C37.9742 34.5865 38.0291 34.623 38.0291 34.714C38.0291 34.9326 37.7177 35.0054 37.4965 35.0054C37.1668 35.0054 36.8906 34.8233 36.6525 34.6034L36.1016 35.0965C36.2848 35.2604 36.7074 35.6623 37.5332 35.6623C38.2306 35.6623 38.9098 35.3345 38.9098 34.6412C38.9098 33.9478 38.2306 33.7839 37.6431 33.6747C37.3683 33.62 37.1654 33.6018 37.1654 33.4379C37.1654 33.3469 37.2387 33.2194 37.5881 33.2194C37.7897 33.2194 38.0474 33.2922 38.3222 33.5108L38.8548 33.0178C38.6337 32.8539 38.211 32.5625 37.5332 32.5625Z" fill="#A80C2F"/>
<path d="M40.4502 32.5625C39.6244 32.5625 39.2201 33.0555 39.2201 33.5472C39.2201 33.7657 39.3117 33.9674 39.4399 34.0948C39.5682 34.2223 39.7514 34.2952 39.9359 34.3498C40.0641 34.3862 40.1924 34.4226 40.3402 34.4408C40.5051 34.4773 40.7066 34.4773 40.8362 34.5501C40.8912 34.5865 40.9461 34.623 40.9461 34.714C40.9461 34.9326 40.6347 35.0054 40.4135 35.0054C40.0838 35.0054 39.8076 34.8233 39.5695 34.6034L39.0186 35.0965C39.2018 35.2604 39.6244 35.6623 40.4502 35.6623C41.1476 35.6623 41.8268 35.3345 41.8268 34.6412C41.8268 33.9478 41.1476 33.7839 40.5601 33.6747C40.2853 33.62 40.0824 33.6018 40.0824 33.4379C40.0824 33.3469 40.1557 33.2194 40.5051 33.2194C40.7066 33.2194 40.9644 33.2922 41.2392 33.5108L41.7718 33.0178C41.5703 32.8539 41.1476 32.5625 40.4502 32.5625Z" fill="#A80C2F"/>
<path d="M43.588 32.5801C43.2399 32.5801 42.9088 32.6165 42.634 32.835C42.3775 33.0354 42.3409 33.2916 42.3226 33.4919H43.1849C43.2033 33.3827 43.2582 33.1459 43.6443 33.1459C43.9557 33.1459 43.974 33.3645 43.974 33.5101V33.674C43.6076 33.7469 43.0567 33.8379 42.8185 33.9472C42.5804 34.0383 42.1943 34.3114 42.1943 34.7862C42.1943 35.1882 42.4875 35.6799 43.1666 35.6799C43.6076 35.6799 43.8458 35.4978 44.0656 35.3339V35.607H44.9097C44.8364 35.4978 44.8181 35.4613 44.8181 35.1505V33.4542C44.8181 32.6529 43.9557 32.5801 43.588 32.5801ZM43.974 34.1671C43.974 34.4766 43.9557 34.7329 43.6626 34.915C43.571 34.9696 43.4794 35.0061 43.3695 35.0061C43.1679 35.0061 43.0397 34.8422 43.0397 34.7147C43.0397 34.4962 43.2595 34.4051 43.4061 34.3505L43.974 34.1671Z" fill="#A80C2F"/>
<path d="M46.8921 32.5801C45.9198 32.5801 45.4238 33.2916 45.4238 34.1488C45.4238 35.3352 46.3228 35.6812 46.8737 35.6812C47.2035 35.6812 47.4979 35.5719 47.7178 35.4262C47.956 35.2623 48.0659 35.0802 48.1771 34.915L47.5346 34.569C47.498 34.6601 47.4796 34.7147 47.4063 34.8057C47.2231 35.0061 47.0216 35.0061 46.9654 35.0061C46.506 35.0061 46.3045 34.5131 46.3045 34.1306C46.3045 33.7846 46.4694 33.237 46.9287 33.237C47.057 33.237 47.1669 33.2734 47.2585 33.328C47.405 33.4191 47.46 33.5284 47.4966 33.6376L48.1392 33.2734C47.7728 32.6711 47.2218 32.5801 46.8921 32.5801Z" fill="#A80C2F"/>
<path d="M48.3042 31.6133V35.5716H49.1666V34.1303C49.1666 33.8754 49.1666 33.6373 49.2765 33.4916C49.3498 33.4006 49.478 33.3277 49.6246 33.3277C49.7162 33.3277 49.936 33.3459 50.0289 33.6191C50.0656 33.7284 50.0656 33.8376 50.0656 34.0757V35.608H50.9279V33.6933C50.9279 33.3108 50.8913 33.0363 50.6348 32.8178C50.4699 32.6721 50.2305 32.6175 50.0106 32.6175C49.5513 32.6175 49.2948 32.8725 49.1666 32.9999V31.6497H48.3042V31.6133Z" fill="#A80C2F"/>
<path d="M51.6816 32.6517V34.4936C51.6816 34.9684 51.7183 35.1323 51.8648 35.3508C52.0664 35.624 52.4158 35.6604 52.6173 35.6604C52.8005 35.6604 53.002 35.6058 53.1682 35.5147C53.3331 35.4419 53.3697 35.3873 53.4613 35.2962V35.5694H54.3237V32.6504H53.4613V34.4741C53.4613 34.638 53.443 34.7837 53.2598 34.8943C53.1316 34.9671 53.0216 34.9671 52.9667 34.9671C52.8018 34.9671 52.6736 34.8943 52.6186 34.8214C52.5453 34.7304 52.5453 34.6029 52.5453 34.4754V32.6517H51.6816Z" fill="#A80C2F"/>
<path d="M56.1587 32.5625C55.3329 32.5625 54.9286 33.0555 54.9286 33.5472C54.9286 33.7657 55.0202 33.9674 55.1484 34.0948C55.2767 34.2223 55.4599 34.2952 55.6444 34.3498C55.7726 34.3862 55.9009 34.4226 56.0487 34.4408C56.2136 34.4773 56.4151 34.4773 56.5447 34.5501C56.5996 34.5865 56.6546 34.623 56.6546 34.714C56.6546 34.9326 56.3432 35.0054 56.122 35.0054C55.7922 35.0054 55.5161 34.8233 55.278 34.6034L54.7271 35.0965C54.9103 35.2604 55.3329 35.6623 56.1587 35.6623C56.8561 35.6623 57.5353 35.3345 57.5353 34.6412C57.5353 33.9478 56.8561 33.7839 56.2686 33.6747C55.9938 33.62 55.7909 33.6018 55.7909 33.4379C55.7909 33.3469 55.8642 33.2194 56.2136 33.2194C56.4151 33.2194 56.6729 33.2922 56.9477 33.5108L57.4803 33.0178C57.2605 32.8539 56.8378 32.5625 56.1587 32.5625Z" fill="#A80C2F"/>
<path d="M59.3345 32.543C58.179 32.543 57.8296 33.4548 57.8296 34.1482C57.8296 35.0964 58.4355 35.6623 59.3162 35.6623C59.7938 35.6623 60.1785 35.4802 60.435 35.2421C60.5816 35.0964 60.6915 34.9507 60.7831 34.8038L60.1222 34.4759C60.0123 34.6763 59.8474 34.9872 59.3698 34.9872C58.9105 34.9872 58.6906 34.6229 58.709 34.2574H60.8197C60.8014 33.9296 60.7831 33.3456 60.3971 32.9436C60.0123 32.5612 59.5177 32.543 59.3345 32.543ZM59.3345 33.1634C59.481 33.1634 59.6459 33.2181 59.7571 33.3273C59.8854 33.4548 59.9037 33.6187 59.922 33.7475H58.7286C58.7652 33.62 58.7836 33.4926 58.8935 33.3651C58.9668 33.2727 59.1133 33.1634 59.3345 33.1634Z" fill="#A80C2F"/>
<path d="M61.4256 31.8145V32.7263H61.0029V33.2557H61.4256V34.6606C61.4256 34.9338 61.4256 35.1536 61.5538 35.3175C61.737 35.5907 62.0681 35.6089 62.3613 35.6089C62.5261 35.6089 62.6361 35.5907 62.8206 35.5725V34.8973H62.5091C62.271 34.8973 62.2893 34.7517 62.2893 34.5695V33.2557H62.8585V32.7445H62.2893V31.8327H61.4269V31.8145H61.4256Z" fill="#A80C2F"/>
<path d="M63.1868 31.8145V32.7263H62.7642V33.2557H63.1868V34.6606C63.1868 34.9338 63.1868 35.1536 63.3151 35.3175C63.4983 35.5907 63.8294 35.6089 64.1225 35.6089C64.2874 35.6089 64.3973 35.5907 64.5818 35.5725V34.8973H64.2704C64.0322 34.8973 64.0505 34.7517 64.0505 34.5695V33.2557H64.6197V32.7445H64.0505V31.8327H63.1881V31.8145H63.1868Z" fill="#A80C2F"/>
<path d="M66.1235 32.5625C65.2978 32.5625 64.8934 33.0555 64.8934 33.5472C64.8934 33.7657 64.985 33.9674 65.1133 34.0948C65.2415 34.2223 65.4247 34.2952 65.6092 34.3498C65.7375 34.3862 65.8657 34.4226 66.0136 34.4408C66.1785 34.4773 66.38 34.4773 66.5095 34.5501C66.5645 34.5865 66.6195 34.623 66.6195 34.714C66.6195 34.9326 66.308 35.0054 66.0869 35.0054C65.7571 35.0054 65.481 34.8233 65.2428 34.6034L64.6919 35.0965C64.8751 35.2604 65.2978 35.6623 66.1235 35.6623C66.821 35.6623 67.5001 35.3345 67.5001 34.6412C67.5001 33.9478 66.821 33.7839 66.2334 33.6747C65.9586 33.62 65.7558 33.6018 65.7558 33.4379C65.7558 33.3469 65.8291 33.2194 66.1785 33.2194C66.38 33.2194 66.6378 33.2922 66.9126 33.5108L67.4452 33.0178C67.2253 32.8539 66.8027 32.5625 66.1235 32.5625Z" fill="#A80C2F"/>
<path d="M29.035 38.3262H28.0444V42.2663H29.035V38.3262Z" fill="#A80C2F"/>
<path d="M32.4492 42.2841V40.4422C32.4492 39.9674 32.4125 39.8035 32.266 39.585C32.0645 39.3118 31.7151 39.2754 31.5135 39.2754C31.3303 39.2754 31.1288 39.33 30.9626 39.4211C30.7977 39.4939 30.7611 39.5486 30.6695 39.6396V39.3664H29.8071V42.2854H30.6695V40.4604C30.6695 40.2965 30.6878 40.1508 30.871 40.0403C30.9993 39.9674 31.1092 39.9674 31.1641 39.9674C31.329 39.9674 31.4573 40.0403 31.5122 40.1131C31.5855 40.2042 31.5855 40.3316 31.5855 40.4591V42.2828L32.4492 42.2841Z" fill="#A80C2F"/>
<path d="M34.2475 39.2559C33.4218 39.2559 33.0174 39.7489 33.0174 40.2406C33.0174 40.4591 33.109 40.6607 33.2373 40.7882C33.3655 40.9157 33.5487 40.9885 33.7332 41.0432C33.8615 41.0796 33.9897 41.116 34.1376 41.1342C34.3025 41.1706 34.504 41.1706 34.6336 41.2435C34.6885 41.2799 34.7435 41.3163 34.7435 41.4074C34.7435 41.6259 34.432 41.6988 34.2109 41.6988C33.8811 41.6988 33.605 41.5166 33.3668 41.2968L32.8159 41.7898C32.9991 41.9537 33.4218 42.3557 34.2475 42.3557C34.945 42.3557 35.6242 42.0279 35.6242 41.3345C35.6242 40.6412 34.945 40.4773 34.3574 40.368C34.0826 40.3134 33.8798 40.2952 33.8798 40.1313C33.8798 40.0402 33.9531 39.9128 34.3025 39.9128C34.504 39.9128 34.7618 39.9856 35.0366 40.2041L35.5692 39.7111C35.3677 39.5667 34.945 39.2559 34.2475 39.2559Z" fill="#A80C2F"/>
<path d="M36.2298 38.5078V39.4197H35.8071V39.9491H36.2298V41.354C36.2298 41.6271 36.2298 41.847 36.358 42.0109C36.5413 42.284 36.8723 42.3022 37.1654 42.3022C37.3303 42.3022 37.4403 42.284 37.6248 42.2658V41.5907H37.3133C37.0752 41.5907 37.0935 41.445 37.0935 41.2629V39.9491H37.6627V39.4197H37.0935V38.5078H36.2298Z" fill="#A80C2F"/>
<path d="M38.1377 38.3262V38.9831H39.0001V38.3262H38.1377ZM38.1377 39.3486V42.2676H39.0001V39.3486H38.1377Z" fill="#A80C2F"/>
<path d="M39.8636 38.5078V39.4197H39.4409V39.9491H39.8636V41.354C39.8636 41.6271 39.8636 41.847 39.9918 42.0109C40.175 42.284 40.5061 42.3022 40.7992 42.3022C40.9641 42.3022 41.074 42.284 41.2586 42.2658V41.5907H40.9471C40.7089 41.5907 40.7273 41.445 40.7273 41.2629V39.9491H41.2965V39.4197H40.7273V38.5078H39.8636Z" fill="#A80C2F"/>
<path d="M41.7349 39.347V41.1889C41.7349 41.6637 41.7715 41.8276 41.9181 42.0462C42.1196 42.3193 42.469 42.3557 42.6705 42.3557C42.8537 42.3557 43.0552 42.3011 43.2214 42.2101C43.3863 42.1372 43.423 42.0826 43.5146 41.9915V42.2647H44.3769V39.3457H43.5146V41.1694C43.5146 41.3333 43.4962 41.479 43.313 41.5896C43.1848 41.6624 43.0749 41.6624 43.0199 41.6624C42.855 41.6624 42.7268 41.5896 42.6718 41.5167C42.5985 41.4257 42.5985 41.2982 42.5985 41.1707V39.347H41.7349Z" fill="#A80C2F"/>
<path d="M45.2579 38.5078V39.4197H44.8169V39.9491H45.2396V41.354C45.2396 41.6271 45.2396 41.847 45.3678 42.0109C45.551 42.284 45.8821 42.3022 46.1752 42.3022C46.3401 42.3022 46.45 42.284 46.6345 42.2658V41.5907H46.3231C46.0849 41.5907 46.1032 41.445 46.1032 41.2629V39.9491H46.6725V39.4197H46.1032V38.5078H45.2579Z" fill="#A80C2F"/>
<path d="M48.4336 39.2559C47.2781 39.2559 46.9287 40.1677 46.9287 40.861C46.9287 41.8093 47.5346 42.3752 48.4153 42.3752C48.8929 42.3752 49.2776 42.1931 49.5341 41.955C49.6807 41.8093 49.7906 41.6636 49.8822 41.5166L49.2214 41.1888C49.1114 41.3892 48.9466 41.7001 48.4689 41.7001C48.0096 41.7001 47.7898 41.3358 47.8081 40.9703H49.9188C49.9005 40.6425 49.8822 40.0584 49.4962 39.6565C49.1298 39.2741 48.6168 39.2559 48.4336 39.2559ZM48.4336 39.8763C48.5802 39.8763 48.745 39.931 48.8563 40.0402C48.9845 40.1677 49.0028 40.3316 49.0212 40.4604H47.8277C47.8644 40.3329 47.8827 40.2054 47.9926 40.078C48.0842 39.9674 48.2308 39.8763 48.4336 39.8763Z" fill="#A80C2F"/>
<path d="M53.3147 39.2559C53.2781 39.2559 53.2415 39.2559 53.2048 39.2559C52.2142 39.2923 51.7183 39.9674 51.7183 40.8064C51.7183 41.8822 52.4707 42.357 53.2964 42.357C54.4336 42.357 54.8746 41.5362 54.8746 40.8064C54.8746 40.277 54.6181 39.3287 53.4063 39.2559C53.388 39.2559 53.3514 39.2559 53.3147 39.2559ZM53.3147 39.9492C53.443 39.9492 53.6079 39.9674 53.7741 40.1131C53.9389 40.277 54.0122 40.515 54.0122 40.8428C54.0122 41.2994 53.7741 41.6818 53.3147 41.6818C52.8371 41.6818 52.5989 41.2799 52.5989 40.8064C52.5989 40.6061 52.6356 40.4045 52.7455 40.2406C52.8554 40.0584 53.002 39.9674 53.2598 39.9492C53.2781 39.9492 53.2964 39.9492 53.3147 39.9492Z" fill="#A80C2F"/>
<path d="M56.4711 38.2715C56.0668 38.2715 55.8286 38.4172 55.7187 38.5629C55.6087 38.7268 55.5904 38.9089 55.5904 39.0559V39.4201H55.1128V39.9313H55.5721V42.2662H56.4345V39.9313H57.0037V39.4201H56.4345C56.4345 39.0377 56.4345 38.9635 56.7642 38.9635H56.9658V38.3248C56.8192 38.2897 56.636 38.2715 56.4711 38.2715Z" fill="#A80C2F"/>
<path d="M27.0356 45.0215V45.8059H28.0629V48.9798H29.0548V45.8059H30.0821V45.0215H27.0356Z" fill="#A80C2F"/>
<path d="M31.3853 45.9688C30.2298 45.9688 29.8804 46.8806 29.8804 47.5739C29.8804 48.5222 30.4862 49.0881 31.3669 49.0881C31.8446 49.0881 32.2293 48.9059 32.4858 48.6679C32.6323 48.5222 32.7423 48.3765 32.8339 48.2295L32.173 47.9017C32.0631 48.1021 31.8982 48.4129 31.4206 48.4129C30.9613 48.4129 30.7414 48.0487 30.7597 47.6832H32.8705C32.8522 47.3554 32.8339 46.7713 32.4478 46.3694C32.0644 45.987 31.5501 45.9688 31.3853 45.9688ZM31.3669 46.5892C31.5135 46.5892 31.6784 46.6439 31.7896 46.7531C31.9179 46.8806 31.9362 47.0445 31.9545 47.1733H30.7611C30.7977 47.0458 30.816 46.9183 30.9259 46.7909C31.0175 46.6803 31.1641 46.5892 31.3669 46.5892Z" fill="#A80C2F"/>
<path d="M34.6152 45.9863C33.6429 45.9863 33.147 46.6979 33.147 47.5551C33.147 48.7414 34.046 49.0874 34.5969 49.0874C34.9267 49.0874 35.2211 48.9782 35.4409 48.8325C35.6791 48.6686 35.789 48.4865 35.9003 48.3213L35.2577 47.9752C35.2211 48.0663 35.2028 48.1209 35.1295 48.212C34.9463 48.4123 34.7448 48.4123 34.6885 48.4123C34.2292 48.4123 34.0277 47.9193 34.0277 47.5369C34.0277 47.1909 34.1925 46.6432 34.6519 46.6432C34.7801 46.6432 34.89 46.6797 34.9816 46.7343C35.1282 46.8253 35.1831 46.9346 35.2198 47.0439L35.8623 46.6797C35.4959 46.0774 34.945 45.9863 34.6152 45.9863Z" fill="#A80C2F"/>
<path d="M36.0469 45.0215V48.9798H36.9092V47.5385C36.9092 47.2836 36.9092 47.0455 37.0192 46.8998C37.0924 46.8088 37.2207 46.7359 37.3672 46.7359C37.4588 46.7359 37.6787 46.7541 37.7716 47.0273C37.8082 47.1366 37.8082 47.2458 37.8082 47.4839V49.0162H38.6706V47.1015C38.6706 46.719 38.634 46.4446 38.3775 46.226C38.2126 46.0803 37.9731 46.0257 37.7533 46.0257C37.294 46.0257 37.0375 46.2807 36.9092 46.4081V45.0579H36.0469V45.0215Z" fill="#A80C2F"/>
<path d="M42.083 48.9794V47.1375C42.083 46.6627 42.0463 46.4988 41.8998 46.2803C41.6982 46.0071 41.3488 45.9707 41.1473 45.9707C40.9641 45.9707 40.7626 46.0253 40.5964 46.1164C40.4315 46.1892 40.3949 46.2439 40.3033 46.3349V46.0618H39.4409V48.9807H40.3033V47.157C40.3033 46.9931 40.3216 46.8474 40.5048 46.7369C40.633 46.664 40.743 46.664 40.7979 46.664C40.9628 46.664 41.0911 46.7369 41.146 46.8097C41.2193 46.9008 41.2193 47.0282 41.2193 47.1557V48.9794H42.083Z" fill="#A80C2F"/>
<path d="M44.2122 45.9688C44.1756 45.9688 44.1389 45.9688 44.1023 45.9688C43.1117 46.0052 42.6157 46.6803 42.6157 47.5193C42.6157 48.5951 43.3682 49.0698 44.1939 49.0698C45.3311 49.0698 45.772 48.249 45.772 47.5193C45.772 46.9899 45.5156 46.0416 44.3038 45.9688C44.2855 45.9688 44.2488 45.9688 44.2122 45.9688ZM44.2122 46.6439C44.3404 46.6439 44.5053 46.6621 44.6715 46.8078C44.8364 46.9717 44.9097 47.2097 44.9097 47.5375C44.9097 47.9941 44.6715 48.3765 44.2122 48.3765C43.7346 48.3765 43.4964 47.9746 43.4964 47.5011C43.4964 47.3008 43.533 47.0991 43.643 46.9352C43.7529 46.7531 43.8995 46.6621 44.1572 46.6439C44.1756 46.6439 44.1939 46.6439 44.2122 46.6439Z" fill="#A80C2F"/>
<path d="M47.2037 45.0391H46.3413V48.9792H47.2037V45.0391Z" fill="#A80C2F"/>
<path d="M49.3694 45.9688C49.3328 45.9688 49.2962 45.9688 49.2595 45.9688C48.2689 46.0052 47.7729 46.6803 47.7729 47.5193C47.7729 48.5951 48.5254 49.0698 49.3511 49.0698C50.4883 49.0698 50.9293 48.249 50.9293 47.5193C50.9293 46.9899 50.6728 46.0416 49.461 45.9688C49.4427 45.9688 49.4061 45.9688 49.3694 45.9688ZM49.3694 46.6439C49.4977 46.6439 49.6626 46.6621 49.8288 46.8078C49.9936 46.9717 50.0669 47.2097 50.0669 47.5375C50.0669 47.9941 49.8288 48.3765 49.3694 48.3765C48.8918 48.3765 48.6536 47.9746 48.6536 47.5011C48.6536 47.3008 48.6903 47.0991 48.8002 46.9352C48.9101 46.7531 49.0567 46.6621 49.3145 46.6439C49.3328 46.6439 49.3511 46.6439 49.3694 46.6439Z" fill="#A80C2F"/>
<path d="M52.5443 46.0059C51.572 46.0059 51.2959 46.8449 51.2959 47.4289C51.2959 47.9401 51.4425 48.3772 51.8468 48.6335C52.03 48.7609 52.2695 48.8338 52.5077 48.8338C52.912 48.8338 53.1135 48.7063 53.2784 48.5788V48.8884C53.2784 49.1252 53.2784 49.4361 52.7641 49.4361C52.6359 49.4361 52.5443 49.4178 52.4893 49.3814C52.2512 49.2722 52.2512 49.09 52.2329 48.9613H51.3338C51.3338 49.1252 51.3338 49.4178 51.5537 49.6364C51.7186 49.8003 52.0863 50.0006 52.6725 50.0006C52.929 50.0006 53.37 49.946 53.6815 49.7821C54.1041 49.5453 54.1225 49.1616 54.1225 48.852V46.0423H53.3151V46.3154C53.2051 46.2062 53.0023 46.0059 52.5443 46.0059ZM52.7092 46.6446C52.9473 46.6263 53.1135 46.7538 53.1868 46.8631C53.2784 47.0088 53.2967 47.3015 53.2967 47.4289C53.2967 47.8491 53.2051 48.1769 52.7641 48.1769C52.2315 48.1769 52.2132 47.6657 52.2132 47.4289C52.1949 47.027 52.2865 46.6628 52.7092 46.6446Z" fill="#A80C2F"/>
<path d="M54.5254 46.0605L55.4061 48.8885C55.4244 48.9431 55.4427 49.016 55.4427 49.0888C55.4427 49.2891 55.2229 49.2891 55.0763 49.3073H54.7832V49.9824H55.4074C55.6272 49.9824 55.8301 49.9642 56.0316 49.7457C56.1781 49.5818 56.2331 49.3997 56.3064 49.2163L57.352 46.0605H56.4346L55.957 48.1587L55.4794 46.0605H54.5254Z" fill="#A80C2F"/>
</svg>
