<svg width="51" height="50" viewBox="0 0 51 50" fill="none" xmlns="http://www.w3.org/2000/svg">
<g clip-path="url(#clip0_448_3701)">
<path d="M9.12402 2.17383C9.16443 3.12524 9.16309 3.7059 9.16309 4.75195V18.5106C9.16309 20.3796 9.18533 22.423 9.49295 24.3917C9.7992 26.3618 10.3885 28.2505 11.5068 29.8214C12.9465 31.8353 14.8078 33.3389 16.9365 34.5393C19.0625 35.7383 21.4569 36.6344 23.9548 37.4342H23.9591C24.4912 37.6281 24.9584 37.8575 25.4955 37.9985C26.1354 37.813 26.5589 37.6263 27.0884 37.4342H27.0928C29.566 36.6344 31.9489 35.7383 34.0763 34.5393C36.2025 33.3395 38.0767 31.8395 39.5407 29.8257C40.6358 28.2548 41.2104 26.3618 41.5112 24.3917C41.8133 22.423 41.8367 20.3796 41.8367 18.5106V4.75195C41.8367 3.79918 41.84 3.0982 41.8801 2.17383C41.0341 2.1799 40.2015 2.22157 39.1587 2.22157H11.8888C10.7978 2.22157 10.0062 2.17975 9.12402 2.17383ZM35.0745 7.57313C35.3299 8.01098 35.6106 8.39094 35.9209 8.77973C36.0255 8.91111 36.131 9.03941 36.2421 9.1747C36.4116 9.15009 36.6312 9.13708 36.8627 9.13129C37.0943 9.12551 37.3377 9.12695 37.5572 9.12695V27.3084H31.1379C30.5772 27.3084 29.9798 27.3301 29.4018 27.3301C28.9491 27.3301 28.5069 27.3166 28.1084 27.2737C27.9491 27.2569 27.7968 27.2361 27.6527 27.2086C27.5806 27.1947 27.5119 27.1777 27.4443 27.1608C27.5414 27.331 27.6032 27.4877 27.6396 27.6339C27.6399 27.6351 27.6394 27.637 27.6396 27.6382C27.6753 27.7828 27.6874 27.917 27.6874 28.0375C27.6874 28.0952 27.6821 28.1503 27.6744 28.2025C27.6589 28.3067 27.6314 28.401 27.5876 28.4846C27.4123 28.8192 27.0253 28.9962 26.5416 29.0835C26.4206 29.1054 26.2908 29.1197 26.1596 29.1313C25.9628 29.1486 25.7573 29.1573 25.5476 29.1573C25.3289 29.1573 25.1307 29.1539 24.9487 29.1443C24.6756 29.1299 24.4392 29.1042 24.2412 29.0662C23.7153 28.9652 23.4383 28.7751 23.3254 28.4759C23.325 28.4747 23.3258 28.4728 23.3254 28.4716C23.2979 28.3975 23.2778 28.3165 23.269 28.2285C23.2689 28.2271 23.2691 28.2255 23.269 28.2242C23.2647 28.1794 23.2647 28.1338 23.2647 28.0853C23.2647 28.0136 23.2666 27.9406 23.2733 27.8683C23.2735 27.8669 23.2732 27.8653 23.2733 27.864C23.2803 27.7902 23.2927 27.7186 23.3081 27.6426C23.3385 27.4907 23.3875 27.331 23.46 27.1608C23.3635 27.2006 23.2567 27.2341 23.1431 27.2607C23.0865 27.2738 23.0254 27.2851 22.9652 27.2954C22.8456 27.3158 22.7187 27.3324 22.5876 27.3431C22.5214 27.3484 22.452 27.3529 22.3836 27.3561C22.2464 27.3628 22.1061 27.3648 21.9626 27.3648C21.7989 27.3648 21.6312 27.3614 21.4634 27.3561C21.1342 27.346 20.8064 27.3275 20.4912 27.3171C20.4855 27.3169 20.4795 27.3172 20.4739 27.3171C20.4724 27.317 20.471 27.3171 20.4695 27.3171C20.3093 27.3118 20.1539 27.3084 20.0051 27.3084H13.4426V14.5263C13.4426 14.3121 13.4464 14.0943 13.4513 13.8709C13.4514 13.8652 13.4512 13.8593 13.4513 13.8535C13.4661 13.1941 13.4984 12.4996 13.5121 11.8136C13.5167 11.5825 13.5168 11.3516 13.5164 11.1235C13.5158 10.7814 13.5093 10.4476 13.4904 10.1209C13.484 10.012 13.4776 9.90179 13.4687 9.79537C13.4507 9.58253 13.4253 9.37535 13.3949 9.17471C13.5043 9.18701 13.6151 9.19307 13.7291 9.19641C13.9571 9.2031 14.1909 9.1984 14.4192 9.20509C14.5332 9.20817 14.648 9.21449 14.7577 9.22679C14.9519 8.98412 15.1579 8.71464 15.3523 8.4412C15.4982 8.23613 15.6382 8.0291 15.7603 7.82488C15.8011 7.75675 15.8409 7.68771 15.8775 7.62089C15.9867 7.68771 16.0975 7.75277 16.2117 7.81186C16.3831 7.9005 16.5602 7.97983 16.7456 8.05058C16.9915 8.14444 17.2539 8.22382 17.5312 8.28495C17.5326 8.28526 17.5341 8.28465 17.5355 8.28495C17.6749 8.31559 17.8165 8.34097 17.9652 8.36308C18.1883 8.39624 18.4216 8.41906 18.6683 8.43252C18.8328 8.4415 19.0043 8.44554 19.1805 8.44554C19.2764 8.44554 19.3858 8.44503 19.5016 8.4412C19.8546 8.4292 20.2918 8.40353 20.743 8.3761C21.0439 8.3582 21.3529 8.33744 21.6501 8.32402C21.7986 8.31716 21.9437 8.31065 22.0841 8.30665C22.2246 8.30274 22.3601 8.30231 22.4878 8.30231C23.5574 8.30231 24.4653 8.50816 24.9747 9.30058C25.0444 9.40871 25.1071 9.52996 25.1614 9.66082C25.1975 9.74806 25.228 9.84054 25.2569 9.9386C25.3001 10.0857 25.3352 10.243 25.361 10.416C25.3783 10.5314 25.391 10.653 25.4001 10.7806C25.4107 10.7137 25.4225 10.6487 25.4348 10.5853C25.4718 10.3951 25.5175 10.2207 25.5694 10.0601C25.6039 9.95311 25.6413 9.85104 25.6822 9.75631C25.7435 9.61421 25.8113 9.48648 25.8862 9.37002C25.9112 9.3312 25.9379 9.29333 25.9643 9.25718C26.0172 9.18487 26.0707 9.11968 26.1292 9.05752C26.7146 8.43593 27.5788 8.30231 28.6119 8.30231C28.7226 8.30231 28.8323 8.3039 28.9461 8.30665C29.2831 8.31449 29.6319 8.33215 29.9921 8.35006C30.2321 8.36236 30.4728 8.37555 30.7213 8.38478C30.9712 8.39382 31.224 8.3978 31.4808 8.3978C31.8366 8.3978 32.1508 8.38455 32.4313 8.36308C32.5327 8.35523 32.6332 8.34749 32.7265 8.33704C32.8145 8.32722 32.8966 8.3187 32.9782 8.30665C33.1413 8.28256 33.2921 8.25229 33.4339 8.21985C34.0722 8.07389 34.5278 7.84691 35.0745 7.57313ZM38.7247 8.83615C38.7351 8.83615 38.7432 8.83927 38.7551 8.84484C38.7857 8.85761 38.8179 8.88641 38.8593 8.9273C38.9147 8.98203 38.9786 9.05398 39.0546 9.12695C39.1496 9.21862 39.2627 9.30981 39.3931 9.36567C39.4707 9.39889 39.5539 9.41775 39.6449 9.41775C39.7057 9.41775 39.7649 9.40965 39.8272 9.39171C40.0138 9.33789 40.2152 9.20213 40.4695 8.98372C40.4513 9.07182 40.4359 9.16701 40.4218 9.27018C40.3946 9.46914 40.3735 9.69276 40.3567 9.93425C40.356 9.94323 40.3572 9.95125 40.3567 9.96029C40.3566 9.96178 40.3568 9.96314 40.3567 9.96463C40.3562 9.9716 40.3571 9.97932 40.3567 9.98633C40.3318 10.3573 40.3125 10.7656 40.2916 11.1799C40.2773 11.4623 40.2608 11.7483 40.2395 12.0263C40.2182 12.3043 40.1925 12.5756 40.157 12.8292C40.1126 13.1461 40.0541 13.4361 39.9747 13.6799C39.9113 13.875 39.8343 14.0402 39.7403 14.166C39.6699 14.2604 39.5884 14.3331 39.4973 14.3787C39.4616 14.3921 39.4211 14.4044 39.3801 14.4134C39.3152 14.4277 39.2466 14.4349 39.1718 14.4395C39.131 14.4419 39.0887 14.4438 39.0459 14.4438C38.9536 14.4438 38.8568 14.4387 38.7594 14.4308C38.4675 14.4069 38.1676 14.3561 37.9435 14.3309C37.9435 14.2831 37.8957 14.0852 37.8957 13.9403V13.1634V12.8205C38.0109 12.8409 38.1125 12.8509 38.1995 12.8509C38.4322 12.8509 38.5727 12.7774 38.6596 12.6426C38.6606 12.641 38.663 12.6398 38.6639 12.6382C38.7005 12.58 38.7257 12.5107 38.7464 12.4299C38.7467 12.4286 38.7461 12.4268 38.7464 12.4256C38.788 12.2606 38.8043 12.0517 38.8202 11.8006C38.8562 11.07 38.8087 10.315 38.7421 9.61306C38.7201 9.37928 38.6969 9.15439 38.6726 8.93598C38.6726 8.91137 38.6744 8.88534 38.6813 8.86654C38.6882 8.84773 38.7001 8.83615 38.7247 8.83615ZM12.2273 9.1747C12.2273 9.27211 12.2233 9.39808 12.2143 9.54796C12.2142 9.54967 12.2144 9.55058 12.2143 9.5523C12.2054 9.70127 12.1914 9.87181 12.1796 10.0558C12.1614 10.3338 12.1441 10.6431 12.1362 10.9542C12.1336 11.058 12.1318 11.1635 12.1318 11.2667C12.1318 11.9905 12.2073 12.6729 12.3879 12.8987C12.3886 12.8995 12.3872 12.9022 12.3879 12.903C12.4131 12.9339 12.441 12.9561 12.4704 12.9681C12.4827 12.9741 12.4959 12.9809 12.5138 12.9855C12.5152 12.9858 12.5167 12.9851 12.5181 12.9855C12.5207 12.9861 12.5242 12.9849 12.5268 12.9855C12.5765 12.9968 12.6429 13.0073 12.7178 13.0115C12.724 13.0119 12.7288 13.0112 12.7351 13.0115C12.8499 13.0173 12.9838 13.0158 13.1041 13.0158C13.0794 13.0405 13.0805 13.0793 13.0867 13.1287C13.0898 13.153 13.0915 13.1764 13.0954 13.2068C13.0995 13.2388 13.1041 13.2725 13.1041 13.311C13.0959 13.3123 13.0862 13.314 13.078 13.3153V14.0401C13.0862 14.0392 13.0959 14.0367 13.1041 14.0358C13.0548 14.1329 13.0563 14.3786 13.0563 14.4264C12.9825 14.4358 12.9022 14.4471 12.8219 14.4612C12.5814 14.5029 12.3131 14.5566 12.0407 14.5566C11.9257 14.5566 11.8097 14.5495 11.6935 14.5263C11.6188 14.5113 11.5493 14.4821 11.4851 14.4438C11.4842 14.4432 11.4818 14.4444 11.4808 14.4438C11.0899 14.2072 10.8909 13.5598 10.7777 12.7815C10.7402 12.5239 10.7126 12.2498 10.6909 11.9742C10.6363 11.2815 10.6184 10.5645 10.5824 9.98633C10.5679 9.75507 10.5504 9.54638 10.5259 9.37001C10.8185 9.5163 11.1608 9.71289 11.3549 9.71289C11.4035 9.71289 11.4651 9.69142 11.5372 9.65647C11.5732 9.63882 11.6108 9.61928 11.6501 9.5957C11.6911 9.57154 11.7288 9.54613 11.7716 9.51758C11.935 9.4073 12.1056 9.27177 12.2273 9.1747ZM12.2751 18.9013C12.2392 19.1925 12.1787 19.8367 12.1492 20.429C12.1395 20.6263 12.1318 20.8187 12.1318 20.9889C12.1318 21.4757 12.1809 22.204 12.3271 22.3995C12.3393 22.4176 12.3529 22.4306 12.3706 22.4429C12.3882 22.4553 12.4088 22.4659 12.4313 22.4733C12.4538 22.4807 12.4784 22.4874 12.5051 22.4907C12.5333 22.4945 12.56 22.495 12.5919 22.495C12.7134 22.495 12.8623 22.4719 13.0086 22.4473L13.1041 22.7858C13.0951 22.7891 13.0871 22.7956 13.078 22.7988L12.9565 23.6148L13.0563 24.1009C12.7499 24.1244 12.4883 24.1356 12.2664 24.1356C12.0041 24.1356 11.798 24.1188 11.6327 24.0835C11.5778 24.0721 11.5311 24.0599 11.4851 24.0445C11.3474 23.9978 11.249 23.933 11.177 23.8492C11.1521 23.8206 11.1308 23.7911 11.1119 23.758C11.0911 23.7254 11.0701 23.6831 11.0511 23.6321C11.0507 23.631 11.0515 23.6289 11.0511 23.6278C11.0126 23.5234 10.9744 23.3817 10.9426 23.2155C10.9423 23.2142 10.9428 23.2124 10.9426 23.2112C10.8627 22.7917 10.8059 22.207 10.7603 21.6053C10.7602 21.6038 10.7604 21.6024 10.7603 21.6009C10.6873 20.6356 10.6497 19.6296 10.6258 19.1921C10.656 19.2104 10.6833 19.2309 10.7126 19.2528C10.8598 19.363 10.9972 19.508 11.19 19.5827C11.1912 19.5831 11.1931 19.5823 11.1943 19.5827C11.2315 19.5969 11.27 19.6094 11.3115 19.6174C11.3129 19.6177 11.3144 19.6171 11.3159 19.6174C11.3576 19.6252 11.4034 19.6304 11.4504 19.6304C11.496 19.6304 11.5469 19.6102 11.598 19.5783C11.6313 19.5576 11.6631 19.5305 11.6978 19.5002C11.7171 19.4835 11.7347 19.467 11.7542 19.4481C11.7895 19.4141 11.8271 19.3783 11.8627 19.3396C11.8635 19.3388 11.862 19.3361 11.8627 19.3353C11.9355 19.2563 12.0099 19.174 12.0798 19.0966C12.1155 19.0569 12.1501 19.0219 12.1839 18.9881C12.216 18.9559 12.2454 18.9249 12.2751 18.9013ZM38.6249 19.2398C38.6734 19.2887 38.7312 19.3576 38.7942 19.4351C38.8887 19.5515 38.9966 19.6867 39.1023 19.791C39.1551 19.8431 39.2034 19.8851 39.2542 19.9169C39.2552 19.9174 39.2576 19.9163 39.2586 19.9169C39.2913 19.9371 39.3232 19.957 39.3541 19.9646C39.3712 19.9692 39.3854 19.969 39.4018 19.969C39.6737 19.969 39.834 19.8536 39.9747 19.7216C40.0035 19.6942 40.0335 19.6672 40.0615 19.6391C40.1154 19.5851 40.1707 19.5307 40.2308 19.4829C40.2185 19.7016 40.2041 20.0669 40.1874 20.5028C40.1873 20.5047 40.1875 20.5053 40.1874 20.5071C40.1622 21.161 40.1269 21.9657 40.0659 22.6556C40.0048 23.3454 39.9201 23.9184 39.7924 24.1009C39.7699 24.1323 39.7464 24.1597 39.7186 24.1877C39.6903 24.2166 39.662 24.2451 39.6275 24.2702C39.6267 24.2709 39.624 24.2695 39.6232 24.2702C39.5567 24.3181 39.4765 24.3585 39.3844 24.3917C39.2912 24.4255 39.1828 24.4523 39.0589 24.4698C38.935 24.4873 38.7967 24.4959 38.6379 24.4959C38.4135 24.4959 38.1524 24.4773 37.848 24.4394L37.9435 24.0054L37.8002 23.1764L37.8957 22.8856C37.9936 22.902 38.0919 22.9117 38.1822 22.9117C38.2257 22.9117 38.2688 22.9087 38.3081 22.903C38.3485 22.8969 38.3868 22.8862 38.4209 22.8726C38.4367 22.8663 38.4545 22.859 38.4686 22.8509C38.4838 22.842 38.499 22.8317 38.512 22.8205C38.5243 22.8099 38.5366 22.7942 38.5468 22.7815C38.5574 22.7678 38.5691 22.7543 38.5772 22.7381C38.5863 22.7259 38.5948 22.7104 38.6032 22.6946C38.6284 22.6473 38.6495 22.587 38.6683 22.5124C38.6935 22.4128 38.7138 22.2916 38.7291 22.1608C38.7593 21.8995 38.7725 21.5947 38.7725 21.3275C38.7725 21.1589 38.7651 20.9675 38.7551 20.7719C38.755 20.7705 38.7552 20.769 38.7551 20.7676C38.7451 20.5719 38.7314 20.3702 38.716 20.1773C38.7159 20.1758 38.7162 20.1745 38.716 20.173C38.6851 19.7847 38.6488 19.4346 38.6249 19.2398Z" fill="#003365"/>
<path d="M42.4692 1.5625C42.4188 2.60904 42.4188 3.35577 42.4188 4.40231V18.4991C42.4188 22.335 42.3193 26.9176 40.0287 30.2058C36.9899 34.3891 32.2574 36.4318 27.176 38.0751C26.6282 38.2741 26.1799 38.4744 25.4822 38.6734C24.8854 38.5234 24.3866 38.2741 23.8388 38.0751C18.7084 36.4318 13.9759 34.3891 10.9875 30.2058C8.64649 26.9176 8.54702 22.335 8.54702 18.4991V4.40231C8.54702 3.2563 8.54702 2.65807 8.49658 1.5625C9.49269 1.5625 10.3403 1.61294 11.5353 1.61294H39.4809C40.6255 1.61294 41.5221 1.5625 42.4692 1.5625Z" fill="#003365"/>
<path d="M25.4991 48.8914C18.0138 48.8914 12.4712 47.5311 6.20127 44.809C6.88213 43.4473 7.46455 39.7531 7.46455 37.8568C11.9858 40.6281 18.8888 42.1348 25.4991 42.1348C32.2079 42.1348 39.063 40.6281 43.5829 37.8568C43.5829 39.7531 44.1667 43.4473 44.8462 44.809C38.5763 47.5311 33.0351 48.8914 25.4991 48.8914ZM7.12549 44.4193C12.4712 46.8994 18.5005 48.2105 25.5483 48.2105C32.5976 48.1627 38.5763 46.8994 43.9233 44.4193C43.6229 43.6469 43.0196 40.9043 43.016 39.4028C43.0156 39.2035 43.0256 39.0262 43.0483 38.8781C38.5284 41.5031 31.3821 42.8635 25.4991 42.8635C19.6175 42.8635 12.5204 41.5031 8.00049 38.8781C8.02327 39.0262 8.03391 39.2035 8.03452 39.4028C8.03907 40.9043 7.4682 43.6469 7.12549 44.4193ZM25.8409 46.9951H25.3542C25.0138 46.1215 24.5763 45.0031 24.1388 43.9326L24.8675 43.9818C25.063 44.6627 25.4021 45.5377 25.6454 46.2186C25.9366 45.6348 26.277 44.7598 26.4233 44.0311L27.1042 43.9818C26.6667 44.9061 26.2292 45.926 25.8409 46.9951ZM27.6388 46.9473C27.6388 46.9321 27.6388 46.9167 27.6388 46.9014C27.6388 46.886 27.6388 46.8706 27.6388 46.8551C27.6386 45.8907 27.6357 44.5922 27.5417 43.9326C28.0271 43.9326 28.805 43.8369 29.3395 43.7877L29.5829 44.3715L29.4858 44.4193C29.0976 44.176 28.4646 44.2744 28.2226 44.2252C28.2226 44.5656 28.1733 44.7598 28.1733 45.148L29.1946 45.0523L29.2425 45.5377C29.0483 45.4885 28.5616 45.4885 28.2226 45.4885C28.2226 45.8289 28.2704 46.2186 28.3196 46.559C28.805 46.5098 29.438 46.3635 29.7771 46.1693L29.8755 46.2186L29.68 46.8502C28.9513 46.8994 28.5138 46.8502 27.6388 46.9473ZM21.8542 46.8994L21.1241 46.8502C21.3196 45.926 21.4167 45.148 21.4167 44.176C21.3123 44.1658 21.2194 44.1599 21.134 44.1599C20.8214 44.1599 20.614 44.2387 20.3476 44.4686L20.2983 44.4193C20.3476 44.2744 20.5417 43.8369 20.5895 43.6906C21.3675 43.8369 22.1454 43.9326 22.9712 43.9326L23.1175 44.6627L23.0204 44.7105C22.8741 44.5164 22.4366 44.2252 22.0483 44.176C22.0057 44.7397 21.846 45.8034 21.8463 46.6137C21.8463 46.7133 21.8489 46.8089 21.8542 46.8994ZM30.5071 46.801C30.5071 45.926 30.3116 44.7105 30.2159 43.7385C30.7013 43.6906 31.0417 43.5443 31.4792 43.5443C32.2079 43.5443 32.4513 43.9326 32.4513 44.2252C32.4513 44.7105 32.305 44.8568 32.0138 45.1002C32.4513 45.6348 32.8396 45.9752 33.4726 46.3635V46.4605C33.3725 46.4698 33.2786 46.4742 33.1897 46.4742C32.3287 46.4742 31.9683 46.0487 31.5271 45.3436L30.9925 45.3914C31.0417 45.8781 31.0417 45.926 31.188 46.7039L30.5071 46.801ZM30.8462 43.9326L30.9446 45.0523C31.4792 45.0031 31.8196 44.8568 31.8196 44.4193C31.8196 44.176 31.6733 43.9326 31.2358 43.9326H30.8462ZM19.7638 46.6068C19.0351 46.5098 18.5962 46.4127 17.7226 46.3156C17.9167 45.3436 18.2079 43.9326 18.2571 43.3502C18.7425 43.4473 19.3741 43.5443 19.9087 43.6414L20.0071 44.3223H19.9087C19.7638 44.0311 19.0351 43.8369 18.7917 43.7877C18.6946 44.0789 18.6454 44.3715 18.5962 44.7598L19.5696 44.809L19.5204 45.3436C19.3263 45.2451 18.8888 45.148 18.5483 45.1002C18.5005 45.4406 18.4513 45.7318 18.4021 46.0723C18.6447 46.0967 18.9594 46.121 19.2564 46.121C19.5554 46.121 19.8364 46.0964 20.0071 46.023L20.055 46.0723L19.7638 46.6068ZM33.8608 46.3156C33.7159 45.3914 33.5204 44.2252 33.2784 43.2531L33.9579 43.1068C34.0071 43.9326 34.2983 45.3914 34.5417 46.1693L33.8608 46.3156ZM16.0204 45.9752L15.3396 45.8289C15.2917 45.5377 15.0483 44.809 14.9513 44.4686L13.93 45.4406L13.3954 45.2451C13.8329 44.9061 14.3183 44.4686 14.7571 44.1281C14.5138 43.3502 14.4167 43.0098 14.2226 42.5244L14.9991 42.7664C15.0483 43.059 15.1946 43.5443 15.2917 43.8848L16.2638 43.0098L16.7491 43.1068C16.3608 43.398 15.8263 43.8848 15.438 44.2252C15.7292 45.148 15.8755 45.4885 16.0204 45.9752ZM36.1454 45.781C35.9513 44.8568 35.805 44.1281 35.5138 43.1561C35.0284 43.2531 34.8821 43.4473 34.6388 43.7877H34.5417C34.5896 43.4473 34.5896 43.156 34.6388 43.0098C35.3675 42.9127 36.1946 42.7185 36.9233 42.4752C37.0204 42.6693 37.1667 42.9127 37.313 43.1068L37.2146 43.2039C37.0471 43.1202 36.6633 42.9999 36.3108 42.9999C36.2546 42.9999 36.199 43.0029 36.1454 43.0098C36.2917 43.6906 36.4858 44.809 36.7784 45.5869L36.1454 45.781ZM37.6042 45.3914C37.7983 44.2744 37.9446 43.3502 38.0417 42.0855L38.5763 41.9406C39.1601 42.7186 39.8888 43.7385 40.4712 44.4193L39.8888 44.6627C39.6454 44.2252 39.3063 43.7877 39.3063 43.7877C39.3063 43.7877 38.5284 44.0311 38.2358 44.1281C38.188 44.4686 38.1388 44.906 38.1388 45.1973L37.6042 45.3914ZM38.2851 43.6906L39.063 43.4473L38.3821 42.6201L38.2851 43.6906ZM12.0829 44.9539C11.6946 44.9539 10.8196 44.7105 10.8196 43.9818C10.8196 43.301 11.305 42.2811 11.4513 41.648L12.0829 41.8914C11.9366 42.2811 11.4513 43.6906 11.4513 43.9818C11.4513 44.4685 11.8888 44.5656 12.1321 44.5656C12.5204 44.5656 12.7638 43.9326 12.9579 43.2531C13.055 42.9127 13.1521 42.5244 13.2491 42.2811L13.7358 42.426C13.6388 42.7664 13.5417 43.1561 13.3954 43.5443C13.1521 44.2744 12.9101 44.9539 12.0829 44.9539ZM41.1042 44.2252H40.813L40.4233 43.4473H40.4712C40.7638 43.5936 41.2491 43.8369 41.6388 43.8369C41.8821 43.8369 42.0763 43.6906 42.0763 43.3502C42.0763 42.5244 40.1321 43.1561 40.1321 41.9898C40.1321 41.0656 41.055 40.8223 41.7358 40.8223L42.0763 41.551L41.9792 41.648C41.7837 41.4539 41.4446 41.2119 41.1042 41.2119C40.813 41.2119 40.6175 41.3568 40.6175 41.6973C40.6175 42.5244 42.5616 41.7943 42.5616 43.1561C42.5616 43.7877 41.7837 44.2252 41.1042 44.2252ZM10.0417 44.2252C9.36084 43.9326 9.26377 43.8369 8.43799 43.6414C8.87549 42.6201 9.06963 41.6973 9.26377 40.7252L9.94463 41.0164C9.6042 41.8436 9.36084 42.5244 9.1667 43.4965C9.56805 43.616 9.86898 43.7029 10.1807 43.7029C10.2469 43.7029 10.3138 43.699 10.3821 43.6906L10.43 43.7385C10.3343 43.8848 10.0896 44.1281 10.0417 44.2252ZM6.29834 42.426C5.17998 42.0855 3.81963 41.2119 2.79834 40.9193V40.773C3.23584 40.4818 5.03506 38.684 5.13213 38.2943C4.93799 36.8848 4.40205 34.7465 4.16006 34.0164L4.25713 33.9686C6.20127 35.4752 9.02041 36.8369 11.4021 37.8568L11.3542 38.6348C8.19463 37.2744 6.68662 36.301 5.2292 35.4752C5.52041 36.301 5.6667 37.6627 5.91006 38.4406C5.17998 39.0723 4.69463 40.0443 3.9167 40.6281C4.69463 40.8223 5.56963 41.4047 6.39541 41.6973L6.29834 42.426ZM44.7013 42.3289L44.555 41.6002C45.3821 41.309 46.3542 40.773 47.0829 40.4818C46.3542 39.8502 45.7226 39.0723 45.0417 38.2943C45.2358 37.5164 45.4792 36.1561 45.7704 35.2811C44.2638 36.059 42.7558 37.0789 39.5483 38.5377V37.7105C41.3476 36.9818 45.1388 35.0377 46.6946 33.8223L46.8396 33.8715C46.5962 34.6002 46.0616 36.7398 45.8675 38.051C45.9646 38.4885 47.5696 40.1906 48.2013 40.5789V40.7252C47.18 40.9686 45.8675 42.0855 44.7013 42.3289Z" fill="#1C1B1A"/>
<path d="M25.4991 38.1979C24.9167 38.0516 24.43 37.8082 23.8954 37.6141C18.8888 36.0104 14.2704 34.017 11.3542 29.9346C9.06963 26.7258 8.97256 22.2537 8.97256 18.5104V4.75371C8.97256 4.73624 8.97256 4.71892 8.97256 4.70161C8.97256 4.68444 8.97256 4.66743 8.97256 4.65041C8.97256 4.6334 8.97256 4.61654 8.97256 4.59983C8.97256 4.58312 8.97256 4.56656 8.97256 4.55C8.97241 3.56046 8.96952 2.98472 8.92334 1.98242C9.89541 1.98242 10.7226 2.03164 11.8888 2.03164H39.1601C40.2771 2.03164 41.1521 1.98242 42.0763 1.98242C42.0271 3.00371 42.0271 3.73242 42.0271 4.75371V18.5104C42.0271 22.2537 41.93 26.7258 39.6946 29.9346C36.7292 34.017 32.1108 36.0104 27.1521 37.6141C26.6175 37.8082 26.18 38.0037 25.4991 38.1979ZM9.12219 2.17307C9.1626 3.12448 9.1626 3.70766 9.1626 4.75371V18.5104C9.1626 20.3793 9.18721 22.4246 9.49482 24.3934C9.80107 26.3635 10.3903 28.2529 11.5087 29.8238C12.9483 31.8377 14.8063 33.3389 16.9351 34.5393C19.061 35.7383 21.4563 36.6338 23.9542 37.4336L23.9583 37.435L23.961 37.4364C24.4932 37.6302 24.9597 37.8599 25.4968 38.0009C26.1367 37.8154 26.5582 37.6284 27.0878 37.4364L27.0919 37.435L27.0946 37.4336C29.5679 36.6338 31.9509 35.7383 34.0782 34.5393C36.2045 33.3395 38.0753 31.8392 39.5392 29.8255L39.5388 29.8252C40.6339 28.2543 41.2109 26.3635 41.5117 24.3934C41.8138 22.4246 41.8384 20.3793 41.8384 18.5104V4.75374C41.8384 3.80096 41.8384 3.09762 41.8785 2.17325C41.0325 2.17932 40.2028 2.22171 39.1601 2.22171H11.8888C10.7978 2.22171 10.0043 2.17899 9.12219 2.17307Z" fill="#003365"/>
<path d="M14.3676 25.9484L14.2705 25.8992C14.4168 25.2197 14.4646 24.4418 14.4646 23.6147C14.4646 22.5455 14.3676 21.4764 14.3676 20.6014V10.2477C15.1947 9.85801 15.4381 9.27422 15.7771 8.6918C15.7287 9.22637 15.7167 9.87031 15.7168 10.5264C15.717 11.1825 15.7293 11.8508 15.7293 12.4338V20.4551C15.7293 21.1413 15.773 21.9367 15.7724 22.6945C15.7722 23.0646 15.7612 23.4258 15.7293 23.7609C15.6801 24.0043 14.5617 25.8992 14.3676 25.9484ZM25.2572 27.0668C24.8197 26.9697 24.4301 26.8234 24.1389 26.6772C23.9926 26.5801 23.7984 26.2889 23.6521 26.2889C23.6043 26.2889 23.3131 26.4338 23.2146 26.4338C22.583 26.5322 21.9021 26.5801 21.1734 26.5801C19.7639 26.5801 18.3051 26.4338 16.9447 26.4338C16.7283 26.4338 16.5089 26.4309 16.2923 26.4309C15.6333 26.4309 15.0012 26.4579 14.5617 26.6771C15.1455 25.8021 15.7771 24.9271 16.2639 23.9072C17.0896 24.2477 17.6242 24.5389 19.3264 24.5389C20.1521 24.5389 21.0271 24.491 21.8051 24.491C22.6801 24.491 23.458 24.5867 24.0418 24.8793C24.8197 25.3168 25.208 26.0455 25.2572 27.0668ZM25.6455 27.0668C25.6947 26.1918 26.083 25.3646 26.7146 24.9764C27.3047 24.5442 28.1818 24.4523 29.1525 24.4523C29.5112 24.4523 29.8826 24.4647 30.257 24.4773C30.6304 24.4898 31.0069 24.5023 31.3765 24.5023C31.7793 24.5023 32.174 24.4874 32.5484 24.4418C33.4234 24.3926 34.0072 24.0521 34.6389 23.8102C35.1256 24.733 35.7572 25.5602 36.341 26.4338C35.9514 26.3381 35.4168 26.3381 34.8822 26.3381C34.0072 26.3381 32.4514 26.4338 31.5764 26.4338H29.1455C29.0933 26.4374 29.0404 26.439 28.9872 26.439C28.7369 26.439 28.478 26.4031 28.2322 26.3682C27.9881 26.3325 27.7557 26.2962 27.5556 26.2962C27.4418 26.2962 27.3384 26.3079 27.2492 26.3381C27.1043 26.3381 26.9102 26.5801 26.7639 26.6771C26.4234 26.8727 26.083 26.9697 25.6455 27.0668ZM36.7293 25.8514C36.4859 25.5602 36.2918 25.3168 36.0484 24.9764C35.8051 24.6852 35.3197 24.1492 35.2705 23.7609C35.2069 23.4419 35.1848 23.0968 35.1842 22.7427C35.1828 22.0175 35.2705 21.2544 35.2705 20.6014V12.8234C35.2705 12.2708 35.2786 11.6859 35.2784 11.1014C35.2783 10.247 35.2603 9.39347 35.1734 8.64258C35.466 9.22637 35.9514 9.90723 36.583 10.1492V20.4072C36.583 21.1729 36.5645 21.9942 36.5639 22.8144C36.5633 23.8689 36.5924 24.9215 36.7293 25.8514Z" fill="#FFF000"/>
<path d="M25.4991 39.2191C25.3063 39.1207 24.8675 38.9758 24.7212 38.9266C18.5962 36.8375 13.93 35.1354 10.5763 30.4691C8.48584 27.5037 8.04834 23.8574 8.04834 19.1912V1.10742H42.9991V19.1912C42.9991 23.8574 42.5138 27.5037 40.4233 30.4691C37.1175 35.1354 32.4513 36.8375 26.2771 38.9266C26.1321 38.9758 25.7425 39.1207 25.4991 39.2191ZM23.838 37.7957C24.3565 37.9841 24.8483 38.2299 25.454 38.3824L25.5032 38.3947L25.5524 38.3811C26.2456 38.1828 26.6913 37.9832 27.2177 37.7932L27.2174 37.7925C29.7007 36.9904 32.1031 36.0873 34.2642 34.8702C36.4271 33.6507 38.3466 32.1139 39.8491 30.0454L39.8505 30.044V30.0426C40.9921 28.4047 41.5814 26.4551 41.8876 24.4508C42.1939 22.4465 42.2185 20.3834 42.2185 18.5104V4.75374C42.2185 3.73245 42.2185 3.00784 42.2664 1.99202L42.2605 1.79015L42.0763 1.79241C41.1453 1.79241 40.273 1.84163 39.1601 1.84163H11.8888C10.7281 1.84163 9.90365 1.79241 8.92475 1.79241H8.72514L8.73471 1.99202C8.78256 3.05706 8.78256 3.63538 8.78256 4.75374V18.5104C8.78256 20.3834 8.80717 22.4465 9.11889 24.4522C9.43197 26.4565 10.0335 28.4061 11.1997 30.044C12.6777 32.1139 14.5849 33.6506 16.7478 34.8701C18.9107 36.0883 21.3292 36.992 23.838 37.7959L23.838 37.7957Z" fill="#1C1B1A"/>
<path d="M25.5486 29.1561C23.7986 29.1561 23.2641 28.8635 23.2641 28.0869C23.2641 27.7943 23.3133 27.5031 23.4582 27.1627C23.0724 27.3217 22.5378 27.3641 21.9636 27.3641C21.3088 27.3641 20.6025 27.309 20.0074 27.309H13.4449V14.5244C13.4449 12.8223 13.6391 10.7811 13.3957 9.17598C13.8332 9.2252 14.3186 9.17598 14.7574 9.2252C15.1457 8.73984 15.5832 8.15606 15.8758 7.62148C16.7494 8.15606 17.7707 8.44727 19.1803 8.44727C19.9582 8.44727 21.4649 8.30098 22.4861 8.30098C24.042 8.30098 25.2574 8.73984 25.4024 10.7811C25.7428 8.64141 26.9582 8.30098 28.6111 8.30098C29.4861 8.30098 30.4582 8.39941 31.4795 8.39941C33.4236 8.39941 34.1045 8.05898 35.0766 7.57227C35.417 8.15605 35.8053 8.64141 36.2442 9.17598C36.5832 9.12676 37.1178 9.12676 37.5566 9.12676V27.309H31.1391C30.5784 27.309 29.9794 27.3281 29.4014 27.3281C28.6771 27.3281 27.9856 27.298 27.4449 27.1627C27.6391 27.5031 27.6883 27.7943 27.6883 28.0377C27.6883 28.9605 26.667 29.1561 25.5486 29.1561ZM23.8479 27.1627C23.8957 27.4539 23.8957 27.8436 24.042 28.0377C24.2361 28.3289 24.917 28.4752 25.5486 28.4752C26.0354 28.4752 26.4729 28.426 26.7149 28.2811C27.0074 28.1348 27.0553 27.5031 27.1523 27.1627C26.667 27.5031 26.1324 27.648 25.4516 27.648C24.9649 27.648 24.2854 27.4539 23.8479 27.1627ZM29.1527 24.4511C28.182 24.4511 27.3049 24.543 26.7149 24.9752C26.0832 25.3635 25.6949 26.1906 25.6457 27.0656C26.0832 26.9686 26.4236 26.8715 26.7641 26.676C26.9104 26.5789 27.1045 26.3369 27.2494 26.3369C27.3386 26.3067 27.442 26.295 27.5558 26.295C27.7559 26.295 27.9883 26.3313 28.2324 26.367C28.4782 26.4019 28.7371 26.4378 28.9874 26.4378C29.0406 26.4378 29.0935 26.4363 29.1457 26.4326H31.5766C32.4516 26.4326 34.0074 26.3369 34.8824 26.3369C35.417 26.3369 35.9516 26.3369 36.3412 26.4326C35.7574 25.559 35.1258 24.7318 34.6391 23.809C34.0074 24.051 33.4236 24.3914 32.5486 24.4406C32.1742 24.4862 31.7795 24.5011 31.3767 24.5011C31.0071 24.5011 30.6306 24.4886 30.2572 24.4762C29.8828 24.4636 29.5114 24.4511 29.1527 24.4511ZM25.2574 27.0656C25.2082 26.0443 24.8199 25.3156 24.042 24.8781C23.4582 24.5855 22.6803 24.4898 21.8053 24.4898C21.0274 24.4898 20.1524 24.5377 19.3266 24.5377C17.6244 24.5377 17.0899 24.2465 16.2641 23.9061C15.7774 24.926 15.1457 25.801 14.5619 26.676C15.0014 26.4568 15.6335 26.4297 16.2925 26.4297C16.5091 26.4297 16.7285 26.4326 16.9449 26.4326C18.3053 26.4326 19.7641 26.5789 21.1736 26.5789C21.9024 26.5789 22.5832 26.5311 23.2149 26.4326C23.3133 26.4326 23.6045 26.2877 23.6524 26.2877C23.7986 26.2877 23.9928 26.5789 24.1391 26.676C24.4303 26.8223 24.8199 26.9686 25.2574 27.0656ZM14.2707 25.898L14.3678 25.9473C14.5619 25.898 15.6803 24.0031 15.7295 23.7598C15.7614 23.4247 15.7723 23.0634 15.7726 22.6934C15.7732 21.9355 15.7295 21.1401 15.7295 20.4539V12.4326C15.7295 11.8496 15.7172 11.1813 15.717 10.5252C15.7169 9.86914 15.7289 9.2252 15.7774 8.69063C15.4383 9.27305 15.1949 9.85684 14.3678 10.2465V20.6002C14.3678 21.4752 14.4648 22.5443 14.4648 23.6135C14.4648 24.4406 14.417 25.2186 14.2707 25.898ZM36.7295 25.8502C36.5926 24.9204 36.5635 23.8678 36.5641 22.8132C36.5646 21.9931 36.5832 21.1717 36.5832 20.4061V10.148C35.9516 9.90606 35.4662 9.2252 35.1736 8.64141C35.2605 9.3923 35.2785 10.2459 35.2786 11.1002C35.2787 11.6848 35.2707 12.2696 35.2707 12.8223V20.6002C35.2707 21.2533 35.1831 22.0163 35.1844 22.7415C35.185 23.0956 35.2071 23.4408 35.2707 23.7598C35.3199 24.148 35.8053 24.684 36.0486 24.9752C36.292 25.3156 36.4861 25.559 36.7295 25.8502ZM25.5486 16.9539C25.5486 19.8223 25.6457 22.7385 25.6457 25.559C26.454 24.0282 28.103 23.9548 29.9103 23.9548C30.0044 23.9548 30.0994 23.9551 30.1943 23.9552C30.2709 23.9554 30.3476 23.9554 30.4245 23.9554C31.5029 23.9554 32.6133 23.9364 33.6178 23.6134C33.9582 23.5164 34.4941 23.4193 34.6869 23.1281C34.7761 22.9798 34.7931 22.1455 34.7928 21.3735C34.7927 20.8787 34.7853 20.4093 34.7853 20.1626V8.30093H34.6391C33.9582 8.69057 33.0832 8.88471 32.0141 8.88471C31.1391 8.88471 30.167 8.78764 29.1457 8.78764C28.1736 8.78764 27.3478 8.8355 26.8133 9.17593C26.0832 9.7105 25.7428 10.4406 25.6949 11.8009C25.5979 13.4539 25.5486 15.2039 25.5486 16.9539ZM21.7082 23.906C23.4103 23.906 24.6736 24.2943 25.2574 25.5097V15.2039C25.2574 14.4331 25.3007 13.5603 25.3004 12.7289C25.3003 12.04 25.27 11.3795 25.1604 10.8289C25.0141 10.2464 24.7215 9.66264 24.3332 9.37007C23.7494 8.88471 22.8744 8.78764 21.9516 8.78764C20.8824 8.78764 20.1523 8.93393 18.6457 8.93393C17.4303 8.93393 16.9449 8.69057 16.2148 8.35014V20.1626C16.2148 20.5524 16.1409 21.461 16.1415 22.1911C16.1418 22.6439 16.1709 23.0281 16.2641 23.1773C16.5553 23.7597 18.3545 24.0031 19.7641 24.0031C20.542 24.0031 21.1736 23.906 21.7082 23.906ZM38.6382 24.4965C38.4139 24.4965 38.1523 24.4784 37.8479 24.4406L37.9449 24.0031L38.2402 24.2246L39.1152 24.1753L39.4652 24.0222L39.6744 23.4193L39.6895 23.2238L37.7986 23.1773L37.8957 22.8847C37.9935 22.9011 38.0911 22.9121 38.1813 22.9121C38.3612 22.9121 38.512 22.8686 38.5766 22.7384C38.7229 22.5443 38.7707 21.8634 38.7707 21.3289C38.7707 20.6494 38.6736 19.6281 38.6258 19.2384C38.8199 19.4339 39.1604 19.9685 39.4037 19.9685C39.8412 19.9685 39.9861 19.6759 40.2295 19.4818C40.1803 20.3568 40.1324 23.6134 39.792 24.1001C39.6121 24.3517 39.2734 24.4965 38.6382 24.4965ZM38.917 22.8847C39.0387 22.9332 39.1724 22.9575 39.2998 22.9575C39.4273 22.9575 39.5486 22.9332 39.6457 22.8847C39.792 22.0576 39.8412 21.0376 39.9383 20.1626C39.6457 20.3568 39.5486 20.5031 39.4516 20.5031C39.3545 20.5031 39.2574 20.3568 39.0633 20.1148C39.0141 20.9406 39.0141 22.0097 38.917 22.8847ZM12.2663 24.1358C11.5731 24.1358 11.2582 24.0175 11.1111 23.7597C10.7707 23.2251 10.6736 20.0656 10.6258 19.1906C10.8678 19.3369 11.0633 19.6281 11.4516 19.6281C11.6949 19.6281 12.034 19.0935 12.2773 18.8994C12.2295 19.2876 12.1324 20.3076 12.1324 20.9884C12.1324 21.4751 12.1803 22.2039 12.3266 22.3994C12.375 22.4718 12.4722 22.4961 12.5936 22.4961C12.7151 22.4961 12.8611 22.4718 13.0074 22.4472L13.1045 22.7876C13.0955 22.791 13.0864 22.794 13.0773 22.7972L13.0799 22.7794L12.25 22.8806L11.3121 22.9162L11.2465 22.9804L11.2164 22.9927L11.1932 23.4193L11.6266 23.7351L12.8611 23.7173L12.9582 23.6134L13.0553 24.1001C12.7489 24.1237 12.4882 24.1358 12.2663 24.1358ZM10.9648 19.773C11.0633 20.6972 11.1111 21.7185 11.2082 22.4964C11.3053 22.5449 11.427 22.5692 11.5546 22.5692C11.6823 22.5692 11.8158 22.5449 11.9369 22.4964C11.8891 21.6214 11.8891 20.6001 11.8398 19.7251C11.5979 20.0164 11.5486 20.1626 11.4023 20.1626C11.3053 20.1626 11.2082 20.0164 10.9648 19.773ZM12.0426 14.5569C11.9276 14.5569 11.8111 14.5476 11.6949 14.5244C10.4795 14.281 10.7229 10.781 10.5273 9.37007C10.8199 9.51636 11.1604 9.71049 11.3545 9.71049C11.5486 9.71049 11.9861 9.37007 12.2295 9.17593C12.2295 9.56557 12.1324 10.4406 12.1324 11.2664C12.1324 12.0935 12.2295 12.8701 12.4715 12.9685C12.5699 13.0164 12.8611 13.0164 13.1045 13.0164C13.0553 13.0656 13.1045 13.1626 13.1045 13.3089C13.0963 13.3103 13.0881 13.3115 13.0799 13.3129V13.2611L12.5836 13.2789L11.4229 13.3636H11.2246L11.1809 13.5482L11.1535 13.8025L11.3094 13.9023L11.5637 14.0294L11.9314 14.1566L13.0799 14.0568V14.0402C13.0881 14.0393 13.0963 14.0386 13.1045 14.0376C13.0553 14.1347 13.0553 14.3781 13.0553 14.4259C12.76 14.4633 12.4078 14.5569 12.0426 14.5569ZM10.9649 9.95391C11.1111 10.9752 11.0633 12.1414 11.1604 13.1135C11.4024 13.1135 11.6949 13.1135 11.8891 13.0656C11.8891 12.8701 11.8399 12.6281 11.8399 12.5311V9.90605C11.5979 10.1002 11.5486 10.2943 11.4024 10.2943C11.3545 10.2943 11.2561 10.148 10.9649 9.95391ZM39.0479 14.4415C38.6787 14.4415 38.2437 14.3625 37.9449 14.3289C37.9449 14.2811 37.8957 14.0855 37.8957 13.9406L38.2047 14.0459L38.8281 14.1156L39.3818 14.0391L39.6826 13.8148L39.8221 13.3801L39.8289 13.2406L37.8957 13.1627V12.8223C38.0109 12.8426 38.1108 12.8526 38.1979 12.8526C38.7362 12.8526 38.7775 12.4706 38.8199 11.801C38.8678 10.8289 38.7707 9.80762 38.6736 8.93398C38.6736 8.88477 38.6736 8.83555 38.7229 8.83555C38.8678 8.83555 39.1604 9.41934 39.6457 9.41934C39.8891 9.41934 40.1324 9.27305 40.4715 8.98184C40.1803 10.3914 40.4715 13.8914 39.4994 14.3781C39.3764 14.4245 39.2192 14.4415 39.0479 14.4415ZM39.0633 12.8701C39.2056 12.9423 39.348 12.9872 39.548 12.9872C39.6208 12.9872 39.7012 12.9813 39.792 12.9686C39.9383 12.0443 39.8891 10.7318 39.9383 9.75977C39.7428 9.95391 39.6457 10.051 39.5486 10.051C39.4037 10.0031 39.3066 9.90605 39.1111 9.6627C39.1312 10.097 39.143 10.5474 39.1435 10.9942C39.1442 11.6474 39.1209 12.293 39.0633 12.8701ZM38.2402 24.2246L37.9449 24.0031C38.2659 24.0373 38.5193 24.0554 38.721 24.0554C39.375 24.0554 39.4861 23.8655 39.5979 23.4193L39.5486 23.3223C39.3227 23.3223 39.1078 23.3276 38.9035 23.3276C38.492 23.3276 38.1239 23.3061 37.7986 23.1773L39.6895 23.2238L39.6744 23.4193L39.4652 24.0222L39.1152 24.1753L38.2402 24.2246ZM38.8281 14.1156L38.2047 14.0459L37.8957 13.9406C38.1737 13.9634 38.5395 14.0193 38.8676 14.0193C39.2287 14.0193 39.5439 13.9516 39.6457 13.6973C39.6949 13.6002 39.6949 13.4047 39.6949 13.3568C39.0141 13.3568 38.3824 13.309 37.8957 13.1627L39.8289 13.2406L39.8221 13.3801L39.6826 13.8148L39.3818 14.0391L38.8281 14.1156ZM11.9314 14.1566L11.5637 14.0294L11.3094 13.9023L11.1535 13.8025L11.1809 13.5482L11.2246 13.3636H11.4229L12.5836 13.2789L13.0799 13.2611V13.3129C12.5043 13.406 11.9274 13.4547 11.2561 13.5031V13.7465C11.5922 14.0201 11.8702 14.1032 12.2591 14.1032C12.4846 14.1032 12.7472 14.0752 13.0799 14.0402V14.0568L11.9314 14.1566ZM11.6266 23.7351L11.1932 23.4193L11.2164 22.9927L11.2465 22.9804L11.3121 22.9162L12.25 22.8806L13.0799 22.7794L13.0773 22.7972C12.5502 22.9816 11.9746 22.9818 11.3053 22.9818L11.2561 23.0789C11.3671 23.485 11.4782 23.6669 12.1428 23.6669C12.3532 23.6669 12.6193 23.6487 12.9582 23.6134L12.8611 23.7173L11.6266 23.7351Z" fill="#06000F"/>
<path d="M31.3825 21.7195C30.9929 21.6225 30.5567 21.6225 30.1179 21.6225C29.5833 21.6225 28.9995 21.7195 28.5142 21.7195C28.6605 20.6012 28.562 19.8232 28.9995 19.0453C28.6112 18.9004 28.5142 18.6078 28.5142 18.3166C28.5142 18.024 28.7083 17.7328 28.8054 17.4894H28.9038C28.9038 17.685 28.9517 18.024 29.0487 18.0732C29.2912 18.2466 29.8786 18.2715 30.3021 18.2715C30.4733 18.2715 30.6178 18.2674 30.7017 18.2674C31.1392 18.2674 31.5767 18.4615 31.5767 19.532C31.5767 20.8445 31.3825 20.8924 31.3825 21.7195ZM30.07 20.7953C30.4583 20.7953 30.7987 20.7953 31.1392 20.8924C31.1392 19.9695 31.09 19.532 30.7987 19.2887C30.5567 19.0945 30.1179 19.0945 29.2921 19.0945C29.1458 19.532 29.0487 19.9695 29.0487 20.2607C29.0487 20.3578 29.098 20.8445 29.098 20.8924C29.3892 20.8445 29.7296 20.7953 30.07 20.7953ZM21.6112 21.7195C21.1245 21.6225 20.687 21.6225 20.2017 21.6225C19.7642 21.6225 19.2296 21.6703 18.7921 21.7195C18.84 20.6504 18.7921 19.677 19.3267 19.0453C18.9384 18.9004 18.7921 18.657 18.7921 18.3645C18.7921 18.0732 18.9384 17.8299 19.0833 17.5387H19.1804C19.2775 18.024 19.473 18.1703 20.2017 18.2195C21.1737 18.3166 21.8546 18.3645 21.8546 19.677C21.8546 20.3578 21.6112 20.9895 21.6112 21.7195ZM20.348 20.8445C20.7362 20.8445 21.0275 20.8924 21.3679 20.9416C21.2708 20.0174 21.32 19.6291 21.1245 19.435C20.9304 19.1916 20.5421 19.1916 19.57 19.0945C19.3745 19.5799 19.2775 20.1637 19.2775 20.9416C19.6179 20.8924 20.0075 20.8445 20.348 20.8445ZM22.8745 19.7262H22.7788C22.7788 19.5799 22.7788 19.2887 22.7296 19.2395C22.6804 19.1424 22.5833 18.9482 22.437 18.7541C22.2429 18.5586 22.195 18.3166 22.195 18.1225C22.195 17.8299 22.5355 17.4895 22.6804 17.2461L22.7788 17.2953V17.7328C22.8745 18.1225 23.3612 18.3166 23.3612 18.8512C23.3612 19.0945 23.07 19.435 22.8745 19.7262ZM32.7429 19.6291L32.598 19.5799C32.598 19.435 32.598 19.0453 32.5487 18.9961C32.5009 18.9004 32.2575 18.7541 32.1605 18.657C31.9663 18.5107 31.9171 18.2674 31.9171 18.0732C31.9171 17.7807 32.2083 17.4416 32.4025 17.1982H32.5009C32.4517 17.3924 32.4025 17.5879 32.4517 17.685C32.5487 18.1703 33.1325 18.0732 33.1325 18.6078C33.1325 18.7541 32.8892 19.2887 32.7429 19.6291ZM17.0421 15.7887C16.8958 15.7887 16.8958 15.6916 16.945 15.6916C17.0421 15.5453 17.0421 15.399 17.0421 15.2049C17.0421 15.0107 16.945 14.6225 16.945 14.282C16.945 13.8924 17.3825 13.4549 17.5275 13.1637C17.1392 12.9695 16.945 12.6291 16.945 12.2887C16.945 11.9975 17.0421 11.6557 17.3333 11.4629H17.4304C17.2855 12.0453 17.723 12.3857 18.0142 12.3857C18.1605 12.0453 18.3054 11.802 18.5966 11.4629H18.7429C18.695 12.0945 18.9384 12.3365 19.2296 12.4828C19.6671 12.7262 20.1046 12.8232 20.1046 13.4057C20.1046 13.8924 19.8612 14.4762 19.7642 14.8645C19.57 15.4961 19.3745 15.7395 18.8892 15.7395C18.7429 15.7395 18.5487 15.6916 18.2575 15.6916C18.1112 15.6916 17.9171 15.7395 17.82 15.7395H17.6737C17.82 15.4482 17.8679 15.2049 17.965 14.9137H18.695C18.8892 14.9137 19.1804 14.9137 19.2775 14.8166C19.473 14.6703 19.6179 14.2328 19.6179 14.0387C19.6179 13.31 18.6458 13.1145 18.062 12.8232C17.8679 13.2115 17.4796 13.6012 17.4796 13.9416C17.4796 14.1357 17.5767 14.427 17.5767 14.6703C17.5767 15.2541 17.2362 15.5453 17.0421 15.7887ZM20.0554 15.7395C20.1525 15.3512 20.1525 15.157 20.2509 15.06C20.348 14.9615 20.445 14.9615 20.8825 14.8166C20.8333 14.4762 20.8333 14.1836 20.8333 13.9416C20.8333 13.6982 20.8333 13.4549 20.9304 13.1637C20.445 13.0174 20.3958 12.6291 20.3958 12.1916C20.3958 11.9975 20.445 11.7541 20.4929 11.5107H20.59C20.7362 12.0945 20.9304 12.2395 21.223 12.2395C21.465 12.2395 21.7083 12.1916 22.0009 12.1916C22.195 12.1916 22.3892 12.1916 22.5833 12.2887C23.0208 12.532 22.6804 14.5254 23.1179 15.0107C23.0208 15.2541 22.8267 15.5453 22.5833 15.6916H22.4862C22.4862 15.4482 22.5355 14.8645 22.5355 14.282C22.5355 13.7475 22.4862 13.2607 22.2921 13.1637C22.1786 13.1149 22.0651 13.0987 21.9517 13.0987C21.7247 13.0987 21.4978 13.1637 21.2708 13.1637C21.223 13.31 21.1245 13.4549 21.1245 13.6982C21.1245 14.282 21.5142 14.9137 21.5142 15.2049C21.5142 15.5945 21.1737 15.7395 20.0554 15.7395ZM30.07 15.6916H29.973C29.9237 15.399 29.9237 15.1078 29.9237 14.8645C29.9237 14.282 29.973 13.7953 30.0208 13.2115C29.2429 13.2115 29.0487 12.9695 29.0487 12.3365C29.0487 12.1424 29.098 11.8512 29.195 11.6078H29.2921C29.34 11.7049 29.3892 11.899 29.4384 11.9975C29.4862 12.1424 29.6804 12.2395 29.9237 12.2395C30.2642 12.2887 30.6046 12.2887 30.6046 12.6291C30.6046 13.0666 30.5075 13.2115 30.4105 13.4057C30.3612 13.552 30.312 13.6982 30.312 13.8445C30.312 14.1357 30.312 14.6225 30.4583 14.8166C30.5075 14.8645 30.5075 14.9137 30.6046 14.9615V15.06C30.4583 15.399 30.2642 15.5453 30.07 15.6916ZM28.4171 15.6916H28.32C28.32 15.4482 28.3692 14.8645 28.3692 14.282C28.3692 13.7475 28.32 13.5041 28.2708 13.4057C28.1803 13.2475 28.0159 13.2054 27.8216 13.2054C27.5994 13.2054 27.3381 13.2607 27.1046 13.2607C26.7642 13.2607 26.3267 12.9203 26.3267 12.3365C26.3267 12.1424 26.3267 11.899 26.473 11.7049H26.57C26.6671 12.0453 26.7642 12.2887 27.0075 12.2887H27.9796C28.223 12.2887 28.465 12.3365 28.5142 12.4336C28.9517 13.2115 28.562 14.4762 28.9995 15.0107C28.8546 15.2541 28.6605 15.5453 28.4171 15.6916ZM31.6148 15.6879C31.4292 15.6879 31.2268 15.6594 31.0421 15.6424V15.4961L31.3825 15.3019C31.3333 15.06 31.3333 14.8166 31.3333 14.6225C31.3333 14.3791 31.3825 14.1357 31.5767 13.9894C31.6737 13.8924 31.7708 13.8445 31.9663 13.7475C31.5767 13.5041 31.1392 13.0666 31.1392 12.4336C31.1392 12.1916 31.2362 11.8019 31.4796 11.6078H31.5767C31.4796 12.7262 32.4517 13.1637 33.1804 13.5041C33.7163 12.774 32.9384 12.8232 32.9384 12.2394C32.9384 11.9975 33.2296 11.7049 33.4237 11.5107L33.5208 11.5586C33.473 11.7049 33.473 11.8019 33.5208 11.9482C33.57 12.0945 33.7642 12.1916 33.8612 12.2394C33.9583 12.3857 34.0075 12.532 34.0075 12.6769C34.0075 13.0666 33.6671 13.4057 33.4237 13.6012C33.4183 13.5957 33.4152 13.5933 33.4143 13.5933C33.4063 13.5933 33.5316 13.7528 33.6179 13.7953C33.9583 13.9894 34.1046 14.282 34.1046 14.6225C34.1046 14.9137 33.9583 15.3512 33.57 15.6424H33.4237C33.5208 15.4482 33.5208 15.2541 33.5208 15.1078C33.5208 14.4762 32.695 14.1357 32.1112 13.8445C32.0634 13.9894 31.8679 14.1357 31.8679 14.4269C31.8679 14.5732 32.2575 14.9137 32.2575 15.1078C32.2575 15.5856 31.966 15.6879 31.6148 15.6879ZM24.09 15.6424H23.945C23.9929 15.2541 24.0421 14.6703 24.0421 14.2328C24.0421 13.8445 24.09 13.5041 24.1392 13.1637C23.3134 13.1637 23.1671 12.9695 23.1671 12.3365C23.1671 12.0945 23.215 11.8512 23.2642 11.5586H23.3612C23.4105 11.7049 23.4583 11.899 23.5075 11.9482C23.6046 12.0945 23.7987 12.1916 23.9929 12.2394C24.3333 12.2887 24.7216 12.3365 24.7216 12.5799C24.7216 13.0174 24.5288 13.2115 24.4796 13.3578C24.4796 13.5041 24.4304 13.6982 24.4304 13.7953C24.4304 14.1357 24.4304 14.6225 24.5288 14.7674C24.5767 14.8644 24.6259 14.9137 24.7216 14.9137V15.0107C24.5288 15.399 24.4304 15.4961 24.09 15.6424Z" fill="#1C1B1A"/>
<path d="M38.721 24.0571C38.5193 24.0571 38.2659 24.0391 37.9449 24.0049L37.7986 23.1791C38.1239 23.3079 38.4919 23.3293 38.9035 23.3293C39.1078 23.3293 39.3227 23.324 39.5486 23.324L39.5979 23.4211C39.486 23.8673 39.375 24.0571 38.721 24.0571ZM38.8676 14.0211C38.5395 14.0211 38.1737 13.9652 37.8957 13.9424V13.1645C38.3824 13.3107 39.0141 13.3586 39.6949 13.3586C39.6949 13.4064 39.6949 13.602 39.6457 13.699C39.5439 13.9533 39.2287 14.0211 38.8676 14.0211ZM12.2591 14.1049C11.8702 14.1049 11.5922 14.0218 11.2561 13.7482V13.5049C11.9273 13.4564 12.5043 13.4078 13.0799 13.3147V14.042C12.7472 14.077 12.4845 14.1049 12.2591 14.1049ZM12.1428 23.6687C11.4781 23.6687 11.3671 23.4867 11.2561 23.0807L11.3053 22.9836C11.9746 22.9836 12.5502 22.9835 13.0773 22.799L12.9582 23.6152C12.6193 23.6505 12.3531 23.6687 12.1428 23.6687ZM25.6457 25.5607C25.6457 22.7402 25.5486 19.824 25.5486 16.9557C25.5486 15.2057 25.5979 13.4557 25.6949 11.8027C25.7428 10.4424 26.0832 9.7123 26.8133 9.17773C27.3479 8.8373 28.1736 8.78945 29.1457 8.78945C30.167 8.78945 31.1391 8.88652 32.0141 8.88652C33.0832 8.88652 33.9582 8.69238 34.6391 8.30273H34.7854V20.1645C34.7854 20.4112 34.7926 20.8806 34.7928 21.3753C34.7931 22.1473 34.7761 22.9816 34.6869 23.1299C34.4941 23.4211 33.9582 23.5182 33.6178 23.6152C32.6133 23.9382 31.5029 23.9572 30.4245 23.9572C30.3476 23.9572 30.2709 23.9572 30.1943 23.957C30.0994 23.9569 30.0044 23.9566 29.9103 23.9566C28.103 23.9566 26.454 24.0299 25.6457 25.5607ZM30.1178 21.6233C30.5566 21.6233 30.9928 21.6233 31.3824 21.7204C31.3824 20.8932 31.5766 20.8454 31.5766 19.5329C31.5766 18.4624 31.1391 18.2682 30.7016 18.2682C30.6177 18.2682 30.4732 18.2723 30.302 18.2723C29.8785 18.2723 29.2911 18.2474 29.0486 18.0741C28.9516 18.0249 28.9037 17.6858 28.9037 17.4903H28.8053C28.7082 17.7336 28.5141 18.0249 28.5141 18.3174C28.5141 18.6086 28.6111 18.9012 28.9994 19.0461C28.5619 19.8241 28.6604 20.602 28.5141 21.7204C28.9994 21.7204 29.5832 21.6233 30.1178 21.6233ZM32.4023 17.1991C32.2082 17.4424 31.917 17.7815 31.917 18.0741C31.917 18.2682 31.9662 18.5116 32.1604 18.6579C32.2574 18.7549 32.5008 18.9012 32.5486 18.9969C32.5979 19.0461 32.5979 19.4358 32.5979 19.5807L32.7428 19.6299C32.8891 19.2895 33.1324 18.7549 33.1324 18.6086C33.1324 18.0741 32.5486 18.1711 32.4516 17.6858C32.4023 17.5887 32.4516 17.3932 32.5008 17.1991H32.4023ZM29.1949 11.6086C29.0979 11.852 29.0486 12.1432 29.0486 12.3373C29.0486 12.9703 29.2428 13.2123 30.0207 13.2123C29.9728 13.7961 29.9236 14.2828 29.9236 14.8652C29.9236 15.1086 29.9236 15.3998 29.9728 15.6924H30.0699C30.2641 15.5461 30.4582 15.3998 30.6045 15.0607V14.9623C30.5074 14.9145 30.5074 14.8652 30.4582 14.8174C30.3119 14.6232 30.3119 14.1365 30.3119 13.8453C30.3119 13.699 30.3611 13.5527 30.4104 13.4064C30.5074 13.2123 30.6045 13.0674 30.6045 12.6299C30.6045 12.2895 30.2641 12.2895 29.9236 12.2402C29.6803 12.2402 29.4861 12.1432 29.4383 11.9982C29.3891 11.8998 29.3398 11.7057 29.292 11.6086H29.1949ZM27.8215 13.2062C28.0158 13.2062 28.1802 13.2483 28.2707 13.4064C28.3199 13.5049 28.3691 13.7482 28.3691 14.2828C28.3691 14.8652 28.3199 15.449 28.3199 15.6924H28.417C28.6603 15.5461 28.8545 15.2549 28.9994 15.0115C28.5619 14.477 28.9516 13.2123 28.5141 12.4344C28.4648 12.3373 28.2229 12.2895 27.9795 12.2895H27.0074C26.7641 12.2895 26.667 12.0461 26.5699 11.7057H26.4728C26.3266 11.8998 26.3266 12.1432 26.3266 12.3373C26.3266 12.9211 26.7641 13.2615 27.1045 13.2615C27.338 13.2615 27.5993 13.2062 27.8215 13.2062ZM31.4795 11.6086C31.2361 11.8027 31.1391 12.1924 31.1391 12.4344C31.1391 13.0674 31.5766 13.5049 31.9662 13.7482C31.7707 13.8453 31.6736 13.8932 31.5766 13.9902C31.3824 14.1365 31.3332 14.3799 31.3332 14.6232C31.3332 14.8174 31.3332 15.0607 31.3824 15.3027L31.042 15.4969V15.6432C31.2267 15.6602 31.4291 15.6887 31.6147 15.6887C31.9659 15.6887 32.2574 15.5864 32.2574 15.1086C32.2574 14.9145 31.8678 14.574 31.8678 14.4277C31.8678 14.1365 32.0633 13.9902 32.1111 13.8453C32.6949 14.1365 33.5207 14.477 33.5207 15.1086C33.5207 15.2549 33.5207 15.449 33.4236 15.6432H33.5699C33.9582 15.352 34.1045 14.9145 34.1045 14.6232C34.1045 14.2828 33.9582 13.9902 33.6178 13.7961C33.5315 13.7536 33.4062 13.5941 33.4142 13.5941C33.4152 13.5941 33.4182 13.5965 33.4236 13.602C33.667 13.4064 34.0074 13.0674 34.0074 12.6777C34.0074 12.5328 33.9582 12.3865 33.8611 12.2402C33.7641 12.1924 33.5699 12.0953 33.5207 11.949C33.4728 11.8027 33.4728 11.7057 33.5207 11.5594L33.4236 11.5115C33.2295 11.7057 32.9383 11.9982 32.9383 12.2402C32.9383 12.824 33.7162 12.7748 33.1803 13.5049C32.4516 13.1645 31.4795 12.727 31.5766 11.6086H31.4795ZM25.2574 25.5115C24.6736 24.2961 23.4103 23.9078 21.7082 23.9078C21.1736 23.9078 20.542 24.0049 19.7641 24.0049C18.3545 24.0049 16.5553 23.7615 16.2641 23.1791C16.1709 23.0299 16.1418 22.6457 16.1415 22.1929C16.1409 21.4628 16.2148 20.5543 16.2148 20.1645V8.35196C16.9449 8.69239 17.4303 8.93575 18.6457 8.93575C20.1523 8.93575 20.8824 8.78946 21.9516 8.78946C22.8744 8.78946 23.7494 8.88653 24.3332 9.37188C24.7215 9.66446 25.0141 10.2482 25.1603 10.8307C25.27 11.3813 25.3003 12.0418 25.3004 12.7308C25.3007 13.5622 25.2574 14.4349 25.2574 15.2057V25.5115ZM20.2016 21.6232C20.6869 21.6232 21.1244 21.6232 21.6111 21.7203C21.6111 20.9902 21.8545 20.3586 21.8545 19.6777C21.8545 18.3652 21.1736 18.3174 20.2016 18.2203C19.4728 18.1711 19.2773 18.0248 19.1803 17.5395H19.0832C18.9383 17.8307 18.792 18.074 18.792 18.3652C18.792 18.6578 18.9383 18.9012 19.3266 19.0461C18.792 19.6777 18.8398 20.6512 18.792 21.7203C19.2295 21.6711 19.7641 21.6232 20.2016 21.6232ZM22.6803 17.2469C22.5353 17.4902 22.1949 17.8307 22.1949 18.1232C22.1949 18.3174 22.2428 18.5594 22.4369 18.7549C22.5832 18.949 22.6803 19.1432 22.7295 19.2402C22.7787 19.2895 22.7787 19.5807 22.7787 19.727H22.8744C23.0699 19.4357 23.3611 19.0953 23.3611 18.852C23.3611 18.3174 22.8744 18.1232 22.7787 17.7336V17.2961L22.6803 17.2469ZM17.3332 11.4637C17.042 11.6564 16.9449 11.9982 16.9449 12.2895C16.9449 12.6299 17.1391 12.9703 17.5273 13.1645C17.3824 13.4557 16.9449 13.8932 16.9449 14.2828C16.9449 14.6232 17.042 15.0115 17.042 15.2057C17.042 15.3998 17.042 15.5461 16.9449 15.6924C16.8957 15.6924 16.8957 15.7895 17.042 15.7895C17.2361 15.5461 17.5766 15.2549 17.5766 14.6711C17.5766 14.4277 17.4795 14.1365 17.4795 13.9424C17.4795 13.602 17.8678 13.2123 18.0619 12.824C18.6457 13.1152 19.6178 13.3107 19.6178 14.0395C19.6178 14.2336 19.4728 14.6711 19.2773 14.8174C19.1803 14.9145 18.8891 14.9145 18.6949 14.9145H17.9648C17.8678 15.2057 17.8199 15.449 17.6736 15.7402H17.8199C17.917 15.7402 18.1111 15.6924 18.2574 15.6924C18.5486 15.6924 18.7428 15.7402 18.8891 15.7402C19.3744 15.7402 19.5699 15.4969 19.7641 14.8652C19.8611 14.477 20.1045 13.8932 20.1045 13.4064C20.1045 12.824 19.667 12.727 19.2295 12.4836C18.9383 12.3373 18.6949 12.0953 18.7428 11.4637H18.5965C18.3053 11.8027 18.1604 12.0461 18.0141 12.3865C17.7229 12.3865 17.2854 12.0461 17.4303 11.4637H17.3332ZM20.4928 11.5115C20.4449 11.7549 20.3957 11.9982 20.3957 12.1924C20.3957 12.6299 20.4449 13.0182 20.9303 13.1645C20.8332 13.4557 20.8332 13.699 20.8332 13.9424C20.8332 14.1844 20.8332 14.477 20.8824 14.8174C20.4449 14.9623 20.3479 14.9623 20.2508 15.0607C20.1523 15.1578 20.1523 15.352 20.0553 15.7402C21.1736 15.7402 21.5141 15.5953 21.5141 15.2057C21.5141 14.9145 21.1244 14.2828 21.1244 13.699C21.1244 13.4557 21.2228 13.3107 21.2707 13.1645C21.4977 13.1645 21.7246 13.0994 21.9516 13.0994C22.065 13.0994 22.1785 13.1157 22.292 13.1645C22.4861 13.2615 22.5353 13.7482 22.5353 14.2828C22.5353 14.8652 22.4861 15.449 22.4861 15.6924H22.5832C22.8266 15.5461 23.0207 15.2549 23.1178 15.0115C22.6803 14.5262 23.0207 12.5328 22.5832 12.2895C22.3891 12.1924 22.1949 12.1924 22.0008 12.1924C21.7082 12.1924 21.4648 12.2402 21.2228 12.2402C20.9303 12.2402 20.7361 12.0953 20.5898 11.5115H20.4928ZM23.2641 11.5594C23.2148 11.852 23.167 12.0953 23.167 12.3373C23.167 12.9703 23.3133 13.1645 24.1391 13.1645C24.0898 13.5049 24.042 13.8453 24.042 14.2336C24.042 14.6711 23.9928 15.2549 23.9449 15.6432H24.0898C24.4303 15.4969 24.5287 15.3998 24.7215 15.0115V14.9145C24.6258 14.9145 24.5766 14.8652 24.5287 14.7682C24.4303 14.6232 24.4303 14.1365 24.4303 13.7961C24.4303 13.699 24.4795 13.5049 24.4795 13.3586C24.5287 13.2123 24.7215 13.0182 24.7215 12.5807C24.7215 12.3373 24.3332 12.2895 23.9928 12.2402C23.7986 12.1924 23.6045 12.0953 23.5074 11.949C23.4582 11.8998 23.4104 11.7057 23.3611 11.5594H23.2641ZM39.2998 22.9593C39.1723 22.9593 39.0387 22.935 38.917 22.8865C39.0141 22.0115 39.0141 20.9424 39.0633 20.1166C39.2574 20.3586 39.3545 20.5049 39.4516 20.5049C39.5486 20.5049 39.6457 20.3586 39.9383 20.1645C39.8412 21.0395 39.792 22.0594 39.6457 22.8865C39.5486 22.935 39.4273 22.9593 39.2998 22.9593ZM11.5546 22.571C11.427 22.571 11.3053 22.5467 11.2082 22.4982C11.1111 21.7203 11.0633 20.699 10.9648 19.7748C11.2082 20.0182 11.3053 20.1645 11.4023 20.1645C11.5486 20.1645 11.5979 20.0182 11.8398 19.727C11.8891 20.602 11.8891 21.6232 11.9369 22.4982C11.8158 22.5467 11.6823 22.571 11.5546 22.571ZM21.3678 20.9424C21.0273 20.8932 20.7361 20.8453 20.3478 20.8453C20.0074 20.8453 19.6178 20.8932 19.2773 20.9424C19.2773 20.1645 19.3744 19.5807 19.5699 19.0953C20.542 19.1924 20.9303 19.1924 21.1244 19.4357C21.3199 19.6299 21.2707 20.0182 21.3678 20.9424ZM31.1391 20.8932C30.7986 20.7961 30.4582 20.7961 30.0699 20.7961C29.7295 20.7961 29.3891 20.8453 29.0978 20.8932C29.0978 20.8453 29.0486 20.3586 29.0486 20.2615C29.0486 19.9703 29.1457 19.5328 29.292 19.0953C30.1178 19.0953 30.5566 19.0953 30.7986 19.2895C31.0898 19.5328 31.1391 19.9703 31.1391 20.8932ZM11.1604 13.1152C11.0633 12.1432 11.1111 10.977 10.9648 9.95567C11.2561 10.1498 11.3545 10.2961 11.4023 10.2961C11.5486 10.2961 11.5979 10.102 11.8398 9.90782V12.5328C11.8398 12.6299 11.8891 12.8719 11.8891 13.0674C11.6949 13.1152 11.4023 13.1152 11.1604 13.1152ZM39.548 12.989C39.348 12.989 39.2056 12.944 39.0633 12.8719C39.1208 12.2948 39.1442 11.6492 39.1435 10.9959C39.1431 10.5492 39.1312 10.0988 39.1111 9.66446C39.3066 9.90781 39.4037 10.0049 39.5486 10.0527C39.6457 10.0527 39.7428 9.95567 39.9383 9.76153C39.8891 10.7336 39.9383 12.0461 39.792 12.9703C39.7011 12.9831 39.6208 12.989 39.548 12.989ZM25.5486 28.477C24.917 28.477 24.2361 28.3307 24.042 28.0395C23.8957 27.8453 23.8957 27.4557 23.8479 27.1645C24.2853 27.4557 24.9648 27.6498 25.4516 27.6498C26.1324 27.6498 26.667 27.5049 27.1523 27.1645C27.0553 27.5049 27.0074 28.1365 26.7148 28.2828C26.4728 28.4277 26.0354 28.477 25.5486 28.477Z" fill="white"/>
</g>
<defs>
<clipPath id="clip0_448_3701">
<rect width="50" height="50" fill="white" transform="translate(0.5)"/>
</clipPath>
</defs>
</svg>
